<svg width="151" height="34" viewBox="0 0 151 34" fill="none" xmlns="http://www.w3.org/2000/svg">
<path d="M13.5215 10.941C13.8649 10.4115 14.6398 10.4115 14.9831 10.941L27.563 30.3426C27.9387 30.9222 27.5228 31.6876 26.8322 31.6876H22.0467C21.7517 31.6876 21.4768 31.5383 21.3162 31.2909L14.9829 21.5344C14.6395 21.0054 13.8652 21.0054 13.5218 21.5344L7.18849 31.2909C7.02786 31.5383 6.75292 31.6876 6.45793 31.6876H1.6725C0.981838 31.6876 0.565918 30.9222 0.941682 30.3426L13.5215 10.941Z" fill="#F9F6EE"/>
<path d="M1.30637 0.0134331C0.55139 0.0138288 -0.0671602 0.627683 0.00586807 1.37918C0.322722 4.63974 1.76131 7.70635 4.09864 10.0414C6.75981 12.7 10.368 14.1924 14.1295 14.1905C17.891 14.1885 21.4976 12.6922 24.156 10.0309C26.4909 7.69339 27.9263 4.62527 28.2397 1.36438C28.312 0.612809 27.6928 -0.000395421 26.9378 1.91316e-07L24.3299 0.00136671C23.575 0.00176233 22.9741 0.617786 22.8582 1.36387C22.5723 3.20465 21.7097 4.92096 20.3768 6.25533C18.7197 7.9143 16.4715 8.84699 14.1267 8.84822C11.782 8.84945 9.53277 7.91911 7.87392 6.26188C6.53965 4.92891 5.67522 3.2135 5.38738 1.37303C5.27071 0.627065 4.66919 0.0116705 3.91421 0.0120662L1.30637 0.0134331Z" fill="#F9F6EE"/>
<path d="M9.86371 0.674074C9.48623 0.673256 9.17476 0.980043 9.22515 1.35418C9.37074 2.43509 9.86551 3.4462 10.6437 4.22785C11.5837 5.17196 12.8601 5.70397 14.1923 5.70686C15.5245 5.70975 16.8033 5.18327 17.7473 4.24325C18.5289 3.46498 19.0281 2.45603 19.1783 1.37576C19.2304 1.00184 18.9202 0.693709 18.5427 0.69289L9.86371 0.674074Z" fill="#F9F6EE"/>
<path d="M36.8672 26.3475H37.894L39.9722 31.748H38.884L38.4626 30.582H36.3026L35.873 31.748H34.7808L36.8672 26.3475ZM36.6381 29.6778H38.1272L37.3867 27.5831H37.3744L36.6381 29.6778Z" fill="#CCCCCC"/>
<path d="M44.1141 26.2493C44.4386 26.2493 44.7209 26.2861 44.9609 26.3598C45.2036 26.4307 45.3959 26.5071 45.5377 26.5889C45.6823 26.6707 45.7696 26.7239 45.7996 26.7485L45.3005 27.579C45.2568 27.5435 45.1818 27.4944 45.0755 27.4317C44.9718 27.3662 44.8464 27.309 44.6991 27.2599C44.5518 27.208 44.3923 27.1821 44.2205 27.1821C43.9723 27.1821 43.7732 27.2299 43.6232 27.3253C43.4759 27.4181 43.4023 27.5531 43.4023 27.7304C43.4023 27.8504 43.4418 27.9581 43.5209 28.0536C43.6 28.1463 43.7159 28.2336 43.8686 28.3154C44.0241 28.3972 44.2136 28.4832 44.4373 28.5732C44.6336 28.6495 44.8205 28.7382 44.9977 28.8391C45.1777 28.94 45.3373 29.0587 45.4764 29.195C45.6182 29.3314 45.73 29.4896 45.8118 29.6696C45.8964 29.8496 45.9387 30.0556 45.9387 30.2874C45.9387 30.5465 45.8855 30.7729 45.7791 30.9665C45.6755 31.1602 45.5309 31.3225 45.3455 31.4534C45.1627 31.5843 44.9527 31.6825 44.7155 31.748C44.4782 31.8134 44.2286 31.8462 43.9668 31.8462C43.6123 31.8462 43.2932 31.8053 43.0095 31.7234C42.7286 31.6389 42.5009 31.5489 42.3263 31.4534C42.1518 31.3579 42.0495 31.2966 42.0195 31.2693L42.5432 30.406C42.5759 30.4306 42.6373 30.4701 42.7273 30.5247C42.82 30.5792 42.9318 30.6352 43.0627 30.6924C43.1964 30.7497 43.3409 30.7988 43.4964 30.8397C43.6545 30.8806 43.8154 30.9011 43.9791 30.9011C44.2736 30.9011 44.4959 30.8397 44.6459 30.717C44.7959 30.5942 44.8709 30.4347 44.8709 30.2383C44.8709 30.091 44.8232 29.9615 44.7277 29.8496C44.6323 29.7378 44.4973 29.6355 44.3227 29.5428C44.1509 29.4473 43.945 29.3505 43.705 29.2523C43.465 29.1514 43.2414 29.0341 43.0341 28.9005C42.8295 28.7641 42.6645 28.5977 42.5391 28.4013C42.4136 28.2022 42.3509 27.9581 42.3509 27.669C42.3509 27.3826 42.4313 27.133 42.5923 26.9203C42.7559 26.7075 42.9713 26.5425 43.2386 26.4253C43.5086 26.308 43.8004 26.2493 44.1141 26.2493Z" fill="#CCCCCC"/>
<path d="M46.2811 28.3891H46.8865V27.0103H47.9175V28.3891H48.7111V29.2523H47.9175V30.4674C47.9175 30.6283 47.9434 30.7538 47.9952 30.8438C48.047 30.9311 48.1288 30.9747 48.2407 30.9747C48.3252 30.9747 48.3947 30.9584 48.4493 30.9256C48.5038 30.8902 48.5366 30.8656 48.5475 30.852L48.9157 31.5966C48.8993 31.613 48.8461 31.6416 48.7561 31.6825C48.6688 31.7234 48.5557 31.7602 48.4166 31.793C48.2802 31.8284 48.1261 31.8462 47.9543 31.8462C47.6461 31.8462 47.3911 31.7575 47.1893 31.5802C46.9875 31.4002 46.8865 31.122 46.8865 30.7456V29.2523H46.2811V28.3891Z" fill="#CCCCCC"/>
<path d="M49.3295 31.748V28.3891H50.3646V31.748H49.3295ZM49.8614 27.5217C49.6896 27.5217 49.5436 27.4617 49.4236 27.3417C49.3064 27.2217 49.2477 27.0785 49.2477 26.9121C49.2477 26.7457 49.3077 26.6012 49.4277 26.4784C49.5477 26.3557 49.6923 26.2943 49.8614 26.2943C49.9732 26.2943 50.0755 26.323 50.1682 26.3802C50.2609 26.4348 50.3359 26.5084 50.3932 26.6012C50.4505 26.6939 50.4791 26.7976 50.4791 26.9121C50.4791 27.0785 50.4177 27.2217 50.295 27.3417C50.175 27.4617 50.0305 27.5217 49.8614 27.5217Z" fill="#CCCCCC"/>
<path d="M53.3471 28.3891H54.5416L52.9011 29.9928L54.6889 31.748H53.4657L52.0707 30.3447V31.748H51.0316V26.1184H52.0707V29.6205L53.3471 28.3891Z" fill="#CCCCCC"/>
<path d="M57.1226 28.3891H58.3171L56.6767 29.9928L58.4644 31.748H57.2412L55.8462 30.3447V31.748H54.8071V26.1184H55.8462V29.6205L57.1226 28.3891Z" fill="#CCCCCC"/>
<path d="M63.0908 28.2909C63.3417 28.2909 63.5599 28.3441 63.7454 28.4504C63.9336 28.5568 64.0795 28.7204 64.1831 28.9414C64.2895 29.1596 64.3427 29.4405 64.3427 29.7842V31.748H63.3199V29.9519C63.3199 29.6683 63.2776 29.4473 63.1931 29.2891C63.1113 29.1309 62.9545 29.0518 62.7226 29.0518C62.5917 29.0518 62.4717 29.0873 62.3626 29.1582C62.2535 29.2264 62.1663 29.3273 62.1008 29.461C62.0381 29.5946 62.0067 29.7583 62.0067 29.9519V31.748H61.0494V29.9519C61.0494 29.6683 61.0017 29.4473 60.9063 29.2891C60.8108 29.1309 60.6594 29.0518 60.4522 29.0518C60.3185 29.0518 60.1972 29.0859 60.0881 29.1541C59.9817 29.2223 59.8972 29.3232 59.8344 29.4569C59.7744 29.5878 59.7444 29.7528 59.7444 29.9519V31.748H58.7135V28.3891H59.7444V28.88C59.7744 28.7955 59.8426 28.7082 59.949 28.6182C60.0581 28.5282 60.1931 28.4518 60.354 28.3891C60.5149 28.3236 60.6881 28.2909 60.8735 28.2909C61.0753 28.2909 61.2431 28.325 61.3767 28.3931C61.5104 28.4613 61.6181 28.5486 61.6999 28.655C61.7844 28.7586 61.8485 28.8677 61.8922 28.9823C61.9304 28.8759 62.0054 28.7695 62.1172 28.6632C62.229 28.5568 62.3695 28.4682 62.5385 28.3972C62.7076 28.3263 62.8917 28.2909 63.0908 28.2909Z" fill="#CCCCCC"/>
<path d="M67.6403 31.748V31.1629C67.6157 31.2229 67.553 31.3075 67.4521 31.4166C67.3512 31.5257 67.2148 31.6252 67.043 31.7152C66.8739 31.8025 66.6748 31.8462 66.4457 31.8462C66.1239 31.8462 65.8389 31.7698 65.5907 31.6171C65.3425 31.4616 65.1475 31.2502 65.0057 30.9829C64.8666 30.7129 64.7971 30.4088 64.7971 30.0706C64.7971 29.7323 64.8666 29.4296 65.0057 29.1623C65.1475 28.8923 65.3425 28.6795 65.5907 28.5241C65.8389 28.3686 66.1239 28.2909 66.4457 28.2909C66.6694 28.2909 66.863 28.329 67.0266 28.4054C67.193 28.4791 67.3266 28.5663 67.4276 28.6673C67.5312 28.7655 67.598 28.8541 67.628 28.9332V28.3891H68.6589V31.748H67.6403ZM65.8157 30.0706C65.8157 30.2588 65.858 30.4251 65.9425 30.5697C66.0271 30.7115 66.1389 30.822 66.278 30.9011C66.4171 30.9802 66.5685 31.0197 66.7321 31.0197C66.9039 31.0197 67.0566 30.9802 67.1903 30.9011C67.3239 30.8193 67.4289 30.7074 67.5053 30.5656C67.5844 30.421 67.6239 30.256 67.6239 30.0706C67.6239 29.8851 67.5844 29.7214 67.5053 29.5796C67.4289 29.4351 67.3239 29.3219 67.1903 29.24C67.0566 29.1582 66.9039 29.1173 66.7321 29.1173C66.5685 29.1173 66.4171 29.1582 66.278 29.24C66.1389 29.3191 66.0271 29.431 65.9425 29.5755C65.858 29.7173 65.8157 29.8824 65.8157 30.0706Z" fill="#CCCCCC"/>
<path d="M71.492 28.2909C71.7211 28.2909 71.9447 28.3386 72.1629 28.4341C72.3811 28.5268 72.5597 28.6754 72.6988 28.88C72.8406 29.0846 72.9116 29.3519 72.9116 29.6819V31.748H71.8684V29.8619C71.8684 29.5864 71.8029 29.3819 71.672 29.2482C71.5438 29.1146 71.3747 29.0477 71.1647 29.0477C71.0283 29.0477 70.8974 29.0859 70.772 29.1623C70.6493 29.2359 70.5483 29.3396 70.4692 29.4732C70.3929 29.6042 70.3547 29.7542 70.3547 29.9233V31.748H69.3156V28.3891H70.3547V28.925C70.3847 28.8323 70.4529 28.7368 70.5592 28.6386C70.6656 28.5404 70.8006 28.4586 70.9643 28.3931C71.1279 28.325 71.3038 28.2909 71.492 28.2909Z" fill="#CCCCCC"/>
<path d="M75.5663 26.3475H76.5891V31.748H75.5663V26.3475Z" fill="#CCCCCC"/>
<path d="M79.5905 28.2909C79.8196 28.2909 80.0432 28.3386 80.2614 28.4341C80.4796 28.5268 80.6582 28.6754 80.7973 28.88C80.9391 29.0846 81.0101 29.3519 81.0101 29.6819V31.748H79.9669V29.8619C79.9669 29.5864 79.9014 29.3819 79.7705 29.2482C79.6423 29.1146 79.4732 29.0477 79.2632 29.0477C79.1268 29.0477 78.9959 29.0859 78.8705 29.1623C78.7478 29.2359 78.6468 29.3396 78.5678 29.4732C78.4914 29.6042 78.4532 29.7542 78.4532 29.9233V31.748H77.4141V28.3891H78.4532V28.925C78.4832 28.8323 78.5514 28.7368 78.6577 28.6386C78.7641 28.5404 78.8991 28.4586 79.0628 28.3931C79.2264 28.325 79.4023 28.2909 79.5905 28.2909Z" fill="#CCCCCC"/>
<path d="M81.3674 28.3891H81.9729V27.0103H83.0038V28.3891H83.7975V29.2523H83.0038V30.4674C83.0038 30.6283 83.0297 30.7538 83.0815 30.8438C83.1334 30.9311 83.2152 30.9747 83.327 30.9747C83.4115 30.9747 83.4811 30.9584 83.5356 30.9256C83.5902 30.8902 83.6229 30.8656 83.6338 30.852L84.002 31.5966C83.9856 31.613 83.9325 31.6416 83.8425 31.6825C83.7552 31.7234 83.642 31.7602 83.5029 31.793C83.3665 31.8284 83.2125 31.8462 83.0406 31.8462C82.7324 31.8462 82.4774 31.7575 82.2756 31.5802C82.0738 31.4002 81.9729 31.122 81.9729 30.7456V29.2523H81.3674V28.3891Z" fill="#CCCCCC"/>
<path d="M85.1318 30.2997C85.14 30.4524 85.1809 30.5888 85.2545 30.7088C85.3282 30.8288 85.4345 30.9229 85.5736 30.9911C85.7155 31.0593 85.8846 31.0934 86.0809 31.0934C86.2582 31.0934 86.4136 31.0716 86.5473 31.0279C86.6837 30.9843 86.7982 30.9311 86.8909 30.8684C86.9864 30.8029 87.0573 30.7402 87.1037 30.6802L87.5332 31.3184C87.4568 31.4139 87.3546 31.5025 87.2264 31.5843C87.1009 31.6634 86.94 31.7262 86.7437 31.7725C86.55 31.8216 86.3073 31.8462 86.0155 31.8462C85.6473 31.8462 85.3241 31.7739 85.0459 31.6293C84.7677 31.4848 84.5509 31.2761 84.3954 31.0034C84.24 30.7306 84.1623 30.406 84.1623 30.0296C84.1623 29.7023 84.2318 29.4078 84.3709 29.1459C84.51 28.8814 84.7118 28.6727 84.9764 28.52C85.2436 28.3672 85.5641 28.2909 85.9377 28.2909C86.2896 28.2909 86.5937 28.3591 86.85 28.4954C87.1091 28.6291 87.3096 28.8255 87.4514 29.0846C87.5932 29.3437 87.6641 29.6601 87.6641 30.0337C87.6641 30.0556 87.6628 30.1006 87.66 30.1688C87.66 30.2342 87.6573 30.2779 87.6518 30.2997H85.1318ZM86.6905 29.6573C86.6877 29.5701 86.6605 29.476 86.6087 29.375C86.5596 29.2741 86.4818 29.1882 86.3755 29.1173C86.2691 29.0464 86.1273 29.0109 85.95 29.0109C85.7727 29.0109 85.6268 29.045 85.5123 29.1132C85.4005 29.1814 85.3159 29.2659 85.2586 29.3669C85.2014 29.4651 85.1686 29.5619 85.1605 29.6573H86.6905Z" fill="#CCCCCC"/>
<path d="M89.1676 31.748H88.1285V28.3891H89.1676V28.9332H89.1472C89.1662 28.8677 89.2181 28.7845 89.3026 28.6836C89.3899 28.5827 89.5099 28.4927 89.6626 28.4136C89.8153 28.3318 89.9994 28.2909 90.2149 28.2909C90.3703 28.2909 90.5108 28.314 90.6363 28.3604C90.7644 28.4041 90.8558 28.4477 90.9104 28.4913L90.5013 29.3423C90.4658 29.2987 90.399 29.2537 90.3008 29.2073C90.2053 29.1609 90.0853 29.1378 89.9408 29.1378C89.769 29.1378 89.6258 29.1855 89.5112 29.2809C89.3967 29.3737 89.3108 29.4882 89.2535 29.6246C89.1962 29.7583 89.1676 29.8837 89.1676 30.001V31.748Z" fill="#CCCCCC"/>
<path d="M93.6974 31.748V31.1629C93.6729 31.2229 93.6102 31.3075 93.5093 31.4166C93.4084 31.5257 93.272 31.6252 93.1002 31.7152C92.9311 31.8025 92.732 31.8462 92.5029 31.8462C92.1811 31.8462 91.8961 31.7698 91.6479 31.6171C91.3997 31.4616 91.2047 31.2502 91.0629 30.9829C90.9238 30.7129 90.8542 30.4088 90.8542 30.0706C90.8542 29.7323 90.9238 29.4296 91.0629 29.1623C91.2047 28.8923 91.3997 28.6795 91.6479 28.5241C91.8961 28.3686 92.1811 28.2909 92.5029 28.2909C92.7265 28.2909 92.9202 28.329 93.0838 28.4054C93.2502 28.4791 93.3838 28.5663 93.4847 28.6673C93.5884 28.7655 93.6552 28.8541 93.6852 28.9332V28.3891H94.7161V31.748H93.6974ZM91.8729 30.0706C91.8729 30.2588 91.9152 30.4251 91.9997 30.5697C92.0842 30.7115 92.1961 30.822 92.3352 30.9011C92.4743 30.9802 92.6256 31.0197 92.7893 31.0197C92.9611 31.0197 93.1138 30.9802 93.2474 30.9011C93.3811 30.8193 93.4861 30.7074 93.5624 30.5656C93.6415 30.421 93.6811 30.256 93.6811 30.0706C93.6811 29.8851 93.6415 29.7214 93.5624 29.5796C93.4861 29.4351 93.3811 29.3219 93.2474 29.24C93.1138 29.1582 92.9611 29.1173 92.7893 29.1173C92.6256 29.1173 92.4743 29.1582 92.3352 29.24C92.1961 29.3191 92.0842 29.431 91.9997 29.5755C91.9152 29.7173 91.8729 29.8824 91.8729 30.0706Z" fill="#CCCCCC"/>
<path d="M97.136 31.0197C97.3132 31.0197 97.4578 30.9897 97.5696 30.9297C97.6814 30.8697 97.7551 30.8247 97.7905 30.7947L98.2733 31.5107C98.2351 31.5407 98.1642 31.583 98.0605 31.6375C97.9569 31.6921 97.8246 31.7398 97.6637 31.7807C97.5055 31.8243 97.3241 31.8462 97.1196 31.8462C96.765 31.8462 96.4473 31.7752 96.1664 31.6334C95.8855 31.4889 95.6632 31.2843 95.4996 31.0197C95.3387 30.7524 95.2582 30.4347 95.2582 30.0665C95.2582 29.6955 95.3387 29.3778 95.4996 29.1132C95.6632 28.8486 95.8855 28.6454 96.1664 28.5036C96.4473 28.3618 96.765 28.2909 97.1196 28.2909C97.3214 28.2909 97.5001 28.3127 97.6555 28.3563C97.8137 28.4 97.946 28.4504 98.0523 28.5077C98.1587 28.5623 98.2323 28.6073 98.2733 28.6427L97.7782 29.3628C97.7592 29.341 97.7223 29.311 97.6678 29.2728C97.6132 29.2346 97.541 29.1991 97.451 29.1664C97.3637 29.1337 97.2587 29.1173 97.136 29.1173C96.986 29.1173 96.8428 29.1568 96.7064 29.2359C96.5728 29.315 96.4637 29.4255 96.3791 29.5673C96.2946 29.7092 96.2523 29.8755 96.2523 30.0665C96.2523 30.2574 96.2946 30.4251 96.3791 30.5697C96.4637 30.7115 96.5728 30.822 96.7064 30.9011C96.8428 30.9802 96.986 31.0197 97.136 31.0197Z" fill="#CCCCCC"/>
<path d="M98.3753 28.3891H98.9807V27.0103H100.012V28.3891H100.805V29.2523H100.012V30.4674C100.012 30.6283 100.038 30.7538 100.089 30.8438C100.141 30.9311 100.223 30.9747 100.335 30.9747C100.419 30.9747 100.489 30.9584 100.543 30.9256C100.598 30.8902 100.631 30.8656 100.642 30.852L101.01 31.5966C100.993 31.613 100.94 31.6416 100.85 31.6825C100.763 31.7234 100.65 31.7602 100.511 31.793C100.374 31.8284 100.22 31.8462 100.048 31.8462C99.7403 31.8462 99.4853 31.7575 99.2835 31.5802C99.0816 31.4002 98.9807 31.122 98.9807 30.7456V29.2523H98.3753V28.3891Z" fill="#CCCCCC"/>
<path d="M101.424 31.748V28.3891H102.459V31.748H101.424ZM101.956 27.5217C101.784 27.5217 101.638 27.4617 101.518 27.3417C101.401 27.2217 101.342 27.0785 101.342 26.9121C101.342 26.7457 101.402 26.6012 101.522 26.4784C101.642 26.3557 101.786 26.2943 101.956 26.2943C102.067 26.2943 102.17 26.323 102.262 26.3802C102.355 26.4348 102.43 26.5084 102.487 26.6012C102.545 26.6939 102.573 26.7976 102.573 26.9121C102.573 27.0785 102.512 27.2217 102.389 27.3417C102.269 27.4617 102.125 27.5217 101.956 27.5217Z" fill="#CCCCCC"/>
<path d="M102.925 28.3891H104.038L104.959 30.7988L105.879 28.3891H106.988L105.568 31.748H104.349L102.925 28.3891Z" fill="#CCCCCC"/>
<path d="M108.165 30.2997C108.173 30.4524 108.214 30.5888 108.287 30.7088C108.361 30.8288 108.467 30.9229 108.606 30.9911C108.748 31.0593 108.917 31.0934 109.114 31.0934C109.291 31.0934 109.446 31.0716 109.58 31.0279C109.716 30.9843 109.831 30.9311 109.924 30.8684C110.019 30.8029 110.09 30.7402 110.136 30.6802L110.566 31.3184C110.49 31.4139 110.387 31.5025 110.259 31.5843C110.134 31.6634 109.973 31.7262 109.776 31.7725C109.583 31.8216 109.34 31.8462 109.048 31.8462C108.68 31.8462 108.357 31.7739 108.079 31.6293C107.8 31.4848 107.584 31.2761 107.428 31.0034C107.273 30.7306 107.195 30.406 107.195 30.0296C107.195 29.7023 107.265 29.4078 107.404 29.1459C107.543 28.8814 107.745 28.6727 108.009 28.52C108.276 28.3672 108.597 28.2909 108.97 28.2909C109.322 28.2909 109.626 28.3591 109.883 28.4954C110.142 28.6291 110.342 28.8255 110.484 29.0846C110.626 29.3437 110.697 29.6601 110.697 30.0337C110.697 30.0556 110.695 30.1006 110.693 30.1688C110.693 30.2342 110.69 30.2779 110.685 30.2997H108.165ZM109.723 29.6573C109.72 29.5701 109.693 29.476 109.641 29.375C109.592 29.2741 109.515 29.1882 109.408 29.1173C109.302 29.0464 109.16 29.0109 108.983 29.0109C108.805 29.0109 108.66 29.045 108.545 29.1132C108.433 29.1814 108.349 29.2659 108.291 29.3669C108.234 29.4651 108.201 29.5619 108.193 29.6573H109.723Z" fill="#CCCCCC"/>
<path d="M115.958 30.8356C116.242 30.8356 116.494 30.7961 116.715 30.717C116.936 30.6352 117.098 30.5547 117.202 30.4756L117.64 31.347C117.514 31.4561 117.297 31.5666 116.989 31.6784C116.684 31.7903 116.318 31.8462 115.893 31.8462C115.495 31.8462 115.122 31.7766 114.776 31.6375C114.43 31.4957 114.125 31.2993 113.864 31.0484C113.602 30.7947 113.397 30.4988 113.25 30.1606C113.103 29.8196 113.029 29.4514 113.029 29.0559C113.029 28.6604 113.101 28.2922 113.246 27.9513C113.393 27.6076 113.598 27.309 113.86 27.0553C114.121 26.8016 114.425 26.6039 114.772 26.4621C115.121 26.3202 115.495 26.2493 115.893 26.2493C116.318 26.2493 116.684 26.3052 116.989 26.4171C117.297 26.5289 117.514 26.6394 117.64 26.7485L117.202 27.6199C117.098 27.5408 116.936 27.4617 116.715 27.3826C116.494 27.3008 116.242 27.2599 115.958 27.2599C115.669 27.2599 115.411 27.3062 115.185 27.399C114.961 27.4917 114.77 27.6213 114.612 27.7876C114.457 27.9513 114.338 28.1409 114.256 28.3563C114.175 28.5718 114.134 28.8009 114.134 29.0437C114.134 29.2891 114.175 29.521 114.256 29.7392C114.338 29.9546 114.457 30.1456 114.612 30.3119C114.77 30.4756 114.961 30.6038 115.185 30.6965C115.411 30.7893 115.669 30.8356 115.958 30.8356Z" fill="#CCCCCC"/>
<path d="M119.903 31.8462C119.546 31.8462 119.227 31.7698 118.946 31.6171C118.668 31.4643 118.449 31.2557 118.291 30.9911C118.133 30.7238 118.054 30.4197 118.054 30.0787C118.054 29.7378 118.133 29.4337 118.291 29.1664C118.449 28.8964 118.668 28.6836 118.946 28.5282C119.227 28.37 119.546 28.2909 119.903 28.2909C120.263 28.2909 120.581 28.37 120.856 28.5282C121.132 28.6836 121.347 28.8964 121.503 29.1664C121.658 29.4337 121.736 29.7378 121.736 30.0787C121.736 30.4197 121.658 30.7238 121.503 30.9911C121.347 31.2557 121.132 31.4643 120.856 31.6171C120.581 31.7698 120.263 31.8462 119.903 31.8462ZM119.903 30.9829C120.075 30.9829 120.224 30.9447 120.349 30.8684C120.477 30.7893 120.575 30.6815 120.644 30.5451C120.714 30.406 120.75 30.2492 120.75 30.0747C120.75 29.9001 120.714 29.7433 120.644 29.6042C120.575 29.4651 120.477 29.356 120.349 29.2769C120.224 29.195 120.075 29.1541 119.903 29.1541C119.731 29.1541 119.581 29.195 119.453 29.2769C119.328 29.356 119.229 29.4651 119.159 29.6042C119.088 29.7433 119.052 29.9001 119.052 30.0747C119.052 30.2492 119.088 30.406 119.159 30.5451C119.229 30.6815 119.328 30.7893 119.453 30.8684C119.581 30.9447 119.731 30.9829 119.903 30.9829Z" fill="#CCCCCC"/>
<path d="M126.663 28.2909C126.914 28.2909 127.132 28.3441 127.318 28.4504C127.506 28.5568 127.652 28.7204 127.756 28.9414C127.862 29.1596 127.915 29.4405 127.915 29.7842V31.748H126.892V29.9519C126.892 29.6683 126.85 29.4473 126.766 29.2891C126.684 29.1309 126.527 29.0518 126.295 29.0518C126.164 29.0518 126.044 29.0873 125.935 29.1582C125.826 29.2264 125.739 29.3273 125.673 29.461C125.611 29.5946 125.579 29.7583 125.579 29.9519V31.748H124.622V29.9519C124.622 29.6683 124.574 29.4473 124.479 29.2891C124.383 29.1309 124.232 29.0518 124.025 29.0518C123.891 29.0518 123.77 29.0859 123.661 29.1541C123.554 29.2223 123.47 29.3232 123.407 29.4569C123.347 29.5878 123.317 29.7528 123.317 29.9519V31.748H122.286V28.3891H123.317V28.88C123.347 28.7955 123.415 28.7082 123.521 28.6182C123.631 28.5282 123.766 28.4518 123.926 28.3891C124.087 28.3236 124.261 28.2909 124.446 28.2909C124.648 28.2909 124.816 28.325 124.949 28.3931C125.083 28.4613 125.191 28.5486 125.272 28.655C125.357 28.7586 125.421 28.8677 125.465 28.9823C125.503 28.8759 125.578 28.7695 125.69 28.6632C125.802 28.5568 125.942 28.4682 126.111 28.3972C126.28 28.3263 126.464 28.2909 126.663 28.2909Z" fill="#CCCCCC"/>
<path d="M129.601 33.4499H128.57V28.3891H129.613V28.9332C129.646 28.8541 129.717 28.7641 129.826 28.6632C129.935 28.5623 130.077 28.475 130.251 28.4013C130.429 28.3277 130.631 28.2909 130.857 28.2909C131.176 28.2909 131.454 28.3686 131.691 28.5241C131.929 28.6795 132.111 28.8923 132.24 29.1623C132.371 29.4296 132.436 29.7323 132.436 30.0706C132.436 30.4088 132.368 30.7129 132.231 30.9829C132.095 31.2502 131.906 31.4616 131.663 31.6171C131.42 31.7698 131.138 31.8462 130.816 31.8462C130.573 31.8462 130.365 31.8025 130.19 31.7152C130.016 31.628 129.879 31.5298 129.781 31.4207C129.683 31.3116 129.623 31.2257 129.601 31.1629V33.4499ZM131.417 30.0706C131.417 29.8824 131.376 29.7173 131.295 29.5755C131.216 29.431 131.109 29.3191 130.976 29.24C130.842 29.1582 130.693 29.1173 130.53 29.1173C130.358 29.1173 130.202 29.1582 130.063 29.24C129.924 29.3219 129.814 29.4351 129.732 29.5796C129.653 29.7214 129.613 29.8851 129.613 30.0706C129.613 30.256 129.653 30.421 129.732 30.5656C129.814 30.7074 129.924 30.8193 130.063 30.9011C130.202 30.9802 130.358 31.0197 130.53 31.0197C130.693 31.0197 130.842 30.9802 130.976 30.9011C131.109 30.822 131.216 30.7115 131.295 30.5697C131.376 30.4251 131.417 30.2588 131.417 30.0706Z" fill="#CCCCCC"/>
<path d="M135.588 31.748V31.1629C135.563 31.2229 135.5 31.3075 135.399 31.4166C135.298 31.5257 135.162 31.6252 134.99 31.7152C134.821 31.8025 134.622 31.8462 134.393 31.8462C134.071 31.8462 133.786 31.7698 133.538 31.6171C133.29 31.4616 133.095 31.2502 132.953 30.9829C132.814 30.7129 132.744 30.4088 132.744 30.0706C132.744 29.7323 132.814 29.4296 132.953 29.1623C133.095 28.8923 133.29 28.6795 133.538 28.5241C133.786 28.3686 134.071 28.2909 134.393 28.2909C134.617 28.2909 134.81 28.329 134.974 28.4054C135.14 28.4791 135.274 28.5663 135.375 28.6673C135.478 28.7655 135.545 28.8541 135.575 28.9332V28.3891H136.606V31.748H135.588ZM133.763 30.0706C133.763 30.2588 133.805 30.4251 133.89 30.5697C133.974 30.7115 134.086 30.822 134.225 30.9011C134.364 30.9802 134.516 31.0197 134.679 31.0197C134.851 31.0197 135.004 30.9802 135.138 30.9011C135.271 30.8193 135.376 30.7074 135.453 30.5656C135.532 30.421 135.571 30.256 135.571 30.0706C135.571 29.8851 135.532 29.7214 135.453 29.5796C135.376 29.4351 135.271 29.3219 135.138 29.24C135.004 29.1582 134.851 29.1173 134.679 29.1173C134.516 29.1173 134.364 29.1582 134.225 29.24C134.086 29.3191 133.974 29.431 133.89 29.5755C133.805 29.7173 133.763 29.8824 133.763 30.0706Z" fill="#CCCCCC"/>
<path d="M139.439 28.2909C139.668 28.2909 139.892 28.3386 140.11 28.4341C140.328 28.5268 140.507 28.6754 140.646 28.88C140.788 29.0846 140.859 29.3519 140.859 29.6819V31.748H139.816V29.8619C139.816 29.5864 139.75 29.3819 139.619 29.2482C139.491 29.1146 139.322 29.0477 139.112 29.0477C138.976 29.0477 138.845 29.0859 138.719 29.1623C138.597 29.2359 138.496 29.3396 138.417 29.4732C138.34 29.6042 138.302 29.7542 138.302 29.9233V31.748H137.263V28.3891H138.302V28.925C138.332 28.8323 138.4 28.7368 138.507 28.6386C138.613 28.5404 138.748 28.4586 138.912 28.3931C139.075 28.325 139.251 28.2909 139.439 28.2909Z" fill="#CCCCCC"/>
<path d="M143.082 30.8356L144.076 28.3891H145.103L142.808 33.4499H141.764L142.538 31.748L141.143 28.3891H142.182L143.082 30.8356Z" fill="#CCCCCC"/>
<path d="M54.1636 10.8423C54.0316 10.8421 53.9227 10.9306 53.9403 11.0385C53.9912 11.3503 54.1642 11.642 54.4363 11.8674C54.765 12.1398 55.2113 12.2932 55.6771 12.2941C56.1429 12.2949 56.59 12.143 56.9201 11.8719C57.1934 11.6474 57.3679 11.3563 57.4205 11.0447C57.4387 10.9368 57.3302 10.848 57.1982 10.8477L54.1636 10.8423Z" fill="#F9F6EE"/>
<path d="M40.5977 7.70572C41.4883 7.70572 42.2666 7.80347 42.9327 7.99898C43.5989 8.19449 44.1346 8.40085 44.5401 8.61808C44.9456 8.83531 45.1918 8.98013 45.2786 9.05254L43.7147 11.6702C43.5989 11.5833 43.3997 11.4565 43.1174 11.29C42.8422 11.1235 42.5128 10.975 42.129 10.8447C41.7525 10.7143 41.3579 10.6492 40.9452 10.6492C40.3877 10.6492 39.9352 10.7506 39.5876 10.9533C39.2473 11.1488 39.0772 11.4421 39.0772 11.8331C39.0772 12.101 39.1677 12.3436 39.3487 12.5608C39.537 12.7708 39.8193 12.9735 40.1958 13.169C40.5796 13.3573 41.0647 13.5637 41.6512 13.7881C42.187 13.9836 42.6902 14.2154 43.1608 14.4833C43.6314 14.7512 44.0441 15.0698 44.3989 15.4391C44.7609 15.8011 45.0469 16.2211 45.2569 16.699C45.4669 17.1769 45.5719 17.72 45.5719 18.3282C45.5719 19.0523 45.4234 19.6823 45.1266 20.2181C44.8297 20.7467 44.4243 21.1848 43.9102 21.5324C43.4034 21.8799 42.8241 22.137 42.1725 22.3035C41.5281 22.4773 40.8583 22.5642 40.1633 22.5642C39.1786 22.5642 38.2952 22.452 37.5133 22.2275C36.7385 22.003 36.1122 21.7605 35.6344 21.4998C35.1565 21.2391 34.8705 21.0653 34.7764 20.9784L36.3946 18.2522C36.4815 18.3174 36.648 18.4224 36.8942 18.5672C37.1476 18.712 37.4553 18.8641 37.8174 19.0234C38.1794 19.1754 38.5631 19.3058 38.9686 19.4144C39.3813 19.523 39.7868 19.5773 40.185 19.5773C40.8511 19.5773 41.3507 19.4506 41.6838 19.1971C42.0168 18.9365 42.1833 18.5961 42.1833 18.1762C42.1833 17.8648 42.0784 17.586 41.8684 17.3398C41.6584 17.0936 41.3435 16.8619 40.9235 16.6447C40.5036 16.4202 39.9786 16.1849 39.3487 15.9387C38.7188 15.6853 38.1287 15.3775 37.5784 15.0155C37.0354 14.6534 36.5937 14.2009 36.2534 13.6578C35.9131 13.1147 35.743 12.4413 35.743 11.6376C35.743 10.8338 35.9674 10.1387 36.4163 9.55217C36.8725 8.95841 37.4698 8.50223 38.2083 8.18363C38.9541 7.86502 39.7506 7.70572 40.5977 7.70572Z" fill="#F9F6EE"/>
<path d="M46.0187 13.3863H47.5392V9.72595H50.8083V13.3863H52.8066V16.1016H50.8083V18.5889C50.8083 18.9582 50.8626 19.2587 50.9712 19.4904C51.0798 19.7149 51.2789 19.8271 51.5685 19.8271C51.764 19.8271 51.9305 19.7837 52.0681 19.6968C52.2057 19.6099 52.2889 19.552 52.3179 19.523L53.4474 21.8691C53.3967 21.9125 53.2374 21.9922 52.9695 22.108C52.7089 22.2239 52.3758 22.3289 51.9703 22.423C51.5649 22.5171 51.1123 22.5642 50.6128 22.5642C49.7222 22.5642 48.9873 22.3144 48.408 21.8148C47.8288 21.3079 47.5392 20.5295 47.5392 19.4795V16.1016H46.0187V13.3863Z" fill="#F9F6EE"/>
<path d="M54.0183 22.3035V13.3863H57.3199V22.3035H54.0183Z" fill="#F9F6EE"/>
<path d="M64.9163 13.3863H68.6523L64.4493 17.644L69.0868 22.3035H65.2638L61.821 18.7192V22.3035H58.5193V7.35815H61.821V16.4926L64.9163 13.3863Z" fill="#F9F6EE"/>
<path d="M75.2925 13.3863H79.0285L74.8254 17.644L79.463 22.3035H75.64L72.1972 18.7192V22.3035H68.8955V7.35815H72.1972V16.4926L75.2925 13.3863Z" fill="#F9F6EE"/>
<path d="M91.8484 13.1256C92.5217 13.1256 93.1154 13.2668 93.6295 13.5492C94.1436 13.8243 94.5454 14.2516 94.835 14.8308C95.1319 15.4101 95.2803 16.1559 95.2803 17.0683V22.3035H92.033V17.5679C92.033 16.9452 91.9389 16.442 91.7506 16.0582C91.5624 15.6744 91.1895 15.4825 90.632 15.4825C90.2989 15.4825 90.0057 15.5694 89.7523 15.7432C89.4988 15.917 89.3033 16.1596 89.1658 16.4709C89.0282 16.775 88.9594 17.1407 88.9594 17.5679V22.3035H85.9293V17.5679C85.9293 16.9452 85.8243 16.442 85.6143 16.0582C85.4116 15.6744 85.0496 15.4825 84.5283 15.4825C84.1952 15.4825 83.902 15.5694 83.6486 15.7432C83.3951 15.9097 83.1996 16.1487 83.0621 16.4601C82.9318 16.7642 82.8666 17.1335 82.8666 17.5679V22.3035H79.5867V13.3863H82.8666V14.6571C82.9535 14.4326 83.1417 14.2045 83.4313 13.9728C83.7282 13.7338 84.0938 13.5347 84.5283 13.3754C84.9627 13.2089 85.4225 13.1256 85.9076 13.1256C86.4361 13.1256 86.8778 13.2052 87.2326 13.3645C87.5874 13.5166 87.877 13.723 88.1014 13.9836C88.3331 14.2443 88.5178 14.5267 88.6553 14.8308C88.7567 14.5702 88.9558 14.3095 89.2527 14.0488C89.5568 13.7809 89.9333 13.56 90.3822 13.3863C90.8383 13.2125 91.3271 13.1256 91.8484 13.1256Z" fill="#F9F6EE"/>
<path d="M103.351 22.3035V20.859C103.286 21.0038 103.119 21.2138 102.851 21.4889C102.591 21.7641 102.243 22.0139 101.809 22.2384C101.374 22.4556 100.867 22.5642 100.288 22.5642C99.4193 22.5642 98.659 22.3542 98.0074 21.9342C97.3557 21.507 96.8489 20.9386 96.4869 20.229C96.1249 19.5121 95.9439 18.7192 95.9439 17.8503C95.9439 16.9814 96.1249 16.1921 96.4869 15.4825C96.8489 14.7657 97.3557 14.1936 98.0074 13.7664C98.659 13.3392 99.4193 13.1256 100.288 13.1256C100.846 13.1256 101.334 13.2161 101.754 13.3971C102.174 13.5709 102.515 13.7809 102.775 14.0271C103.036 14.266 103.217 14.4869 103.318 14.6896V13.3863H106.598V22.3035H103.351ZM99.1803 17.8503C99.1803 18.2558 99.2745 18.6215 99.4627 18.9473C99.651 19.2659 99.9008 19.5158 100.212 19.6968C100.531 19.8778 100.882 19.9683 101.266 19.9683C101.664 19.9683 102.015 19.8778 102.319 19.6968C102.623 19.5158 102.862 19.2659 103.036 18.9473C103.217 18.6215 103.307 18.2558 103.307 17.8503C103.307 17.4448 103.217 17.0828 103.036 16.7642C102.862 16.4383 102.623 16.1849 102.319 16.0039C102.015 15.8156 101.664 15.7215 101.266 15.7215C100.882 15.7215 100.531 15.8156 100.212 16.0039C99.9008 16.1849 99.651 16.4383 99.4627 16.7642C99.2745 17.0828 99.1803 17.4448 99.1803 17.8503Z" fill="#F9F6EE"/>
<path d="M114.069 13.1256C114.692 13.1256 115.3 13.2523 115.894 13.5057C116.488 13.7592 116.976 14.1611 117.36 14.7114C117.744 15.2544 117.936 15.9713 117.936 16.8619V22.3035H114.623V17.405C114.623 16.7678 114.471 16.2899 114.167 15.9713C113.863 15.6455 113.465 15.4825 112.972 15.4825C112.647 15.4825 112.339 15.5694 112.049 15.7432C111.767 15.9097 111.535 16.1487 111.354 16.4601C111.18 16.7642 111.093 17.1154 111.093 17.5136V22.3035H107.792V13.3863H111.093V14.7005C111.18 14.4616 111.361 14.2226 111.637 13.9836C111.919 13.7375 112.27 13.5347 112.69 13.3754C113.117 13.2089 113.577 13.1256 114.069 13.1256Z" fill="#F9F6EE"/>
<path d="M132.358 7.9664H135.606V16.775C135.606 17.9553 135.374 18.9799 134.91 19.8488C134.447 20.7105 133.785 21.3803 132.923 21.8582C132.061 22.3289 131.033 22.5642 129.839 22.5642C128.637 22.5642 127.601 22.3289 126.732 21.8582C125.863 21.3803 125.197 20.7105 124.734 19.8488C124.278 18.9799 124.05 17.9553 124.05 16.775V7.9664H127.286V16.6013C127.286 17.2529 127.388 17.8033 127.59 18.2522C127.8 18.7011 128.097 19.0415 128.481 19.2732C128.865 19.4976 129.317 19.6099 129.839 19.6099C130.353 19.6099 130.798 19.4976 131.174 19.2732C131.551 19.0415 131.84 18.7011 132.043 18.2522C132.253 17.8033 132.358 17.2529 132.358 16.6013V7.9664Z" fill="#F9F6EE"/>
<path d="M145.613 14.5919L151 22.3035H146.764L143.452 17.2964L140.248 22.3035H136.338L141.421 14.5919L136.805 7.9664H140.932L143.582 12.0938L146.199 7.9664H150.153L145.613 14.5919Z" fill="#F9F6EE"/>
</svg>
