<svg width="151" height="34" viewBox="0 0 151 34" fill="none" xmlns="http://www.w3.org/2000/svg">
<path d="M13.5215 10.9402C13.8649 10.4107 14.6398 10.4107 14.9831 10.9402L27.563 30.3404C27.9387 30.9199 27.5228 31.6853 26.8322 31.6853H22.0467C21.7517 31.6853 21.4768 31.536 21.3162 31.2886L14.9829 21.5329C14.6395 21.0039 13.8652 21.0039 13.5218 21.5329L7.18849 31.2886C7.02786 31.536 6.75292 31.6853 6.45793 31.6853H1.6725C0.981838 31.6853 0.565918 30.9199 0.941682 30.3404L13.5215 10.9402Z" fill="#553597"/>
<path d="M1.30637 0.0134321C0.55139 0.0138278 -0.0671602 0.627638 0.00586807 1.37908C0.322722 4.6394 1.76131 7.70579 4.09864 10.0407C6.75981 12.699 10.368 14.1914 14.1295 14.1894C17.891 14.1875 21.4976 12.6913 24.156 10.0302C26.4909 7.69283 27.9263 4.62493 28.2397 1.36428C28.312 0.612765 27.6928 -0.000395392 26.9378 1.91302e-07L24.3299 0.00136661C23.575 0.0017622 22.9741 0.617741 22.8582 1.36377C22.5723 3.20441 21.7097 4.9206 20.3768 6.25487C18.7197 7.91372 16.4715 8.84635 14.1267 8.84758C11.782 8.8488 9.53277 7.91854 7.87392 6.26142C6.53965 4.92855 5.67522 3.21327 5.38738 1.37293C5.27071 0.627019 4.66919 0.0116696 3.91421 0.0120653L1.30637 0.0134321Z" fill="#553597"/>
<path d="M9.86371 0.674025C9.48623 0.673207 9.17476 0.979972 9.22515 1.35408C9.37074 2.43491 9.86551 3.44595 10.6437 4.22754C11.5837 5.17158 12.8601 5.70356 14.1923 5.70645C15.5245 5.70933 16.8033 5.1829 17.7473 4.24294C18.5289 3.46473 19.0281 2.45585 19.1783 1.37566C19.2304 1.00177 18.9202 0.693658 18.5427 0.69284L9.86371 0.674025Z" fill="#553597"/>
<path d="M36.8672 26.3456H37.894L39.9722 31.7457H38.884L38.4626 30.5798H36.3026L35.873 31.7457H34.7808L36.8672 26.3456ZM36.6381 29.6756H38.1272L37.3867 27.5811H37.3744L36.6381 29.6756Z" fill="#676767"/>
<path d="M44.1141 26.2474C44.4386 26.2474 44.7209 26.2842 44.9609 26.3579C45.2036 26.4288 45.3959 26.5052 45.5377 26.587C45.6823 26.6688 45.7696 26.722 45.7996 26.7465L45.3005 27.577C45.2568 27.5415 45.1818 27.4924 45.0755 27.4297C44.9718 27.3643 44.8464 27.307 44.6991 27.2579C44.5518 27.2061 44.3923 27.1802 44.2205 27.1802C43.9723 27.1802 43.7732 27.2279 43.6232 27.3233C43.4759 27.4161 43.4023 27.5511 43.4023 27.7284C43.4023 27.8484 43.4418 27.9561 43.5209 28.0515C43.6 28.1443 43.7159 28.2315 43.8686 28.3134C44.0241 28.3952 44.2136 28.4811 44.4373 28.5711C44.6336 28.6475 44.8205 28.7361 44.9977 28.837C45.1777 28.9379 45.3373 29.0566 45.4764 29.1929C45.6182 29.3293 45.73 29.4875 45.8118 29.6675C45.8964 29.8475 45.9387 30.0534 45.9387 30.2852C45.9387 30.5443 45.8855 30.7707 45.7791 30.9643C45.6755 31.1579 45.5309 31.3202 45.3455 31.4511C45.1627 31.582 44.9527 31.6802 44.7155 31.7457C44.4782 31.8111 44.2286 31.8439 43.9668 31.8439C43.6123 31.8439 43.2932 31.8029 43.0095 31.7211C42.7286 31.6366 42.5009 31.5466 42.3263 31.4511C42.1518 31.3557 42.0495 31.2943 42.0195 31.267L42.5432 30.4038C42.5759 30.4284 42.6373 30.4679 42.7273 30.5225C42.82 30.577 42.9318 30.6329 43.0627 30.6902C43.1964 30.7475 43.3409 30.7966 43.4964 30.8375C43.6545 30.8784 43.8154 30.8988 43.9791 30.8988C44.2736 30.8988 44.4959 30.8375 44.6459 30.7148C44.7959 30.592 44.8709 30.4325 44.8709 30.2361C44.8709 30.0888 44.8232 29.9593 44.7277 29.8475C44.6323 29.7357 44.4973 29.6334 44.3227 29.5406C44.1509 29.4452 43.945 29.3484 43.705 29.2502C43.465 29.1493 43.2414 29.032 43.0341 28.8984C42.8295 28.762 42.6645 28.5956 42.5391 28.3993C42.4136 28.2002 42.3509 27.9561 42.3509 27.667C42.3509 27.3806 42.4313 27.1311 42.5923 26.9183C42.7559 26.7056 42.9713 26.5406 43.2386 26.4233C43.5086 26.3061 43.8004 26.2474 44.1141 26.2474Z" fill="#676767"/>
<path d="M46.2811 28.387H46.8865V27.0083H47.9175V28.387H48.7111V29.2502H47.9175V30.4652C47.9175 30.6261 47.9434 30.7516 47.9952 30.8416C48.047 30.9288 48.1288 30.9725 48.2407 30.9725C48.3252 30.9725 48.3947 30.9561 48.4493 30.9234C48.5038 30.8879 48.5366 30.8634 48.5475 30.8498L48.9157 31.5943C48.8993 31.6107 48.8461 31.6393 48.7561 31.6802C48.6688 31.7211 48.5557 31.7579 48.4166 31.7907C48.2802 31.8261 48.1261 31.8439 47.9543 31.8439C47.6461 31.8439 47.3911 31.7552 47.1893 31.5779C46.9875 31.3979 46.8865 31.1198 46.8865 30.7434V29.2502H46.2811V28.387Z" fill="#676767"/>
<path d="M49.3295 31.7457V28.387H50.3646V31.7457H49.3295ZM49.8614 27.5197C49.6896 27.5197 49.5436 27.4597 49.4236 27.3397C49.3064 27.2197 49.2477 27.0765 49.2477 26.9102C49.2477 26.7438 49.3077 26.5992 49.4277 26.4765C49.5477 26.3538 49.6923 26.2924 49.8614 26.2924C49.9732 26.2924 50.0755 26.3211 50.1682 26.3783C50.2609 26.4329 50.3359 26.5065 50.3932 26.5992C50.4505 26.692 50.4791 26.7956 50.4791 26.9102C50.4791 27.0765 50.4177 27.2197 50.295 27.3397C50.175 27.4597 50.0305 27.5197 49.8614 27.5197Z" fill="#676767"/>
<path d="M53.3471 28.387H54.5416L52.9011 29.9907L54.6889 31.7457H53.4657L52.0707 30.3425V31.7457H51.0316V26.1165H52.0707V29.6184L53.3471 28.387Z" fill="#676767"/>
<path d="M57.1226 28.387H58.3171L56.6767 29.9907L58.4644 31.7457H57.2412L55.8462 30.3425V31.7457H54.8071V26.1165H55.8462V29.6184L57.1226 28.387Z" fill="#676767"/>
<path d="M63.0908 28.2888C63.3417 28.2888 63.5599 28.342 63.7454 28.4484C63.9336 28.5547 64.0795 28.7184 64.1831 28.9393C64.2895 29.1575 64.3427 29.4384 64.3427 29.782V31.7457H63.3199V29.9497C63.3199 29.6661 63.2776 29.4452 63.1931 29.287C63.1113 29.1288 62.9545 29.0497 62.7226 29.0497C62.5917 29.0497 62.4717 29.0852 62.3626 29.1561C62.2535 29.2243 62.1663 29.3252 62.1008 29.4588C62.0381 29.5925 62.0067 29.7561 62.0067 29.9497V31.7457H61.0494V29.9497C61.0494 29.6661 61.0017 29.4452 60.9063 29.287C60.8108 29.1288 60.6594 29.0497 60.4522 29.0497C60.3185 29.0497 60.1972 29.0838 60.0881 29.152C59.9817 29.2202 59.8972 29.3211 59.8344 29.4547C59.7744 29.5856 59.7444 29.7506 59.7444 29.9497V31.7457H58.7135V28.387H59.7444V28.8779C59.7744 28.7934 59.8426 28.7061 59.949 28.6161C60.0581 28.5261 60.1931 28.4497 60.354 28.387C60.5149 28.3215 60.6881 28.2888 60.8735 28.2888C61.0753 28.2888 61.2431 28.3229 61.3767 28.3911C61.5104 28.4593 61.6181 28.5465 61.6999 28.6529C61.7844 28.7565 61.8485 28.8656 61.8922 28.9802C61.9304 28.8738 62.0054 28.7675 62.1172 28.6611C62.229 28.5547 62.3695 28.4661 62.5385 28.3952C62.7076 28.3243 62.8917 28.2888 63.0908 28.2888Z" fill="#676767"/>
<path d="M67.6403 31.7457V31.1607C67.6157 31.2207 67.553 31.3052 67.4521 31.4143C67.3512 31.5234 67.2148 31.6229 67.043 31.7129C66.8739 31.8002 66.6748 31.8439 66.4457 31.8439C66.1239 31.8439 65.8389 31.7675 65.5907 31.6148C65.3425 31.4593 65.1475 31.2479 65.0057 30.9807C64.8666 30.7107 64.7971 30.4066 64.7971 30.0684C64.7971 29.7302 64.8666 29.4275 65.0057 29.1602C65.1475 28.8902 65.3425 28.6775 65.5907 28.522C65.8389 28.3665 66.1239 28.2888 66.4457 28.2888C66.6694 28.2888 66.863 28.327 67.0266 28.4034C67.193 28.477 67.3266 28.5643 67.4276 28.6652C67.5312 28.7634 67.598 28.852 67.628 28.9311V28.387H68.6589V31.7457H67.6403ZM65.8157 30.0684C65.8157 30.2566 65.858 30.4229 65.9425 30.5675C66.0271 30.7093 66.1389 30.8198 66.278 30.8988C66.4171 30.9779 66.5685 31.0175 66.7321 31.0175C66.9039 31.0175 67.0566 30.9779 67.1903 30.8988C67.3239 30.817 67.4289 30.7052 67.5053 30.5634C67.5844 30.4188 67.6239 30.2538 67.6239 30.0684C67.6239 29.8829 67.5844 29.7193 67.5053 29.5775C67.4289 29.4329 67.3239 29.3197 67.1903 29.2379C67.0566 29.1561 66.9039 29.1152 66.7321 29.1152C66.5685 29.1152 66.4171 29.1561 66.278 29.2379C66.1389 29.317 66.0271 29.4288 65.9425 29.5734C65.858 29.7152 65.8157 29.8802 65.8157 30.0684Z" fill="#676767"/>
<path d="M71.492 28.2888C71.7211 28.2888 71.9447 28.3365 72.1629 28.432C72.3811 28.5247 72.5597 28.6734 72.6988 28.8779C72.8406 29.0825 72.9116 29.3497 72.9116 29.6797V31.7457H71.8684V29.8597C71.8684 29.5843 71.8029 29.3797 71.672 29.2461C71.5438 29.1125 71.3747 29.0456 71.1647 29.0456C71.0283 29.0456 70.8974 29.0838 70.772 29.1602C70.6493 29.2338 70.5483 29.3375 70.4692 29.4711C70.3929 29.602 70.3547 29.752 70.3547 29.9211V31.7457H69.3156V28.387H70.3547V28.9229C70.3847 28.8302 70.4529 28.7347 70.5592 28.6365C70.6656 28.5384 70.8006 28.4565 70.9643 28.3911C71.1279 28.3229 71.3038 28.2888 71.492 28.2888Z" fill="#676767"/>
<path d="M75.5663 26.3456H76.5891V31.7457H75.5663V26.3456Z" fill="#676767"/>
<path d="M79.5905 28.2888C79.8196 28.2888 80.0432 28.3365 80.2614 28.432C80.4796 28.5247 80.6582 28.6734 80.7973 28.8779C80.9391 29.0825 81.0101 29.3497 81.0101 29.6797V31.7457H79.9669V29.8597C79.9669 29.5843 79.9014 29.3797 79.7705 29.2461C79.6423 29.1125 79.4732 29.0456 79.2632 29.0456C79.1268 29.0456 78.9959 29.0838 78.8705 29.1602C78.7478 29.2338 78.6468 29.3375 78.5678 29.4711C78.4914 29.602 78.4532 29.752 78.4532 29.9211V31.7457H77.4141V28.387H78.4532V28.9229C78.4832 28.8302 78.5514 28.7347 78.6577 28.6365C78.7641 28.5384 78.8991 28.4565 79.0628 28.3911C79.2264 28.3229 79.4023 28.2888 79.5905 28.2888Z" fill="#676767"/>
<path d="M81.3674 28.387H81.9729V27.0083H83.0038V28.387H83.7975V29.2502H83.0038V30.4652C83.0038 30.6261 83.0297 30.7516 83.0815 30.8416C83.1334 30.9288 83.2152 30.9725 83.327 30.9725C83.4115 30.9725 83.4811 30.9561 83.5356 30.9234C83.5902 30.8879 83.6229 30.8634 83.6338 30.8498L84.002 31.5943C83.9856 31.6107 83.9325 31.6393 83.8425 31.6802C83.7552 31.7211 83.642 31.7579 83.5029 31.7907C83.3665 31.8261 83.2125 31.8439 83.0406 31.8439C82.7324 31.8439 82.4774 31.7552 82.2756 31.5779C82.0738 31.3979 81.9729 31.1198 81.9729 30.7434V29.2502H81.3674V28.387Z" fill="#676767"/>
<path d="M85.1318 30.2975C85.14 30.4502 85.1809 30.5866 85.2545 30.7066C85.3282 30.8266 85.4345 30.9207 85.5736 30.9888C85.7155 31.057 85.8846 31.0911 86.0809 31.0911C86.2582 31.0911 86.4136 31.0693 86.5473 31.0257C86.6837 30.982 86.7982 30.9288 86.8909 30.8661C86.9864 30.8007 87.0573 30.7379 87.1037 30.6779L87.5332 31.3161C87.4568 31.4116 87.3546 31.5002 87.2264 31.582C87.1009 31.6611 86.94 31.7239 86.7437 31.7702C86.55 31.8193 86.3073 31.8439 86.0155 31.8439C85.6473 31.8439 85.3241 31.7716 85.0459 31.627C84.7677 31.4825 84.5509 31.2738 84.3954 31.0011C84.24 30.7284 84.1623 30.4038 84.1623 30.0275C84.1623 29.7002 84.2318 29.4056 84.3709 29.1438C84.51 28.8793 84.7118 28.6706 84.9764 28.5179C85.2436 28.3652 85.5641 28.2888 85.9377 28.2888C86.2896 28.2888 86.5937 28.357 86.85 28.4934C87.1091 28.627 87.3096 28.8234 87.4514 29.0825C87.5932 29.3416 87.6641 29.6579 87.6641 30.0316C87.6641 30.0534 87.6628 30.0984 87.66 30.1666C87.66 30.232 87.6573 30.2757 87.6518 30.2975H85.1318ZM86.6905 29.6552C86.6877 29.5679 86.6605 29.4738 86.6087 29.3729C86.5596 29.272 86.4818 29.1861 86.3755 29.1152C86.2691 29.0443 86.1273 29.0088 85.95 29.0088C85.7727 29.0088 85.6268 29.0429 85.5123 29.1111C85.4005 29.1793 85.3159 29.2638 85.2586 29.3647C85.2014 29.4629 85.1686 29.5597 85.1605 29.6552H86.6905Z" fill="#676767"/>
<path d="M89.1676 31.7457H88.1285V28.387H89.1676V28.9311H89.1472C89.1662 28.8656 89.2181 28.7825 89.3026 28.6815C89.3899 28.5806 89.5099 28.4906 89.6626 28.4115C89.8153 28.3297 89.9994 28.2888 90.2149 28.2888C90.3703 28.2888 90.5108 28.312 90.6363 28.3584C90.7644 28.402 90.8558 28.4456 90.9104 28.4893L90.5013 29.3402C90.4658 29.2966 90.399 29.2516 90.3008 29.2052C90.2053 29.1588 90.0853 29.1356 89.9408 29.1356C89.769 29.1356 89.6258 29.1834 89.5112 29.2788C89.3967 29.3716 89.3108 29.4861 89.2535 29.6225C89.1962 29.7561 89.1676 29.8816 89.1676 29.9988V31.7457Z" fill="#676767"/>
<path d="M93.6974 31.7457V31.1607C93.6729 31.2207 93.6102 31.3052 93.5093 31.4143C93.4084 31.5234 93.272 31.6229 93.1002 31.7129C92.9311 31.8002 92.732 31.8439 92.5029 31.8439C92.1811 31.8439 91.8961 31.7675 91.6479 31.6148C91.3997 31.4593 91.2047 31.2479 91.0629 30.9807C90.9238 30.7107 90.8542 30.4066 90.8542 30.0684C90.8542 29.7302 90.9238 29.4275 91.0629 29.1602C91.2047 28.8902 91.3997 28.6775 91.6479 28.522C91.8961 28.3665 92.1811 28.2888 92.5029 28.2888C92.7265 28.2888 92.9202 28.327 93.0838 28.4034C93.2502 28.477 93.3838 28.5643 93.4847 28.6652C93.5884 28.7634 93.6552 28.852 93.6852 28.9311V28.387H94.7161V31.7457H93.6974ZM91.8729 30.0684C91.8729 30.2566 91.9152 30.4229 91.9997 30.5675C92.0842 30.7093 92.1961 30.8198 92.3352 30.8988C92.4743 30.9779 92.6256 31.0175 92.7893 31.0175C92.9611 31.0175 93.1138 30.9779 93.2474 30.8988C93.3811 30.817 93.4861 30.7052 93.5624 30.5634C93.6415 30.4188 93.6811 30.2538 93.6811 30.0684C93.6811 29.8829 93.6415 29.7193 93.5624 29.5775C93.4861 29.4329 93.3811 29.3197 93.2474 29.2379C93.1138 29.1561 92.9611 29.1152 92.7893 29.1152C92.6256 29.1152 92.4743 29.1561 92.3352 29.2379C92.1961 29.317 92.0842 29.4288 91.9997 29.5734C91.9152 29.7152 91.8729 29.8802 91.8729 30.0684Z" fill="#676767"/>
<path d="M97.136 31.0175C97.3132 31.0175 97.4578 30.9875 97.5696 30.9275C97.6814 30.8675 97.7551 30.8225 97.7905 30.7925L98.2733 31.5084C98.2351 31.5384 98.1642 31.5807 98.0605 31.6352C97.9569 31.6898 97.8246 31.7375 97.6637 31.7784C97.5055 31.822 97.3241 31.8439 97.1196 31.8439C96.765 31.8439 96.4473 31.7729 96.1664 31.6311C95.8855 31.4866 95.6632 31.282 95.4996 31.0175C95.3387 30.7502 95.2582 30.4325 95.2582 30.0643C95.2582 29.6934 95.3387 29.3756 95.4996 29.1111C95.6632 28.8465 95.8855 28.6434 96.1664 28.5015C96.4473 28.3597 96.765 28.2888 97.1196 28.2888C97.3214 28.2888 97.5001 28.3106 97.6555 28.3543C97.8137 28.3979 97.946 28.4484 98.0523 28.5056C98.1587 28.5602 98.2323 28.6052 98.2733 28.6406L97.7782 29.3606C97.7592 29.3388 97.7223 29.3088 97.6678 29.2706C97.6132 29.2325 97.541 29.197 97.451 29.1643C97.3637 29.1316 97.2587 29.1152 97.136 29.1152C96.986 29.1152 96.8428 29.1547 96.7064 29.2338C96.5728 29.3129 96.4637 29.4234 96.3791 29.5652C96.2946 29.707 96.2523 29.8734 96.2523 30.0643C96.2523 30.2552 96.2946 30.4229 96.3791 30.5675C96.4637 30.7093 96.5728 30.8198 96.7064 30.8988C96.8428 30.9779 96.986 31.0175 97.136 31.0175Z" fill="#676767"/>
<path d="M98.3753 28.387H98.9807V27.0083H100.012V28.387H100.805V29.2502H100.012V30.4652C100.012 30.6261 100.038 30.7516 100.089 30.8416C100.141 30.9288 100.223 30.9725 100.335 30.9725C100.419 30.9725 100.489 30.9561 100.543 30.9234C100.598 30.8879 100.631 30.8634 100.642 30.8498L101.01 31.5943C100.993 31.6107 100.94 31.6393 100.85 31.6802C100.763 31.7211 100.65 31.7579 100.511 31.7907C100.374 31.8261 100.22 31.8439 100.048 31.8439C99.7403 31.8439 99.4853 31.7552 99.2835 31.5779C99.0816 31.3979 98.9807 31.1198 98.9807 30.7434V29.2502H98.3753V28.387Z" fill="#676767"/>
<path d="M101.424 31.7457V28.387H102.459V31.7457H101.424ZM101.956 27.5197C101.784 27.5197 101.638 27.4597 101.518 27.3397C101.401 27.2197 101.342 27.0765 101.342 26.9102C101.342 26.7438 101.402 26.5992 101.522 26.4765C101.642 26.3538 101.786 26.2924 101.956 26.2924C102.067 26.2924 102.17 26.3211 102.262 26.3783C102.355 26.4329 102.43 26.5065 102.487 26.5992C102.545 26.692 102.573 26.7956 102.573 26.9102C102.573 27.0765 102.512 27.2197 102.389 27.3397C102.269 27.4597 102.125 27.5197 101.956 27.5197Z" fill="#676767"/>
<path d="M102.925 28.387H104.038L104.959 30.7966L105.879 28.387H106.988L105.568 31.7457H104.349L102.925 28.387Z" fill="#676767"/>
<path d="M108.165 30.2975C108.173 30.4502 108.214 30.5866 108.287 30.7066C108.361 30.8266 108.467 30.9207 108.606 30.9888C108.748 31.057 108.917 31.0911 109.114 31.0911C109.291 31.0911 109.446 31.0693 109.58 31.0257C109.716 30.982 109.831 30.9288 109.924 30.8661C110.019 30.8007 110.09 30.7379 110.136 30.6779L110.566 31.3161C110.49 31.4116 110.387 31.5002 110.259 31.582C110.134 31.6611 109.973 31.7239 109.776 31.7702C109.583 31.8193 109.34 31.8439 109.048 31.8439C108.68 31.8439 108.357 31.7716 108.079 31.627C107.8 31.4825 107.584 31.2738 107.428 31.0011C107.273 30.7284 107.195 30.4038 107.195 30.0275C107.195 29.7002 107.265 29.4056 107.404 29.1438C107.543 28.8793 107.745 28.6706 108.009 28.5179C108.276 28.3652 108.597 28.2888 108.97 28.2888C109.322 28.2888 109.626 28.357 109.883 28.4934C110.142 28.627 110.342 28.8234 110.484 29.0825C110.626 29.3416 110.697 29.6579 110.697 30.0316C110.697 30.0534 110.695 30.0984 110.693 30.1666C110.693 30.232 110.69 30.2757 110.685 30.2975H108.165ZM109.723 29.6552C109.72 29.5679 109.693 29.4738 109.641 29.3729C109.592 29.272 109.515 29.1861 109.408 29.1152C109.302 29.0443 109.16 29.0088 108.983 29.0088C108.805 29.0088 108.66 29.0429 108.545 29.1111C108.433 29.1793 108.349 29.2638 108.291 29.3647C108.234 29.4629 108.201 29.5597 108.193 29.6552H109.723Z" fill="#676767"/>
<path d="M115.958 30.8334C116.242 30.8334 116.494 30.7938 116.715 30.7148C116.936 30.6329 117.098 30.5525 117.202 30.4734L117.64 31.3448C117.514 31.4539 117.297 31.5643 116.989 31.6761C116.684 31.7879 116.318 31.8439 115.893 31.8439C115.495 31.8439 115.122 31.7743 114.776 31.6352C114.43 31.4934 114.125 31.297 113.864 31.0461C113.602 30.7925 113.397 30.4966 113.25 30.1584C113.103 29.8175 113.029 29.4493 113.029 29.0538C113.029 28.6584 113.101 28.2902 113.246 27.9493C113.393 27.6056 113.598 27.307 113.86 27.0533C114.121 26.7997 114.425 26.602 114.772 26.4602C115.121 26.3183 115.495 26.2474 115.893 26.2474C116.318 26.2474 116.684 26.3033 116.989 26.4152C117.297 26.527 117.514 26.6374 117.64 26.7465L117.202 27.6179C117.098 27.5388 116.936 27.4597 116.715 27.3806C116.494 27.2988 116.242 27.2579 115.958 27.2579C115.669 27.2579 115.411 27.3043 115.185 27.397C114.961 27.4897 114.77 27.6193 114.612 27.7856C114.457 27.9493 114.338 28.1388 114.256 28.3543C114.175 28.5697 114.134 28.7988 114.134 29.0416C114.134 29.287 114.175 29.5188 114.256 29.737C114.338 29.9525 114.457 30.1434 114.612 30.3097C114.77 30.4734 114.961 30.6016 115.185 30.6943C115.411 30.787 115.669 30.8334 115.958 30.8334Z" fill="#676767"/>
<path d="M119.903 31.8439C119.546 31.8439 119.227 31.7675 118.946 31.6148C118.668 31.462 118.449 31.2534 118.291 30.9888C118.133 30.7216 118.054 30.4175 118.054 30.0766C118.054 29.7356 118.133 29.4316 118.291 29.1643C118.449 28.8943 118.668 28.6815 118.946 28.5261C119.227 28.3679 119.546 28.2888 119.903 28.2888C120.263 28.2888 120.581 28.3679 120.856 28.5261C121.132 28.6815 121.347 28.8943 121.503 29.1643C121.658 29.4316 121.736 29.7356 121.736 30.0766C121.736 30.4175 121.658 30.7216 121.503 30.9888C121.347 31.2534 121.132 31.462 120.856 31.6148C120.581 31.7675 120.263 31.8439 119.903 31.8439ZM119.903 30.9807C120.075 30.9807 120.224 30.9425 120.349 30.8661C120.477 30.787 120.575 30.6793 120.644 30.5429C120.714 30.4038 120.75 30.247 120.75 30.0725C120.75 29.8979 120.714 29.7411 120.644 29.602C120.575 29.4629 120.477 29.3538 120.349 29.2747C120.224 29.1929 120.075 29.152 119.903 29.152C119.731 29.152 119.581 29.1929 119.453 29.2747C119.328 29.3538 119.229 29.4629 119.159 29.602C119.088 29.7411 119.052 29.8979 119.052 30.0725C119.052 30.247 119.088 30.4038 119.159 30.5429C119.229 30.6793 119.328 30.787 119.453 30.8661C119.581 30.9425 119.731 30.9807 119.903 30.9807Z" fill="#676767"/>
<path d="M126.663 28.2888C126.914 28.2888 127.132 28.342 127.318 28.4484C127.506 28.5547 127.652 28.7184 127.756 28.9393C127.862 29.1575 127.915 29.4384 127.915 29.782V31.7457H126.892V29.9497C126.892 29.6661 126.85 29.4452 126.766 29.287C126.684 29.1288 126.527 29.0497 126.295 29.0497C126.164 29.0497 126.044 29.0852 125.935 29.1561C125.826 29.2243 125.739 29.3252 125.673 29.4588C125.611 29.5925 125.579 29.7561 125.579 29.9497V31.7457H124.622V29.9497C124.622 29.6661 124.574 29.4452 124.479 29.287C124.383 29.1288 124.232 29.0497 124.025 29.0497C123.891 29.0497 123.77 29.0838 123.661 29.152C123.554 29.2202 123.47 29.3211 123.407 29.4547C123.347 29.5856 123.317 29.7506 123.317 29.9497V31.7457H122.286V28.387H123.317V28.8779C123.347 28.7934 123.415 28.7061 123.521 28.6161C123.631 28.5261 123.766 28.4497 123.926 28.387C124.087 28.3215 124.261 28.2888 124.446 28.2888C124.648 28.2888 124.816 28.3229 124.949 28.3911C125.083 28.4593 125.191 28.5465 125.272 28.6529C125.357 28.7565 125.421 28.8656 125.465 28.9802C125.503 28.8738 125.578 28.7675 125.69 28.6611C125.802 28.5547 125.942 28.4661 126.111 28.3952C126.28 28.3243 126.464 28.2888 126.663 28.2888Z" fill="#676767"/>
<path d="M129.601 33.4475H128.57V28.387H129.613V28.9311C129.646 28.852 129.717 28.762 129.826 28.6611C129.935 28.5602 130.077 28.4729 130.251 28.3993C130.429 28.3256 130.631 28.2888 130.857 28.2888C131.176 28.2888 131.454 28.3665 131.691 28.522C131.929 28.6775 132.111 28.8902 132.24 29.1602C132.371 29.4275 132.436 29.7302 132.436 30.0684C132.436 30.4066 132.368 30.7107 132.231 30.9807C132.095 31.2479 131.906 31.4593 131.663 31.6148C131.42 31.7675 131.138 31.8439 130.816 31.8439C130.573 31.8439 130.365 31.8002 130.19 31.7129C130.016 31.6257 129.879 31.5275 129.781 31.4184C129.683 31.3093 129.623 31.2234 129.601 31.1607V33.4475ZM131.417 30.0684C131.417 29.8802 131.376 29.7152 131.295 29.5734C131.216 29.4288 131.109 29.317 130.976 29.2379C130.842 29.1561 130.693 29.1152 130.53 29.1152C130.358 29.1152 130.202 29.1561 130.063 29.2379C129.924 29.3197 129.814 29.4329 129.732 29.5775C129.653 29.7193 129.613 29.8829 129.613 30.0684C129.613 30.2538 129.653 30.4188 129.732 30.5634C129.814 30.7052 129.924 30.817 130.063 30.8988C130.202 30.9779 130.358 31.0175 130.53 31.0175C130.693 31.0175 130.842 30.9779 130.976 30.8988C131.109 30.8198 131.216 30.7093 131.295 30.5675C131.376 30.4229 131.417 30.2566 131.417 30.0684Z" fill="#676767"/>
<path d="M135.588 31.7457V31.1607C135.563 31.2207 135.5 31.3052 135.399 31.4143C135.298 31.5234 135.162 31.6229 134.99 31.7129C134.821 31.8002 134.622 31.8439 134.393 31.8439C134.071 31.8439 133.786 31.7675 133.538 31.6148C133.29 31.4593 133.095 31.2479 132.953 30.9807C132.814 30.7107 132.744 30.4066 132.744 30.0684C132.744 29.7302 132.814 29.4275 132.953 29.1602C133.095 28.8902 133.29 28.6775 133.538 28.522C133.786 28.3665 134.071 28.2888 134.393 28.2888C134.617 28.2888 134.81 28.327 134.974 28.4034C135.14 28.477 135.274 28.5643 135.375 28.6652C135.478 28.7634 135.545 28.852 135.575 28.9311V28.387H136.606V31.7457H135.588ZM133.763 30.0684C133.763 30.2566 133.805 30.4229 133.89 30.5675C133.974 30.7093 134.086 30.8198 134.225 30.8988C134.364 30.9779 134.516 31.0175 134.679 31.0175C134.851 31.0175 135.004 30.9779 135.138 30.8988C135.271 30.817 135.376 30.7052 135.453 30.5634C135.532 30.4188 135.571 30.2538 135.571 30.0684C135.571 29.8829 135.532 29.7193 135.453 29.5775C135.376 29.4329 135.271 29.3197 135.138 29.2379C135.004 29.1561 134.851 29.1152 134.679 29.1152C134.516 29.1152 134.364 29.1561 134.225 29.2379C134.086 29.317 133.974 29.4288 133.89 29.5734C133.805 29.7152 133.763 29.8802 133.763 30.0684Z" fill="#676767"/>
<path d="M139.439 28.2888C139.668 28.2888 139.892 28.3365 140.11 28.432C140.328 28.5247 140.507 28.6734 140.646 28.8779C140.788 29.0825 140.859 29.3497 140.859 29.6797V31.7457H139.816V29.8597C139.816 29.5843 139.75 29.3797 139.619 29.2461C139.491 29.1125 139.322 29.0456 139.112 29.0456C138.976 29.0456 138.845 29.0838 138.719 29.1602C138.597 29.2338 138.496 29.3375 138.417 29.4711C138.34 29.602 138.302 29.752 138.302 29.9211V31.7457H137.263V28.387H138.302V28.9229C138.332 28.8302 138.4 28.7347 138.507 28.6365C138.613 28.5384 138.748 28.4565 138.912 28.3911C139.075 28.3229 139.251 28.2888 139.439 28.2888Z" fill="#676767"/>
<path d="M143.082 30.8334L144.076 28.387H145.103L142.808 33.4475H141.764L142.538 31.7457L141.143 28.387H142.182L143.082 30.8334Z" fill="#676767"/>
<path d="M54.1636 10.8415C54.0316 10.8413 53.9227 10.9297 53.9403 11.0377C53.9912 11.3494 54.1642 11.6411 54.4363 11.8666C54.765 12.1389 55.2113 12.2923 55.6771 12.2932C56.1429 12.294 56.59 12.1421 56.9201 11.871C57.1934 11.6465 57.3679 11.3555 57.4205 11.0439C57.4387 10.936 57.3302 10.8472 57.1982 10.8469L54.1636 10.8415Z" fill="#553597"/>
<path d="M40.5977 7.70515C41.4883 7.70515 42.2666 7.80289 42.9327 7.99838C43.5989 8.19388 44.1346 8.40023 44.5401 8.61744C44.9456 8.83466 45.1918 8.97947 45.2786 9.05187L43.7147 11.6693C43.5989 11.5824 43.3997 11.4557 43.1174 11.2892C42.8422 11.1226 42.5128 10.9742 42.129 10.8439C41.7525 10.7136 41.3579 10.6484 40.9452 10.6484C40.3877 10.6484 39.9352 10.7498 39.5876 10.9525C39.2473 11.148 39.0772 11.4412 39.0772 11.8322C39.0772 12.1001 39.1677 12.3427 39.3487 12.5599C39.537 12.7698 39.8193 12.9726 40.1958 13.1681C40.5796 13.3563 41.0647 13.5627 41.6512 13.7871C42.187 13.9826 42.6902 14.2143 43.1608 14.4822C43.6314 14.7501 44.0441 15.0687 44.3989 15.4379C44.7609 15.8 45.0469 16.2199 45.2569 16.6978C45.4669 17.1757 45.5719 17.7187 45.5719 18.3269C45.5719 19.0509 45.4234 19.6808 45.1266 20.2166C44.8297 20.7452 44.4243 21.1832 43.9102 21.5308C43.4034 21.8783 42.8241 22.1354 42.1725 22.3019C41.5281 22.4757 40.8583 22.5625 40.1633 22.5625C39.1786 22.5625 38.2952 22.4503 37.5133 22.2259C36.7385 22.0014 36.1122 21.7589 35.6344 21.4982C35.1565 21.2375 34.8705 21.0638 34.7764 20.9769L36.3946 18.2509C36.4815 18.316 36.648 18.421 36.8942 18.5658C37.1476 18.7106 37.4553 18.8627 37.8174 19.022C38.1794 19.174 38.5631 19.3043 38.9686 19.413C39.3813 19.5216 39.7868 19.5759 40.185 19.5759C40.8511 19.5759 41.3507 19.4492 41.6838 19.1957C42.0168 18.9351 42.1833 18.5948 42.1833 18.1748C42.1833 17.8635 42.0784 17.5847 41.8684 17.3386C41.6584 17.0924 41.3435 16.8607 40.9235 16.6435C40.5036 16.419 39.9786 16.1837 39.3487 15.9375C38.7188 15.6841 38.1287 15.3764 37.5784 15.0144C37.0354 14.6524 36.5937 14.1998 36.2534 13.6568C35.9131 13.1138 35.743 12.4404 35.743 11.6367C35.743 10.833 35.9674 10.1379 36.4163 9.55146C36.8725 8.95774 37.4698 8.5016 38.2083 8.18302C38.9541 7.86444 39.7506 7.70515 40.5977 7.70515Z" fill="#553597"/>
<path d="M46.0187 13.3853H47.5392V9.72523H50.8083V13.3853H52.8066V16.1004H50.8083V18.5875C50.8083 18.9568 50.8626 19.2573 50.9712 19.489C51.0798 19.7134 51.2789 19.8257 51.5685 19.8257C51.764 19.8257 51.9305 19.7822 52.0681 19.6953C52.2057 19.6084 52.2889 19.5505 52.3179 19.5216L53.4474 21.8675C53.3967 21.9109 53.2374 21.9906 52.9695 22.1064C52.7089 22.2222 52.3758 22.3272 51.9703 22.4214C51.5649 22.5155 51.1123 22.5625 50.6128 22.5625C49.7222 22.5625 48.9873 22.3128 48.408 21.8132C47.8288 21.3063 47.5392 20.528 47.5392 19.4781V16.1004H46.0187V13.3853Z" fill="#553597"/>
<path d="M54.0183 22.3019V13.3853H57.3199V22.3019H54.0183Z" fill="#553597"/>
<path d="M64.9163 13.3853H68.6523L64.4493 17.6427L69.0868 22.3019H65.2638L61.821 18.7179V22.3019H58.5193V7.3576H61.821V16.4914L64.9163 13.3853Z" fill="#553597"/>
<path d="M75.2925 13.3853H79.0285L74.8254 17.6427L79.463 22.3019H75.64L72.1972 18.7179V22.3019H68.8955V7.3576H72.1972V16.4914L75.2925 13.3853Z" fill="#553597"/>
<path d="M91.8484 13.1246C92.5217 13.1246 93.1154 13.2658 93.6295 13.5482C94.1436 13.8233 94.5454 14.2505 94.835 14.8297C95.1319 15.409 95.2803 16.1547 95.2803 17.067V22.3019H92.033V17.5666C92.033 16.944 91.9389 16.4407 91.7506 16.057C91.5624 15.6733 91.1895 15.4814 90.632 15.4814C90.2989 15.4814 90.0057 15.5683 89.7523 15.742C89.4988 15.9158 89.3033 16.1584 89.1658 16.4697C89.0282 16.7738 88.9594 17.1395 88.9594 17.5666V22.3019H85.9293V17.5666C85.9293 16.944 85.8243 16.4407 85.6143 16.057C85.4116 15.6733 85.0496 15.4814 84.5283 15.4814C84.1952 15.4814 83.902 15.5683 83.6486 15.742C83.3951 15.9086 83.1996 16.1475 83.0621 16.4588C82.9318 16.7629 82.8666 17.1322 82.8666 17.5666V22.3019H79.5867V13.3853H82.8666V14.656C82.9535 14.4315 83.1417 14.2034 83.4313 13.9718C83.7282 13.7328 84.0938 13.5337 84.5283 13.3744C84.9627 13.2079 85.4225 13.1246 85.9076 13.1246C86.4361 13.1246 86.8778 13.2043 87.2326 13.3636C87.5874 13.5156 87.877 13.722 88.1014 13.9826C88.3331 14.2433 88.5178 14.5256 88.6553 14.8297C88.7567 14.5691 88.9558 14.3084 89.2527 14.0478C89.5568 13.7799 89.9333 13.559 90.3822 13.3853C90.8383 13.2115 91.3271 13.1246 91.8484 13.1246Z" fill="#553597"/>
<path d="M103.351 22.3019V20.8574C103.286 21.0022 103.119 21.2122 102.851 21.4873C102.591 21.7625 102.243 22.0123 101.809 22.2367C101.374 22.4539 100.867 22.5625 100.288 22.5625C99.4193 22.5625 98.659 22.3526 98.0074 21.9326C97.3557 21.5054 96.8489 20.9371 96.4869 20.2275C96.1249 19.5107 95.9439 18.7179 95.9439 17.849C95.9439 16.9802 96.1249 16.191 96.4869 15.4814C96.8489 14.7646 97.3557 14.1926 98.0074 13.7654C98.659 13.3382 99.4193 13.1246 100.288 13.1246C100.846 13.1246 101.334 13.2151 101.754 13.3961C102.174 13.5699 102.515 13.7799 102.775 14.0261C103.036 14.265 103.217 14.4858 103.318 14.6886V13.3853H106.598V22.3019H103.351ZM99.1803 17.849C99.1803 18.2545 99.2745 18.6201 99.4627 18.9459C99.651 19.2645 99.9008 19.5143 100.212 19.6953C100.531 19.8763 100.882 19.9668 101.266 19.9668C101.664 19.9668 102.015 19.8763 102.319 19.6953C102.623 19.5143 102.862 19.2645 103.036 18.9459C103.217 18.6201 103.307 18.2545 103.307 17.849C103.307 17.4436 103.217 17.0815 103.036 16.7629C102.862 16.4371 102.623 16.1837 102.319 16.0027C102.015 15.8144 101.664 15.7203 101.266 15.7203C100.882 15.7203 100.531 15.8144 100.212 16.0027C99.9008 16.1837 99.651 16.4371 99.4627 16.7629C99.2745 17.0815 99.1803 17.4436 99.1803 17.849Z" fill="#553597"/>
<path d="M114.069 13.1246C114.692 13.1246 115.3 13.2513 115.894 13.5047C116.488 13.7582 116.976 14.16 117.36 14.7103C117.744 15.2533 117.936 15.9701 117.936 16.8607V22.3019H114.623V17.4037C114.623 16.7666 114.471 16.2887 114.167 15.9701C113.863 15.6443 113.465 15.4814 112.972 15.4814C112.647 15.4814 112.339 15.5683 112.049 15.742C111.767 15.9086 111.535 16.1475 111.354 16.4588C111.18 16.7629 111.093 17.1141 111.093 17.5123V22.3019H107.792V13.3853H111.093V14.6994C111.18 14.4605 111.361 14.2216 111.637 13.9826C111.919 13.7364 112.27 13.5337 112.69 13.3744C113.117 13.2079 113.577 13.1246 114.069 13.1246Z" fill="#553597"/>
<path d="M132.358 7.9658H135.606V16.7738C135.606 17.954 135.374 18.9785 134.91 19.8474C134.447 20.709 133.785 21.3787 132.923 21.8566C132.061 22.3272 131.033 22.5625 129.839 22.5625C128.637 22.5625 127.601 22.3272 126.732 21.8566C125.863 21.3787 125.197 20.709 124.734 19.8474C124.278 18.9785 124.05 17.954 124.05 16.7738V7.9658H127.286V16.6C127.286 17.2517 127.388 17.802 127.59 18.2509C127.8 18.6998 128.097 19.0401 128.481 19.2718C128.865 19.4962 129.317 19.6084 129.839 19.6084C130.353 19.6084 130.798 19.4962 131.174 19.2718C131.551 19.0401 131.84 18.6998 132.043 18.2509C132.253 17.802 132.358 17.2517 132.358 16.6V7.9658Z" fill="#553597"/>
<path d="M145.613 14.5908L151 22.3019H146.764L143.452 17.2951L140.248 22.3019H136.338L141.421 14.5908L136.805 7.9658H140.932L143.582 12.0929L146.199 7.9658H150.153L145.613 14.5908Z" fill="#553597"/>
</svg>
