<svg width="83" height="40" viewBox="0 0 83 40" fill="none" xmlns="http://www.w3.org/2000/svg">
<g filter="url(#filter0_b_1_596)">
<rect width="83" height="39.2564" rx="19.6282" fill="#79766D" fill-opacity="0.15"/>
<rect x="0.25" y="0.25" width="82.5" height="38.7564" rx="19.3782" stroke="url(#paint0_linear_1_596)" stroke-width="0.5"/>
<path d="M19.7498 23.7533C19.1081 23.7533 18.5657 23.5318 18.1227 23.0887C17.6796 22.6457 17.4581 22.1033 17.4581 21.4616C17.4581 20.82 17.6796 20.2776 18.1227 19.8346C18.5657 19.3915 19.1081 19.17 19.7498 19.17C20.3914 19.17 20.9338 19.3915 21.3768 19.8346C21.8199 20.2776 22.0414 20.82 22.0414 21.4616C22.0414 22.1033 21.8199 22.6457 21.3768 23.0887C20.9338 23.5318 20.3914 23.7533 19.7498 23.7533ZM16.0831 28.795C15.5789 28.795 15.1473 28.6155 14.7883 28.2564C14.4293 27.8974 14.2498 27.4658 14.2498 26.9616V14.1283C14.2498 13.6241 14.4293 13.1925 14.7883 12.8335C15.1473 12.4745 15.5789 12.295 16.0831 12.295H16.9998V10.4616H18.8331V12.295H26.1664V10.4616H27.9998V12.295H28.9164C29.4206 12.295 29.8522 12.4745 30.2112 12.8335C30.5702 13.1925 30.7498 13.6241 30.7498 14.1283V26.9616C30.7498 27.4658 30.5702 27.8974 30.2112 28.2564C29.8522 28.6155 29.4206 28.795 28.9164 28.795H16.0831ZM16.0831 26.9616H28.9164V17.795H16.0831V26.9616Z" fill="#212D2D"/>
<path d="M41.5 4L41.5 35.2564" stroke="#9E9E9E" stroke-width="0.679487" stroke-linecap="round"/>
<path d="M69.6671 24.1384V26.8884C69.6681 27.1437 69.6158 27.3964 69.5135 27.6303C69.4112 27.8642 69.2612 28.0742 69.0731 28.2468C68.885 28.4194 68.6629 28.5508 68.4211 28.6325C68.1792 28.7143 67.923 28.7447 67.6687 28.7217C64.848 28.4152 62.1385 27.4514 59.7579 25.9076C57.5431 24.5002 55.6653 22.6224 54.2579 20.4076C52.7087 18.0162 51.7446 15.2935 51.4437 12.4601C51.4208 12.2066 51.4509 11.9511 51.5322 11.7099C51.6134 11.4687 51.744 11.247 51.9156 11.059C52.0872 10.8711 52.296 10.7209 52.5289 10.618C52.7617 10.5152 53.0134 10.462 53.2679 10.4617H56.0179C56.4628 10.4573 56.894 10.6149 57.2313 10.905C57.5686 11.195 57.789 11.5979 57.8512 12.0384C57.9673 12.9185 58.1825 13.7826 58.4929 14.6142C58.6162 14.9423 58.6429 15.2989 58.5698 15.6417C58.4967 15.9845 58.3268 16.2992 58.0804 16.5484L56.9162 17.7126C58.2211 20.0075 60.1213 21.9076 62.4162 23.2126L63.5804 22.0484C63.8296 21.8019 64.1443 21.6321 64.4871 21.559C64.8299 21.4859 65.1865 21.5126 65.5146 21.6359C66.3462 21.9462 67.2103 22.1615 68.0904 22.2776C68.5357 22.3404 68.9423 22.5647 69.233 22.9078C69.5237 23.2509 69.6782 23.6888 69.6671 24.1384Z" stroke="#212D2D" stroke-width="2" stroke-linecap="round" stroke-linejoin="round"/>
</g>
<defs>
<filter id="filter0_b_1_596" x="-59.7949" y="-59.7949" width="202.59" height="158.846" filterUnits="userSpaceOnUse" color-interpolation-filters="sRGB">
<feFlood flood-opacity="0" result="BackgroundImageFix"/>
<feGaussianBlur in="BackgroundImageFix" stdDeviation="29.8974"/>
<feComposite in2="SourceAlpha" operator="in" result="effect1_backgroundBlur_1_596"/>
<feBlend mode="normal" in="SourceGraphic" in2="effect1_backgroundBlur_1_596" result="shape"/>
</filter>
<linearGradient id="paint0_linear_1_596" x1="98.8295" y1="51.8481" x2="0.991055" y2="45.0523" gradientUnits="userSpaceOnUse">
<stop stop-color="white"/>
<stop offset="1" stop-color="#999999" stop-opacity="0"/>
</linearGradient>
</defs>
</svg>
