<svg width="216" height="48" viewBox="0 0 216 48" fill="none"
    xmlns="http://www.w3.org/2000/svg">
    <g filter="url(#filter0_b_1_556)">
        <rect x="0.5" width="214.872" height="47.2564" rx="23.6282" fill="white" fill-opacity="0.2"/>
        <rect x="0.75" y="0.25" width="214.372" height="46.7564" rx="23.3782" stroke="url(#paint0_linear_1_556)" stroke-width="0.5"/>
        <path d="M24.75 27.7533C24.1083 27.7533 23.566 27.5318 23.1229 27.0887C22.6799 26.6457 22.4583 26.1033 22.4583 25.4616C22.4583 24.82 22.6799 24.2776 23.1229 23.8346C23.566 23.3915 24.1083 23.17 24.75 23.17C25.3917 23.17 25.934 23.3915 26.3771 23.8346C26.8201 24.2776 27.0417 24.82 27.0417 25.4616C27.0417 26.1033 26.8201 26.6457 26.3771 27.0887C25.934 27.5318 25.3917 27.7533 24.75 27.7533ZM21.0833 32.795C20.5792 32.795 20.1476 32.6155 19.7885 32.2564C19.4295 31.8974 19.25 31.4658 19.25 30.9616V18.1283C19.25 17.6241 19.4295 17.1925 19.7885 16.8335C20.1476 16.4745 20.5792 16.295 21.0833 16.295H22V14.4616H23.8333V16.295H31.1667V14.4616H33V16.295H33.9167C34.4208 16.295 34.8524 16.4745 35.2115 16.8335C35.5705 17.1925 35.75 17.6241 35.75 18.1283V30.9616C35.75 31.4658 35.5705 31.8974 35.2115 32.2564C34.8524 32.6155 34.4208 32.795 33.9167 32.795H21.0833ZM21.0833 30.9616H33.9167V21.795H21.0833V30.9616Z" fill="#BEB3A1"/>
        <path d="M45.6184 29.6282V19.1982H46.7384V28.5782H51.3584V29.6282H45.6184ZM57.9765 29.7962C57.2485 29.7962 56.5672 29.6655 55.9325 29.4042C55.3072 29.1335 54.7565 28.7602 54.2805 28.2842C53.8045 27.7989 53.4312 27.2295 53.1605 26.5762C52.8898 25.9135 52.7545 25.1902 52.7545 24.4062C52.7545 23.6222 52.8898 22.9035 53.1605 22.2502C53.4312 21.5875 53.8045 21.0182 54.2805 20.5422C54.7565 20.0569 55.3072 19.6835 55.9325 19.4222C56.5672 19.1609 57.2485 19.0302 57.9765 19.0302C58.7045 19.0302 59.3812 19.1655 60.0065 19.4362C60.6412 19.6975 61.1965 20.0709 61.6725 20.5562C62.1485 21.0322 62.5218 21.5969 62.7925 22.2502C63.0632 22.9035 63.1985 23.6222 63.1985 24.4062C63.1985 25.1902 63.0632 25.9135 62.7925 26.5762C62.5218 27.2295 62.1485 27.7989 61.6725 28.2842C61.1965 28.7602 60.6412 29.1335 60.0065 29.4042C59.3812 29.6655 58.7045 29.7962 57.9765 29.7962ZM57.9765 28.7462C58.5832 28.7462 59.1338 28.6342 59.6285 28.4102C60.1325 28.1862 60.5665 27.8735 60.9305 27.4722C61.2945 27.0709 61.5745 26.6089 61.7705 26.0862C61.9758 25.5635 62.0785 25.0035 62.0785 24.4062C62.0785 23.8182 61.9758 23.2629 61.7705 22.7402C61.5745 22.2175 61.2945 21.7555 60.9305 21.3542C60.5665 20.9529 60.1325 20.6402 59.6285 20.4162C59.1338 20.1922 58.5832 20.0802 57.9765 20.0802C57.3698 20.0802 56.8145 20.1922 56.3105 20.4162C55.8158 20.6402 55.3865 20.9529 55.0225 21.3542C54.6585 21.7555 54.3738 22.2175 54.1685 22.7402C53.9725 23.2629 53.8745 23.8182 53.8745 24.4062C53.8745 25.0035 53.9725 25.5635 54.1685 26.0862C54.3738 26.6089 54.6585 27.0709 55.0225 27.4722C55.3865 27.8735 55.8205 28.1862 56.3245 28.4102C56.8285 28.6342 57.3792 28.7462 57.9765 28.7462ZM65.6335 29.6282V19.1982H69.2175C69.8988 19.1982 70.4962 19.3335 71.0095 19.6042C71.5228 19.8655 71.9195 20.2389 72.1995 20.7242C72.4888 21.2002 72.6335 21.7555 72.6335 22.3902C72.6335 23.1275 72.4375 23.7575 72.0455 24.2802C71.6628 24.8029 71.1402 25.1715 70.4775 25.3862L72.9135 29.6282H71.5975L69.0495 25.1342L69.8055 25.5682H66.7535V29.6282H65.6335ZM66.7535 24.5182H69.2735C69.7215 24.5182 70.1135 24.4342 70.4495 24.2662C70.7855 24.0889 71.0468 23.8415 71.2335 23.5242C71.4202 23.1975 71.5135 22.8149 71.5135 22.3762C71.5135 21.9375 71.4202 21.5595 71.2335 21.2422C71.0468 20.9249 70.7855 20.6822 70.4495 20.5142C70.1135 20.3369 69.7215 20.2482 69.2735 20.2482H66.7535V24.5182ZM74.8823 29.6282V19.1982H81.6023V20.2482H76.0023V23.8742H81.3223V24.9242H76.0023V28.5782H81.6023V29.6282H74.8823ZM83.7345 29.6282V19.1982H84.7145L88.6345 24.8822H88.0885L91.9945 19.1982H92.9745V29.6282H91.8545V20.7102L92.2185 20.8502L88.3825 26.4082H88.3265L84.5045 20.8502L84.8545 20.7102V29.6282H83.7345Z" fill="white"/>
        <path d="M110.936 8L110.936 39.2564" stroke="#9E9E9E" stroke-width="0.679487" stroke-linecap="round"/>
        <g clip-path="url(#clip0_1_556)">
            <path d="M147.103 28.1384V30.8884C147.104 31.1437 147.052 31.3964 146.949 31.6303C146.847 31.8642 146.697 32.0742 146.509 32.2468C146.321 32.4194 146.099 32.5508 145.857 32.6325C145.615 32.7143 145.359 32.7447 145.105 32.7217C142.284 32.4152 139.574 31.4514 137.194 29.9076C134.979 28.5002 133.101 26.6224 131.694 24.4076C130.144 22.0162 129.18 19.2935 128.88 16.4601C128.857 16.2066 128.887 15.9511 128.968 15.7099C129.049 15.4687 129.18 15.247 129.351 15.059C129.523 14.8711 129.732 14.7209 129.965 14.618C130.197 14.5152 130.449 14.462 130.704 14.4617H133.454C133.899 14.4573 134.33 14.6149 134.667 14.905C135.004 15.195 135.225 15.5979 135.287 16.0384C135.403 16.9185 135.618 17.7826 135.929 18.6142C136.052 18.9423 136.079 19.2989 136.006 19.6417C135.932 19.9845 135.763 20.2992 135.516 20.5484L134.352 21.7126C135.657 24.0075 137.557 25.9076 139.852 27.2126L141.016 26.0484C141.265 25.8019 141.58 25.6321 141.923 25.559C142.266 25.4859 142.622 25.5126 142.95 25.6359C143.782 25.9462 144.646 26.1615 145.526 26.2776C145.971 26.3404 146.378 26.5647 146.669 26.9078C146.96 27.2509 147.114 27.6888 147.103 28.1384Z" stroke="#BEB3A1" stroke-width="2" stroke-linecap="round" stroke-linejoin="round"/>
        </g>
        <path d="M155.977 29.6282V19.1982H157.097V29.6282H155.977ZM159.839 29.6282V19.1982H163.423C164.104 19.1982 164.701 19.3335 165.215 19.6042C165.728 19.8655 166.125 20.2389 166.405 20.7242C166.694 21.2002 166.839 21.7555 166.839 22.3902C166.839 23.0249 166.694 23.5802 166.405 24.0562C166.125 24.5322 165.728 24.9055 165.215 25.1762C164.711 25.4375 164.113 25.5682 163.423 25.5682H160.959V29.6282H159.839ZM160.959 24.5182H163.479C163.927 24.5182 164.319 24.4342 164.655 24.2662C164.991 24.0889 165.252 23.8415 165.439 23.5242C165.625 23.1975 165.719 22.8149 165.719 22.3762C165.719 21.9375 165.625 21.5595 165.439 21.2422C165.252 20.9249 164.991 20.6822 164.655 20.5142C164.319 20.3369 163.927 20.2482 163.479 20.2482H160.959V24.5182ZM172.629 29.7962C171.966 29.7962 171.364 29.6702 170.823 29.4182C170.281 29.1662 169.824 28.8302 169.451 28.4102C169.077 27.9809 168.811 27.5095 168.653 26.9962L169.661 26.6182C169.903 27.3275 170.281 27.8689 170.795 28.2422C171.308 28.6062 171.919 28.7882 172.629 28.7882C173.077 28.7882 173.469 28.7182 173.805 28.5782C174.15 28.4289 174.416 28.2235 174.603 27.9622C174.789 27.7009 174.883 27.3975 174.883 27.0522C174.883 26.5389 174.743 26.1422 174.463 25.8622C174.183 25.5822 173.781 25.3675 173.259 25.2182L171.383 24.6582C170.645 24.4435 170.076 24.0842 169.675 23.5802C169.283 23.0762 169.087 22.5022 169.087 21.8582C169.087 21.3075 169.222 20.8222 169.493 20.4022C169.763 19.9729 170.132 19.6369 170.599 19.3942C171.075 19.1515 171.611 19.0302 172.209 19.0302C172.834 19.0302 173.394 19.1469 173.889 19.3802C174.393 19.6042 174.817 19.9029 175.163 20.2762C175.508 20.6495 175.755 21.0649 175.905 21.5222L174.925 21.9142C174.701 21.2982 174.351 20.8315 173.875 20.5142C173.408 20.1969 172.857 20.0382 172.223 20.0382C171.821 20.0382 171.467 20.1082 171.159 20.2482C170.86 20.3882 170.627 20.5889 170.459 20.8502C170.291 21.1115 170.207 21.4195 170.207 21.7742C170.207 22.2035 170.342 22.5909 170.613 22.9362C170.883 23.2722 171.299 23.5242 171.859 23.6922L173.511 24.1822C174.332 24.4249 174.953 24.7749 175.373 25.2322C175.793 25.6895 176.003 26.2635 176.003 26.9542C176.003 27.5142 175.858 28.0089 175.569 28.4382C175.289 28.8582 174.892 29.1895 174.379 29.4322C173.875 29.6749 173.291 29.7962 172.629 29.7962ZM182.114 29.7962C181.376 29.7962 180.728 29.6422 180.168 29.3342C179.608 29.0262 179.174 28.6062 178.866 28.0742C178.558 27.5329 178.404 26.9169 178.404 26.2262V19.1982H179.524V26.2262C179.524 26.7302 179.631 27.1735 179.846 27.5562C180.07 27.9295 180.373 28.2235 180.756 28.4382C181.148 28.6435 181.6 28.7462 182.114 28.7462C182.627 28.7462 183.075 28.6435 183.458 28.4382C183.85 28.2235 184.153 27.9295 184.368 27.5562C184.592 27.1735 184.704 26.7302 184.704 26.2262V19.1982H185.824V26.2262C185.824 26.9169 185.67 27.5329 185.362 28.0742C185.054 28.6062 184.62 29.0262 184.06 29.3342C183.509 29.6422 182.86 29.7962 182.114 29.7962ZM188.528 29.6282V19.1982H189.508L193.428 24.8822H192.882L196.788 19.1982H197.768V29.6282H196.648V20.7102L197.012 20.8502L193.176 26.4082H193.12L189.298 20.8502L189.648 20.7102V29.6282H188.528Z" fill="white"/>
    </g>
    <defs>
        <filter id="filter0_b_1_556" x="-59.2949" y="-59.7949" width="334.461" height="166.846" filterUnits="userSpaceOnUse" color-interpolation-filters="sRGB">
            <feFlood flood-opacity="0" result="BackgroundImageFix"/>
            <feGaussianBlur in="BackgroundImageFix" stdDeviation="90"/>
            <feComposite in2="SourceAlpha" operator="in" result="effect1_backgroundBlur_1_556"/>
            <feBlend mode="normal" in="SourceGraphic" in2="effect1_backgroundBlur_1_556" result="shape"/>
        </filter>
        <linearGradient id="paint0_linear_1_556" x1="256.351" y1="62.4141" x2="7.39862" y2="25.2264" gradientUnits="userSpaceOnUse">
            <stop stop-color="white"/>
            <stop offset="1" stop-color="#999999" stop-opacity="0"/>
        </linearGradient>
        <clipPath id="clip0_1_556">
            <rect width="22" height="22" fill="white" transform="translate(126.936 12.6282)"/>
        </clipPath>
    </defs>
</svg>
