<svg width="359" height="60" viewBox="0 0 359 60" fill="none" xmlns="http://www.w3.org/2000/svg">
<path d="M5.81 10.92H2.87L2.142 12.866C2.114 12.9127 2.09533 12.964 2.086 13.02C2.07667 13.076 2.072 13.118 2.072 13.146C2.072 13.2487 2.11867 13.3327 2.212 13.398C2.31467 13.4633 2.51533 13.5193 2.814 13.566C2.94467 13.5847 3.01 13.6733 3.01 13.832C3.01 13.8973 3.00067 13.9767 2.982 14.07C2.73 14.0513 2.464 14.0327 2.184 14.014C1.904 14.0047 1.62867 14 1.358 14C1.17133 14 0.975333 14.0047 0.77 14.014C0.564667 14.0233 0.336 14.042 0.084 14.07C0.0653333 14.0327 0.056 13.9907 0.056 13.944C0.056 13.8973 0.056 13.86 0.056 13.832C0.056 13.6547 0.116667 13.5613 0.238 13.552C0.527333 13.496 0.732667 13.4353 0.854 13.37C0.984667 13.3047 1.08733 13.1927 1.162 13.034L4.536 4.97C4.61067 4.81133 4.72267 4.732 4.872 4.732C4.91867 4.732 4.96533 4.73667 5.012 4.746C5.05867 4.746 5.11 4.75067 5.166 4.76L8.54 13.076C8.596 13.216 8.70333 13.3233 8.862 13.398C9.02067 13.4633 9.19333 13.51 9.38 13.538C9.52 13.566 9.59 13.6593 9.59 13.818C9.59 13.8927 9.58067 13.9767 9.562 14.07C9.26333 14.0513 8.96933 14.0327 8.68 14.014C8.39067 14.0047 8.12 14 7.868 14C7.73733 14 7.57867 14 7.392 14C7.20533 14.0093 7.014 14.0187 6.818 14.028C6.622 14.0373 6.426 14.042 6.23 14.042C6.04333 14.0513 5.88467 14.0607 5.754 14.07C5.73533 14.0327 5.726 13.9907 5.726 13.944C5.726 13.8973 5.726 13.86 5.726 13.832C5.726 13.748 5.74 13.6873 5.768 13.65C5.80533 13.6033 5.84267 13.5753 5.88 13.566C6.12267 13.5193 6.3 13.468 6.412 13.412C6.53333 13.3467 6.594 13.2533 6.594 13.132C6.594 13.076 6.58 13.006 6.552 12.922L5.81 10.92ZM5.544 10.22L4.354 7.07L3.136 10.22H5.544ZM16.0498 12.81C16.0498 13.006 16.1758 13.1367 16.4278 13.202C16.6798 13.2673 17.0951 13.3 17.6738 13.3H18.2058C18.4391 13.3 18.6398 13.2767 18.8078 13.23C18.9851 13.174 19.1391 13.0853 19.2698 12.964C19.4005 12.8427 19.5171 12.6887 19.6198 12.502C19.7318 12.306 19.8391 12.0727 19.9418 11.802C19.9698 11.7273 20.0398 11.69 20.1518 11.69C20.1985 11.69 20.2545 11.704 20.3198 11.732C20.3851 11.76 20.4505 11.788 20.5158 11.816C20.4411 12.1147 20.3711 12.4413 20.3058 12.796C20.2498 13.1413 20.1985 13.482 20.1518 13.818C20.1425 13.93 20.1098 14 20.0538 14.028C20.0071 14.056 19.9558 14.07 19.8998 14.07C19.8251 14.07 19.7178 14.0653 19.5778 14.056C19.4471 14.0467 19.3025 14.0373 19.1438 14.028C18.9851 14.028 18.8218 14.0233 18.6538 14.014C18.4951 14.0047 18.3551 14 18.2338 14H15.0558C14.7851 14 14.4725 14.0047 14.1178 14.014C13.7725 14.0327 13.4598 14.0513 13.1798 14.07C13.1611 14.0327 13.1518 13.986 13.1518 13.93C13.1518 13.8647 13.1518 13.818 13.1518 13.79C13.1518 13.65 13.1985 13.5753 13.2918 13.566C13.6465 13.5007 13.8985 13.4307 14.0478 13.356C14.2065 13.2813 14.2858 13.1507 14.2858 12.964V5.95C14.2858 5.85667 14.2765 5.782 14.2578 5.726C14.2391 5.66067 14.2018 5.60467 14.1458 5.558C14.0898 5.51133 14.0011 5.474 13.8798 5.446C13.7678 5.40867 13.6138 5.376 13.4178 5.348C13.3245 5.32 13.2778 5.24067 13.2778 5.11C13.2778 5.082 13.2778 5.04 13.2778 4.984C13.2778 4.928 13.2871 4.87667 13.3058 4.83C13.6045 4.84867 13.9218 4.86733 14.2578 4.886C14.5938 4.89533 14.8925 4.9 15.1538 4.9C15.2845 4.9 15.4338 4.9 15.6018 4.9C15.7698 4.89067 15.9425 4.886 16.1198 4.886C16.3065 4.87667 16.4885 4.86733 16.6658 4.858C16.8525 4.84867 17.0205 4.83933 17.1698 4.83C17.1791 4.87667 17.1838 4.928 17.1838 4.984C17.1931 5.04 17.1978 5.082 17.1978 5.11C17.1978 5.24067 17.1511 5.32 17.0578 5.348C16.6565 5.404 16.3858 5.47867 16.2458 5.572C16.1151 5.656 16.0498 5.79133 16.0498 5.978V12.81ZM21.0522 11.004C21.0522 10.5467 21.1315 10.1267 21.2902 9.744C21.4582 9.352 21.6868 9.016 21.9762 8.736C22.2655 8.44667 22.6108 8.22267 23.0122 8.064C23.4135 7.90533 23.8522 7.826 24.3282 7.826C24.8228 7.826 25.2708 7.90533 25.6722 8.064C26.0735 8.22267 26.4188 8.44667 26.7082 8.736C26.9975 9.016 27.2168 9.352 27.3662 9.744C27.5248 10.1267 27.6042 10.5467 27.6042 11.004C27.6042 11.4613 27.5202 11.886 27.3522 12.278C27.1935 12.6607 26.9648 12.992 26.6662 13.272C26.3768 13.552 26.0315 13.7713 25.6302 13.93C25.2288 14.0887 24.7902 14.168 24.3142 14.168C23.8195 14.168 23.3715 14.0887 22.9702 13.93C22.5688 13.7713 22.2235 13.552 21.9342 13.272C21.6542 12.992 21.4348 12.6607 21.2762 12.278C21.1268 11.886 21.0522 11.4613 21.0522 11.004ZM22.8162 10.724C22.8162 11.5827 22.9562 12.2687 23.2362 12.782C23.5255 13.2953 23.9362 13.552 24.4682 13.552C24.9628 13.552 25.3128 13.356 25.5182 12.964C25.7328 12.5627 25.8402 12.0027 25.8402 11.284C25.8402 10.4347 25.6955 9.74867 25.4062 9.226C25.1168 8.70333 24.7108 8.442 24.1882 8.442C23.6935 8.442 23.3388 8.64733 23.1242 9.058C22.9188 9.45933 22.8162 10.0147 22.8162 10.724ZM32.982 7.84C33.2527 7.84 33.4534 7.91 33.584 8.05C33.724 8.19 33.794 8.36733 33.794 8.582C33.794 8.64733 33.78 8.70333 33.752 8.75C33.7334 8.79667 33.682 8.848 33.598 8.904C33.5234 8.96 33.416 9.02533 33.276 9.1C33.136 9.16533 32.954 9.24933 32.73 9.352C32.5807 9.20267 32.4407 9.10467 32.31 9.058C32.1887 9.002 32.0674 8.974 31.946 8.974C31.834 8.974 31.722 8.99267 31.61 9.03C31.5074 9.06733 31.414 9.142 31.33 9.254C31.246 9.35667 31.176 9.49667 31.12 9.674C31.0734 9.85133 31.05 10.08 31.05 10.36V12.964C31.05 13.1507 31.1247 13.2907 31.274 13.384C31.4234 13.468 31.7174 13.5473 32.156 13.622C32.2587 13.6407 32.31 13.7013 32.31 13.804C32.31 13.9347 32.3007 14.0233 32.282 14.07C32.1607 14.0607 32.0114 14.0513 31.834 14.042C31.6567 14.042 31.47 14.0373 31.274 14.028C31.078 14.0187 30.882 14.0093 30.686 14C30.4994 14 30.3314 14 30.182 14C29.8274 14 29.524 14.0047 29.272 14.014C29.02 14.0327 28.782 14.0513 28.558 14.07C28.5394 14.0233 28.53 13.9347 28.53 13.804C28.53 13.7013 28.5814 13.6407 28.684 13.622C28.9827 13.566 29.188 13.5053 29.3 13.44C29.412 13.3747 29.468 13.272 29.468 13.132V9.366C29.468 9.15133 29.426 8.97867 29.342 8.848C29.2674 8.71733 29.048 8.62867 28.684 8.582C28.5534 8.56333 28.488 8.49333 28.488 8.372C28.488 8.344 28.488 8.30667 28.488 8.26C28.488 8.21333 28.4974 8.176 28.516 8.148C28.572 8.148 28.6514 8.148 28.754 8.148C28.8567 8.13867 28.9687 8.134 29.09 8.134C29.2114 8.12467 29.3327 8.11533 29.454 8.106C29.5754 8.09667 29.6827 8.08267 29.776 8.064C29.9814 8.036 30.1914 8.00333 30.406 7.966C30.63 7.91933 30.7794 7.896 30.854 7.896C30.9847 7.896 31.05 7.966 31.05 8.106V8.862C31.3767 8.50733 31.6894 8.25067 31.988 8.092C32.2867 7.924 32.618 7.84 32.982 7.84ZM39.2234 12.712C39.3074 12.6467 39.3821 12.614 39.4474 12.614C39.4941 12.614 39.5454 12.6373 39.6014 12.684C39.6667 12.7213 39.7321 12.8007 39.7974 12.922C39.4334 13.3513 39.0134 13.6687 38.5374 13.874C38.0707 14.07 37.5154 14.168 36.8714 14.168C36.5074 14.168 36.1481 14.112 35.7934 14C35.4481 13.8787 35.1354 13.6967 34.8554 13.454C34.5754 13.202 34.3467 12.8893 34.1694 12.516C34.0014 12.1427 33.9174 11.6947 33.9174 11.172C33.9174 10.6587 34.0154 10.1967 34.2114 9.786C34.4167 9.366 34.6734 9.01133 34.9814 8.722C35.2894 8.43267 35.6254 8.21333 35.9894 8.064C36.3534 7.90533 36.7034 7.826 37.0394 7.826C37.9447 7.826 38.6261 8.08733 39.0834 8.61C39.5501 9.13267 39.7834 9.84667 39.7834 10.752C39.7834 10.8173 39.7507 10.85 39.6854 10.85L35.6674 11.018C35.6674 11.746 35.8307 12.306 36.1574 12.698C36.4841 13.0807 36.9741 13.272 37.6274 13.272C37.9167 13.272 38.2014 13.2253 38.4814 13.132C38.7614 13.0387 39.0087 12.8987 39.2234 12.712ZM36.8294 8.442C36.4654 8.442 36.1714 8.60067 35.9474 8.918C35.7327 9.226 35.6254 9.716 35.6254 10.388L37.8094 10.29C37.9494 10.2807 38.0194 10.22 38.0194 10.108C38.0194 9.93067 37.9961 9.744 37.9494 9.548C37.9027 9.352 37.8281 9.17467 37.7254 9.016C37.6321 8.848 37.5107 8.71267 37.3614 8.61C37.2121 8.498 37.0347 8.442 36.8294 8.442ZM46.971 9.198C47.2977 8.778 47.6383 8.44667 47.993 8.204C48.357 7.952 48.7257 7.826 49.099 7.826C50.2657 7.826 50.849 8.46067 50.849 9.73V13.146C50.849 13.2767 50.905 13.3747 51.017 13.44C51.129 13.5053 51.3343 13.566 51.633 13.622C51.7357 13.6407 51.787 13.7013 51.787 13.804C51.787 13.8507 51.787 13.8973 51.787 13.944C51.787 13.9907 51.7777 14.0327 51.759 14.07C51.5257 14.0513 51.2877 14.0327 51.045 14.014C50.8023 14.0047 50.499 14 50.135 14C49.827 14 49.5423 14.0047 49.281 14.014C49.029 14.0327 48.777 14.0513 48.525 14.07C48.5063 13.9767 48.497 13.888 48.497 13.804C48.497 13.7387 48.511 13.6967 48.539 13.678C48.5763 13.65 48.6137 13.6313 48.651 13.622C48.903 13.5753 49.0663 13.5193 49.141 13.454C49.225 13.3887 49.267 13.286 49.267 13.146V10.402C49.267 9.85133 49.211 9.47333 49.099 9.268C48.9963 9.05333 48.8003 8.946 48.511 8.946C48.091 8.946 47.7363 9.09067 47.447 9.38C47.1577 9.66 47.013 10.08 47.013 10.64V13.146C47.013 13.286 47.055 13.3887 47.139 13.454C47.223 13.5193 47.3863 13.5753 47.629 13.622C47.7317 13.6407 47.783 13.7013 47.783 13.804C47.783 13.8507 47.783 13.8973 47.783 13.944C47.783 13.9907 47.7737 14.0327 47.755 14.07C47.531 14.0513 47.307 14.0327 47.083 14.014C46.859 14.0047 46.5977 14 46.299 14C45.991 14 45.7063 14.0047 45.445 14.014C45.193 14.0327 44.941 14.0513 44.689 14.07C44.6703 13.9767 44.661 13.888 44.661 13.804C44.661 13.7387 44.675 13.6967 44.703 13.678C44.7403 13.65 44.7777 13.6313 44.815 13.622C45.067 13.5753 45.2303 13.5193 45.305 13.454C45.389 13.3887 45.431 13.286 45.431 13.146V10.402C45.431 9.85133 45.375 9.47333 45.263 9.268C45.1603 9.05333 44.9643 8.946 44.675 8.946C44.255 8.946 43.9003 9.09067 43.611 9.38C43.3217 9.66 43.177 10.08 43.177 10.64V13.146C43.177 13.286 43.219 13.3887 43.303 13.454C43.387 13.5193 43.5503 13.5753 43.793 13.622C43.8957 13.6407 43.947 13.7013 43.947 13.804C43.947 13.8507 43.947 13.8973 43.947 13.944C43.947 13.9907 43.9377 14.0327 43.919 14.07C43.6763 14.0513 43.4243 14.0327 43.163 14.014C42.9017 14.0047 42.6217 14 42.323 14C41.959 14 41.651 14.0047 41.399 14.014C41.1563 14.0327 40.9183 14.0513 40.685 14.07C40.6663 13.9767 40.657 13.888 40.657 13.804C40.657 13.7387 40.671 13.6967 40.699 13.678C40.7363 13.65 40.7737 13.6313 40.811 13.622C41.1097 13.566 41.315 13.5053 41.427 13.44C41.539 13.3747 41.595 13.272 41.595 13.132V9.436C41.595 9.156 41.5437 8.94133 41.441 8.792C41.3383 8.64267 41.1237 8.554 40.797 8.526C40.6757 8.498 40.615 8.42333 40.615 8.302C40.615 8.274 40.615 8.24133 40.615 8.204C40.615 8.15733 40.6243 8.11533 40.643 8.078C40.699 8.078 40.7783 8.078 40.881 8.078C40.993 8.06867 41.1097 8.064 41.231 8.064C41.3523 8.05467 41.4737 8.04533 41.595 8.036C41.7163 8.02667 41.8283 8.01733 41.931 8.008C42.1643 7.98 42.3883 7.94267 42.603 7.896C42.8177 7.84933 42.9623 7.826 43.037 7.826C43.1863 7.826 43.261 7.896 43.261 8.036C43.261 8.13867 43.247 8.274 43.219 8.442C43.191 8.61 43.177 8.84333 43.177 9.142C43.4757 8.75 43.8023 8.43267 44.157 8.19C44.521 7.94733 44.8897 7.826 45.263 7.826C46.243 7.826 46.8123 8.28333 46.971 9.198ZM56.7233 5.95C56.7233 5.866 56.7093 5.796 56.6813 5.74C56.6626 5.67467 56.616 5.61867 56.5413 5.572C56.4666 5.52533 56.364 5.488 56.2333 5.46C56.1026 5.42267 55.9346 5.38533 55.7293 5.348C55.636 5.32 55.5893 5.236 55.5893 5.096C55.5893 5.04933 55.5893 5.00733 55.5893 4.97C55.5893 4.92333 55.5986 4.87667 55.6173 4.83C56.0186 4.858 56.3733 4.87667 56.6813 4.886C56.9893 4.89533 57.2506 4.9 57.4653 4.9H60.3353C60.7646 4.9 61.1286 4.886 61.4273 4.858C61.7353 4.83 61.9406 4.816 62.0433 4.816C62.146 4.816 62.2206 4.858 62.2673 4.942C62.2953 5.01667 62.3186 5.15667 62.3373 5.362C62.356 5.558 62.3886 5.76333 62.4353 5.978C62.4633 6.13667 62.496 6.29067 62.5333 6.44C62.5706 6.58933 62.6266 6.77133 62.7013 6.986C62.664 7.00467 62.6126 7.02333 62.5473 7.042C62.4913 7.06067 62.4353 7.07 62.3793 7.07C62.2766 7.07 62.2066 7.028 62.1693 6.944C62.0573 6.70133 61.9453 6.496 61.8333 6.328C61.7306 6.15067 61.6093 6.01067 61.4693 5.908C61.3386 5.796 61.18 5.71667 60.9933 5.67C60.816 5.62333 60.5966 5.6 60.3353 5.6H58.4873V9.142H60.4193C60.578 9.142 60.69 9.06733 60.7553 8.918C60.83 8.75933 60.8906 8.526 60.9373 8.218C60.9653 8.09667 61.054 8.036 61.2033 8.036C61.2313 8.036 61.2733 8.04067 61.3293 8.05C61.3946 8.05 61.4413 8.05467 61.4693 8.064C61.4506 8.27867 61.432 8.53067 61.4133 8.82C61.404 9.1 61.3993 9.338 61.3993 9.534C61.3993 9.702 61.404 9.90267 61.4133 10.136C61.4226 10.36 61.4413 10.6167 61.4693 10.906C61.4413 10.9247 61.3993 10.9387 61.3433 10.948C61.2873 10.948 61.2453 10.948 61.2173 10.948C61.0586 10.948 60.9653 10.8827 60.9373 10.752C60.9 10.4533 60.844 10.2293 60.7693 10.08C60.6946 9.92133 60.578 9.842 60.4193 9.842H58.4873V12.978C58.4873 13.0713 58.52 13.1507 58.5853 13.216C58.6506 13.272 58.7393 13.3233 58.8513 13.37C58.9633 13.4073 59.094 13.44 59.2433 13.468C59.3926 13.4867 59.5513 13.51 59.7193 13.538C59.8313 13.5473 59.8873 13.6267 59.8873 13.776C59.8873 13.804 59.8826 13.8507 59.8733 13.916C59.8733 13.9813 59.8686 14.0327 59.8593 14.07C59.7286 14.07 59.598 14.0653 59.4673 14.056C59.3366 14.056 59.206 14.0513 59.0753 14.042C58.8326 14.0233 58.5713 14.0093 58.2913 14C58.0206 14 57.75 14 57.4793 14C57.3486 14 57.204 14 57.0453 14C56.896 14.0093 56.7373 14.0187 56.5693 14.028C56.4013 14.0373 56.2333 14.042 56.0653 14.042C55.9066 14.0513 55.7573 14.0607 55.6173 14.07C55.5986 14.0327 55.5893 13.986 55.5893 13.93C55.5893 13.8647 55.5893 13.818 55.5893 13.79C55.5893 13.65 55.636 13.5753 55.7293 13.566C56.0373 13.4913 56.28 13.4213 56.4573 13.356C56.6346 13.2813 56.7233 13.1507 56.7233 12.964V5.95ZM62.6967 11.004C62.6967 10.5467 62.776 10.1267 62.9347 9.744C63.1027 9.352 63.3314 9.016 63.6207 8.736C63.91 8.44667 64.2554 8.22267 64.6567 8.064C65.058 7.90533 65.4967 7.826 65.9727 7.826C66.4674 7.826 66.9154 7.90533 67.3167 8.064C67.718 8.22267 68.0634 8.44667 68.3527 8.736C68.642 9.016 68.8614 9.352 69.0107 9.744C69.1694 10.1267 69.2487 10.5467 69.2487 11.004C69.2487 11.4613 69.1647 11.886 68.9967 12.278C68.838 12.6607 68.6094 12.992 68.3107 13.272C68.0214 13.552 67.676 13.7713 67.2747 13.93C66.8734 14.0887 66.4347 14.168 65.9587 14.168C65.464 14.168 65.016 14.0887 64.6147 13.93C64.2134 13.7713 63.868 13.552 63.5787 13.272C63.2987 12.992 63.0794 12.6607 62.9207 12.278C62.7714 11.886 62.6967 11.4613 62.6967 11.004ZM64.4607 10.724C64.4607 11.5827 64.6007 12.2687 64.8807 12.782C65.17 13.2953 65.5807 13.552 66.1127 13.552C66.6074 13.552 66.9574 13.356 67.1627 12.964C67.3774 12.5627 67.4847 12.0027 67.4847 11.284C67.4847 10.4347 67.34 9.74867 67.0507 9.226C66.7614 8.70333 66.3554 8.442 65.8327 8.442C65.338 8.442 64.9834 8.64733 64.7687 9.058C64.5634 9.45933 64.4607 10.0147 64.4607 10.724ZM74.6266 7.84C74.8972 7.84 75.0979 7.91 75.2286 8.05C75.3686 8.19 75.4386 8.36733 75.4386 8.582C75.4386 8.64733 75.4246 8.70333 75.3966 8.75C75.3779 8.79667 75.3266 8.848 75.2426 8.904C75.1679 8.96 75.0606 9.02533 74.9206 9.1C74.7806 9.16533 74.5986 9.24933 74.3746 9.352C74.2252 9.20267 74.0852 9.10467 73.9546 9.058C73.8332 9.002 73.7119 8.974 73.5906 8.974C73.4786 8.974 73.3666 8.99267 73.2546 9.03C73.1519 9.06733 73.0586 9.142 72.9746 9.254C72.8906 9.35667 72.8206 9.49667 72.7646 9.674C72.7179 9.85133 72.6946 10.08 72.6946 10.36V12.964C72.6946 13.1507 72.7692 13.2907 72.9186 13.384C73.0679 13.468 73.3619 13.5473 73.8006 13.622C73.9032 13.6407 73.9546 13.7013 73.9546 13.804C73.9546 13.9347 73.9452 14.0233 73.9266 14.07C73.8052 14.0607 73.6559 14.0513 73.4786 14.042C73.3012 14.042 73.1146 14.0373 72.9186 14.028C72.7226 14.0187 72.5266 14.0093 72.3306 14C72.1439 14 71.9759 14 71.8266 14C71.4719 14 71.1686 14.0047 70.9166 14.014C70.6646 14.0327 70.4266 14.0513 70.2026 14.07C70.1839 14.0233 70.1746 13.9347 70.1746 13.804C70.1746 13.7013 70.2259 13.6407 70.3286 13.622C70.6272 13.566 70.8326 13.5053 70.9446 13.44C71.0566 13.3747 71.1126 13.272 71.1126 13.132V9.366C71.1126 9.15133 71.0706 8.97867 70.9866 8.848C70.9119 8.71733 70.6926 8.62867 70.3286 8.582C70.1979 8.56333 70.1326 8.49333 70.1326 8.372C70.1326 8.344 70.1326 8.30667 70.1326 8.26C70.1326 8.21333 70.1419 8.176 70.1606 8.148C70.2166 8.148 70.2959 8.148 70.3986 8.148C70.5012 8.13867 70.6132 8.134 70.7346 8.134C70.8559 8.12467 70.9772 8.11533 71.0986 8.106C71.2199 8.09667 71.3272 8.08267 71.4206 8.064C71.6259 8.036 71.8359 8.00333 72.0506 7.966C72.2746 7.91933 72.4239 7.896 72.4986 7.896C72.6292 7.896 72.6946 7.966 72.6946 8.106V8.862C73.0212 8.50733 73.3339 8.25067 73.6326 8.092C73.9312 7.924 74.2626 7.84 74.6266 7.84ZM5.544 24.6V31.964C5.544 32.0573 5.54867 32.1367 5.558 32.202C5.57667 32.258 5.614 32.3093 5.67 32.356C5.726 32.4027 5.80533 32.4447 5.908 32.482C6.01067 32.51 6.15533 32.538 6.342 32.566C6.482 32.594 6.552 32.6733 6.552 32.804C6.552 32.832 6.54733 32.874 6.538 32.93C6.538 32.986 6.53333 33.0327 6.524 33.07C6.22533 33.0513 5.90333 33.0327 5.558 33.014C5.222 33.0047 4.92333 33 4.662 33C4.39133 33 4.088 33.0047 3.752 33.014C3.42533 33.0327 3.11267 33.0513 2.814 33.07C2.79533 33.0327 2.78133 32.986 2.772 32.93C2.772 32.874 2.772 32.832 2.772 32.804C2.772 32.7387 2.78133 32.6873 2.8 32.65C2.828 32.6033 2.89333 32.5707 2.996 32.552C3.34133 32.5053 3.556 32.4447 3.64 32.37C3.73333 32.286 3.78 32.1507 3.78 31.964V24.6H2.548C2.28667 24.6 2.06267 24.628 1.876 24.684C1.69867 24.7307 1.54 24.81 1.4 24.922C1.26933 25.0247 1.148 25.1647 1.036 25.342C0.933333 25.51 0.826 25.7153 0.714 25.958C0.676667 26.042 0.606667 26.084 0.504 26.084C0.448 26.084 0.382667 26.0747 0.308 26.056C0.233333 26.028 0.177333 26.0047 0.14 25.986C0.205333 25.762 0.261333 25.566 0.308 25.398C0.354667 25.2207 0.392 25.048 0.42 24.88C0.457333 24.6653 0.485333 24.474 0.504 24.306C0.522667 24.138 0.546 24.0167 0.574 23.942C0.611333 23.858 0.686 23.816 0.798 23.816C0.900667 23.816 1.10133 23.83 1.4 23.858C1.708 23.886 2.07667 23.9 2.506 23.9H6.818C7.238 23.9 7.59733 23.886 7.896 23.858C8.204 23.83 8.414 23.816 8.526 23.816C8.62867 23.816 8.70333 23.858 8.75 23.942C8.778 24.0167 8.79667 24.138 8.806 24.306C8.82467 24.474 8.85733 24.6653 8.904 24.88C8.932 25.048 8.96467 25.2207 9.002 25.398C9.04867 25.566 9.10933 25.762 9.184 25.986C9.13733 26.0047 9.07667 26.028 9.002 26.056C8.93667 26.0747 8.876 26.084 8.82 26.084C8.71733 26.084 8.64267 26.042 8.596 25.958C8.484 25.7153 8.372 25.51 8.26 25.342C8.15733 25.1647 8.036 25.0247 7.896 24.922C7.76533 24.81 7.60667 24.7307 7.42 24.684C7.24267 24.628 7.028 24.6 6.776 24.6H5.544ZM13.0342 33.07C12.7916 33.0513 12.5396 33.0327 12.2782 33.014C12.0169 33.0047 11.7369 33 11.4382 33C11.0742 33 10.7662 33.0047 10.5142 33.014C10.2716 33.0327 10.0336 33.0513 9.80022 33.07C9.78155 32.9767 9.77222 32.888 9.77222 32.804C9.77222 32.7387 9.78622 32.6967 9.81422 32.678C9.85155 32.65 9.88889 32.6313 9.92622 32.622C10.2249 32.5753 10.4302 32.5193 10.5422 32.454C10.6542 32.3793 10.7102 32.272 10.7102 32.132V24.796C10.7102 24.516 10.6636 24.306 10.5702 24.166C10.4769 24.0167 10.2576 23.928 9.91222 23.9C9.79089 23.8813 9.73022 23.8067 9.73022 23.676C9.73022 23.648 9.73022 23.6153 9.73022 23.578C9.73022 23.5313 9.73955 23.4893 9.75822 23.452C9.81422 23.452 9.89355 23.452 9.99622 23.452C10.1082 23.4427 10.2249 23.438 10.3462 23.438C10.4676 23.4287 10.5889 23.4193 10.7102 23.41C10.8316 23.4007 10.9436 23.3913 11.0462 23.382C11.2796 23.354 11.5036 23.3167 11.7182 23.27C11.9329 23.2233 12.0776 23.2 12.1522 23.2C12.3016 23.2 12.3762 23.27 12.3762 23.41C12.3762 23.5127 12.3622 23.648 12.3342 23.816C12.3062 23.9747 12.2922 24.2033 12.2922 24.502V28.128C12.5909 27.736 12.9222 27.4233 13.2862 27.19C13.6502 26.9473 14.0282 26.826 14.4202 26.826C14.9896 26.826 15.4376 26.9847 15.7642 27.302C16.0909 27.6193 16.2542 28.0953 16.2542 28.73V32.146C16.2542 32.2767 16.3056 32.3747 16.4082 32.44C16.5202 32.5053 16.7302 32.566 17.0382 32.622C17.0756 32.6313 17.1082 32.65 17.1362 32.678C17.1736 32.6967 17.1922 32.7387 17.1922 32.804C17.1922 32.888 17.1829 32.9767 17.1642 33.07C16.9216 33.0513 16.6789 33.0327 16.4362 33.014C16.1936 33.0047 15.8902 33 15.5262 33C15.2276 33 14.9476 33.0047 14.6862 33.014C14.4249 33.0327 14.1729 33.0513 13.9302 33.07C13.9116 33.0327 13.9022 32.9907 13.9022 32.944C13.9022 32.8973 13.9022 32.8507 13.9022 32.804C13.9022 32.7013 13.9536 32.6407 14.0562 32.622C14.3082 32.5753 14.4716 32.5193 14.5462 32.454C14.6302 32.3887 14.6722 32.286 14.6722 32.146V29.402C14.6722 28.8513 14.6022 28.4733 14.4622 28.268C14.3316 28.0533 14.1169 27.946 13.8182 27.946C13.3982 27.946 13.0389 28.0907 12.7402 28.38C12.4416 28.66 12.2922 29.08 12.2922 29.64V32.146C12.2922 32.286 12.3296 32.3887 12.4042 32.454C12.4789 32.5193 12.6469 32.5753 12.9082 32.622C13.0109 32.6407 13.0622 32.7013 13.0622 32.804C13.0622 32.8507 13.0622 32.8973 13.0622 32.944C13.0622 32.9907 13.0529 33.0327 13.0342 33.07ZM23.2683 31.712C23.3523 31.6467 23.427 31.614 23.4923 31.614C23.539 31.614 23.5903 31.6373 23.6463 31.684C23.7117 31.7213 23.777 31.8007 23.8423 31.922C23.4783 32.3513 23.0583 32.6687 22.5823 32.874C22.1157 33.07 21.5603 33.168 20.9163 33.168C20.5523 33.168 20.193 33.112 19.8383 33C19.493 32.8787 19.1803 32.6967 18.9003 32.454C18.6203 32.202 18.3917 31.8893 18.2143 31.516C18.0463 31.1427 17.9623 30.6947 17.9623 30.172C17.9623 29.6587 18.0603 29.1967 18.2563 28.786C18.4617 28.366 18.7183 28.0113 19.0263 27.722C19.3343 27.4327 19.6703 27.2133 20.0343 27.064C20.3983 26.9053 20.7483 26.826 21.0843 26.826C21.9897 26.826 22.671 27.0873 23.1283 27.61C23.595 28.1327 23.8283 28.8467 23.8283 29.752C23.8283 29.8173 23.7957 29.85 23.7303 29.85L19.7123 30.018C19.7123 30.746 19.8757 31.306 20.2023 31.698C20.529 32.0807 21.019 32.272 21.6723 32.272C21.9617 32.272 22.2463 32.2253 22.5263 32.132C22.8063 32.0387 23.0537 31.8987 23.2683 31.712ZM20.8743 27.442C20.5103 27.442 20.2163 27.6007 19.9923 27.918C19.7777 28.226 19.6703 28.716 19.6703 29.388L21.8543 29.29C21.9943 29.2807 22.0643 29.22 22.0643 29.108C22.0643 28.9307 22.041 28.744 21.9943 28.548C21.9477 28.352 21.873 28.1747 21.7703 28.016C21.677 27.848 21.5557 27.7127 21.4063 27.61C21.257 27.498 21.0797 27.442 20.8743 27.442ZM30.5254 31.964C30.5254 32.0573 30.53 32.1367 30.5394 32.202C30.558 32.258 30.5954 32.3093 30.6514 32.356C30.7167 32.4027 30.8054 32.4447 30.9174 32.482C31.0387 32.51 31.1974 32.538 31.3934 32.566C31.4867 32.5847 31.5334 32.664 31.5334 32.804C31.5334 32.832 31.5287 32.874 31.5194 32.93C31.5194 32.986 31.5147 33.0327 31.5054 33.07C31.2067 33.0513 30.8847 33.0327 30.5394 33.014C30.2034 33.0047 29.9047 33 29.6434 33C29.3727 33 29.0694 33.0047 28.7334 33.014C28.3974 33.0327 28.08 33.0513 27.7814 33.07C27.7627 33.0327 27.7534 32.986 27.7534 32.93C27.7534 32.874 27.7534 32.832 27.7534 32.804C27.7534 32.6547 27.8 32.5753 27.8934 32.566C28.0894 32.538 28.2434 32.51 28.3554 32.482C28.4767 32.4447 28.5654 32.4027 28.6214 32.356C28.6774 32.3093 28.7147 32.258 28.7334 32.202C28.752 32.1367 28.7614 32.0573 28.7614 31.964V24.95C28.7614 24.8567 28.752 24.782 28.7334 24.726C28.7147 24.6607 28.6774 24.6047 28.6214 24.558C28.5654 24.5113 28.4767 24.474 28.3554 24.446C28.2434 24.4087 28.0894 24.376 27.8934 24.348C27.8 24.32 27.7534 24.2407 27.7534 24.11C27.7534 24.082 27.7534 24.04 27.7534 23.984C27.7534 23.928 27.7627 23.8767 27.7814 23.83C28.08 23.8487 28.3974 23.8673 28.7334 23.886C29.0694 23.8953 29.3727 23.9 29.6434 23.9C29.9047 23.9 30.2034 23.8953 30.5394 23.886C30.8847 23.8673 31.2067 23.8487 31.5054 23.83C31.5147 23.8767 31.5194 23.928 31.5194 23.984C31.5287 24.04 31.5334 24.082 31.5334 24.11C31.5334 24.2407 31.4867 24.32 31.3934 24.348C31.1974 24.376 31.0387 24.4087 30.9174 24.446C30.8054 24.474 30.7167 24.5113 30.6514 24.558C30.5954 24.6047 30.558 24.6607 30.5394 24.726C30.53 24.782 30.5254 24.8567 30.5254 24.95V31.964ZM33.3759 28.24C33.3759 28.016 33.3386 27.8527 33.2639 27.75C33.1986 27.638 33.0072 27.5633 32.6899 27.526C32.5592 27.498 32.4939 27.4327 32.4939 27.33C32.4939 27.2927 32.4939 27.2507 32.4939 27.204C32.4939 27.1573 32.5032 27.1153 32.5219 27.078C32.5779 27.078 32.6572 27.078 32.7599 27.078C32.8626 27.0687 32.9699 27.064 33.0819 27.064C33.1939 27.0547 33.3059 27.0453 33.4179 27.036C33.5392 27.0267 33.6466 27.0127 33.7399 26.994C33.9546 26.966 34.1599 26.9333 34.3559 26.896C34.5519 26.8493 34.6872 26.826 34.7619 26.826C34.8459 26.826 34.8972 26.8447 34.9159 26.882C34.9439 26.9193 34.9579 26.9707 34.9579 27.036V27.988C35.2286 27.6333 35.5366 27.3533 35.8819 27.148C36.2272 26.9333 36.6099 26.826 37.0299 26.826C37.3939 26.826 37.7299 26.896 38.0379 27.036C38.3552 27.1667 38.6306 27.3627 38.8639 27.624C39.0972 27.876 39.2792 28.1887 39.4099 28.562C39.5406 28.9353 39.6059 29.36 39.6059 29.836C39.6059 30.3587 39.5032 30.8253 39.2979 31.236C39.1019 31.6467 38.8499 31.9967 38.5419 32.286C38.2339 32.5753 37.8979 32.7947 37.5339 32.944C37.1699 33.0933 36.8199 33.168 36.4839 33.168C36.2132 33.168 35.9612 33.1447 35.7279 33.098C35.5039 33.0607 35.2472 32.9907 34.9579 32.888V35.212C34.9579 35.324 34.9672 35.4173 34.9859 35.492C35.0139 35.576 35.0699 35.646 35.1539 35.702C35.2379 35.758 35.3686 35.8047 35.5459 35.842C35.7232 35.8887 35.9659 35.9307 36.2739 35.968C36.3952 35.9867 36.4559 36.0567 36.4559 36.178C36.4559 36.2993 36.4466 36.3833 36.4279 36.43C36.1852 36.4113 35.8772 36.3927 35.5039 36.374C35.1306 36.3647 34.7666 36.36 34.4119 36.36C34.1039 36.36 33.7912 36.3647 33.4739 36.374C33.1659 36.3927 32.8859 36.4113 32.6339 36.43C32.6152 36.3367 32.6059 36.248 32.6059 36.164C32.6059 36.0987 32.6199 36.052 32.6479 36.024C32.6852 36.0053 32.7226 35.9913 32.7599 35.982C33.0212 35.9167 33.1892 35.856 33.2639 35.8C33.3386 35.744 33.3759 35.646 33.3759 35.506V28.24ZM34.9579 31.88C35.3872 32.328 35.8726 32.552 36.4139 32.552C36.8899 32.552 37.2446 32.342 37.4779 31.922C37.7206 31.4927 37.8419 30.914 37.8419 30.186C37.8419 29.8313 37.8139 29.5 37.7579 29.192C37.7019 28.8747 37.6132 28.604 37.4919 28.38C37.3706 28.1467 37.2119 27.9647 37.0159 27.834C36.8292 27.694 36.6052 27.624 36.3439 27.624C36.1666 27.624 35.9939 27.68 35.8259 27.792C35.6672 27.8947 35.5226 28.0347 35.3919 28.212C35.2612 28.38 35.1539 28.5713 35.0699 28.786C34.9952 29.0007 34.9579 29.2153 34.9579 29.43V31.88ZM44.5099 28.702C44.3793 28.6927 44.3046 28.6413 44.2859 28.548C44.2206 28.1653 44.0713 27.8853 43.8379 27.708C43.6046 27.5307 43.3106 27.442 42.9559 27.442C42.6386 27.442 42.3959 27.5213 42.2279 27.68C42.0599 27.8387 41.9759 28.0253 41.9759 28.24C41.9759 28.3427 41.9899 28.436 42.0179 28.52C42.0459 28.604 42.1019 28.6833 42.1859 28.758C42.2793 28.8327 42.4053 28.9073 42.5639 28.982C42.7226 29.0473 42.9373 29.122 43.2079 29.206C43.5253 29.2993 43.8053 29.402 44.0479 29.514C44.2906 29.6167 44.4959 29.7427 44.6639 29.892C44.8319 30.0413 44.9579 30.2233 45.0419 30.438C45.1353 30.6433 45.1819 30.8907 45.1819 31.18C45.1819 31.4507 45.1353 31.7073 45.0419 31.95C44.9579 32.1927 44.8179 32.4073 44.6219 32.594C44.4259 32.7713 44.1786 32.9113 43.8799 33.014C43.5813 33.1167 43.2219 33.168 42.8019 33.168C42.5033 33.168 42.1579 33.1353 41.7659 33.07C41.3833 33.0047 41.0333 32.888 40.7159 32.72C40.6973 32.4773 40.6786 32.2207 40.6599 31.95C40.6506 31.67 40.6459 31.3947 40.6459 31.124H40.8279C40.9306 31.124 41.0193 31.1427 41.0939 31.18C41.1686 31.208 41.2106 31.2593 41.2199 31.334C41.2573 31.726 41.4113 32.0293 41.6819 32.244C41.9526 32.4493 42.3259 32.552 42.8019 32.552C43.1286 32.552 43.3946 32.4773 43.5999 32.328C43.8053 32.1787 43.9079 31.9827 43.9079 31.74C43.9079 31.516 43.8146 31.3247 43.6279 31.166C43.4506 31.0073 43.1099 30.8533 42.6059 30.704C41.9246 30.508 41.4439 30.2513 41.1639 29.934C40.8933 29.6073 40.7579 29.22 40.7579 28.772C40.7579 28.184 40.9539 27.7127 41.3459 27.358C41.7473 27.0033 42.2653 26.826 42.8999 26.826C43.2639 26.826 43.6139 26.8727 43.9499 26.966C44.2953 27.05 44.5706 27.1433 44.7759 27.246C44.7853 27.3207 44.7946 27.4233 44.8039 27.554C44.8133 27.6753 44.8226 27.8107 44.8319 27.96C44.8413 28.1 44.8459 28.24 44.8459 28.38C44.8553 28.5107 44.8599 28.6227 44.8599 28.716L44.5099 28.702ZM46.8557 28.226C46.8557 28.002 46.8184 27.8387 46.7437 27.736C46.6784 27.6333 46.487 27.5633 46.1697 27.526C46.039 27.498 45.9737 27.4327 45.9737 27.33C45.9737 27.302 45.9737 27.2647 45.9737 27.218C45.9737 27.1713 45.983 27.1247 46.0017 27.078C46.0577 27.078 46.137 27.078 46.2397 27.078C46.3424 27.0687 46.4497 27.064 46.5617 27.064C46.6737 27.0547 46.7857 27.0453 46.8977 27.036C47.019 27.0267 47.1264 27.0127 47.2197 26.994C47.4344 26.966 47.6397 26.9333 47.8357 26.896C48.0317 26.8493 48.167 26.826 48.2417 26.826C48.3257 26.826 48.377 26.8447 48.3957 26.882C48.4237 26.9193 48.4377 26.9707 48.4377 27.036V30.62C48.4377 31.1613 48.503 31.5393 48.6337 31.754C48.7737 31.9593 48.993 32.062 49.2917 32.062C49.7117 32.062 50.071 31.922 50.3697 31.642C50.6684 31.362 50.8177 30.9373 50.8177 30.368V28.226C50.8177 28.114 50.8084 28.0207 50.7897 27.946C50.7804 27.862 50.7524 27.792 50.7057 27.736C50.659 27.68 50.589 27.638 50.4957 27.61C50.4117 27.5727 50.2904 27.5447 50.1317 27.526C50.0757 27.5073 50.0244 27.4887 49.9777 27.47C49.9404 27.4513 49.9217 27.4047 49.9217 27.33C49.9217 27.302 49.9217 27.2647 49.9217 27.218C49.931 27.1713 49.9404 27.1247 49.9497 27.078C50.015 27.078 50.0944 27.078 50.1877 27.078C50.2904 27.0687 50.3977 27.064 50.5097 27.064C50.631 27.0547 50.7477 27.0453 50.8597 27.036C50.981 27.0267 51.0884 27.0127 51.1817 26.994C51.387 26.966 51.5877 26.9333 51.7837 26.896C51.989 26.8493 52.129 26.826 52.2037 26.826C52.3344 26.826 52.3997 26.896 52.3997 27.036V31.698C52.3997 31.81 52.4044 31.908 52.4137 31.992C52.4324 32.0667 52.465 32.132 52.5117 32.188C52.5584 32.244 52.6284 32.2907 52.7217 32.328C52.815 32.356 52.941 32.3793 53.0997 32.398C53.221 32.4073 53.2817 32.468 53.2817 32.58C53.2817 32.6267 53.2817 32.6733 53.2817 32.72C53.2817 32.7667 53.2724 32.804 53.2537 32.832C53.1324 32.832 52.941 32.8413 52.6797 32.86C52.4277 32.8693 52.213 32.888 52.0357 32.916C51.8304 32.944 51.625 32.9767 51.4197 33.014C51.2237 33.0607 51.0884 33.084 51.0137 33.084C50.9297 33.084 50.8737 33.0653 50.8457 33.028C50.827 33 50.8177 32.9487 50.8177 32.874V31.866C50.519 32.258 50.1877 32.5753 49.8237 32.818C49.4597 33.0513 49.0817 33.168 48.6897 33.168C48.1204 33.168 47.6724 33.014 47.3457 32.706C47.019 32.3887 46.8557 31.9173 46.8557 31.292V28.226ZM60.4241 28.198C60.7508 27.778 61.0914 27.4467 61.4461 27.204C61.8101 26.952 62.1788 26.826 62.5521 26.826C63.7188 26.826 64.3021 27.4607 64.3021 28.73V32.146C64.3021 32.2767 64.3581 32.3747 64.4701 32.44C64.5821 32.5053 64.7874 32.566 65.0861 32.622C65.1888 32.6407 65.2401 32.7013 65.2401 32.804C65.2401 32.8507 65.2401 32.8973 65.2401 32.944C65.2401 32.9907 65.2308 33.0327 65.2121 33.07C64.9788 33.0513 64.7408 33.0327 64.4981 33.014C64.2554 33.0047 63.9521 33 63.5881 33C63.2801 33 62.9954 33.0047 62.7341 33.014C62.4821 33.0327 62.2301 33.0513 61.9781 33.07C61.9594 32.9767 61.9501 32.888 61.9501 32.804C61.9501 32.7387 61.9641 32.6967 61.9921 32.678C62.0294 32.65 62.0668 32.6313 62.1041 32.622C62.3561 32.5753 62.5194 32.5193 62.5941 32.454C62.6781 32.3887 62.7201 32.286 62.7201 32.146V29.402C62.7201 28.8513 62.6641 28.4733 62.5521 28.268C62.4494 28.0533 62.2534 27.946 61.9641 27.946C61.5441 27.946 61.1894 28.0907 60.9001 28.38C60.6108 28.66 60.4661 29.08 60.4661 29.64V32.146C60.4661 32.286 60.5081 32.3887 60.5921 32.454C60.6761 32.5193 60.8394 32.5753 61.0821 32.622C61.1848 32.6407 61.2361 32.7013 61.2361 32.804C61.2361 32.8507 61.2361 32.8973 61.2361 32.944C61.2361 32.9907 61.2268 33.0327 61.2081 33.07C60.9841 33.0513 60.7601 33.0327 60.5361 33.014C60.3121 33.0047 60.0508 33 59.7521 33C59.4441 33 59.1594 33.0047 58.8981 33.014C58.6461 33.0327 58.3941 33.0513 58.1421 33.07C58.1234 32.9767 58.1141 32.888 58.1141 32.804C58.1141 32.7387 58.1281 32.6967 58.1561 32.678C58.1934 32.65 58.2308 32.6313 58.2681 32.622C58.5201 32.5753 58.6834 32.5193 58.7581 32.454C58.8421 32.3887 58.8841 32.286 58.8841 32.146V29.402C58.8841 28.8513 58.8281 28.4733 58.7161 28.268C58.6134 28.0533 58.4174 27.946 58.1281 27.946C57.7081 27.946 57.3534 28.0907 57.0641 28.38C56.7748 28.66 56.6301 29.08 56.6301 29.64V32.146C56.6301 32.286 56.6721 32.3887 56.7561 32.454C56.8401 32.5193 57.0034 32.5753 57.2461 32.622C57.3488 32.6407 57.4001 32.7013 57.4001 32.804C57.4001 32.8507 57.4001 32.8973 57.4001 32.944C57.4001 32.9907 57.3908 33.0327 57.3721 33.07C57.1294 33.0513 56.8774 33.0327 56.6161 33.014C56.3548 33.0047 56.0748 33 55.7761 33C55.4121 33 55.1041 33.0047 54.8521 33.014C54.6094 33.0327 54.3714 33.0513 54.1381 33.07C54.1194 32.9767 54.1101 32.888 54.1101 32.804C54.1101 32.7387 54.1241 32.6967 54.1521 32.678C54.1894 32.65 54.2268 32.6313 54.2641 32.622C54.5628 32.566 54.7681 32.5053 54.8801 32.44C54.9921 32.3747 55.0481 32.272 55.0481 32.132V28.436C55.0481 28.156 54.9968 27.9413 54.8941 27.792C54.7914 27.6427 54.5768 27.554 54.2501 27.526C54.1288 27.498 54.0681 27.4233 54.0681 27.302C54.0681 27.274 54.0681 27.2413 54.0681 27.204C54.0681 27.1573 54.0774 27.1153 54.0961 27.078C54.1521 27.078 54.2314 27.078 54.3341 27.078C54.4461 27.0687 54.5628 27.064 54.6841 27.064C54.8054 27.0547 54.9268 27.0453 55.0481 27.036C55.1694 27.0267 55.2814 27.0173 55.3841 27.008C55.6174 26.98 55.8414 26.9427 56.0561 26.896C56.2708 26.8493 56.4154 26.826 56.4901 26.826C56.6394 26.826 56.7141 26.896 56.7141 27.036C56.7141 27.1387 56.7001 27.274 56.6721 27.442C56.6441 27.61 56.6301 27.8433 56.6301 28.142C56.9288 27.75 57.2554 27.4327 57.6101 27.19C57.9741 26.9473 58.3428 26.826 58.7161 26.826C59.6961 26.826 60.2654 27.2833 60.4241 28.198Z" fill="#212D2D"/>
<line x1="116.25" y1="1.09278e-08" x2="116.25" y2="60" stroke="#174141" stroke-width="0.5"/>
<path d="M132.154 16L135.962 5.57H137.166L140.974 16H139.798L138.902 13.452H134.24L133.33 16H132.154ZM134.604 12.402H138.51L136.396 6.41H136.732L134.604 12.402ZM145.304 16V5.57H146.424V14.95H151.044V16H145.304ZM156.381 16.168C155.672 16.168 155.028 16 154.449 15.664C153.871 15.3187 153.409 14.852 153.063 14.264C152.727 13.6667 152.559 12.99 152.559 12.234C152.559 11.4873 152.727 10.82 153.063 10.232C153.399 9.644 153.852 9.182 154.421 8.846C155 8.50067 155.653 8.328 156.381 8.328C157.109 8.328 157.758 8.496 158.327 8.832C158.906 9.168 159.359 9.63 159.685 10.218C160.021 10.806 160.189 11.478 160.189 12.234C160.189 12.9993 160.017 13.6807 159.671 14.278C159.326 14.866 158.864 15.328 158.285 15.664C157.716 16 157.081 16.168 156.381 16.168ZM156.381 15.118C156.885 15.118 157.338 14.992 157.739 14.74C158.15 14.488 158.472 14.1427 158.705 13.704C158.948 13.2653 159.069 12.7753 159.069 12.234C159.069 11.6927 158.948 11.2073 158.705 10.778C158.472 10.3487 158.15 10.008 157.739 9.756C157.338 9.504 156.885 9.378 156.381 9.378C155.877 9.378 155.42 9.504 155.009 9.756C154.608 10.008 154.286 10.3487 154.043 10.778C153.801 11.2073 153.679 11.6927 153.679 12.234C153.679 12.7753 153.801 13.2653 154.043 13.704C154.286 14.1427 154.608 14.488 155.009 14.74C155.42 14.992 155.877 15.118 156.381 15.118ZM162.321 16V8.496H163.371V9.728L163.231 9.546C163.408 9.19133 163.674 8.91133 164.029 8.706C164.393 8.50067 164.832 8.398 165.345 8.398H165.821V9.448H165.163C164.622 9.448 164.188 9.616 163.861 9.952C163.534 10.288 163.371 10.764 163.371 11.38V16H162.321ZM170.748 16.168C170.048 16.168 169.413 16 168.844 15.664C168.284 15.3187 167.84 14.8473 167.514 14.25C167.187 13.6527 167.024 12.976 167.024 12.22C167.024 11.464 167.182 10.7967 167.5 10.218C167.817 9.63 168.246 9.168 168.788 8.832C169.338 8.496 169.954 8.328 170.636 8.328C171.177 8.328 171.658 8.43067 172.078 8.636C172.507 8.832 172.871 9.10267 173.17 9.448C173.468 9.784 173.697 10.1667 173.856 10.596C174.014 11.016 174.094 11.45 174.094 11.898C174.094 11.9913 174.089 12.0987 174.08 12.22C174.07 12.332 174.056 12.4487 174.038 12.57H167.696V11.59H173.436L172.932 12.01C173.016 11.4967 172.955 11.0393 172.75 10.638C172.554 10.2273 172.269 9.90533 171.896 9.672C171.522 9.42933 171.102 9.308 170.636 9.308C170.169 9.308 169.735 9.42933 169.334 9.672C168.942 9.91467 168.634 10.2553 168.41 10.694C168.186 11.1233 168.097 11.6367 168.144 12.234C168.097 12.8313 168.19 13.354 168.424 13.802C168.666 14.2407 168.993 14.5813 169.404 14.824C169.824 15.0667 170.272 15.188 170.748 15.188C171.298 15.188 171.76 15.0573 172.134 14.796C172.507 14.5347 172.81 14.208 173.044 13.816L173.94 14.292C173.79 14.628 173.562 14.9407 173.254 15.23C172.946 15.51 172.577 15.7387 172.148 15.916C171.728 16.084 171.261 16.168 170.748 16.168ZM176.225 16V8.496H177.275V9.924L177.107 9.714C177.312 9.27533 177.615 8.93467 178.017 8.692C178.427 8.44933 178.875 8.328 179.361 8.328C179.939 8.328 180.462 8.49133 180.929 8.818C181.395 9.14467 181.727 9.56933 181.923 10.092L181.629 10.106C181.815 9.52733 182.137 9.08867 182.595 8.79C183.061 8.482 183.575 8.328 184.135 8.328C184.639 8.328 185.101 8.44933 185.521 8.692C185.95 8.93467 186.291 9.27067 186.543 9.7C186.804 10.12 186.935 10.596 186.935 11.128V16H185.885V11.534C185.885 11.0767 185.801 10.6893 185.633 10.372C185.474 10.0547 185.255 9.812 184.975 9.644C184.695 9.46667 184.373 9.378 184.009 9.378C183.654 9.378 183.332 9.46667 183.043 9.644C182.753 9.812 182.525 10.0593 182.357 10.386C182.189 10.7033 182.105 11.086 182.105 11.534V16H181.055V11.534C181.055 11.0767 180.971 10.6893 180.803 10.372C180.644 10.0547 180.425 9.812 180.145 9.644C179.865 9.46667 179.543 9.378 179.179 9.378C178.815 9.378 178.488 9.46667 178.199 9.644C177.919 9.812 177.695 10.0593 177.527 10.386C177.359 10.7033 177.275 11.086 177.275 11.534V16H176.225ZM192.649 16V9.546H191.151V8.496H192.649V7.824C192.649 7.30133 192.765 6.86267 192.999 6.508C193.232 6.144 193.54 5.86867 193.923 5.682C194.305 5.49533 194.716 5.402 195.155 5.402C195.248 5.402 195.355 5.41133 195.477 5.43C195.598 5.43933 195.696 5.45333 195.771 5.472V6.424C195.705 6.40533 195.617 6.396 195.505 6.396C195.393 6.38667 195.313 6.382 195.267 6.382C194.819 6.382 194.445 6.48933 194.147 6.704C193.848 6.91867 193.699 7.292 193.699 7.824V8.496H195.533V9.546H193.699V16H192.649ZM200.745 16.168C200.035 16.168 199.391 16 198.813 15.664C198.234 15.3187 197.772 14.852 197.427 14.264C197.091 13.6667 196.923 12.99 196.923 12.234C196.923 11.4873 197.091 10.82 197.427 10.232C197.763 9.644 198.215 9.182 198.785 8.846C199.363 8.50067 200.017 8.328 200.745 8.328C201.473 8.328 202.121 8.496 202.691 8.832C203.269 9.168 203.722 9.63 204.049 10.218C204.385 10.806 204.553 11.478 204.553 12.234C204.553 12.9993 204.38 13.6807 204.035 14.278C203.689 14.866 203.227 15.328 202.649 15.664C202.079 16 201.445 16.168 200.745 16.168ZM200.745 15.118C201.249 15.118 201.701 14.992 202.103 14.74C202.513 14.488 202.835 14.1427 203.069 13.704C203.311 13.2653 203.433 12.7753 203.433 12.234C203.433 11.6927 203.311 11.2073 203.069 10.778C202.835 10.3487 202.513 10.008 202.103 9.756C201.701 9.504 201.249 9.378 200.745 9.378C200.241 9.378 199.783 9.504 199.373 9.756C198.971 10.008 198.649 10.3487 198.407 10.778C198.164 11.2073 198.043 11.6927 198.043 12.234C198.043 12.7753 198.164 13.2653 198.407 13.704C198.649 14.1427 198.971 14.488 199.373 14.74C199.783 14.992 200.241 15.118 200.745 15.118ZM206.685 16V8.496H207.735V9.728L207.595 9.546C207.772 9.19133 208.038 8.91133 208.393 8.706C208.757 8.50067 209.195 8.398 209.709 8.398H210.185V9.448H209.527C208.985 9.448 208.551 9.616 208.225 9.952C207.898 10.288 207.735 10.764 207.735 11.38V16H206.685ZM217.224 16.084C216.552 16.084 216.034 15.888 215.67 15.496C215.306 15.104 215.124 14.544 215.124 13.816V9.546H213.738V8.496H214.088C214.405 8.496 214.657 8.39333 214.844 8.188C215.031 7.97333 215.124 7.70733 215.124 7.39V6.76H216.174V8.496H217.826V9.546H216.174V13.816C216.174 14.068 216.211 14.292 216.286 14.488C216.361 14.6747 216.487 14.824 216.664 14.936C216.851 15.048 217.098 15.104 217.406 15.104C217.481 15.104 217.569 15.0993 217.672 15.09C217.775 15.0807 217.863 15.0713 217.938 15.062V16C217.826 16.028 217.7 16.0467 217.56 16.056C217.42 16.0747 217.308 16.084 217.224 16.084ZM220.062 16V5.402H221.112V9.952L220.874 9.896C221.06 9.41067 221.364 9.028 221.784 8.748C222.213 8.468 222.708 8.328 223.268 8.328C223.8 8.328 224.276 8.44933 224.696 8.692C225.125 8.93467 225.461 9.27067 225.704 9.7C225.956 10.12 226.082 10.596 226.082 11.128V16H225.032V11.534C225.032 11.0767 224.948 10.6893 224.78 10.372C224.612 10.0547 224.378 9.812 224.08 9.644C223.79 9.46667 223.459 9.378 223.086 9.378C222.712 9.378 222.376 9.46667 222.078 9.644C221.779 9.812 221.541 10.0593 221.364 10.386C221.196 10.7033 221.112 11.086 221.112 11.534V16H220.062ZM231.783 16.168C231.083 16.168 230.448 16 229.879 15.664C229.319 15.3187 228.876 14.8473 228.549 14.25C228.222 13.6527 228.059 12.976 228.059 12.22C228.059 11.464 228.218 10.7967 228.535 10.218C228.852 9.63 229.282 9.168 229.823 8.832C230.374 8.496 230.99 8.328 231.671 8.328C232.212 8.328 232.693 8.43067 233.113 8.636C233.542 8.832 233.906 9.10267 234.205 9.448C234.504 9.784 234.732 10.1667 234.891 10.596C235.05 11.016 235.129 11.45 235.129 11.898C235.129 11.9913 235.124 12.0987 235.115 12.22C235.106 12.332 235.092 12.4487 235.073 12.57H228.731V11.59H234.471L233.967 12.01C234.051 11.4967 233.99 11.0393 233.785 10.638C233.589 10.2273 233.304 9.90533 232.931 9.672C232.558 9.42933 232.138 9.308 231.671 9.308C231.204 9.308 230.77 9.42933 230.369 9.672C229.977 9.91467 229.669 10.2553 229.445 10.694C229.221 11.1233 229.132 11.6367 229.179 12.234C229.132 12.8313 229.226 13.354 229.459 13.802C229.702 14.2407 230.028 14.5813 230.439 14.824C230.859 15.0667 231.307 15.188 231.783 15.188C232.334 15.188 232.796 15.0573 233.169 14.796C233.542 14.5347 233.846 14.208 234.079 13.816L234.975 14.292C234.826 14.628 234.597 14.9407 234.289 15.23C233.981 15.51 233.612 15.7387 233.183 15.916C232.763 16.084 232.296 16.168 231.783 16.168ZM239.919 16V8.496H240.969V16H239.919ZM239.919 7.11V5.57H240.969V7.11H239.919ZM243.399 18.8V8.496H244.449V10.176L244.281 9.882C244.579 9.406 244.976 9.028 245.471 8.748C245.975 8.468 246.549 8.328 247.193 8.328C247.902 8.328 248.532 8.50067 249.083 8.846C249.643 9.182 250.081 9.644 250.399 10.232C250.725 10.82 250.889 11.492 250.889 12.248C250.889 12.9947 250.725 13.6667 250.399 14.264C250.081 14.852 249.643 15.3187 249.083 15.664C248.532 16 247.902 16.168 247.193 16.168C246.549 16.168 245.965 16.0233 245.443 15.734C244.929 15.4353 244.542 15.0153 244.281 14.474L244.449 14.32V18.8H243.399ZM247.137 15.118C247.641 15.118 248.089 14.992 248.481 14.74C248.882 14.488 249.195 14.1473 249.419 13.718C249.652 13.2793 249.769 12.7893 249.769 12.248C249.769 11.6973 249.652 11.2073 249.419 10.778C249.195 10.3487 248.882 10.008 248.481 9.756C248.089 9.504 247.641 9.378 247.137 9.378C246.633 9.378 246.175 9.504 245.765 9.756C245.363 10.008 245.041 10.3533 244.799 10.792C244.565 11.2213 244.449 11.7067 244.449 12.248C244.449 12.7893 244.565 13.2793 244.799 13.718C245.041 14.1473 245.363 14.488 245.765 14.74C246.175 14.992 246.633 15.118 247.137 15.118ZM255.62 16.168C254.902 16.168 254.272 15.986 253.73 15.622C253.189 15.258 252.797 14.7633 252.554 14.138L253.436 13.718C253.651 14.1753 253.95 14.5393 254.332 14.81C254.724 15.0807 255.154 15.216 255.62 15.216C256.068 15.216 256.446 15.1087 256.754 14.894C257.062 14.67 257.216 14.3807 257.216 14.026C257.216 13.7647 257.142 13.5593 256.992 13.41C256.843 13.2513 256.67 13.13 256.474 13.046C256.278 12.962 256.106 12.9013 255.956 12.864L254.878 12.556C254.188 12.36 253.688 12.0847 253.38 11.73C253.072 11.3753 252.918 10.9647 252.918 10.498C252.918 10.0593 253.03 9.67667 253.254 9.35C253.478 9.02333 253.782 8.77133 254.164 8.594C254.547 8.41667 254.972 8.328 255.438 8.328C256.073 8.328 256.647 8.496 257.16 8.832C257.683 9.15867 258.052 9.616 258.266 10.204L257.37 10.624C257.184 10.204 256.913 9.87733 256.558 9.644C256.213 9.40133 255.826 9.28 255.396 9.28C254.976 9.28 254.64 9.38733 254.388 9.602C254.136 9.81667 254.01 10.0873 254.01 10.414C254.01 10.666 254.076 10.8667 254.206 11.016C254.337 11.1653 254.486 11.2773 254.654 11.352C254.832 11.4267 254.986 11.4827 255.116 11.52L256.362 11.884C256.969 12.0613 257.44 12.3367 257.776 12.71C258.122 13.0833 258.294 13.522 258.294 14.026C258.294 14.4367 258.178 14.8053 257.944 15.132C257.72 15.4587 257.408 15.7153 257.006 15.902C256.605 16.0793 256.143 16.168 255.62 16.168ZM263.079 16.168C262.557 16.168 262.081 16.0467 261.651 15.804C261.222 15.552 260.881 15.2067 260.629 14.768C260.387 14.32 260.265 13.8067 260.265 13.228V8.496H261.315V13.102C261.315 13.5033 261.395 13.858 261.553 14.166C261.721 14.4647 261.95 14.698 262.239 14.866C262.538 15.034 262.879 15.118 263.261 15.118C263.644 15.118 263.985 15.034 264.283 14.866C264.582 14.6887 264.815 14.4413 264.983 14.124C265.151 13.7973 265.235 13.41 265.235 12.962V8.496H266.285V16H265.235V14.544L265.473 14.6C265.296 15.0853 264.993 15.468 264.563 15.748C264.134 16.028 263.639 16.168 263.079 16.168ZM268.725 16V8.496H269.775V9.924L269.607 9.714C269.812 9.27533 270.116 8.93467 270.517 8.692C270.928 8.44933 271.376 8.328 271.861 8.328C272.44 8.328 272.962 8.49133 273.429 8.818C273.896 9.14467 274.227 9.56933 274.423 10.092L274.129 10.106C274.316 9.52733 274.638 9.08867 275.095 8.79C275.562 8.482 276.075 8.328 276.635 8.328C277.139 8.328 277.601 8.44933 278.021 8.692C278.45 8.93467 278.791 9.27067 279.043 9.7C279.304 10.12 279.435 10.596 279.435 11.128V16H278.385V11.534C278.385 11.0767 278.301 10.6893 278.133 10.372C277.974 10.0547 277.755 9.812 277.475 9.644C277.195 9.46667 276.873 9.378 276.509 9.378C276.154 9.378 275.832 9.46667 275.543 9.644C275.254 9.812 275.025 10.0593 274.857 10.386C274.689 10.7033 274.605 11.086 274.605 11.534V16H273.555V11.534C273.555 11.0767 273.471 10.6893 273.303 10.372C273.144 10.0547 272.925 9.812 272.645 9.644C272.365 9.46667 272.043 9.378 271.679 9.378C271.315 9.378 270.988 9.46667 270.699 9.644C270.419 9.812 270.195 10.0593 270.027 10.386C269.859 10.7033 269.775 11.086 269.775 11.534V16H268.725ZM281.762 17.82V17.33C282.042 17.2553 282.247 17.1107 282.378 16.896C282.508 16.6813 282.574 16.3827 282.574 16H282.042V14.46H283.162V15.636C283.162 16.2427 283.045 16.728 282.812 17.092C282.578 17.4653 282.228 17.708 281.762 17.82ZM287.508 16L291.316 5.57H292.52L296.328 16H295.152L294.256 13.452H289.594L288.684 16H287.508ZM289.958 12.402H293.864L291.75 6.41H292.086L289.958 12.402ZM300.504 16V5.402H301.554V16H300.504ZM307.497 16.168C306.788 16.168 306.144 16 305.565 15.664C304.986 15.3187 304.524 14.852 304.179 14.264C303.843 13.6667 303.675 12.99 303.675 12.234C303.675 11.4873 303.843 10.82 304.179 10.232C304.515 9.644 304.968 9.182 305.537 8.846C306.116 8.50067 306.769 8.328 307.497 8.328C308.225 8.328 308.874 8.496 309.443 8.832C310.022 9.168 310.474 9.63 310.801 10.218C311.137 10.806 311.305 11.478 311.305 12.234C311.305 12.9993 311.132 13.6807 310.787 14.278C310.442 14.866 309.98 15.328 309.401 15.664C308.832 16 308.197 16.168 307.497 16.168ZM307.497 15.118C308.001 15.118 308.454 14.992 308.855 14.74C309.266 14.488 309.588 14.1427 309.821 13.704C310.064 13.2653 310.185 12.7753 310.185 12.234C310.185 11.6927 310.064 11.2073 309.821 10.778C309.588 10.3487 309.266 10.008 308.855 9.756C308.454 9.504 308.001 9.378 307.497 9.378C306.993 9.378 306.536 9.504 306.125 9.756C305.724 10.008 305.402 10.3487 305.159 10.778C304.916 11.2073 304.795 11.6927 304.795 12.234C304.795 12.7753 304.916 13.2653 305.159 13.704C305.402 14.1427 305.724 14.488 306.125 14.74C306.536 14.992 306.993 15.118 307.497 15.118ZM313.437 16V8.496H314.487V9.728L314.347 9.546C314.524 9.19133 314.79 8.91133 315.145 8.706C315.509 8.50067 315.947 8.398 316.461 8.398H316.937V9.448H316.279C315.737 9.448 315.303 9.616 314.977 9.952C314.65 10.288 314.487 10.764 314.487 11.38V16H313.437ZM321.863 16.168C321.163 16.168 320.529 16 319.959 15.664C319.399 15.3187 318.956 14.8473 318.629 14.25C318.303 13.6527 318.139 12.976 318.139 12.22C318.139 11.464 318.298 10.7967 318.615 10.218C318.933 9.63 319.362 9.168 319.903 8.832C320.454 8.496 321.07 8.328 321.751 8.328C322.293 8.328 322.773 8.43067 323.193 8.636C323.623 8.832 323.987 9.10267 324.285 9.448C324.584 9.784 324.813 10.1667 324.971 10.596C325.13 11.016 325.209 11.45 325.209 11.898C325.209 11.9913 325.205 12.0987 325.195 12.22C325.186 12.332 325.172 12.4487 325.153 12.57H318.811V11.59H324.551L324.047 12.01C324.131 11.4967 324.071 11.0393 323.865 10.638C323.669 10.2273 323.385 9.90533 323.011 9.672C322.638 9.42933 322.218 9.308 321.751 9.308C321.285 9.308 320.851 9.42933 320.449 9.672C320.057 9.91467 319.749 10.2553 319.525 10.694C319.301 11.1233 319.213 11.6367 319.259 12.234C319.213 12.8313 319.306 13.354 319.539 13.802C319.782 14.2407 320.109 14.5813 320.519 14.824C320.939 15.0667 321.387 15.188 321.863 15.188C322.414 15.188 322.876 15.0573 323.249 14.796C323.623 14.5347 323.926 14.208 324.159 13.816L325.055 14.292C324.906 14.628 324.677 14.9407 324.369 15.23C324.061 15.51 323.693 15.7387 323.263 15.916C322.843 16.084 322.377 16.168 321.863 16.168ZM327.341 16V8.496H328.391V9.924L328.223 9.714C328.428 9.27533 328.731 8.93467 329.133 8.692C329.543 8.44933 329.991 8.328 330.477 8.328C331.055 8.328 331.578 8.49133 332.045 8.818C332.511 9.14467 332.843 9.56933 333.039 10.092L332.745 10.106C332.931 9.52733 333.253 9.08867 333.711 8.79C334.177 8.482 334.691 8.328 335.251 8.328C335.755 8.328 336.217 8.44933 336.637 8.692C337.066 8.93467 337.407 9.27067 337.659 9.7C337.92 10.12 338.051 10.596 338.051 11.128V16H337.001V11.534C337.001 11.0767 336.917 10.6893 336.749 10.372C336.59 10.0547 336.371 9.812 336.091 9.644C335.811 9.46667 335.489 9.378 335.125 9.378C334.77 9.378 334.448 9.46667 334.159 9.644C333.869 9.812 333.641 10.0593 333.473 10.386C333.305 10.7033 333.221 11.086 333.221 11.534V16H332.171V11.534C332.171 11.0767 332.087 10.6893 331.919 10.372C331.76 10.0547 331.541 9.812 331.261 9.644C330.981 9.46667 330.659 9.378 330.295 9.378C329.931 9.378 329.604 9.46667 329.315 9.644C329.035 9.812 328.811 10.0593 328.643 10.386C328.475 10.7033 328.391 11.086 328.391 11.534V16H327.341ZM133.848 36V29.546H132.35V28.496H133.848V27.824C133.848 27.3013 133.965 26.8627 134.198 26.508C134.431 26.144 134.739 25.8687 135.122 25.682C135.505 25.4953 135.915 25.402 136.354 25.402C136.447 25.402 136.555 25.4113 136.676 25.43C136.797 25.4393 136.895 25.4533 136.97 25.472V26.424C136.905 26.4053 136.816 26.396 136.704 26.396C136.592 26.3867 136.513 26.382 136.466 26.382C136.018 26.382 135.645 26.4893 135.346 26.704C135.047 26.9187 134.898 27.292 134.898 27.824V28.496H136.732V29.546H134.898V36H133.848ZM141.944 36.168C141.235 36.168 140.591 36 140.012 35.664C139.434 35.3187 138.972 34.852 138.626 34.264C138.29 33.6667 138.122 32.99 138.122 32.234C138.122 31.4873 138.29 30.82 138.626 30.232C138.962 29.644 139.415 29.182 139.984 28.846C140.563 28.5007 141.216 28.328 141.944 28.328C142.672 28.328 143.321 28.496 143.89 28.832C144.469 29.168 144.922 29.63 145.248 30.218C145.584 30.806 145.752 31.478 145.752 32.234C145.752 32.9993 145.58 33.6807 145.234 34.278C144.889 34.866 144.427 35.328 143.848 35.664C143.279 36 142.644 36.168 141.944 36.168ZM141.944 35.118C142.448 35.118 142.901 34.992 143.302 34.74C143.713 34.488 144.035 34.1427 144.268 33.704C144.511 33.2653 144.632 32.7753 144.632 32.234C144.632 31.6927 144.511 31.2073 144.268 30.778C144.035 30.3487 143.713 30.008 143.302 29.756C142.901 29.504 142.448 29.378 141.944 29.378C141.44 29.378 140.983 29.504 140.572 29.756C140.171 30.008 139.849 30.3487 139.606 30.778C139.364 31.2073 139.242 31.6927 139.242 32.234C139.242 32.7753 139.364 33.2653 139.606 33.704C139.849 34.1427 140.171 34.488 140.572 34.74C140.983 34.992 141.44 35.118 141.944 35.118ZM147.884 36V28.496H148.934V29.728L148.794 29.546C148.971 29.1913 149.237 28.9113 149.592 28.706C149.956 28.5007 150.395 28.398 150.908 28.398H151.384V29.448H150.726C150.185 29.448 149.751 29.616 149.424 29.952C149.097 30.288 148.934 30.764 148.934 31.38V36H147.884ZM158.423 36.084C157.751 36.084 157.233 35.888 156.869 35.496C156.505 35.104 156.323 34.544 156.323 33.816V29.546H154.937V28.496H155.287C155.605 28.496 155.857 28.3933 156.043 28.188C156.23 27.9733 156.323 27.7073 156.323 27.39V26.76H157.373V28.496H159.025V29.546H157.373V33.816C157.373 34.068 157.411 34.292 157.485 34.488C157.56 34.6747 157.686 34.824 157.863 34.936C158.05 35.048 158.297 35.104 158.605 35.104C158.68 35.104 158.769 35.0993 158.871 35.09C158.974 35.0807 159.063 35.0713 159.137 35.062V36C159.025 36.028 158.899 36.0467 158.759 36.056C158.619 36.0747 158.507 36.084 158.423 36.084ZM161.261 36V25.402H162.311V29.952L162.073 29.896C162.26 29.4107 162.563 29.028 162.983 28.748C163.413 28.468 163.907 28.328 164.467 28.328C164.999 28.328 165.475 28.4493 165.895 28.692C166.325 28.9347 166.661 29.2707 166.903 29.7C167.155 30.12 167.281 30.596 167.281 31.128V36H166.231V31.534C166.231 31.0767 166.147 30.6893 165.979 30.372C165.811 30.0547 165.578 29.812 165.279 29.644C164.99 29.4667 164.659 29.378 164.285 29.378C163.912 29.378 163.576 29.4667 163.277 29.644C162.979 29.812 162.741 30.0593 162.563 30.386C162.395 30.7033 162.311 31.086 162.311 31.534V36H161.261ZM172.983 36.168C172.283 36.168 171.648 36 171.079 35.664C170.519 35.3187 170.075 34.8473 169.749 34.25C169.422 33.6527 169.259 32.976 169.259 32.22C169.259 31.464 169.417 30.7967 169.735 30.218C170.052 29.63 170.481 29.168 171.023 28.832C171.573 28.496 172.189 28.328 172.871 28.328C173.412 28.328 173.893 28.4307 174.313 28.636C174.742 28.832 175.106 29.1027 175.405 29.448C175.703 29.784 175.932 30.1667 176.091 30.596C176.249 31.016 176.329 31.45 176.329 31.898C176.329 31.9913 176.324 32.0987 176.315 32.22C176.305 32.332 176.291 32.4487 176.273 32.57H169.931V31.59H175.671L175.167 32.01C175.251 31.4967 175.19 31.0393 174.985 30.638C174.789 30.2273 174.504 29.9053 174.131 29.672C173.757 29.4293 173.337 29.308 172.871 29.308C172.404 29.308 171.97 29.4293 171.569 29.672C171.177 29.9147 170.869 30.2553 170.645 30.694C170.421 31.1233 170.332 31.6367 170.379 32.234C170.332 32.8313 170.425 33.354 170.659 33.802C170.901 34.2407 171.228 34.5813 171.639 34.824C172.059 35.0667 172.507 35.188 172.983 35.188C173.533 35.188 173.995 35.0573 174.369 34.796C174.742 34.5347 175.045 34.208 175.279 33.816L176.175 34.292C176.025 34.628 175.797 34.9407 175.489 35.23C175.181 35.51 174.812 35.7387 174.383 35.916C173.963 36.084 173.496 36.168 172.983 36.168ZM181.119 36V28.496H182.169V36H181.119ZM181.119 27.11V25.57H182.169V27.11H181.119ZM184.598 38.8V28.496H185.648V30.176L185.48 29.882C185.779 29.406 186.175 29.028 186.67 28.748C187.174 28.468 187.748 28.328 188.392 28.328C189.101 28.328 189.731 28.5007 190.282 28.846C190.842 29.182 191.281 29.644 191.598 30.232C191.925 30.82 192.088 31.492 192.088 32.248C192.088 32.9947 191.925 33.6667 191.598 34.264C191.281 34.852 190.842 35.3187 190.282 35.664C189.731 36 189.101 36.168 188.392 36.168C187.748 36.168 187.165 36.0233 186.642 35.734C186.129 35.4353 185.741 35.0153 185.48 34.474L185.648 34.32V38.8H184.598ZM188.336 35.118C188.84 35.118 189.288 34.992 189.68 34.74C190.081 34.488 190.394 34.1473 190.618 33.718C190.851 33.2793 190.968 32.7893 190.968 32.248C190.968 31.6973 190.851 31.2073 190.618 30.778C190.394 30.3487 190.081 30.008 189.68 29.756C189.288 29.504 188.84 29.378 188.336 29.378C187.832 29.378 187.375 29.504 186.964 29.756C186.563 30.008 186.241 30.3533 185.998 30.792C185.765 31.2213 185.648 31.7067 185.648 32.248C185.648 32.7893 185.765 33.2793 185.998 33.718C186.241 34.1473 186.563 34.488 186.964 34.74C187.375 34.992 187.832 35.118 188.336 35.118ZM196.82 36.168C196.101 36.168 195.471 35.986 194.93 35.622C194.389 35.258 193.997 34.7633 193.754 34.138L194.636 33.718C194.851 34.1753 195.149 34.5393 195.532 34.81C195.924 35.0807 196.353 35.216 196.82 35.216C197.268 35.216 197.646 35.1087 197.954 34.894C198.262 34.67 198.416 34.3807 198.416 34.026C198.416 33.7647 198.341 33.5593 198.192 33.41C198.043 33.2513 197.87 33.13 197.674 33.046C197.478 32.962 197.305 32.9013 197.156 32.864L196.078 32.556C195.387 32.36 194.888 32.0847 194.58 31.73C194.272 31.3753 194.118 30.9647 194.118 30.498C194.118 30.0593 194.23 29.6767 194.454 29.35C194.678 29.0233 194.981 28.7713 195.364 28.594C195.747 28.4167 196.171 28.328 196.638 28.328C197.273 28.328 197.847 28.496 198.36 28.832C198.883 29.1587 199.251 29.616 199.466 30.204L198.57 30.624C198.383 30.204 198.113 29.8773 197.758 29.644C197.413 29.4013 197.025 29.28 196.596 29.28C196.176 29.28 195.84 29.3873 195.588 29.602C195.336 29.8167 195.21 30.0873 195.21 30.414C195.21 30.666 195.275 30.8667 195.406 31.016C195.537 31.1653 195.686 31.2773 195.854 31.352C196.031 31.4267 196.185 31.4827 196.316 31.52L197.562 31.884C198.169 32.0613 198.64 32.3367 198.976 32.71C199.321 33.0833 199.494 33.522 199.494 34.026C199.494 34.4367 199.377 34.8053 199.144 35.132C198.92 35.4587 198.607 35.7153 198.206 35.902C197.805 36.0793 197.343 36.168 196.82 36.168ZM204.279 36.168C203.756 36.168 203.28 36.0467 202.851 35.804C202.422 35.552 202.081 35.2067 201.829 34.768C201.586 34.32 201.465 33.8067 201.465 33.228V28.496H202.515V33.102C202.515 33.5033 202.594 33.858 202.753 34.166C202.921 34.4647 203.15 34.698 203.439 34.866C203.738 35.034 204.078 35.118 204.461 35.118C204.844 35.118 205.184 35.034 205.483 34.866C205.782 34.6887 206.015 34.4413 206.183 34.124C206.351 33.7973 206.435 33.41 206.435 32.962V28.496H207.485V36H206.435V34.544L206.673 34.6C206.496 35.0853 206.192 35.468 205.763 35.748C205.334 36.028 204.839 36.168 204.279 36.168ZM209.924 36V28.496H210.974V29.924L210.806 29.714C211.012 29.2753 211.315 28.9347 211.716 28.692C212.127 28.4493 212.575 28.328 213.06 28.328C213.639 28.328 214.162 28.4913 214.628 28.818C215.095 29.1447 215.426 29.5693 215.622 30.092L215.328 30.106C215.515 29.5273 215.837 29.0887 216.294 28.79C216.761 28.482 217.274 28.328 217.834 28.328C218.338 28.328 218.8 28.4493 219.22 28.692C219.65 28.9347 219.99 29.2707 220.242 29.7C220.504 30.12 220.634 30.596 220.634 31.128V36H219.584V31.534C219.584 31.0767 219.5 30.6893 219.332 30.372C219.174 30.0547 218.954 29.812 218.674 29.644C218.394 29.4667 218.072 29.378 217.708 29.378C217.354 29.378 217.032 29.4667 216.742 29.644C216.453 29.812 216.224 30.0593 216.056 30.386C215.888 30.7033 215.804 31.086 215.804 31.534V36H214.754V31.534C214.754 31.0767 214.67 30.6893 214.502 30.372C214.344 30.0547 214.124 29.812 213.844 29.644C213.564 29.4667 213.242 29.378 212.878 29.378C212.514 29.378 212.188 29.4667 211.898 29.644C211.618 29.812 211.394 30.0593 211.226 30.386C211.058 30.7033 210.974 31.086 210.974 31.534V36H209.924ZM222.961 37.82V37.33C223.241 37.2553 223.447 37.1107 223.577 36.896C223.708 36.6813 223.773 36.3827 223.773 36H223.241V34.46H224.361V35.636C224.361 36.2427 224.245 36.728 224.011 37.092C223.778 37.4653 223.428 37.708 222.961 37.82ZM228.708 36L232.516 25.57H233.72L237.528 36H236.352L235.456 33.452H230.794L229.884 36H228.708ZM231.158 32.402H235.064L232.95 26.41H233.286L231.158 32.402ZM241.703 36V25.402H242.753V36H241.703ZM248.696 36.168C247.987 36.168 247.343 36 246.764 35.664C246.186 35.3187 245.724 34.852 245.378 34.264C245.042 33.6667 244.874 32.99 244.874 32.234C244.874 31.4873 245.042 30.82 245.378 30.232C245.714 29.644 246.167 29.182 246.736 28.846C247.315 28.5007 247.968 28.328 248.696 28.328C249.424 28.328 250.073 28.496 250.642 28.832C251.221 29.168 251.674 29.63 252 30.218C252.336 30.806 252.504 31.478 252.504 32.234C252.504 32.9993 252.332 33.6807 251.986 34.278C251.641 34.866 251.179 35.328 250.6 35.664C250.031 36 249.396 36.168 248.696 36.168ZM248.696 35.118C249.2 35.118 249.653 34.992 250.054 34.74C250.465 34.488 250.787 34.1427 251.02 33.704C251.263 33.2653 251.384 32.7753 251.384 32.234C251.384 31.6927 251.263 31.2073 251.02 30.778C250.787 30.3487 250.465 30.008 250.054 29.756C249.653 29.504 249.2 29.378 248.696 29.378C248.192 29.378 247.735 29.504 247.324 29.756C246.923 30.008 246.601 30.3487 246.358 30.778C246.116 31.2073 245.994 31.6927 245.994 32.234C245.994 32.7753 246.116 33.2653 246.358 33.704C246.601 34.1427 246.923 34.488 247.324 34.74C247.735 34.992 248.192 35.118 248.696 35.118ZM254.636 36V28.496H255.686V29.728L255.546 29.546C255.724 29.1913 255.99 28.9113 256.344 28.706C256.708 28.5007 257.147 28.398 257.66 28.398H258.136V29.448H257.478C256.937 29.448 256.503 29.616 256.176 29.952C255.85 30.288 255.686 30.764 255.686 31.38V36H254.636ZM263.063 36.168C262.363 36.168 261.728 36 261.159 35.664C260.599 35.3187 260.155 34.8473 259.829 34.25C259.502 33.6527 259.339 32.976 259.339 32.22C259.339 31.464 259.497 30.7967 259.815 30.218C260.132 29.63 260.561 29.168 261.103 28.832C261.653 28.496 262.269 28.328 262.951 28.328C263.492 28.328 263.973 28.4307 264.393 28.636C264.822 28.832 265.186 29.1027 265.485 29.448C265.783 29.784 266.012 30.1667 266.171 30.596C266.329 31.016 266.409 31.45 266.409 31.898C266.409 31.9913 266.404 32.0987 266.395 32.22C266.385 32.332 266.371 32.4487 266.353 32.57H260.011V31.59H265.751L265.247 32.01C265.331 31.4967 265.27 31.0393 265.065 30.638C264.869 30.2273 264.584 29.9053 264.211 29.672C263.837 29.4293 263.417 29.308 262.951 29.308C262.484 29.308 262.05 29.4293 261.649 29.672C261.257 29.9147 260.949 30.2553 260.725 30.694C260.501 31.1233 260.412 31.6367 260.459 32.234C260.412 32.8313 260.505 33.354 260.739 33.802C260.981 34.2407 261.308 34.5813 261.719 34.824C262.139 35.0667 262.587 35.188 263.063 35.188C263.613 35.188 264.075 35.0573 264.449 34.796C264.822 34.5347 265.125 34.208 265.359 33.816L266.255 34.292C266.105 34.628 265.877 34.9407 265.569 35.23C265.261 35.51 264.892 35.7387 264.463 35.916C264.043 36.084 263.576 36.168 263.063 36.168ZM268.54 36V28.496H269.59V29.924L269.422 29.714C269.627 29.2753 269.931 28.9347 270.332 28.692C270.743 28.4493 271.191 28.328 271.676 28.328C272.255 28.328 272.777 28.4913 273.244 28.818C273.711 29.1447 274.042 29.5693 274.238 30.092L273.944 30.106C274.131 29.5273 274.453 29.0887 274.91 28.79C275.377 28.482 275.89 28.328 276.45 28.328C276.954 28.328 277.416 28.4493 277.836 28.692C278.265 28.9347 278.606 29.2707 278.858 29.7C279.119 30.12 279.25 30.596 279.25 31.128V36H278.2V31.534C278.2 31.0767 278.116 30.6893 277.948 30.372C277.789 30.0547 277.57 29.812 277.29 29.644C277.01 29.4667 276.688 29.378 276.324 29.378C275.969 29.378 275.647 29.4667 275.358 29.644C275.069 29.812 274.84 30.0593 274.672 30.386C274.504 30.7033 274.42 31.086 274.42 31.534V36H273.37V31.534C273.37 31.0767 273.286 30.6893 273.118 30.372C272.959 30.0547 272.74 29.812 272.46 29.644C272.18 29.4667 271.858 29.378 271.494 29.378C271.13 29.378 270.803 29.4667 270.514 29.644C270.234 29.812 270.01 30.0593 269.842 30.386C269.674 30.7033 269.59 31.086 269.59 31.534V36H268.54ZM284.964 36V29.546H283.466V28.496H284.964V27.824C284.964 27.3013 285.08 26.8627 285.314 26.508C285.547 26.144 285.855 25.8687 286.238 25.682C286.62 25.4953 287.031 25.402 287.47 25.402C287.563 25.402 287.67 25.4113 287.792 25.43C287.913 25.4393 288.011 25.4533 288.086 25.472V26.424C288.02 26.4053 287.932 26.396 287.82 26.396C287.708 26.3867 287.628 26.382 287.582 26.382C287.134 26.382 286.76 26.4893 286.462 26.704C286.163 26.9187 286.014 27.292 286.014 27.824V28.496H287.848V29.546H286.014V36H284.964ZM293.06 36.168C292.351 36.168 291.707 36 291.128 35.664C290.549 35.3187 290.087 34.852 289.742 34.264C289.406 33.6667 289.238 32.99 289.238 32.234C289.238 31.4873 289.406 30.82 289.742 30.232C290.078 29.644 290.531 29.182 291.1 28.846C291.679 28.5007 292.332 28.328 293.06 28.328C293.788 28.328 294.437 28.496 295.006 28.832C295.585 29.168 296.037 29.63 296.364 30.218C296.7 30.806 296.868 31.478 296.868 32.234C296.868 32.9993 296.695 33.6807 296.35 34.278C296.005 34.866 295.543 35.328 294.964 35.664C294.395 36 293.76 36.168 293.06 36.168ZM293.06 35.118C293.564 35.118 294.017 34.992 294.418 34.74C294.829 34.488 295.151 34.1427 295.384 33.704C295.627 33.2653 295.748 32.7753 295.748 32.234C295.748 31.6927 295.627 31.2073 295.384 30.778C295.151 30.3487 294.829 30.008 294.418 29.756C294.017 29.504 293.564 29.378 293.06 29.378C292.556 29.378 292.099 29.504 291.688 29.756C291.287 30.008 290.965 30.3487 290.722 30.778C290.479 31.2073 290.358 31.6927 290.358 32.234C290.358 32.7753 290.479 33.2653 290.722 33.704C290.965 34.1427 291.287 34.488 291.688 34.74C292.099 34.992 292.556 35.118 293.06 35.118ZM299 36V28.496H300.05V29.728L299.91 29.546C300.087 29.1913 300.353 28.9113 300.708 28.706C301.072 28.5007 301.511 28.398 302.024 28.398H302.5V29.448H301.842C301.301 29.448 300.867 29.616 300.54 29.952C300.213 30.288 300.05 30.764 300.05 31.38V36H299ZM309.539 36.084C308.867 36.084 308.349 35.888 307.985 35.496C307.621 35.104 307.439 34.544 307.439 33.816V29.546H306.053V28.496H306.403C306.721 28.496 306.973 28.3933 307.159 28.188C307.346 27.9733 307.439 27.7073 307.439 27.39V26.76H308.489V28.496H310.141V29.546H308.489V33.816C308.489 34.068 308.527 34.292 308.601 34.488C308.676 34.6747 308.802 34.824 308.979 34.936C309.166 35.048 309.413 35.104 309.721 35.104C309.796 35.104 309.885 35.0993 309.987 35.09C310.09 35.0807 310.179 35.0713 310.253 35.062V36C310.141 36.028 310.015 36.0467 309.875 36.056C309.735 36.0747 309.623 36.084 309.539 36.084ZM312.377 36V25.402H313.427V29.952L313.189 29.896C313.376 29.4107 313.679 29.028 314.099 28.748C314.528 28.468 315.023 28.328 315.583 28.328C316.115 28.328 316.591 28.4493 317.011 28.692C317.44 28.9347 317.776 29.2707 318.019 29.7C318.271 30.12 318.397 30.596 318.397 31.128V36H317.347V31.534C317.347 31.0767 317.263 30.6893 317.095 30.372C316.927 30.0547 316.694 29.812 316.395 29.644C316.106 29.4667 315.774 29.378 315.401 29.378C315.028 29.378 314.692 29.4667 314.393 29.644C314.094 29.812 313.856 30.0593 313.679 30.386C313.511 30.7033 313.427 31.086 313.427 31.534V36H312.377ZM324.098 36.168C323.398 36.168 322.764 36 322.194 35.664C321.634 35.3187 321.191 34.8473 320.864 34.25C320.538 33.6527 320.374 32.976 320.374 32.22C320.374 31.464 320.533 30.7967 320.85 30.218C321.168 29.63 321.597 29.168 322.138 28.832C322.689 28.496 323.305 28.328 323.986 28.328C324.528 28.328 325.008 28.4307 325.428 28.636C325.858 28.832 326.222 29.1027 326.52 29.448C326.819 29.784 327.048 30.1667 327.206 30.596C327.365 31.016 327.444 31.45 327.444 31.898C327.444 31.9913 327.44 32.0987 327.43 32.22C327.421 32.332 327.407 32.4487 327.388 32.57H321.046V31.59H326.786L326.282 32.01C326.366 31.4967 326.306 31.0393 326.1 30.638C325.904 30.2273 325.62 29.9053 325.246 29.672C324.873 29.4293 324.453 29.308 323.986 29.308C323.52 29.308 323.086 29.4293 322.684 29.672C322.292 29.9147 321.984 30.2553 321.76 30.694C321.536 31.1233 321.448 31.6367 321.494 32.234C321.448 32.8313 321.541 33.354 321.774 33.802C322.017 34.2407 322.344 34.5813 322.754 34.824C323.174 35.0667 323.622 35.188 324.098 35.188C324.649 35.188 325.111 35.0573 325.484 34.796C325.858 34.5347 326.161 34.208 326.394 33.816L327.29 34.292C327.141 34.628 326.912 34.9407 326.604 35.23C326.296 35.51 325.928 35.7387 325.498 35.916C325.078 36.084 324.612 36.168 324.098 36.168ZM133.078 56V48.496H134.128V56H133.078ZM133.078 47.11V45.57H134.128V47.11H133.078ZM136.557 58.8V48.496H137.607V50.176L137.439 49.882C137.738 49.406 138.135 49.028 138.629 48.748C139.133 48.468 139.707 48.328 140.351 48.328C141.061 48.328 141.691 48.5007 142.241 48.846C142.801 49.182 143.24 49.644 143.557 50.232C143.884 50.82 144.047 51.492 144.047 52.248C144.047 52.9947 143.884 53.6667 143.557 54.264C143.24 54.852 142.801 55.3187 142.241 55.664C141.691 56 141.061 56.168 140.351 56.168C139.707 56.168 139.124 56.0233 138.601 55.734C138.088 55.4353 137.701 55.0153 137.439 54.474L137.607 54.32V58.8H136.557ZM140.295 55.118C140.799 55.118 141.247 54.992 141.639 54.74C142.041 54.488 142.353 54.1473 142.577 53.718C142.811 53.2793 142.927 52.7893 142.927 52.248C142.927 51.6973 142.811 51.2073 142.577 50.778C142.353 50.3487 142.041 50.008 141.639 49.756C141.247 49.504 140.799 49.378 140.295 49.378C139.791 49.378 139.334 49.504 138.923 49.756C138.522 50.008 138.2 50.3533 137.957 50.792C137.724 51.2213 137.607 51.7067 137.607 52.248C137.607 52.7893 137.724 53.2793 137.957 53.718C138.2 54.1473 138.522 54.488 138.923 54.74C139.334 54.992 139.791 55.118 140.295 55.118ZM148.779 56.168C148.06 56.168 147.43 55.986 146.889 55.622C146.348 55.258 145.956 54.7633 145.713 54.138L146.595 53.718C146.81 54.1753 147.108 54.5393 147.491 54.81C147.883 55.0807 148.312 55.216 148.779 55.216C149.227 55.216 149.605 55.1087 149.913 54.894C150.221 54.67 150.375 54.3807 150.375 54.026C150.375 53.7647 150.3 53.5593 150.151 53.41C150.002 53.2513 149.829 53.13 149.633 53.046C149.437 52.962 149.264 52.9013 149.115 52.864L148.037 52.556C147.346 52.36 146.847 52.0847 146.539 51.73C146.231 51.3753 146.077 50.9647 146.077 50.498C146.077 50.0593 146.189 49.6767 146.413 49.35C146.637 49.0233 146.94 48.7713 147.323 48.594C147.706 48.4167 148.13 48.328 148.597 48.328C149.232 48.328 149.806 48.496 150.319 48.832C150.842 49.1587 151.21 49.616 151.425 50.204L150.529 50.624C150.342 50.204 150.072 49.8773 149.717 49.644C149.372 49.4013 148.984 49.28 148.555 49.28C148.135 49.28 147.799 49.3873 147.547 49.602C147.295 49.8167 147.169 50.0873 147.169 50.414C147.169 50.666 147.234 50.8667 147.365 51.016C147.496 51.1653 147.645 51.2773 147.813 51.352C147.99 51.4267 148.144 51.4827 148.275 51.52L149.521 51.884C150.128 52.0613 150.599 52.3367 150.935 52.71C151.28 53.0833 151.453 53.522 151.453 54.026C151.453 54.4367 151.336 54.8053 151.103 55.132C150.879 55.4587 150.566 55.7153 150.165 55.902C149.764 56.0793 149.302 56.168 148.779 56.168ZM156.238 56.168C155.715 56.168 155.239 56.0467 154.81 55.804C154.381 55.552 154.04 55.2067 153.788 54.768C153.545 54.32 153.424 53.8067 153.424 53.228V48.496H154.474V53.102C154.474 53.5033 154.553 53.858 154.712 54.166C154.88 54.4647 155.109 54.698 155.398 54.866C155.697 55.034 156.037 55.118 156.42 55.118C156.803 55.118 157.143 55.034 157.442 54.866C157.741 54.6887 157.974 54.4413 158.142 54.124C158.31 53.7973 158.394 53.41 158.394 52.962V48.496H159.444V56H158.394V54.544L158.632 54.6C158.455 55.0853 158.151 55.468 157.722 55.748C157.293 56.028 156.798 56.168 156.238 56.168ZM161.884 56V48.496H162.934V49.924L162.766 49.714C162.971 49.2753 163.274 48.9347 163.676 48.692C164.086 48.4493 164.534 48.328 165.02 48.328C165.598 48.328 166.121 48.4913 166.588 48.818C167.054 49.1447 167.386 49.5693 167.582 50.092L167.288 50.106C167.474 49.5273 167.796 49.0887 168.254 48.79C168.72 48.482 169.234 48.328 169.794 48.328C170.298 48.328 170.76 48.4493 171.18 48.692C171.609 48.9347 171.95 49.2707 172.202 49.7C172.463 50.12 172.594 50.596 172.594 51.128V56H171.544V51.534C171.544 51.0767 171.46 50.6893 171.292 50.372C171.133 50.0547 170.914 49.812 170.634 49.644C170.354 49.4667 170.032 49.378 169.668 49.378C169.313 49.378 168.991 49.4667 168.702 49.644C168.412 49.812 168.184 50.0593 168.016 50.386C167.848 50.7033 167.764 51.086 167.764 51.534V56H166.714V51.534C166.714 51.0767 166.63 50.6893 166.462 50.372C166.303 50.0547 166.084 49.812 165.804 49.644C165.524 49.4667 165.202 49.378 164.838 49.378C164.474 49.378 164.147 49.4667 163.858 49.644C163.578 49.812 163.354 50.0593 163.186 50.386C163.018 50.7033 162.934 51.086 162.934 51.534V56H161.884ZM175.242 56V54.46H176.362V56H175.242Z" fill="#1E1E1E"/>
</svg>
