<svg width="323" height="76" viewBox="0 0 323 76" fill="none" xmlns="http://www.w3.org/2000/svg">
<path d="M1.078 15V4.57H2.73V13.53H7.238V15H1.078ZM12.1249 15.168C11.3969 15.168 10.7295 14.9953 10.1229 14.65C9.52554 14.3047 9.04954 13.8333 8.69488 13.236C8.34021 12.6387 8.16288 11.962 8.16288 11.206C8.16288 10.4407 8.34021 9.764 8.69488 9.176C9.04954 8.57867 9.52554 8.112 10.1229 7.776C10.7202 7.43067 11.3875 7.258 12.1249 7.258C12.8715 7.258 13.5389 7.43067 14.1269 7.776C14.7242 8.112 15.1955 8.57867 15.5409 9.176C15.8955 9.764 16.0729 10.4407 16.0729 11.206C16.0729 11.9713 15.8955 12.6527 15.5409 13.25C15.1862 13.8473 14.7102 14.3187 14.1129 14.664C13.5155 15 12.8529 15.168 12.1249 15.168ZM12.1249 13.698C12.5729 13.698 12.9695 13.5907 13.3149 13.376C13.6602 13.1613 13.9309 12.8673 14.1269 12.494C14.3322 12.1113 14.4349 11.682 14.4349 11.206C14.4349 10.73 14.3322 10.3053 14.1269 9.932C13.9309 9.55867 13.6602 9.26467 13.3149 9.05C12.9695 8.83533 12.5729 8.728 12.1249 8.728C11.6862 8.728 11.2895 8.83533 10.9349 9.05C10.5895 9.26467 10.3142 9.55867 10.1089 9.932C9.91288 10.3053 9.81488 10.73 9.81488 11.206C9.81488 11.682 9.91288 12.1113 10.1089 12.494C10.3142 12.8673 10.5895 13.1613 10.9349 13.376C11.2895 13.5907 11.6862 13.698 12.1249 13.698ZM17.6174 15V7.426H19.1294V8.952L18.9894 8.728C19.1574 8.23333 19.428 7.87867 19.8014 7.664C20.1747 7.44 20.6227 7.328 21.1454 7.328H21.6074V8.77H20.9494C20.4267 8.77 20.002 8.93333 19.6754 9.26C19.358 9.57733 19.1994 10.0347 19.1994 10.632V15H17.6174ZM26.2456 15.168C25.4896 15.168 24.8176 14.9953 24.2296 14.65C23.651 14.2953 23.1983 13.8193 22.8716 13.222C22.545 12.6153 22.3816 11.9387 22.3816 11.192C22.3816 10.4267 22.545 9.75 22.8716 9.162C23.2076 8.574 23.6556 8.112 24.2156 7.776C24.7756 7.43067 25.4103 7.258 26.1196 7.258C26.689 7.258 27.1976 7.356 27.6456 7.552C28.0936 7.748 28.4716 8.01867 28.7796 8.364C29.0876 8.7 29.321 9.08733 29.4796 9.526C29.6476 9.96467 29.7316 10.4313 29.7316 10.926C29.7316 11.0473 29.727 11.1733 29.7176 11.304C29.7083 11.4347 29.6896 11.556 29.6616 11.668H23.6276V10.408H28.7656L28.0096 10.982C28.103 10.5247 28.0703 10.1187 27.9116 9.764C27.7623 9.4 27.529 9.11533 27.2116 8.91C26.9036 8.69533 26.5396 8.588 26.1196 8.588C25.6996 8.588 25.3263 8.69533 24.9996 8.91C24.673 9.11533 24.421 9.414 24.2436 9.806C24.0663 10.1887 23.9963 10.6553 24.0336 11.206C23.987 11.7193 24.057 12.1673 24.2436 12.55C24.4396 12.9327 24.7103 13.2313 25.0556 13.446C25.4103 13.6607 25.8116 13.768 26.2596 13.768C26.717 13.768 27.1043 13.6653 27.4216 13.46C27.7483 13.2547 28.005 12.9887 28.1916 12.662L29.4796 13.292C29.3303 13.6467 29.097 13.9687 28.7796 14.258C28.4716 14.538 28.0983 14.762 27.6596 14.93C27.2303 15.0887 26.759 15.168 26.2456 15.168ZM31.2756 15V7.426H32.7876V9.064L32.5916 8.812C32.7502 8.29867 33.0396 7.91133 33.4596 7.65C33.8796 7.38867 34.3602 7.258 34.9016 7.258C35.5082 7.258 36.0449 7.42133 36.5116 7.748C36.9876 8.06533 37.3049 8.49 37.4636 9.022L37.0156 9.064C37.2396 8.45733 37.5802 8.00467 38.0376 7.706C38.5042 7.40733 39.0362 7.258 39.6336 7.258C40.1562 7.258 40.6276 7.37933 41.0476 7.622C41.4769 7.86467 41.8176 8.20067 42.0696 8.63C42.3216 9.05933 42.4476 9.54933 42.4476 10.1V15H40.8656V10.534C40.8656 10.1513 40.7956 9.82933 40.6556 9.568C40.5249 9.29733 40.3382 9.092 40.0956 8.952C39.8622 8.80267 39.5869 8.728 39.2696 8.728C38.9522 8.728 38.6722 8.80267 38.4296 8.952C38.1869 9.092 37.9956 9.29733 37.8556 9.568C37.7156 9.83867 37.6456 10.1607 37.6456 10.534V15H36.0776V10.534C36.0776 10.1513 36.0076 9.82933 35.8676 9.568C35.7369 9.29733 35.5502 9.092 35.3076 8.952C35.0742 8.80267 34.7942 8.728 34.4676 8.728C34.1502 8.728 33.8702 8.80267 33.6276 8.952C33.3849 9.092 33.1936 9.29733 33.0536 9.568C32.9229 9.83867 32.8576 10.1607 32.8576 10.534V15H31.2756ZM1.078 34V23.57H2.73V34H1.078ZM4.73845 34V26.426H6.25045V27.91L6.06845 27.714C6.25512 27.238 6.55379 26.8787 6.96445 26.636C7.37512 26.384 7.85112 26.258 8.39245 26.258C8.95245 26.258 9.44712 26.3793 9.87645 26.622C10.3058 26.8647 10.6418 27.2007 10.8845 27.63C11.1271 28.0593 11.2485 28.554 11.2485 29.114V34H9.68045V29.534C9.68045 29.1513 9.61045 28.8293 9.47045 28.568C9.33045 28.2973 9.12979 28.092 8.86845 27.952C8.61645 27.8027 8.32712 27.728 8.00045 27.728C7.67379 27.728 7.37979 27.8027 7.11845 27.952C6.86645 28.092 6.67045 28.2973 6.53045 28.568C6.39045 28.8387 6.32045 29.1607 6.32045 29.534V34H4.73845ZM1.078 53V42.57H2.73V53H1.078ZM4.73845 55.8V45.426H6.25045V46.994L6.06845 46.63C6.34845 46.2007 6.72179 45.8647 7.18845 45.622C7.65512 45.3793 8.18712 45.258 8.78445 45.258C9.50312 45.258 10.1471 45.4307 10.7165 45.776C11.2951 46.1213 11.7478 46.5927 12.0745 47.19C12.4105 47.7873 12.5785 48.4593 12.5785 49.206C12.5785 49.9527 12.4105 50.6247 12.0745 51.222C11.7478 51.8193 11.2998 52.2953 10.7305 52.65C10.1611 52.9953 9.51245 53.168 8.78445 53.168C8.19645 53.168 7.65979 53.0467 7.17445 52.804C6.69845 52.5613 6.32979 52.2113 6.06845 51.754L6.32045 51.46V55.8H4.73845ZM8.63045 51.698C9.07845 51.698 9.47512 51.5907 9.82045 51.376C10.1658 51.1613 10.4365 50.8673 10.6325 50.494C10.8378 50.1113 10.9405 49.682 10.9405 49.206C10.9405 48.73 10.8378 48.3053 10.6325 47.932C10.4365 47.5587 10.1658 47.2647 9.82045 47.05C9.47512 46.8353 9.07845 46.728 8.63045 46.728C8.19179 46.728 7.79512 46.8353 7.44045 47.05C7.09512 47.2647 6.81979 47.5587 6.61445 47.932C6.41845 48.3053 6.32045 48.73 6.32045 49.206C6.32045 49.682 6.41845 50.1113 6.61445 50.494C6.81979 50.8673 7.09512 51.1613 7.44045 51.376C7.79512 51.5907 8.19179 51.698 8.63045 51.698ZM16.9174 53.168C16.1427 53.168 15.4614 52.9767 14.8734 52.594C14.2947 52.2113 13.8887 51.698 13.6554 51.054L14.8734 50.48C15.0787 50.9093 15.3587 51.25 15.7134 51.502C16.0774 51.754 16.4787 51.88 16.9174 51.88C17.2907 51.88 17.594 51.796 17.8274 51.628C18.0607 51.46 18.1774 51.2313 18.1774 50.942C18.1774 50.7553 18.126 50.606 18.0234 50.494C17.9207 50.3727 17.79 50.2747 17.6314 50.2C17.482 50.1253 17.328 50.0693 17.1694 50.032L15.9794 49.696C15.326 49.5093 14.836 49.2293 14.5094 48.856C14.192 48.4733 14.0334 48.03 14.0334 47.526C14.0334 47.0687 14.15 46.672 14.3834 46.336C14.6167 45.9907 14.9387 45.7247 15.3494 45.538C15.76 45.3513 16.222 45.258 16.7354 45.258C17.426 45.258 18.042 45.4307 18.5834 45.776C19.1247 46.112 19.5074 46.5833 19.7314 47.19L18.5134 47.764C18.364 47.4 18.126 47.1107 17.7994 46.896C17.482 46.6813 17.1227 46.574 16.7214 46.574C16.376 46.574 16.1007 46.658 15.8954 46.826C15.69 46.9847 15.5874 47.1947 15.5874 47.456C15.5874 47.6333 15.634 47.7827 15.7274 47.904C15.8207 48.016 15.942 48.1093 16.0914 48.184C16.2407 48.2493 16.3947 48.3053 16.5534 48.352L17.7854 48.716C18.4107 48.8933 18.8914 49.1733 19.2274 49.556C19.5634 49.9293 19.7314 50.3773 19.7314 50.9C19.7314 51.348 19.61 51.7447 19.3674 52.09C19.134 52.426 18.8074 52.692 18.3874 52.888C17.9674 53.0747 17.4774 53.168 16.9174 53.168ZM23.9834 53.168C23.4141 53.168 22.9148 53.042 22.4854 52.79C22.0561 52.5287 21.7201 52.1693 21.4774 51.712C21.2441 51.2453 21.1274 50.7087 21.1274 50.102V45.426H22.7094V49.962C22.7094 50.3073 22.7794 50.6107 22.9194 50.872C23.0594 51.1333 23.2554 51.3387 23.5074 51.488C23.7594 51.628 24.0488 51.698 24.3754 51.698C24.7114 51.698 25.0054 51.6233 25.2574 51.474C25.5094 51.3247 25.7054 51.1147 25.8454 50.844C25.9948 50.5733 26.0694 50.256 26.0694 49.892V45.426H27.6374V53H26.1394V51.516L26.3074 51.712C26.1301 52.1787 25.8361 52.538 25.4254 52.79C25.0148 53.042 24.5341 53.168 23.9834 53.168ZM29.4845 53V45.426H30.9965V47.064L30.8005 46.812C30.9592 46.2987 31.2485 45.9113 31.6685 45.65C32.0885 45.3887 32.5692 45.258 33.1105 45.258C33.7172 45.258 34.2539 45.4213 34.7205 45.748C35.1965 46.0653 35.5139 46.49 35.6725 47.022L35.2245 47.064C35.4485 46.4573 35.7892 46.0047 36.2465 45.706C36.7132 45.4073 37.2452 45.258 37.8425 45.258C38.3652 45.258 38.8365 45.3793 39.2565 45.622C39.6859 45.8647 40.0265 46.2007 40.2785 46.63C40.5305 47.0593 40.6565 47.5493 40.6565 48.1V53H39.0745V48.534C39.0745 48.1513 39.0045 47.8293 38.8645 47.568C38.7339 47.2973 38.5472 47.092 38.3045 46.952C38.0712 46.8027 37.7959 46.728 37.4785 46.728C37.1612 46.728 36.8812 46.8027 36.6385 46.952C36.3959 47.092 36.2045 47.2973 36.0645 47.568C35.9245 47.8387 35.8545 48.1607 35.8545 48.534V53H34.2865V48.534C34.2865 48.1513 34.2165 47.8293 34.0765 47.568C33.9459 47.2973 33.7592 47.092 33.5165 46.952C33.2832 46.8027 33.0032 46.728 32.6765 46.728C32.3592 46.728 32.0792 46.8027 31.8365 46.952C31.5939 47.092 31.4025 47.2973 31.2625 47.568C31.1319 47.8387 31.0665 48.1607 31.0665 48.534V53H29.4845Z" fill="white"/>
<line x1="60.25" y1="1.09278e-08" x2="60.25" y2="76" stroke="white" stroke-width="0.5"/>
<path d="M77.316 15V4.57H78.226V14.16H82.916V15H77.316ZM88.0712 15.168C87.3618 15.168 86.7225 15 86.1532 14.664C85.5838 14.328 85.1312 13.866 84.7952 13.278C84.4685 12.6807 84.3052 12.0133 84.3052 11.276C84.3052 10.5387 84.4685 9.876 84.7952 9.288C85.1312 8.7 85.5792 8.238 86.1392 7.902C86.7085 7.566 87.3525 7.398 88.0712 7.398C88.7805 7.398 89.4198 7.566 89.9892 7.902C90.5585 8.238 91.0065 8.7 91.3332 9.288C91.6598 9.86667 91.8232 10.5293 91.8232 11.276C91.8232 12.0227 91.6552 12.69 91.3192 13.278C90.9832 13.866 90.5305 14.328 89.9612 14.664C89.4012 15 88.7712 15.168 88.0712 15.168ZM88.0712 14.342C88.6032 14.342 89.0838 14.2113 89.5132 13.95C89.9518 13.6793 90.2972 13.3107 90.5492 12.844C90.8012 12.3773 90.9272 11.8547 90.9272 11.276C90.9272 10.6973 90.8012 10.1793 90.5492 9.722C90.2972 9.26467 89.9565 8.90067 89.5272 8.63C89.0978 8.35933 88.6125 8.224 88.0712 8.224C87.5298 8.224 87.0398 8.35933 86.6012 8.63C86.1718 8.89133 85.8312 9.25533 85.5792 9.722C85.3272 10.1793 85.2012 10.6973 85.2012 11.276C85.2012 11.8547 85.3272 12.3773 85.5792 12.844C85.8405 13.3107 86.1858 13.6793 86.6152 13.95C87.0445 14.2113 87.5298 14.342 88.0712 14.342ZM93.8417 15V7.566H94.6817V8.952L94.5277 8.826C94.6864 8.406 94.957 8.07467 95.3397 7.832C95.7317 7.58933 96.1937 7.468 96.7257 7.468H97.2017V8.308H96.6277C96.021 8.308 95.545 8.504 95.1997 8.896C94.8544 9.27867 94.6817 9.79667 94.6817 10.45V15H93.8417ZM101.988 15.168C101.288 15.168 100.658 15 100.098 14.664C99.5378 14.3187 99.0945 13.852 98.7678 13.264C98.4412 12.6667 98.2778 11.9993 98.2778 11.262C98.2778 10.5247 98.4365 9.86667 98.7538 9.288C99.0712 8.7 99.5005 8.238 100.042 7.902C100.583 7.566 101.19 7.398 101.862 7.398C102.375 7.398 102.837 7.49133 103.248 7.678C103.668 7.86467 104.027 8.126 104.326 8.462C104.634 8.78867 104.867 9.16667 105.026 9.596C105.194 10.016 105.278 10.4593 105.278 10.926C105.278 11.0193 105.273 11.1173 105.264 11.22C105.254 11.3227 105.24 11.43 105.222 11.542H98.7678V10.772H104.746L104.368 11.066C104.424 10.5247 104.344 10.0393 104.13 9.61C103.915 9.17133 103.607 8.826 103.206 8.574C102.814 8.31267 102.366 8.182 101.862 8.182C101.358 8.182 100.896 8.31733 100.476 8.588C100.056 8.84933 99.7245 9.21333 99.4818 9.68C99.2392 10.1373 99.1272 10.6693 99.1458 11.276C99.1272 11.8827 99.2438 12.4193 99.4958 12.886C99.7478 13.3527 100.093 13.7213 100.532 13.992C100.97 14.2533 101.456 14.384 101.988 14.384C102.529 14.384 103 14.258 103.402 14.006C103.803 13.7447 104.13 13.3993 104.382 12.97L105.096 13.348C104.928 13.6933 104.69 14.006 104.382 14.286C104.074 14.5567 103.714 14.7713 103.304 14.93C102.902 15.0887 102.464 15.168 101.988 15.168ZM107.281 15V7.566H108.121V9.064L107.967 8.854C108.154 8.406 108.452 8.05133 108.863 7.79C109.283 7.52867 109.75 7.398 110.263 7.398C110.842 7.398 111.369 7.566 111.845 7.902C112.321 8.22867 112.652 8.66733 112.839 9.218L112.573 9.232C112.732 8.66267 113.044 8.21467 113.511 7.888C113.987 7.56133 114.514 7.398 115.093 7.398C115.588 7.398 116.04 7.51467 116.451 7.748C116.871 7.98133 117.207 8.308 117.459 8.728C117.72 9.13867 117.851 9.61 117.851 10.142V15H117.011V10.38C117.011 9.932 116.918 9.54933 116.731 9.232C116.554 8.90533 116.316 8.658 116.017 8.49C115.718 8.31267 115.382 8.224 115.009 8.224C114.608 8.224 114.253 8.322 113.945 8.518C113.646 8.714 113.408 8.98467 113.231 9.33C113.063 9.67533 112.979 10.072 112.979 10.52V15H112.139V10.38C112.139 9.932 112.05 9.54933 111.873 9.232C111.696 8.90533 111.453 8.658 111.145 8.49C110.846 8.31267 110.51 8.224 110.137 8.224C109.736 8.224 109.381 8.322 109.073 8.518C108.774 8.714 108.541 8.98467 108.373 9.33C108.205 9.67533 108.121 10.072 108.121 10.52V15H107.281ZM122.32 15V4.402H123.16V15H122.32ZM128.923 15.168C128.213 15.168 127.574 15 127.005 14.664C126.435 14.328 125.983 13.866 125.647 13.278C125.32 12.6807 125.157 12.0133 125.157 11.276C125.157 10.5387 125.32 9.876 125.647 9.288C125.983 8.7 126.431 8.238 126.991 7.902C127.56 7.566 128.204 7.398 128.923 7.398C129.632 7.398 130.271 7.566 130.841 7.902C131.41 8.238 131.858 8.7 132.185 9.288C132.511 9.86667 132.675 10.5293 132.675 11.276C132.675 12.0227 132.507 12.69 132.171 13.278C131.835 13.866 131.382 14.328 130.813 14.664C130.253 15 129.623 15.168 128.923 15.168ZM128.923 14.342C129.455 14.342 129.935 14.2113 130.365 13.95C130.803 13.6793 131.149 13.3107 131.401 12.844C131.653 12.3773 131.779 11.8547 131.779 11.276C131.779 10.6973 131.653 10.1793 131.401 9.722C131.149 9.26467 130.808 8.90067 130.379 8.63C129.949 8.35933 129.464 8.224 128.923 8.224C128.381 8.224 127.891 8.35933 127.453 8.63C127.023 8.89133 126.683 9.25533 126.431 9.722C126.179 10.1793 126.053 10.6973 126.053 11.276C126.053 11.8547 126.179 12.3773 126.431 12.844C126.692 13.3107 127.037 13.6793 127.467 13.95C127.896 14.2113 128.381 14.342 128.923 14.342ZM134.693 15V7.566H135.533V8.952L135.379 8.826C135.538 8.406 135.809 8.07467 136.191 7.832C136.583 7.58933 137.045 7.468 137.577 7.468H138.053V8.308H137.479C136.873 8.308 136.397 8.504 136.051 8.896C135.706 9.27867 135.533 9.79667 135.533 10.45V15H134.693ZM142.839 15.168C142.139 15.168 141.509 15 140.949 14.664C140.389 14.3187 139.946 13.852 139.619 13.264C139.293 12.6667 139.129 11.9993 139.129 11.262C139.129 10.5247 139.288 9.86667 139.605 9.288C139.923 8.7 140.352 8.238 140.893 7.902C141.435 7.566 142.041 7.398 142.713 7.398C143.227 7.398 143.689 7.49133 144.099 7.678C144.519 7.86467 144.879 8.126 145.177 8.462C145.485 8.78867 145.719 9.16667 145.877 9.596C146.045 10.016 146.129 10.4593 146.129 10.926C146.129 11.0193 146.125 11.1173 146.115 11.22C146.106 11.3227 146.092 11.43 146.073 11.542H139.619V10.772H145.597L145.219 11.066C145.275 10.5247 145.196 10.0393 144.981 9.61C144.767 9.17133 144.459 8.826 144.057 8.574C143.665 8.31267 143.217 8.182 142.713 8.182C142.209 8.182 141.747 8.31733 141.327 8.588C140.907 8.84933 140.576 9.21333 140.333 9.68C140.091 10.1373 139.979 10.6693 139.997 11.276C139.979 11.8827 140.095 12.4193 140.347 12.886C140.599 13.3527 140.945 13.7213 141.383 13.992C141.822 14.2533 142.307 14.384 142.839 14.384C143.381 14.384 143.852 14.258 144.253 14.006C144.655 13.7447 144.981 13.3993 145.233 12.97L145.947 13.348C145.779 13.6933 145.541 14.006 145.233 14.286C144.925 14.5567 144.566 14.7713 144.155 14.93C143.754 15.0887 143.315 15.168 142.839 15.168ZM148.133 15V7.566H148.973V9.064L148.819 8.854C149.005 8.406 149.304 8.05133 149.715 7.79C150.135 7.52867 150.601 7.398 151.115 7.398C151.693 7.398 152.221 7.566 152.697 7.902C153.173 8.22867 153.504 8.66733 153.691 9.218L153.425 9.232C153.583 8.66267 153.896 8.21467 154.363 7.888C154.839 7.56133 155.366 7.398 155.945 7.398C156.439 7.398 156.892 7.51467 157.303 7.748C157.723 7.98133 158.059 8.308 158.311 8.728C158.572 9.13867 158.703 9.61 158.703 10.142V15H157.863V10.38C157.863 9.932 157.769 9.54933 157.583 9.232C157.405 8.90533 157.167 8.658 156.869 8.49C156.57 8.31267 156.234 8.224 155.861 8.224C155.459 8.224 155.105 8.322 154.797 8.518C154.498 8.714 154.26 8.98467 154.083 9.33C153.915 9.67533 153.831 10.072 153.831 10.52V15H152.991V10.38C152.991 9.932 152.902 9.54933 152.725 9.232C152.547 8.90533 152.305 8.658 151.997 8.49C151.698 8.31267 151.362 8.224 150.989 8.224C150.587 8.224 150.233 8.322 149.925 8.518C149.626 8.714 149.393 8.98467 149.225 9.33C149.057 9.67533 148.973 10.072 148.973 10.52V15H148.133ZM77.316 34V23.57H78.226V34H77.316ZM80.6893 36.8V26.566H81.5293V28.442L81.3893 28.176C81.6693 27.6347 82.0707 27.2053 82.5933 26.888C83.1253 26.5613 83.732 26.398 84.4133 26.398C85.1133 26.398 85.7387 26.566 86.2893 26.902C86.84 27.238 87.274 27.7 87.5913 28.288C87.9087 28.876 88.0673 29.5433 88.0673 30.29C88.0673 31.018 87.9087 31.676 87.5913 32.264C87.274 32.852 86.84 33.3187 86.2893 33.664C85.7387 34 85.1133 34.168 84.4133 34.168C83.732 34.168 83.1207 34.0047 82.5793 33.678C82.0473 33.342 81.6507 32.8847 81.3893 32.306L81.5293 32.11V36.8H80.6893ZM84.3853 33.328C84.9173 33.328 85.3933 33.1973 85.8133 32.936C86.2333 32.6653 86.5647 32.3013 86.8073 31.844C87.05 31.3773 87.1713 30.8547 87.1713 30.276C87.1713 29.6973 87.05 29.1793 86.8073 28.722C86.5647 28.2647 86.2333 27.9053 85.8133 27.644C85.3933 27.3733 84.9173 27.238 84.3853 27.238C83.8533 27.238 83.3727 27.3733 82.9433 27.644C82.514 27.9053 82.1733 28.2647 81.9213 28.722C81.6693 29.1793 81.5433 29.6973 81.5433 30.276C81.5433 30.8547 81.6693 31.3773 81.9213 31.844C82.1733 32.3013 82.5093 32.6653 82.9293 32.936C83.3587 33.1973 83.844 33.328 84.3853 33.328ZM92.5879 34.168C91.8973 34.168 91.2906 33.9953 90.7679 33.65C90.2453 33.3047 89.8626 32.8333 89.6199 32.236L90.3479 31.9C90.5813 32.3573 90.8939 32.7213 91.2859 32.992C91.6779 33.2533 92.1119 33.384 92.5879 33.384C93.0733 33.384 93.4793 33.2673 93.8059 33.034C94.1419 32.7913 94.3099 32.474 94.3099 32.082C94.3099 31.8393 94.2446 31.634 94.1139 31.466C93.9926 31.298 93.8339 31.1627 93.6379 31.06C93.4419 30.948 93.2319 30.864 93.0079 30.808L91.8599 30.486C91.2159 30.3087 90.7399 30.0473 90.4319 29.702C90.1333 29.3567 89.9839 28.9507 89.9839 28.484C89.9839 28.064 90.0913 27.7 90.3059 27.392C90.5206 27.0747 90.8099 26.832 91.1739 26.664C91.5379 26.4867 91.9393 26.398 92.3779 26.398C92.9939 26.398 93.5539 26.5567 94.0579 26.874C94.5619 27.1913 94.9166 27.6207 95.1219 28.162L94.3659 28.512C94.1699 28.092 93.8946 27.7653 93.5399 27.532C93.1853 27.2893 92.7933 27.168 92.3639 27.168C91.9159 27.168 91.5519 27.2893 91.2719 27.532C90.9919 27.7653 90.8519 28.064 90.8519 28.428C90.8519 28.6613 90.9079 28.8573 91.0199 29.016C91.1319 29.1653 91.2766 29.2913 91.4539 29.394C91.6406 29.4873 91.8319 29.562 92.0279 29.618L93.2739 29.982C93.8806 30.15 94.3473 30.416 94.6739 30.78C95.0099 31.144 95.1779 31.5733 95.1779 32.068C95.1779 32.4693 95.0659 32.8287 94.8419 33.146C94.6179 33.4633 94.3099 33.7153 93.9179 33.902C93.5259 34.0793 93.0826 34.168 92.5879 34.168ZM99.8233 34.168C99.3193 34.168 98.8526 34.0513 98.4233 33.818C98.0033 33.5847 97.6673 33.258 97.4153 32.838C97.1633 32.4087 97.0373 31.9 97.0373 31.312V26.566H97.8773V31.242C97.8773 31.6807 97.966 32.0587 98.1433 32.376C98.33 32.684 98.5773 32.922 98.8853 33.09C99.2026 33.258 99.5573 33.342 99.9493 33.342C100.379 33.342 100.747 33.244 101.055 33.048C101.373 32.852 101.615 32.5813 101.783 32.236C101.951 31.8813 102.035 31.48 102.035 31.032V26.566H102.875V34H102.035V32.488L102.245 32.558C102.077 33.0433 101.779 33.4353 101.349 33.734C100.92 34.0233 100.411 34.168 99.8233 34.168ZM105.203 34V26.566H106.043V28.064L105.889 27.854C106.076 27.406 106.374 27.0513 106.785 26.79C107.205 26.5287 107.672 26.398 108.185 26.398C108.764 26.398 109.291 26.566 109.767 26.902C110.243 27.2287 110.574 27.6673 110.761 28.218L110.495 28.232C110.654 27.6627 110.966 27.2147 111.433 26.888C111.909 26.5613 112.436 26.398 113.015 26.398C113.51 26.398 113.962 26.5147 114.373 26.748C114.793 26.9813 115.129 27.308 115.381 27.728C115.642 28.1387 115.773 28.61 115.773 29.142V34H114.933V29.38C114.933 28.932 114.84 28.5493 114.653 28.232C114.476 27.9053 114.238 27.658 113.939 27.49C113.64 27.3127 113.304 27.224 112.931 27.224C112.53 27.224 112.175 27.322 111.867 27.518C111.568 27.714 111.33 27.9847 111.153 28.33C110.985 28.6753 110.901 29.072 110.901 29.52V34H110.061V29.38C110.061 28.932 109.972 28.5493 109.795 28.232C109.618 27.9053 109.375 27.658 109.067 27.49C108.768 27.3127 108.432 27.224 108.059 27.224C107.658 27.224 107.303 27.322 106.995 27.518C106.696 27.714 106.463 27.9847 106.295 28.33C106.127 28.6753 106.043 29.072 106.043 29.52V34H105.203ZM120.396 34V23.57H121.306V34H120.396ZM123.769 36.8V26.566H124.609V28.442L124.469 28.176C124.749 27.6347 125.151 27.2053 125.673 26.888C126.205 26.5613 126.812 26.398 127.493 26.398C128.193 26.398 128.819 26.566 129.369 26.902C129.92 27.238 130.354 27.7 130.671 28.288C130.989 28.876 131.147 29.5433 131.147 30.29C131.147 31.018 130.989 31.676 130.671 32.264C130.354 32.852 129.92 33.3187 129.369 33.664C128.819 34 128.193 34.168 127.493 34.168C126.812 34.168 126.201 34.0047 125.659 33.678C125.127 33.342 124.731 32.8847 124.469 32.306L124.609 32.11V36.8H123.769ZM127.465 33.328C127.997 33.328 128.473 33.1973 128.893 32.936C129.313 32.6653 129.645 32.3013 129.887 31.844C130.13 31.3773 130.251 30.8547 130.251 30.276C130.251 29.6973 130.13 29.1793 129.887 28.722C129.645 28.2647 129.313 27.9053 128.893 27.644C128.473 27.3733 127.997 27.238 127.465 27.238C126.933 27.238 126.453 27.3733 126.023 27.644C125.594 27.9053 125.253 28.2647 125.001 28.722C124.749 29.1793 124.623 29.6973 124.623 30.276C124.623 30.8547 124.749 31.3773 125.001 31.844C125.253 32.3013 125.589 32.6653 126.009 32.936C126.439 33.1973 126.924 33.328 127.465 33.328ZM135.668 34.168C134.977 34.168 134.371 33.9953 133.848 33.65C133.325 33.3047 132.943 32.8333 132.7 32.236L133.428 31.9C133.661 32.3573 133.974 32.7213 134.366 32.992C134.758 33.2533 135.192 33.384 135.668 33.384C136.153 33.384 136.559 33.2673 136.886 33.034C137.222 32.7913 137.39 32.474 137.39 32.082C137.39 31.8393 137.325 31.634 137.194 31.466C137.073 31.298 136.914 31.1627 136.718 31.06C136.522 30.948 136.312 30.864 136.088 30.808L134.94 30.486C134.296 30.3087 133.82 30.0473 133.512 29.702C133.213 29.3567 133.064 28.9507 133.064 28.484C133.064 28.064 133.171 27.7 133.386 27.392C133.601 27.0747 133.89 26.832 134.254 26.664C134.618 26.4867 135.019 26.398 135.458 26.398C136.074 26.398 136.634 26.5567 137.138 26.874C137.642 27.1913 137.997 27.6207 138.202 28.162L137.446 28.512C137.25 28.092 136.975 27.7653 136.62 27.532C136.265 27.2893 135.873 27.168 135.444 27.168C134.996 27.168 134.632 27.2893 134.352 27.532C134.072 27.7653 133.932 28.064 133.932 28.428C133.932 28.6613 133.988 28.8573 134.1 29.016C134.212 29.1653 134.357 29.2913 134.534 29.394C134.721 29.4873 134.912 29.562 135.108 29.618L136.354 29.982C136.961 30.15 137.427 30.416 137.754 30.78C138.09 31.144 138.258 31.5733 138.258 32.068C138.258 32.4693 138.146 32.8287 137.922 33.146C137.698 33.4633 137.39 33.7153 136.998 33.902C136.606 34.0793 136.163 34.168 135.668 34.168ZM142.903 34.168C142.399 34.168 141.933 34.0513 141.503 33.818C141.083 33.5847 140.747 33.258 140.495 32.838C140.243 32.4087 140.117 31.9 140.117 31.312V26.566H140.957V31.242C140.957 31.6807 141.046 32.0587 141.223 32.376C141.41 32.684 141.657 32.922 141.965 33.09C142.283 33.258 142.637 33.342 143.029 33.342C143.459 33.342 143.827 33.244 144.135 33.048C144.453 32.852 144.695 32.5813 144.863 32.236C145.031 31.8813 145.115 31.48 145.115 31.032V26.566H145.955V34H145.115V32.488L145.325 32.558C145.157 33.0433 144.859 33.4353 144.429 33.734C144 34.0233 143.491 34.168 142.903 34.168ZM148.283 34V26.566H149.123V28.064L148.969 27.854C149.156 27.406 149.454 27.0513 149.865 26.79C150.285 26.5287 150.752 26.398 151.265 26.398C151.844 26.398 152.371 26.566 152.847 26.902C153.323 27.2287 153.654 27.6673 153.841 28.218L153.575 28.232C153.734 27.6627 154.046 27.2147 154.513 26.888C154.989 26.5613 155.516 26.398 156.095 26.398C156.59 26.398 157.042 26.5147 157.453 26.748C157.873 26.9813 158.209 27.308 158.461 27.728C158.722 28.1387 158.853 28.61 158.853 29.142V34H158.013V29.38C158.013 28.932 157.92 28.5493 157.733 28.232C157.556 27.9053 157.318 27.658 157.019 27.49C156.72 27.3127 156.384 27.224 156.011 27.224C155.61 27.224 155.255 27.322 154.947 27.518C154.648 27.714 154.41 27.9847 154.233 28.33C154.065 28.6753 153.981 29.072 153.981 29.52V34H153.141V29.38C153.141 28.932 153.052 28.5493 152.875 28.232C152.698 27.9053 152.455 27.658 152.147 27.49C151.848 27.3127 151.512 27.224 151.139 27.224C150.738 27.224 150.383 27.322 150.075 27.518C149.776 27.714 149.543 27.9847 149.375 28.33C149.207 28.6753 149.123 29.072 149.123 29.52V34H148.283ZM77.316 53V42.57H78.226V52.16H82.916V53H77.316ZM88.0712 53.168C87.3618 53.168 86.7225 53 86.1532 52.664C85.5838 52.328 85.1312 51.866 84.7952 51.278C84.4685 50.6807 84.3052 50.0133 84.3052 49.276C84.3052 48.5387 84.4685 47.876 84.7952 47.288C85.1312 46.7 85.5792 46.238 86.1392 45.902C86.7085 45.566 87.3525 45.398 88.0712 45.398C88.7805 45.398 89.4198 45.566 89.9892 45.902C90.5585 46.238 91.0065 46.7 91.3332 47.288C91.6598 47.8667 91.8232 48.5293 91.8232 49.276C91.8232 50.0227 91.6552 50.69 91.3192 51.278C90.9832 51.866 90.5305 52.328 89.9612 52.664C89.4012 53 88.7712 53.168 88.0712 53.168ZM88.0712 52.342C88.6032 52.342 89.0838 52.2113 89.5132 51.95C89.9518 51.6793 90.2972 51.3107 90.5492 50.844C90.8012 50.3773 90.9272 49.8547 90.9272 49.276C90.9272 48.6973 90.8012 48.1793 90.5492 47.722C90.2972 47.2647 89.9565 46.9007 89.5272 46.63C89.0978 46.3593 88.6125 46.224 88.0712 46.224C87.5298 46.224 87.0398 46.3593 86.6012 46.63C86.1718 46.8913 85.8312 47.2553 85.5792 47.722C85.3272 48.1793 85.2012 48.6973 85.2012 49.276C85.2012 49.8547 85.3272 50.3773 85.5792 50.844C85.8405 51.3107 86.1858 51.6793 86.6152 51.95C87.0445 52.2113 87.5298 52.342 88.0712 52.342ZM93.8417 53V45.566H94.6817V46.952L94.5277 46.826C94.6864 46.406 94.957 46.0747 95.3397 45.832C95.7317 45.5893 96.1937 45.468 96.7257 45.468H97.2017V46.308H96.6277C96.021 46.308 95.545 46.504 95.1997 46.896C94.8544 47.2787 94.6817 47.7967 94.6817 48.45V53H93.8417ZM101.988 53.168C101.288 53.168 100.658 53 100.098 52.664C99.5378 52.3187 99.0945 51.852 98.7678 51.264C98.4412 50.6667 98.2778 49.9993 98.2778 49.262C98.2778 48.5247 98.4365 47.8667 98.7538 47.288C99.0712 46.7 99.5005 46.238 100.042 45.902C100.583 45.566 101.19 45.398 101.862 45.398C102.375 45.398 102.837 45.4913 103.248 45.678C103.668 45.8647 104.027 46.126 104.326 46.462C104.634 46.7887 104.867 47.1667 105.026 47.596C105.194 48.016 105.278 48.4593 105.278 48.926C105.278 49.0193 105.273 49.1173 105.264 49.22C105.254 49.3227 105.24 49.43 105.222 49.542H98.7678V48.772H104.746L104.368 49.066C104.424 48.5247 104.344 48.0393 104.13 47.61C103.915 47.1713 103.607 46.826 103.206 46.574C102.814 46.3127 102.366 46.182 101.862 46.182C101.358 46.182 100.896 46.3173 100.476 46.588C100.056 46.8493 99.7245 47.2133 99.4818 47.68C99.2392 48.1373 99.1272 48.6693 99.1458 49.276C99.1272 49.8827 99.2438 50.4193 99.4958 50.886C99.7478 51.3527 100.093 51.7213 100.532 51.992C100.97 52.2533 101.456 52.384 101.988 52.384C102.529 52.384 103 52.258 103.402 52.006C103.803 51.7447 104.13 51.3993 104.382 50.97L105.096 51.348C104.928 51.6933 104.69 52.006 104.382 52.286C104.074 52.5567 103.714 52.7713 103.304 52.93C102.902 53.0887 102.464 53.168 101.988 53.168ZM107.281 53V45.566H108.121V47.064L107.967 46.854C108.154 46.406 108.452 46.0513 108.863 45.79C109.283 45.5287 109.75 45.398 110.263 45.398C110.842 45.398 111.369 45.566 111.845 45.902C112.321 46.2287 112.652 46.6673 112.839 47.218L112.573 47.232C112.732 46.6627 113.044 46.2147 113.511 45.888C113.987 45.5613 114.514 45.398 115.093 45.398C115.588 45.398 116.04 45.5147 116.451 45.748C116.871 45.9813 117.207 46.308 117.459 46.728C117.72 47.1387 117.851 47.61 117.851 48.142V53H117.011V48.38C117.011 47.932 116.918 47.5493 116.731 47.232C116.554 46.9053 116.316 46.658 116.017 46.49C115.718 46.3127 115.382 46.224 115.009 46.224C114.608 46.224 114.253 46.322 113.945 46.518C113.646 46.714 113.408 46.9847 113.231 47.33C113.063 47.6753 112.979 48.072 112.979 48.52V53H112.139V48.38C112.139 47.932 112.05 47.5493 111.873 47.232C111.696 46.9053 111.453 46.658 111.145 46.49C110.846 46.3127 110.51 46.224 110.137 46.224C109.736 46.224 109.381 46.322 109.073 46.518C108.774 46.714 108.541 46.9847 108.373 47.33C108.205 47.6753 108.121 48.072 108.121 48.52V53H107.281ZM122.474 53V42.57H123.384V52.16H128.074V53H122.474ZM133.229 53.168C132.52 53.168 131.881 53 131.311 52.664C130.742 52.328 130.289 51.866 129.953 51.278C129.627 50.6807 129.463 50.0133 129.463 49.276C129.463 48.5387 129.627 47.876 129.953 47.288C130.289 46.7 130.737 46.238 131.297 45.902C131.867 45.566 132.511 45.398 133.229 45.398C133.939 45.398 134.578 45.566 135.147 45.902C135.717 46.238 136.165 46.7 136.491 47.288C136.818 47.8667 136.981 48.5293 136.981 49.276C136.981 50.0227 136.813 50.69 136.477 51.278C136.141 51.866 135.689 52.328 135.119 52.664C134.559 53 133.929 53.168 133.229 53.168ZM133.229 52.342C133.761 52.342 134.242 52.2113 134.671 51.95C135.11 51.6793 135.455 51.3107 135.707 50.844C135.959 50.3773 136.085 49.8547 136.085 49.276C136.085 48.6973 135.959 48.1793 135.707 47.722C135.455 47.2647 135.115 46.9007 134.685 46.63C134.256 46.3593 133.771 46.224 133.229 46.224C132.688 46.224 132.198 46.3593 131.759 46.63C131.33 46.8913 130.989 47.2553 130.737 47.722C130.485 48.1793 130.359 48.6973 130.359 49.276C130.359 49.8547 130.485 50.3773 130.737 50.844C130.999 51.3107 131.344 51.6793 131.773 51.95C132.203 52.2113 132.688 52.342 133.229 52.342ZM139 53V45.566H139.84V46.952L139.686 46.826C139.845 46.406 140.115 46.0747 140.498 45.832C140.89 45.5893 141.352 45.468 141.884 45.468H142.36V46.308H141.786C141.179 46.308 140.703 46.504 140.358 46.896C140.013 47.2787 139.84 47.7967 139.84 48.45V53H139ZM147.146 53.168C146.446 53.168 145.816 53 145.256 52.664C144.696 52.3187 144.253 51.852 143.926 51.264C143.599 50.6667 143.436 49.9993 143.436 49.262C143.436 48.5247 143.595 47.8667 143.912 47.288C144.229 46.7 144.659 46.238 145.2 45.902C145.741 45.566 146.348 45.398 147.02 45.398C147.533 45.398 147.995 45.4913 148.406 45.678C148.826 45.8647 149.185 46.126 149.484 46.462C149.792 46.7887 150.025 47.1667 150.184 47.596C150.352 48.016 150.436 48.4593 150.436 48.926C150.436 49.0193 150.431 49.1173 150.422 49.22C150.413 49.3227 150.399 49.43 150.38 49.542H143.926V48.772H149.904L149.526 49.066C149.582 48.5247 149.503 48.0393 149.288 47.61C149.073 47.1713 148.765 46.826 148.364 46.574C147.972 46.3127 147.524 46.182 147.02 46.182C146.516 46.182 146.054 46.3173 145.634 46.588C145.214 46.8493 144.883 47.2133 144.64 47.68C144.397 48.1373 144.285 48.6693 144.304 49.276C144.285 49.8827 144.402 50.4193 144.654 50.886C144.906 51.3527 145.251 51.7213 145.69 51.992C146.129 52.2533 146.614 52.384 147.146 52.384C147.687 52.384 148.159 52.258 148.56 52.006C148.961 51.7447 149.288 51.3993 149.54 50.97L150.254 51.348C150.086 51.6933 149.848 52.006 149.54 52.286C149.232 52.5567 148.873 52.7713 148.462 52.93C148.061 53.0887 147.622 53.168 147.146 53.168ZM152.439 53V45.566H153.279V47.064L153.125 46.854C153.312 46.406 153.611 46.0513 154.021 45.79C154.441 45.5287 154.908 45.398 155.421 45.398C156 45.398 156.527 45.566 157.003 45.902C157.479 46.2287 157.811 46.6673 157.997 47.218L157.731 47.232C157.89 46.6627 158.203 46.2147 158.669 45.888C159.145 45.5613 159.673 45.398 160.251 45.398C160.746 45.398 161.199 45.5147 161.609 45.748C162.029 45.9813 162.365 46.308 162.617 46.728C162.879 47.1387 163.009 47.61 163.009 48.142V53H162.169V48.38C162.169 47.932 162.076 47.5493 161.889 47.232C161.712 46.9053 161.474 46.658 161.175 46.49C160.877 46.3127 160.541 46.224 160.167 46.224C159.766 46.224 159.411 46.322 159.103 46.518C158.805 46.714 158.567 46.9847 158.389 47.33C158.221 47.6753 158.137 48.072 158.137 48.52V53H157.297V48.38C157.297 47.932 157.209 47.5493 157.031 47.232C156.854 46.9053 156.611 46.658 156.303 46.49C156.005 46.3127 155.669 46.224 155.295 46.224C154.894 46.224 154.539 46.322 154.231 46.518C153.933 46.714 153.699 46.9847 153.531 47.33C153.363 47.6753 153.279 48.072 153.279 48.52V53H152.439ZM77.316 72V61.57H78.226V72H77.316ZM80.6893 74.8V64.566H81.5293V66.442L81.3893 66.176C81.6693 65.6347 82.0707 65.2053 82.5933 64.888C83.1253 64.5613 83.732 64.398 84.4133 64.398C85.1133 64.398 85.7387 64.566 86.2893 64.902C86.84 65.238 87.274 65.7 87.5913 66.288C87.9087 66.876 88.0673 67.5433 88.0673 68.29C88.0673 69.018 87.9087 69.676 87.5913 70.264C87.274 70.852 86.84 71.3187 86.2893 71.664C85.7387 72 85.1133 72.168 84.4133 72.168C83.732 72.168 83.1207 72.0047 82.5793 71.678C82.0473 71.342 81.6507 70.8847 81.3893 70.306L81.5293 70.11V74.8H80.6893ZM84.3853 71.328C84.9173 71.328 85.3933 71.1973 85.8133 70.936C86.2333 70.6653 86.5647 70.3013 86.8073 69.844C87.05 69.3773 87.1713 68.8547 87.1713 68.276C87.1713 67.6973 87.05 67.1793 86.8073 66.722C86.5647 66.2647 86.2333 65.9053 85.8133 65.644C85.3933 65.3733 84.9173 65.238 84.3853 65.238C83.8533 65.238 83.3727 65.3733 82.9433 65.644C82.514 65.9053 82.1733 66.2647 81.9213 66.722C81.6693 67.1793 81.5433 67.6973 81.5433 68.276C81.5433 68.8547 81.6693 69.3773 81.9213 69.844C82.1733 70.3013 82.5093 70.6653 82.9293 70.936C83.3587 71.1973 83.844 71.328 84.3853 71.328ZM92.5879 72.168C91.8973 72.168 91.2906 71.9953 90.7679 71.65C90.2453 71.3047 89.8626 70.8333 89.6199 70.236L90.3479 69.9C90.5813 70.3573 90.8939 70.7213 91.2859 70.992C91.6779 71.2533 92.1119 71.384 92.5879 71.384C93.0733 71.384 93.4793 71.2673 93.8059 71.034C94.1419 70.7913 94.3099 70.474 94.3099 70.082C94.3099 69.8393 94.2446 69.634 94.1139 69.466C93.9926 69.298 93.8339 69.1627 93.6379 69.06C93.4419 68.948 93.2319 68.864 93.0079 68.808L91.8599 68.486C91.2159 68.3087 90.7399 68.0473 90.4319 67.702C90.1333 67.3567 89.9839 66.9507 89.9839 66.484C89.9839 66.064 90.0913 65.7 90.3059 65.392C90.5206 65.0747 90.8099 64.832 91.1739 64.664C91.5379 64.4867 91.9393 64.398 92.3779 64.398C92.9939 64.398 93.5539 64.5567 94.0579 64.874C94.5619 65.1913 94.9166 65.6207 95.1219 66.162L94.3659 66.512C94.1699 66.092 93.8946 65.7653 93.5399 65.532C93.1853 65.2893 92.7933 65.168 92.3639 65.168C91.9159 65.168 91.5519 65.2893 91.2719 65.532C90.9919 65.7653 90.8519 66.064 90.8519 66.428C90.8519 66.6613 90.9079 66.8573 91.0199 67.016C91.1319 67.1653 91.2766 67.2913 91.4539 67.394C91.6406 67.4873 91.8319 67.562 92.0279 67.618L93.2739 67.982C93.8806 68.15 94.3473 68.416 94.6739 68.78C95.0099 69.144 95.1779 69.5733 95.1779 70.068C95.1779 70.4693 95.0659 70.8287 94.8419 71.146C94.6179 71.4633 94.3099 71.7153 93.9179 71.902C93.5259 72.0793 93.0826 72.168 92.5879 72.168ZM99.8233 72.168C99.3193 72.168 98.8526 72.0513 98.4233 71.818C98.0033 71.5847 97.6673 71.258 97.4153 70.838C97.1633 70.4087 97.0373 69.9 97.0373 69.312V64.566H97.8773V69.242C97.8773 69.6807 97.966 70.0587 98.1433 70.376C98.33 70.684 98.5773 70.922 98.8853 71.09C99.2026 71.258 99.5573 71.342 99.9493 71.342C100.379 71.342 100.747 71.244 101.055 71.048C101.373 70.852 101.615 70.5813 101.783 70.236C101.951 69.8813 102.035 69.48 102.035 69.032V64.566H102.875V72H102.035V70.488L102.245 70.558C102.077 71.0433 101.779 71.4353 101.349 71.734C100.92 72.0233 100.411 72.168 99.8233 72.168ZM105.203 72V64.566H106.043V66.064L105.889 65.854C106.076 65.406 106.374 65.0513 106.785 64.79C107.205 64.5287 107.672 64.398 108.185 64.398C108.764 64.398 109.291 64.566 109.767 64.902C110.243 65.2287 110.574 65.6673 110.761 66.218L110.495 66.232C110.654 65.6627 110.966 65.2147 111.433 64.888C111.909 64.5613 112.436 64.398 113.015 64.398C113.51 64.398 113.962 64.5147 114.373 64.748C114.793 64.9813 115.129 65.308 115.381 65.728C115.642 66.1387 115.773 66.61 115.773 67.142V72H114.933V67.38C114.933 66.932 114.84 66.5493 114.653 66.232C114.476 65.9053 114.238 65.658 113.939 65.49C113.64 65.3127 113.304 65.224 112.931 65.224C112.53 65.224 112.175 65.322 111.867 65.518C111.568 65.714 111.33 65.9847 111.153 66.33C110.985 66.6753 110.901 67.072 110.901 67.52V72H110.061V67.38C110.061 66.932 109.972 66.5493 109.795 66.232C109.618 65.9053 109.375 65.658 109.067 65.49C108.768 65.3127 108.432 65.224 108.059 65.224C107.658 65.224 107.303 65.322 106.995 65.518C106.696 65.714 106.463 65.9847 106.295 66.33C106.127 66.6753 106.043 67.072 106.043 67.52V72H105.203ZM120.396 72V61.57H121.306V72H120.396ZM123.769 74.8V64.566H124.609V66.442L124.469 66.176C124.749 65.6347 125.151 65.2053 125.673 64.888C126.205 64.5613 126.812 64.398 127.493 64.398C128.193 64.398 128.819 64.566 129.369 64.902C129.92 65.238 130.354 65.7 130.671 66.288C130.989 66.876 131.147 67.5433 131.147 68.29C131.147 69.018 130.989 69.676 130.671 70.264C130.354 70.852 129.92 71.3187 129.369 71.664C128.819 72 128.193 72.168 127.493 72.168C126.812 72.168 126.201 72.0047 125.659 71.678C125.127 71.342 124.731 70.8847 124.469 70.306L124.609 70.11V74.8H123.769ZM127.465 71.328C127.997 71.328 128.473 71.1973 128.893 70.936C129.313 70.6653 129.645 70.3013 129.887 69.844C130.13 69.3773 130.251 68.8547 130.251 68.276C130.251 67.6973 130.13 67.1793 129.887 66.722C129.645 66.2647 129.313 65.9053 128.893 65.644C128.473 65.3733 127.997 65.238 127.465 65.238C126.933 65.238 126.453 65.3733 126.023 65.644C125.594 65.9053 125.253 66.2647 125.001 66.722C124.749 67.1793 124.623 67.6973 124.623 68.276C124.623 68.8547 124.749 69.3773 125.001 69.844C125.253 70.3013 125.589 70.6653 126.009 70.936C126.439 71.1973 126.924 71.328 127.465 71.328ZM135.668 72.168C134.977 72.168 134.371 71.9953 133.848 71.65C133.325 71.3047 132.943 70.8333 132.7 70.236L133.428 69.9C133.661 70.3573 133.974 70.7213 134.366 70.992C134.758 71.2533 135.192 71.384 135.668 71.384C136.153 71.384 136.559 71.2673 136.886 71.034C137.222 70.7913 137.39 70.474 137.39 70.082C137.39 69.8393 137.325 69.634 137.194 69.466C137.073 69.298 136.914 69.1627 136.718 69.06C136.522 68.948 136.312 68.864 136.088 68.808L134.94 68.486C134.296 68.3087 133.82 68.0473 133.512 67.702C133.213 67.3567 133.064 66.9507 133.064 66.484C133.064 66.064 133.171 65.7 133.386 65.392C133.601 65.0747 133.89 64.832 134.254 64.664C134.618 64.4867 135.019 64.398 135.458 64.398C136.074 64.398 136.634 64.5567 137.138 64.874C137.642 65.1913 137.997 65.6207 138.202 66.162L137.446 66.512C137.25 66.092 136.975 65.7653 136.62 65.532C136.265 65.2893 135.873 65.168 135.444 65.168C134.996 65.168 134.632 65.2893 134.352 65.532C134.072 65.7653 133.932 66.064 133.932 66.428C133.932 66.6613 133.988 66.8573 134.1 67.016C134.212 67.1653 134.357 67.2913 134.534 67.394C134.721 67.4873 134.912 67.562 135.108 67.618L136.354 67.982C136.961 68.15 137.427 68.416 137.754 68.78C138.09 69.144 138.258 69.5733 138.258 70.068C138.258 70.4693 138.146 70.8287 137.922 71.146C137.698 71.4633 137.39 71.7153 136.998 71.902C136.606 72.0793 136.163 72.168 135.668 72.168ZM142.903 72.168C142.399 72.168 141.933 72.0513 141.503 71.818C141.083 71.5847 140.747 71.258 140.495 70.838C140.243 70.4087 140.117 69.9 140.117 69.312V64.566H140.957V69.242C140.957 69.6807 141.046 70.0587 141.223 70.376C141.41 70.684 141.657 70.922 141.965 71.09C142.283 71.258 142.637 71.342 143.029 71.342C143.459 71.342 143.827 71.244 144.135 71.048C144.453 70.852 144.695 70.5813 144.863 70.236C145.031 69.8813 145.115 69.48 145.115 69.032V64.566H145.955V72H145.115V70.488L145.325 70.558C145.157 71.0433 144.859 71.4353 144.429 71.734C144 72.0233 143.491 72.168 142.903 72.168ZM148.283 72V64.566H149.123V66.064L148.969 65.854C149.156 65.406 149.454 65.0513 149.865 64.79C150.285 64.5287 150.752 64.398 151.265 64.398C151.844 64.398 152.371 64.566 152.847 64.902C153.323 65.2287 153.654 65.6673 153.841 66.218L153.575 66.232C153.734 65.6627 154.046 65.2147 154.513 64.888C154.989 64.5613 155.516 64.398 156.095 64.398C156.59 64.398 157.042 64.5147 157.453 64.748C157.873 64.9813 158.209 65.308 158.461 65.728C158.722 66.1387 158.853 66.61 158.853 67.142V72H158.013V67.38C158.013 66.932 157.92 66.5493 157.733 66.232C157.556 65.9053 157.318 65.658 157.019 65.49C156.72 65.3127 156.384 65.224 156.011 65.224C155.61 65.224 155.255 65.322 154.947 65.518C154.648 65.714 154.41 65.9847 154.233 66.33C154.065 66.6753 153.981 67.072 153.981 67.52V72H153.141V67.38C153.141 66.932 153.052 66.5493 152.875 66.232C152.698 65.9053 152.455 65.658 152.147 65.49C151.848 65.3127 151.512 65.224 151.139 65.224C150.738 65.224 150.383 65.322 150.075 65.518C149.776 65.714 149.543 65.9847 149.375 66.33C149.207 66.6753 149.123 67.072 149.123 67.52V72H148.283Z" fill="white"/>
</svg>
