<svg width="287" height="55" viewBox="0 0 287 55" fill="none" xmlns="http://www.w3.org/2000/svg">
<path d="M25.3624 16.128C25.3624 16.4227 25.4924 16.6307 25.7524 16.752C26.0124 16.8733 26.3677 16.934 26.8184 16.934H29.6524C30.1551 16.934 30.5884 16.8733 30.9524 16.752C31.3164 16.6133 31.6284 16.4227 31.8884 16.18C32.1484 15.9373 32.3737 15.6427 32.5644 15.296C32.7724 14.932 32.9544 14.5247 33.1104 14.074C33.1624 13.9353 33.2664 13.866 33.4224 13.866C33.5091 13.866 33.5957 13.892 33.6824 13.944C33.7864 13.9787 33.8904 14.022 33.9944 14.074C33.8731 14.594 33.7517 15.1487 33.6304 15.738C33.5264 16.31 33.4311 16.96 33.3444 17.688C33.3271 17.8787 33.2751 18 33.1884 18.052C33.1017 18.104 32.9977 18.13 32.8764 18.13C32.5817 18.13 32.2091 18.104 31.7584 18.052C31.3251 18.0173 30.9437 18 30.6144 18H24.1144C23.7157 18 23.2131 18.0087 22.6064 18.026C21.9997 18.0607 21.4191 18.0953 20.8644 18.13C20.8297 17.9567 20.8124 17.818 20.8124 17.714C20.8124 17.4713 20.8991 17.3327 21.0724 17.298C21.7831 17.1767 22.2684 17.0467 22.5284 16.908C22.7884 16.752 22.9184 16.518 22.9184 16.206V2.946C22.9184 2.59933 22.7971 2.35667 22.5544 2.218C22.3117 2.062 21.8437 1.932 21.1504 1.828C21.0637 1.81067 20.9944 1.76733 20.9424 1.698C20.9077 1.61133 20.8904 1.516 20.8904 1.412C20.8904 1.29067 20.9077 1.14333 20.9424 0.969999C21.5317 1.00467 22.1124 1.03933 22.6844 1.074C23.2564 1.09133 23.7417 1.1 24.1404 1.1C24.7297 1.1 25.3537 1.09133 26.0124 1.074C26.6711 1.03933 27.2604 1.00467 27.7804 0.969999C27.8151 1.14333 27.8324 1.282 27.8324 1.386C27.8324 1.68067 27.7371 1.83667 27.5464 1.854C26.8011 1.94067 26.2464 2.07067 25.8824 2.244C25.5357 2.4 25.3624 2.69467 25.3624 3.128V16.128ZM35.2906 9.55C35.2906 8.354 35.5072 7.22733 35.9406 6.17C36.3739 5.11267 36.9632 4.18533 37.7086 3.388C38.4539 2.59067 39.3206 1.958 40.3086 1.49C41.2966 1.022 42.3366 0.787998 43.4286 0.787998C44.9366 0.787998 46.2539 1.03067 47.3806 1.516C48.5072 1.984 49.4346 2.62533 50.1626 3.44C50.9079 4.23733 51.4626 5.16467 51.8266 6.222C52.1906 7.27933 52.3726 8.38867 52.3726 9.55C52.3726 10.9193 52.1472 12.15 51.6966 13.242C51.2459 14.3167 50.6219 15.2353 49.8246 15.998C49.0446 16.7433 48.1172 17.3153 47.0426 17.714C45.9852 18.1127 44.8499 18.312 43.6366 18.312C42.4059 18.312 41.2792 18.104 40.2566 17.688C39.2339 17.272 38.3499 16.6827 37.6046 15.92C36.8766 15.14 36.3046 14.2127 35.8886 13.138C35.4899 12.0633 35.2906 10.8673 35.2906 9.55ZM44.2346 17.064C45.0492 17.064 45.7946 16.908 46.4706 16.596C47.1466 16.284 47.7272 15.8507 48.2126 15.296C48.6979 14.7413 49.0706 14.0827 49.3306 13.32C49.6079 12.5573 49.7466 11.7253 49.7466 10.824C49.7466 9.576 49.6166 8.42333 49.3566 7.366C49.0966 6.29133 48.6979 5.364 48.1606 4.584C47.6406 3.78667 46.9732 3.16267 46.1586 2.712C45.3612 2.26133 44.4252 2.036 43.3506 2.036C42.6399 2.036 41.9552 2.17467 41.2966 2.452C40.6552 2.712 40.0832 3.102 39.5806 3.622C39.0952 4.12467 38.7052 4.74867 38.4106 5.494C38.1159 6.23933 37.9686 7.09733 37.9686 8.068C37.9686 9.35067 38.1072 10.5467 38.3846 11.656C38.6619 12.748 39.0606 13.7013 39.5806 14.516C40.1179 15.3133 40.7766 15.9373 41.5566 16.388C42.3366 16.8387 43.2292 17.064 44.2346 17.064ZM61.5252 10.408H59.6012V16.128C59.6012 16.5093 59.7745 16.7693 60.1212 16.908C60.4852 17.0467 61.0312 17.1593 61.7592 17.246C61.9672 17.2807 62.0712 17.428 62.0712 17.688C62.0712 17.8093 62.0538 17.9567 62.0192 18.13C61.5512 18.0953 60.9792 18.0607 60.3032 18.026C59.6445 18.0087 58.9945 18 58.3532 18C57.9025 18 57.3825 18.0087 56.7932 18.026C56.2038 18.0607 55.6492 18.0953 55.1292 18.13C55.0945 17.9567 55.0772 17.818 55.0772 17.714C55.0772 17.4713 55.1725 17.3327 55.3632 17.298C56.0218 17.194 56.4812 17.0727 56.7412 16.934C57.0185 16.778 57.1572 16.5267 57.1572 16.18V2.946C57.1572 2.61667 57.0272 2.374 56.7672 2.218C56.5245 2.04467 56.0392 1.91467 55.3112 1.828C55.1378 1.81067 55.0512 1.66333 55.0512 1.386C55.0512 1.282 55.0685 1.14333 55.1032 0.969999C55.6232 1.00467 56.1605 1.03933 56.7152 1.074C57.2698 1.09133 57.7985 1.1 58.3012 1.1H61.8112C63.6832 1.1 65.0958 1.516 66.0492 2.348C67.0025 3.16267 67.4792 4.272 67.4792 5.676C67.4792 6.05733 67.4098 6.456 67.2712 6.872C67.1498 7.288 66.9505 7.69533 66.6732 8.094C66.4132 8.49267 66.0665 8.86533 65.6332 9.212C65.2172 9.54133 64.7232 9.81 64.1512 10.018L68.4932 16.05C68.8225 16.5007 69.1865 16.8127 69.5852 16.986C69.9838 17.1593 70.3565 17.2893 70.7032 17.376C70.8592 17.4107 70.9372 17.532 70.9372 17.74C70.9372 17.8787 70.9198 18.0347 70.8852 18.208C70.4865 18.1733 70.0012 18.1387 69.4292 18.104C68.8572 18.0867 68.3285 18.078 67.8432 18.078C67.4792 18.078 67.1065 17.922 66.7252 17.61C66.3612 17.298 66.0145 16.8993 65.6852 16.414L61.5252 10.408ZM60.9792 9.342C62.1925 9.342 63.1285 9.09067 63.7872 8.588C64.4458 8.068 64.7752 7.16667 64.7752 5.884C64.7752 5.34667 64.7058 4.85267 64.5672 4.402C64.4285 3.95133 64.2032 3.56133 63.8912 3.232C63.5965 2.90267 63.1978 2.64267 62.6952 2.452C62.2098 2.26133 61.6118 2.166 60.9012 2.166H59.6012V9.342H60.9792ZM76.7459 2.166V8.822H80.8019C81.1486 8.822 81.3913 8.65733 81.5299 8.328C81.6859 7.98133 81.8073 7.56533 81.8939 7.08C81.9459 6.85467 82.1019 6.742 82.3619 6.742C82.4139 6.742 82.4833 6.75067 82.5699 6.768C82.6566 6.78533 82.7259 6.80267 82.7779 6.82C82.7433 7.20133 82.7086 7.63467 82.6739 8.12C82.6566 8.60533 82.6479 9.03 82.6479 9.394C82.6479 9.68867 82.6566 10.0527 82.6739 10.486C82.6913 10.902 82.7259 11.3787 82.7779 11.916C82.6393 11.9507 82.5093 11.968 82.3879 11.968C82.1106 11.968 81.9459 11.8553 81.8939 11.63C81.8073 11.1447 81.6859 10.7373 81.5299 10.408C81.3913 10.0613 81.1486 9.888 80.8019 9.888H76.7459V16.024C76.7459 16.388 76.9799 16.6307 77.4479 16.752C77.9159 16.8733 78.6873 16.934 79.7619 16.934H81.1919C81.6946 16.934 82.1279 16.8647 82.4919 16.726C82.8733 16.57 83.2026 16.3707 83.4799 16.128C83.7746 15.868 84.0346 15.5647 84.2599 15.218C84.4853 14.8713 84.7019 14.49 84.9099 14.074C84.9619 13.9527 85.0919 13.892 85.2999 13.892C85.3866 13.892 85.4733 13.918 85.5599 13.97C85.6639 14.022 85.7593 14.074 85.8459 14.126C85.6899 14.4553 85.5513 14.854 85.4299 15.322C85.3259 15.7727 85.2219 16.206 85.1179 16.622C85.0139 17.038 84.9013 17.3933 84.7799 17.688C84.6759 17.9827 84.5373 18.13 84.3639 18.13C84.2253 18.13 84.0259 18.1213 83.7659 18.104C83.5059 18.0867 83.2199 18.0693 82.9079 18.052C82.6133 18.052 82.3099 18.0433 81.9979 18.026C81.6859 18.0087 81.4173 18 81.1919 18H75.4979C74.9953 18 74.4579 18.0087 73.8859 18.026C73.3139 18.0607 72.7679 18.0953 72.2479 18.13C72.2133 17.9567 72.1959 17.818 72.1959 17.714C72.1959 17.4713 72.2826 17.3327 72.4559 17.298C73.1146 17.1767 73.5826 17.0467 73.8599 16.908C74.1546 16.7693 74.3019 16.5267 74.3019 16.18V2.946C74.3019 2.59933 74.1719 2.36533 73.9119 2.244C73.6693 2.10533 73.1839 1.96667 72.4559 1.828C72.2826 1.79333 72.1959 1.646 72.1959 1.386C72.1959 1.29933 72.1959 1.23 72.1959 1.178C72.2133 1.10867 72.2306 1.03933 72.2479 0.969999C72.9933 1.022 73.6173 1.05667 74.1199 1.074C74.6226 1.09133 75.0733 1.1 75.4719 1.1H80.5939C81.3739 1.1 82.0499 1.074 82.6219 1.022C83.1939 0.969999 83.5753 0.944 83.7659 0.944C83.9913 0.944 84.1386 1.09133 84.2079 1.386C84.2946 1.66333 84.3639 2.00133 84.4159 2.4C84.4679 2.79867 84.5286 3.22333 84.5979 3.674C84.6673 4.12467 84.7973 4.506 84.9879 4.818C84.8493 4.922 84.6933 4.974 84.5199 4.974C84.2946 4.974 84.1473 4.896 84.0779 4.74C83.8699 4.28933 83.6706 3.908 83.4799 3.596C83.2893 3.26667 83.0639 2.998 82.8039 2.79C82.5613 2.582 82.2579 2.426 81.8939 2.322C81.5473 2.218 81.1139 2.166 80.5939 2.166H76.7459ZM104.188 1.594C104.223 1.52467 104.257 1.45533 104.292 1.386C104.344 1.31667 104.422 1.26467 104.526 1.23C104.63 1.19533 104.769 1.16933 104.942 1.152C105.115 1.11733 105.358 1.1 105.67 1.1C105.809 1.1 105.991 1.1 106.216 1.1C106.441 1.08267 106.684 1.074 106.944 1.074C107.204 1.05667 107.464 1.03933 107.724 1.022C108.001 1.00467 108.253 0.987332 108.478 0.969999C108.513 1.14333 108.53 1.282 108.53 1.386C108.53 1.66333 108.443 1.81067 108.27 1.828C107.646 1.91467 107.23 2.036 107.022 2.192C106.814 2.33067 106.71 2.52133 106.71 2.764C106.71 2.78133 106.719 3.01533 106.736 3.466C106.771 3.89933 106.814 4.636 106.866 5.676C106.918 6.69867 106.979 8.068 107.048 9.784C107.135 11.5 107.23 13.632 107.334 16.18C107.351 16.5093 107.464 16.752 107.672 16.908C107.88 17.064 108.305 17.194 108.946 17.298C109.033 17.3153 109.093 17.3673 109.128 17.454C109.18 17.5233 109.206 17.61 109.206 17.714C109.206 17.818 109.189 17.9567 109.154 18.13C108.547 18.0953 107.993 18.0607 107.49 18.026C107.005 18.0087 106.554 18 106.138 18C105.965 18 105.748 18 105.488 18C105.228 18.0173 104.951 18.026 104.656 18.026C104.379 18.0433 104.101 18.0607 103.824 18.078C103.547 18.0953 103.304 18.1127 103.096 18.13C103.061 17.9567 103.044 17.818 103.044 17.714C103.044 17.4367 103.131 17.298 103.304 17.298C103.997 17.1593 104.465 17.0207 104.708 16.882C104.968 16.7433 105.098 16.5093 105.098 16.18C105.098 16.128 105.081 15.8073 105.046 15.218C105.029 14.6287 104.994 13.9093 104.942 13.06C104.907 12.2107 104.864 11.292 104.812 10.304C104.777 9.316 104.734 8.38867 104.682 7.522C104.647 6.638 104.613 5.884 104.578 5.26C104.543 4.61867 104.526 4.22867 104.526 4.09L98.8321 17.844C98.7628 18 98.6934 18.1127 98.6241 18.182C98.5721 18.2687 98.4941 18.312 98.3901 18.312C98.2688 18.312 98.1908 18.3033 98.1561 18.286L91.7861 3.674C91.7688 3.84733 91.7428 4.272 91.7081 4.948C91.6908 5.60667 91.6561 6.39533 91.6041 7.314C91.5694 8.23267 91.5261 9.20333 91.4741 10.226C91.4221 11.2487 91.3701 12.1933 91.3181 13.06C91.2834 13.9267 91.2488 14.6547 91.2141 15.244C91.1968 15.8333 91.1881 16.1453 91.1881 16.18C91.1881 16.7173 91.7774 17.09 92.9561 17.298C93.1294 17.3153 93.2161 17.454 93.2161 17.714C93.2161 17.818 93.1988 17.9567 93.1641 18.13C92.6961 18.0953 92.2368 18.0607 91.7861 18.026C91.3354 18.0087 90.9368 18 90.5901 18C90.3128 18 89.9401 18.0087 89.4721 18.026C89.0041 18.0607 88.5621 18.0953 88.1461 18.13C88.1114 17.9567 88.0941 17.818 88.0941 17.714C88.0941 17.4713 88.1808 17.3327 88.3541 17.298C88.8221 17.2113 89.1948 17.09 89.4721 16.934C89.7668 16.7607 89.9314 16.5093 89.9661 16.18C89.9661 16.024 89.9834 15.5907 90.0181 14.88C90.0528 14.152 90.0874 13.294 90.1221 12.306C90.1741 11.318 90.2261 10.2693 90.2781 9.16C90.3301 8.05067 90.3734 7.028 90.4081 6.092C90.4601 5.13867 90.4948 4.35867 90.5121 3.752C90.5468 3.128 90.5641 2.80733 90.5641 2.79C90.5641 2.51267 90.4514 2.31333 90.2261 2.192C90.0181 2.05333 89.6108 1.932 89.0041 1.828C88.8308 1.81067 88.7441 1.66333 88.7441 1.386C88.7441 1.282 88.7614 1.14333 88.7961 0.969999C89.0214 0.987332 89.2728 1.00467 89.5501 1.022C89.8448 1.03933 90.1308 1.05667 90.4081 1.074C90.7028 1.074 90.9801 1.08267 91.2401 1.1C91.5001 1.1 91.7081 1.1 91.8641 1.1C92.1761 1.1 92.4188 1.11733 92.5921 1.152C92.7654 1.16933 92.9041 1.19533 93.0081 1.23C93.1121 1.26467 93.1814 1.31667 93.2161 1.386C93.2681 1.45533 93.3114 1.52467 93.3461 1.594L98.9101 14.568L104.188 1.594ZM122.007 16.18C122.007 16.5267 122.129 16.7693 122.371 16.908C122.614 17.0293 123.065 17.1593 123.723 17.298C123.897 17.3327 123.983 17.4713 123.983 17.714C123.983 17.818 123.966 17.9567 123.931 18.13C123.394 18.0953 122.857 18.0607 122.319 18.026C121.782 18.0087 121.271 18 120.785 18C120.317 18 119.797 18.0087 119.225 18.026C118.671 18.0607 118.142 18.0953 117.639 18.13C117.605 17.9567 117.587 17.818 117.587 17.714C117.587 17.4713 117.674 17.3327 117.847 17.298C118.506 17.1767 118.957 17.0467 119.199 16.908C119.442 16.7693 119.563 16.5267 119.563 16.18V2.946C119.563 2.59933 119.442 2.35667 119.199 2.218C118.957 2.062 118.506 1.932 117.847 1.828C117.743 1.81067 117.674 1.75867 117.639 1.672C117.605 1.58533 117.587 1.49 117.587 1.386C117.587 1.282 117.605 1.14333 117.639 0.969999C118.159 1.00467 118.697 1.03933 119.251 1.074C119.823 1.09133 120.335 1.1 120.785 1.1C121.219 1.1 121.713 1.09133 122.267 1.074C122.839 1.03933 123.394 1.00467 123.931 0.969999C123.966 1.14333 123.983 1.282 123.983 1.386C123.983 1.646 123.897 1.79333 123.723 1.828C123.065 1.932 122.614 2.062 122.371 2.218C122.129 2.35667 122.007 2.59933 122.007 2.946V16.18ZM140.1 13.866V2.998C140.1 2.61667 139.961 2.348 139.684 2.192C139.406 2.036 138.938 1.91467 138.28 1.828C138.089 1.81067 137.994 1.66333 137.994 1.386C137.994 1.282 138.011 1.14333 138.046 0.969999C138.479 1.00467 138.921 1.03933 139.372 1.074C139.822 1.09133 140.247 1.1 140.646 1.1C141.027 1.1 141.426 1.09133 141.842 1.074C142.258 1.03933 142.665 1.00467 143.064 0.969999C143.098 1.14333 143.116 1.282 143.116 1.386C143.116 1.66333 143.029 1.81067 142.856 1.828C142.266 1.91467 141.859 2.036 141.634 2.192C141.426 2.348 141.322 2.59933 141.322 2.946V18.26C141.287 18.2773 141.226 18.286 141.14 18.286C141.053 18.3033 140.984 18.312 140.932 18.312C140.81 18.312 140.698 18.2773 140.594 18.208C140.49 18.156 140.368 18.0347 140.23 17.844L129.674 3.934V16.18C129.674 16.5267 129.795 16.7693 130.038 16.908C130.28 17.0467 130.748 17.1767 131.442 17.298C131.615 17.3327 131.702 17.4713 131.702 17.714C131.702 17.818 131.684 17.9567 131.65 18.13C131.216 18.0953 130.774 18.0607 130.324 18.026C129.89 18.0087 129.483 18 129.102 18C128.755 18 128.348 18.0087 127.88 18.026C127.412 18.0607 126.987 18.0953 126.606 18.13C126.571 17.9567 126.554 17.818 126.554 17.714C126.554 17.4713 126.649 17.3327 126.84 17.298C127.464 17.1767 127.88 17.0467 128.088 16.908C128.313 16.7693 128.426 16.5267 128.426 16.18V2.816C128.426 2.53867 128.322 2.33067 128.114 2.192C127.923 2.036 127.516 1.91467 126.892 1.828C126.701 1.79333 126.606 1.646 126.606 1.386C126.606 1.29933 126.614 1.22133 126.632 1.152C126.632 1.1 126.64 1.03933 126.658 0.969999C127.004 1.00467 127.334 1.03067 127.646 1.048C127.923 1.06533 128.218 1.08267 128.53 1.1C128.842 1.1 129.119 1.1 129.362 1.1C129.864 1.1 130.194 1.11733 130.35 1.152C130.523 1.18667 130.662 1.27333 130.766 1.412L140.1 13.866ZM154.106 2.166V16.05C154.106 16.4487 154.271 16.7347 154.6 16.908C154.929 17.064 155.484 17.1853 156.264 17.272C156.455 17.272 156.55 17.4107 156.55 17.688C156.55 17.8093 156.533 17.9567 156.498 18.13C155.943 18.0953 155.354 18.0607 154.73 18.026C154.123 18.0087 153.508 18 152.884 18C152.277 18 151.653 18.0087 151.012 18.026C150.388 18.0607 149.799 18.0953 149.244 18.13C149.209 17.9567 149.192 17.8093 149.192 17.688C149.192 17.4453 149.279 17.3067 149.452 17.272C150.232 17.168 150.795 17.038 151.142 16.882C151.489 16.726 151.662 16.4487 151.662 16.05V2.166H148.984C148.464 2.166 148.022 2.218 147.658 2.322C147.311 2.426 147.008 2.582 146.748 2.79C146.488 2.998 146.263 3.26667 146.072 3.596C145.881 3.92533 145.682 4.30667 145.474 4.74C145.439 4.82667 145.379 4.88733 145.292 4.922C145.223 4.95667 145.153 4.974 145.084 4.974C144.893 4.974 144.729 4.922 144.59 4.818C144.763 4.194 144.893 3.63933 144.98 3.154C145.067 2.66867 145.145 2.27 145.214 1.958C145.283 1.62867 145.353 1.37733 145.422 1.204C145.509 1.03067 145.639 0.944 145.812 0.944C145.933 0.944 146.107 0.952666 146.332 0.969999C146.557 0.987332 146.791 1.00467 147.034 1.022C147.294 1.03933 147.554 1.05667 147.814 1.074C148.074 1.09133 148.317 1.1 148.542 1.1H157.226C157.434 1.1 157.668 1.09133 157.928 1.074C158.188 1.05667 158.448 1.03933 158.708 1.022C158.968 1.00467 159.202 0.987332 159.41 0.969999C159.635 0.952666 159.817 0.944 159.956 0.944C160.129 0.944 160.251 1.03933 160.32 1.23C160.407 1.40333 160.485 1.65467 160.554 1.984C160.623 2.31333 160.693 2.72067 160.762 3.206C160.849 3.69133 160.987 4.22867 161.178 4.818C161.091 4.85267 161.005 4.88733 160.918 4.922C160.849 4.95667 160.762 4.974 160.658 4.974C160.589 4.974 160.511 4.95667 160.424 4.922C160.337 4.88733 160.277 4.82667 160.242 4.74C160.051 4.30667 159.861 3.92533 159.67 3.596C159.479 3.26667 159.254 2.998 158.994 2.79C158.751 2.582 158.448 2.426 158.084 2.322C157.737 2.218 157.304 2.166 156.784 2.166H154.106ZM162.216 9.55C162.216 8.354 162.433 7.22733 162.866 6.17C163.3 5.11267 163.889 4.18533 164.634 3.388C165.38 2.59067 166.246 1.958 167.234 1.49C168.222 1.022 169.262 0.787998 170.354 0.787998C171.862 0.787998 173.18 1.03067 174.306 1.516C175.433 1.984 176.36 2.62533 177.088 3.44C177.834 4.23733 178.388 5.16467 178.752 6.222C179.116 7.27933 179.298 8.38867 179.298 9.55C179.298 10.9193 179.073 12.15 178.622 13.242C178.172 14.3167 177.548 15.2353 176.75 15.998C175.97 16.7433 175.043 17.3153 173.968 17.714C172.911 18.1127 171.776 18.312 170.562 18.312C169.332 18.312 168.205 18.104 167.182 17.688C166.16 17.272 165.276 16.6827 164.53 15.92C163.802 15.14 163.23 14.2127 162.814 13.138C162.416 12.0633 162.216 10.8673 162.216 9.55ZM171.16 17.064C171.975 17.064 172.72 16.908 173.396 16.596C174.072 16.284 174.653 15.8507 175.138 15.296C175.624 14.7413 175.996 14.0827 176.256 13.32C176.534 12.5573 176.672 11.7253 176.672 10.824C176.672 9.576 176.542 8.42333 176.282 7.366C176.022 6.29133 175.624 5.364 175.086 4.584C174.566 3.78667 173.899 3.16267 173.084 2.712C172.287 2.26133 171.351 2.036 170.276 2.036C169.566 2.036 168.881 2.17467 168.222 2.452C167.581 2.712 167.009 3.102 166.506 3.622C166.021 4.12467 165.631 4.74867 165.336 5.494C165.042 6.23933 164.894 7.09733 164.894 8.068C164.894 9.35067 165.033 10.5467 165.31 11.656C165.588 12.748 165.986 13.7013 166.506 14.516C167.044 15.3133 167.702 15.9373 168.482 16.388C169.262 16.8387 170.155 17.064 171.16 17.064ZM192.116 16.18C192.116 16.5267 192.237 16.7693 192.48 16.908C192.723 17.0293 193.173 17.1593 193.832 17.298C194.005 17.3327 194.092 17.4713 194.092 17.714C194.092 17.818 194.075 17.9567 194.04 18.13C193.503 18.0953 192.965 18.0607 192.428 18.026C191.891 18.0087 191.379 18 190.894 18C190.426 18 189.906 18.0087 189.334 18.026C188.779 18.0607 188.251 18.0953 187.748 18.13C187.713 17.9567 187.696 17.818 187.696 17.714C187.696 17.4713 187.783 17.3327 187.956 17.298C188.615 17.1767 189.065 17.0467 189.308 16.908C189.551 16.7693 189.672 16.5267 189.672 16.18V2.946C189.672 2.59933 189.551 2.35667 189.308 2.218C189.065 2.062 188.615 1.932 187.956 1.828C187.852 1.81067 187.783 1.75867 187.748 1.672C187.713 1.58533 187.696 1.49 187.696 1.386C187.696 1.282 187.713 1.14333 187.748 0.969999C188.268 1.00467 188.805 1.03933 189.36 1.074C189.932 1.09133 190.443 1.1 190.894 1.1C191.327 1.1 191.821 1.09133 192.376 1.074C192.948 1.03933 193.503 1.00467 194.04 0.969999C194.075 1.14333 194.092 1.282 194.092 1.386C194.092 1.646 194.005 1.79333 193.832 1.828C193.173 1.932 192.723 2.062 192.48 2.218C192.237 2.35667 192.116 2.59933 192.116 2.946V16.18ZM201.316 10.668V15.998C201.316 16.3967 201.507 16.6827 201.888 16.856C202.27 17.012 202.842 17.142 203.604 17.246C203.812 17.2807 203.916 17.428 203.916 17.688C203.916 17.8093 203.899 17.9567 203.864 18.13C203.362 18.0953 202.79 18.0607 202.148 18.026C201.507 18.0087 200.814 18 200.068 18C199.618 18 199.106 18.0087 198.534 18.026C197.962 18.0607 197.425 18.0953 196.922 18.13C196.888 17.9567 196.87 17.818 196.87 17.714C196.87 17.4713 196.957 17.3327 197.13 17.298C197.824 17.1593 198.283 17.0293 198.508 16.908C198.751 16.7693 198.872 16.5267 198.872 16.18V2.946C198.872 2.59933 198.734 2.348 198.456 2.192C198.196 2.036 197.72 1.91467 197.026 1.828C196.853 1.79333 196.766 1.63733 196.766 1.36C196.766 1.23867 196.784 1.10867 196.818 0.969999C197.304 1.00467 197.815 1.03933 198.352 1.074C198.907 1.09133 199.427 1.1 199.912 1.1H203.578C205.45 1.1 206.854 1.542 207.79 2.426C208.726 3.31 209.194 4.454 209.194 5.858C209.194 6.41267 209.064 6.976 208.804 7.548C208.562 8.12 208.198 8.64 207.712 9.108C207.244 9.55867 206.655 9.93133 205.944 10.226C205.251 10.5207 204.462 10.668 203.578 10.668H201.316ZM202.694 9.602C203.908 9.602 204.844 9.33333 205.502 8.796C206.161 8.25867 206.49 7.34867 206.49 6.066C206.49 5.52867 206.43 5.026 206.308 4.558C206.187 4.09 205.979 3.68267 205.684 3.336C205.39 2.972 205 2.686 204.514 2.478C204.029 2.27 203.422 2.166 202.694 2.166H201.316V9.602H202.694ZM222.626 5.182C222.453 5.21667 222.323 5.234 222.236 5.234C222.011 5.234 221.846 5.19067 221.742 5.104C221.638 5.01733 221.56 4.922 221.508 4.818C221.058 3.83 220.52 3.11067 219.896 2.66C219.272 2.20933 218.423 1.984 217.348 1.984C216.932 1.984 216.534 2.04467 216.152 2.166C215.788 2.27 215.468 2.43467 215.19 2.66C214.913 2.868 214.688 3.128 214.514 3.44C214.358 3.752 214.28 4.09867 214.28 4.48C214.28 5.29467 214.618 5.962 215.294 6.482C215.988 7.002 217.002 7.53067 218.336 8.068C220 8.72667 221.222 9.46333 222.002 10.278C222.8 11.0753 223.198 12.0633 223.198 13.242C223.198 13.9527 223.086 14.62 222.86 15.244C222.652 15.8507 222.314 16.388 221.846 16.856C221.396 17.3067 220.806 17.662 220.078 17.922C219.35 18.182 218.475 18.312 217.452 18.312C216.378 18.312 215.398 18.1993 214.514 17.974C213.648 17.7487 212.911 17.454 212.304 17.09C212.252 16.362 212.174 15.66 212.07 14.984C211.966 14.308 211.845 13.632 211.706 12.956C211.828 12.904 211.975 12.878 212.148 12.878C212.356 12.878 212.512 12.93 212.616 13.034C212.738 13.1207 212.842 13.268 212.928 13.476C213.362 14.724 213.916 15.6427 214.592 16.232C215.286 16.8213 216.248 17.116 217.478 17.116C218.033 17.116 218.518 17.038 218.934 16.882C219.35 16.726 219.697 16.5093 219.974 16.232C220.252 15.9547 220.46 15.6427 220.598 15.296C220.737 14.9493 220.806 14.5767 220.806 14.178C220.806 13.2767 220.494 12.566 219.87 12.046C219.264 11.526 218.388 11.058 217.244 10.642C216.499 10.3647 215.823 10.0787 215.216 9.784C214.61 9.472 214.09 9.11667 213.656 8.718C213.223 8.31933 212.885 7.86 212.642 7.34C212.417 6.80267 212.304 6.17 212.304 5.442C212.304 4.80067 212.417 4.20267 212.642 3.648C212.885 3.076 213.223 2.582 213.656 2.166C214.107 1.75 214.644 1.42067 215.268 1.178C215.892 0.935333 216.594 0.814 217.374 0.814C218.189 0.814 218.969 0.892 219.714 1.048C220.46 1.204 221.3 1.464 222.236 1.828C222.271 2.348 222.314 2.91133 222.366 3.518C222.436 4.10733 222.522 4.662 222.626 5.182ZM241.808 11.682C241.808 12.67 241.695 13.5713 241.47 14.386C241.245 15.1833 240.863 15.8767 240.326 16.466C239.806 17.0553 239.113 17.5147 238.246 17.844C237.379 18.156 236.296 18.312 234.996 18.312C233.505 18.312 232.301 18.13 231.382 17.766C230.463 17.3847 229.753 16.8907 229.25 16.284C228.765 15.6773 228.435 14.984 228.262 14.204C228.106 13.4067 228.028 12.6007 228.028 11.786V2.946C228.028 2.59933 227.907 2.348 227.664 2.192C227.421 2.036 226.962 1.91467 226.286 1.828C226.113 1.81067 226.026 1.66333 226.026 1.386C226.026 1.282 226.043 1.14333 226.078 0.969999C226.598 1.00467 227.127 1.03933 227.664 1.074C228.219 1.09133 228.747 1.1 229.25 1.1C229.701 1.1 230.229 1.09133 230.836 1.074C231.443 1.03933 232.006 1.00467 232.526 0.969999C232.561 1.14333 232.578 1.282 232.578 1.386C232.578 1.66333 232.491 1.81067 232.318 1.828C231.659 1.91467 231.183 2.036 230.888 2.192C230.611 2.348 230.472 2.59933 230.472 2.946V11.214C230.472 13.0167 230.827 14.4033 231.538 15.374C232.266 16.3273 233.488 16.804 235.204 16.804C236.175 16.804 236.998 16.7 237.674 16.492C238.35 16.2667 238.905 15.9287 239.338 15.478C239.771 15.0273 240.083 14.4467 240.274 13.736C240.465 13.008 240.56 12.1413 240.56 11.136V2.946C240.56 2.59933 240.43 2.348 240.17 2.192C239.91 2.036 239.442 1.91467 238.766 1.828C238.575 1.81067 238.48 1.66333 238.48 1.386C238.48 1.282 238.497 1.14333 238.532 0.969999C239.035 1.00467 239.52 1.03933 239.988 1.074C240.473 1.09133 240.889 1.1 241.236 1.1C241.652 1.1 242.068 1.09133 242.484 1.074C242.917 1.03933 243.342 1.00467 243.758 0.969999C243.793 1.14333 243.81 1.282 243.81 1.386C243.81 1.47267 243.784 1.568 243.732 1.672C243.68 1.75867 243.611 1.81067 243.524 1.828C242.883 1.89733 242.432 2.01867 242.172 2.192C241.929 2.348 241.808 2.59933 241.808 2.946V11.682ZM262.159 1.594C262.194 1.52467 262.229 1.45533 262.263 1.386C262.315 1.31667 262.393 1.26467 262.497 1.23C262.601 1.19533 262.74 1.16933 262.913 1.152C263.087 1.11733 263.329 1.1 263.641 1.1C263.78 1.1 263.962 1.1 264.187 1.1C264.413 1.08267 264.655 1.074 264.915 1.074C265.175 1.05667 265.435 1.03933 265.695 1.022C265.973 1.00467 266.224 0.987332 266.449 0.969999C266.484 1.14333 266.501 1.282 266.501 1.386C266.501 1.66333 266.415 1.81067 266.241 1.828C265.617 1.91467 265.201 2.036 264.993 2.192C264.785 2.33067 264.681 2.52133 264.681 2.764C264.681 2.78133 264.69 3.01533 264.707 3.466C264.742 3.89933 264.785 4.636 264.837 5.676C264.889 6.69867 264.95 8.068 265.019 9.784C265.106 11.5 265.201 13.632 265.305 16.18C265.323 16.5093 265.435 16.752 265.643 16.908C265.851 17.064 266.276 17.194 266.917 17.298C267.004 17.3153 267.065 17.3673 267.099 17.454C267.151 17.5233 267.177 17.61 267.177 17.714C267.177 17.818 267.16 17.9567 267.125 18.13C266.519 18.0953 265.964 18.0607 265.461 18.026C264.976 18.0087 264.525 18 264.109 18C263.936 18 263.719 18 263.459 18C263.199 18.0173 262.922 18.026 262.627 18.026C262.35 18.0433 262.073 18.0607 261.795 18.078C261.518 18.0953 261.275 18.1127 261.067 18.13C261.033 17.9567 261.015 17.818 261.015 17.714C261.015 17.4367 261.102 17.298 261.275 17.298C261.969 17.1593 262.437 17.0207 262.679 16.882C262.939 16.7433 263.069 16.5093 263.069 16.18C263.069 16.128 263.052 15.8073 263.017 15.218C263 14.6287 262.965 13.9093 262.913 13.06C262.879 12.2107 262.835 11.292 262.783 10.304C262.749 9.316 262.705 8.38867 262.653 7.522C262.619 6.638 262.584 5.884 262.549 5.26C262.515 4.61867 262.497 4.22867 262.497 4.09L256.803 17.844C256.734 18 256.665 18.1127 256.595 18.182C256.543 18.2687 256.465 18.312 256.361 18.312C256.24 18.312 256.162 18.3033 256.127 18.286L249.757 3.674C249.74 3.84733 249.714 4.272 249.679 4.948C249.662 5.60667 249.627 6.39533 249.575 7.314C249.541 8.23267 249.497 9.20333 249.445 10.226C249.393 11.2487 249.341 12.1933 249.289 13.06C249.255 13.9267 249.22 14.6547 249.185 15.244C249.168 15.8333 249.159 16.1453 249.159 16.18C249.159 16.7173 249.749 17.09 250.927 17.298C251.101 17.3153 251.187 17.454 251.187 17.714C251.187 17.818 251.17 17.9567 251.135 18.13C250.667 18.0953 250.208 18.0607 249.757 18.026C249.307 18.0087 248.908 18 248.561 18C248.284 18 247.911 18.0087 247.443 18.026C246.975 18.0607 246.533 18.0953 246.117 18.13C246.083 17.9567 246.065 17.818 246.065 17.714C246.065 17.4713 246.152 17.3327 246.325 17.298C246.793 17.2113 247.166 17.09 247.443 16.934C247.738 16.7607 247.903 16.5093 247.937 16.18C247.937 16.024 247.955 15.5907 247.989 14.88C248.024 14.152 248.059 13.294 248.093 12.306C248.145 11.318 248.197 10.2693 248.249 9.16C248.301 8.05067 248.345 7.028 248.379 6.092C248.431 5.13867 248.466 4.35867 248.483 3.752C248.518 3.128 248.535 2.80733 248.535 2.79C248.535 2.51267 248.423 2.31333 248.197 2.192C247.989 2.05333 247.582 1.932 246.975 1.828C246.802 1.81067 246.715 1.66333 246.715 1.386C246.715 1.282 246.733 1.14333 246.767 0.969999C246.993 0.987332 247.244 1.00467 247.521 1.022C247.816 1.03933 248.102 1.05667 248.379 1.074C248.674 1.074 248.951 1.08267 249.211 1.1C249.471 1.1 249.679 1.1 249.835 1.1C250.147 1.1 250.39 1.11733 250.563 1.152C250.737 1.16933 250.875 1.19533 250.979 1.23C251.083 1.26467 251.153 1.31667 251.187 1.386C251.239 1.45533 251.283 1.52467 251.317 1.594L256.881 14.568L262.159 1.594ZM11.6772 47.812H5.87916L4.21516 51.998C4.1285 52.206 4.08516 52.3793 4.08516 52.518C4.08516 52.882 4.61383 53.142 5.67116 53.298C5.7925 53.3153 5.8705 53.3673 5.90516 53.454C5.95716 53.5233 5.98316 53.61 5.98316 53.714C5.98316 53.818 5.96583 53.9567 5.93116 54.13C5.46316 54.0953 4.96916 54.0607 4.44916 54.026C3.92916 54.0087 3.41783 54 2.91516 54C2.5685 54 2.21316 54.0087 1.84916 54.026C1.48516 54.0433 1.10383 54.078 0.705163 54.13C0.670496 53.9913 0.653163 53.8527 0.653163 53.714C0.653163 53.5927 0.670496 53.4887 0.705163 53.402C0.757163 53.3153 0.852496 53.2633 0.991163 53.246C1.5285 53.1593 1.92716 53.0553 2.18716 52.934C2.4645 52.7953 2.66383 52.5873 2.78516 52.31L9.05116 37.23C9.1725 36.9353 9.33716 36.788 9.54516 36.788C9.6145 36.788 9.7185 36.8053 9.85716 36.84L16.1492 52.388C16.2532 52.6307 16.4872 52.8213 16.8512 52.96C17.2152 53.0987 17.5705 53.194 17.9172 53.246C18.0212 53.2807 18.0992 53.3327 18.1512 53.402C18.2205 53.454 18.2552 53.558 18.2552 53.714C18.2552 53.818 18.2378 53.9567 18.2032 54.13C17.6485 54.0953 17.1025 54.0607 16.5652 54.026C16.0278 54.0087 15.5252 54 15.0572 54C14.5718 54 14.0172 54.0087 13.3932 54.026C12.7692 54.0607 12.2058 54.0953 11.7032 54.13C11.6685 53.9567 11.6512 53.818 11.6512 53.714C11.6512 53.558 11.6772 53.454 11.7292 53.402C11.7985 53.3327 11.8592 53.298 11.9112 53.298C12.3618 53.2113 12.7258 53.116 13.0032 53.012C13.2805 52.8907 13.4192 52.7173 13.4192 52.492C13.4192 52.388 13.3845 52.258 13.3152 52.102L11.6772 47.812ZM11.2612 46.746L8.84316 40.376L6.32116 46.746H11.2612ZM30.0978 52.128C30.0978 52.4227 30.2278 52.6307 30.4878 52.752C30.7478 52.8733 31.1031 52.934 31.5538 52.934H34.3878C34.8904 52.934 35.3238 52.8733 35.6878 52.752C36.0518 52.6133 36.3638 52.4227 36.6238 52.18C36.8838 51.9373 37.1091 51.6427 37.2998 51.296C37.5078 50.932 37.6898 50.5247 37.8458 50.074C37.8978 49.9353 38.0018 49.866 38.1578 49.866C38.2444 49.866 38.3311 49.892 38.4178 49.944C38.5218 49.9787 38.6258 50.022 38.7298 50.074C38.6084 50.594 38.4871 51.1487 38.3658 51.738C38.2618 52.31 38.1664 52.96 38.0798 53.688C38.0624 53.8787 38.0104 54 37.9238 54.052C37.8371 54.104 37.7331 54.13 37.6118 54.13C37.3171 54.13 36.9444 54.104 36.4938 54.052C36.0604 54.0173 35.6791 54 35.3498 54H28.8498C28.4511 54 27.9484 54.0087 27.3418 54.026C26.7351 54.0607 26.1544 54.0953 25.5998 54.13C25.5651 53.9567 25.5478 53.818 25.5478 53.714C25.5478 53.4713 25.6344 53.3327 25.8078 53.298C26.5184 53.1767 27.0038 53.0467 27.2638 52.908C27.5238 52.752 27.6538 52.518 27.6538 52.206V38.946C27.6538 38.5993 27.5324 38.3567 27.2898 38.218C27.0471 38.062 26.5791 37.932 25.8858 37.828C25.7991 37.8107 25.7298 37.7673 25.6778 37.698C25.6431 37.6113 25.6258 37.516 25.6258 37.412C25.6258 37.2907 25.6431 37.1433 25.6778 36.97C26.2671 37.0047 26.8478 37.0393 27.4198 37.074C27.9918 37.0913 28.4771 37.1 28.8758 37.1C29.4651 37.1 30.0891 37.0913 30.7478 37.074C31.4064 37.0393 31.9958 37.0047 32.5158 36.97C32.5504 37.1433 32.5678 37.282 32.5678 37.386C32.5678 37.6807 32.4724 37.8367 32.2818 37.854C31.5364 37.9407 30.9818 38.0707 30.6178 38.244C30.2711 38.4 30.0978 38.6947 30.0978 39.128V52.128ZM40.0259 45.55C40.0259 44.354 40.2426 43.2273 40.6759 42.17C41.1092 41.1127 41.6986 40.1853 42.4439 39.388C43.1892 38.5907 44.0559 37.958 45.0439 37.49C46.0319 37.022 47.0719 36.788 48.1639 36.788C49.6719 36.788 50.9892 37.0307 52.1159 37.516C53.2426 37.984 54.1699 38.6253 54.8979 39.44C55.6432 40.2373 56.1979 41.1647 56.5619 42.222C56.9259 43.2793 57.1079 44.3887 57.1079 45.55C57.1079 46.9193 56.8826 48.15 56.4319 49.242C55.9812 50.3167 55.3572 51.2353 54.5599 51.998C53.7799 52.7433 52.8526 53.3153 51.7779 53.714C50.7206 54.1127 49.5852 54.312 48.3719 54.312C47.1412 54.312 46.0146 54.104 44.9919 53.688C43.9692 53.272 43.0852 52.6827 42.3399 51.92C41.6119 51.14 41.0399 50.2127 40.6239 49.138C40.2252 48.0633 40.0259 46.8673 40.0259 45.55ZM48.9699 53.064C49.7846 53.064 50.5299 52.908 51.2059 52.596C51.8819 52.284 52.4626 51.8507 52.9479 51.296C53.4332 50.7413 53.8059 50.0827 54.0659 49.32C54.3432 48.5573 54.4819 47.7253 54.4819 46.824C54.4819 45.576 54.3519 44.4233 54.0919 43.366C53.8319 42.2913 53.4332 41.364 52.8959 40.584C52.3759 39.7867 51.7086 39.1627 50.8939 38.712C50.0966 38.2613 49.1606 38.036 48.0859 38.036C47.3752 38.036 46.6906 38.1747 46.0319 38.452C45.3906 38.712 44.8186 39.102 44.3159 39.622C43.8306 40.1247 43.4406 40.7487 43.1459 41.494C42.8512 42.2393 42.7039 43.0973 42.7039 44.068C42.7039 45.3507 42.8426 46.5467 43.1199 47.656C43.3972 48.748 43.7959 49.7013 44.3159 50.516C44.8532 51.3133 45.5119 51.9373 46.2919 52.388C47.0719 52.8387 47.9646 53.064 48.9699 53.064ZM66.2605 46.408H64.3365V52.128C64.3365 52.5093 64.5098 52.7693 64.8565 52.908C65.2205 53.0467 65.7665 53.1593 66.4945 53.246C66.7025 53.2807 66.8065 53.428 66.8065 53.688C66.8065 53.8093 66.7892 53.9567 66.7545 54.13C66.2865 54.0953 65.7145 54.0607 65.0385 54.026C64.3798 54.0087 63.7298 54 63.0885 54C62.6378 54 62.1178 54.0087 61.5285 54.026C60.9392 54.0607 60.3845 54.0953 59.8645 54.13C59.8298 53.9567 59.8125 53.818 59.8125 53.714C59.8125 53.4713 59.9078 53.3327 60.0985 53.298C60.7572 53.194 61.2165 53.0727 61.4765 52.934C61.7538 52.778 61.8925 52.5267 61.8925 52.18V38.946C61.8925 38.6167 61.7625 38.374 61.5025 38.218C61.2598 38.0447 60.7745 37.9147 60.0465 37.828C59.8732 37.8107 59.7865 37.6633 59.7865 37.386C59.7865 37.282 59.8038 37.1433 59.8385 36.97C60.3585 37.0047 60.8958 37.0393 61.4505 37.074C62.0052 37.0913 62.5338 37.1 63.0365 37.1H66.5465C68.4185 37.1 69.8312 37.516 70.7845 38.348C71.7378 39.1627 72.2145 40.272 72.2145 41.676C72.2145 42.0573 72.1452 42.456 72.0065 42.872C71.8852 43.288 71.6858 43.6953 71.4085 44.094C71.1485 44.4927 70.8018 44.8653 70.3685 45.212C69.9525 45.5413 69.4585 45.81 68.8865 46.018L73.2285 52.05C73.5578 52.5007 73.9218 52.8127 74.3205 52.986C74.7192 53.1593 75.0918 53.2893 75.4385 53.376C75.5945 53.4107 75.6725 53.532 75.6725 53.74C75.6725 53.8787 75.6552 54.0347 75.6205 54.208C75.2218 54.1733 74.7365 54.1387 74.1645 54.104C73.5925 54.0867 73.0638 54.078 72.5785 54.078C72.2145 54.078 71.8418 53.922 71.4605 53.61C71.0965 53.298 70.7498 52.8993 70.4205 52.414L66.2605 46.408ZM65.7145 45.342C66.9278 45.342 67.8638 45.0907 68.5225 44.588C69.1812 44.068 69.5105 43.1667 69.5105 41.884C69.5105 41.3467 69.4412 40.8527 69.3025 40.402C69.1638 39.9513 68.9385 39.5613 68.6265 39.232C68.3318 38.9027 67.9332 38.6427 67.4305 38.452C66.9452 38.2613 66.3472 38.166 65.6365 38.166H64.3365V45.342H65.7145ZM81.4813 38.166V44.822H85.5373C85.8839 44.822 86.1266 44.6573 86.2653 44.328C86.4213 43.9813 86.5426 43.5653 86.6293 43.08C86.6813 42.8547 86.8373 42.742 87.0973 42.742C87.1493 42.742 87.2186 42.7507 87.3053 42.768C87.3919 42.7853 87.4613 42.8027 87.5133 42.82C87.4786 43.2013 87.4439 43.6347 87.4093 44.12C87.3919 44.6053 87.3833 45.03 87.3833 45.394C87.3833 45.6887 87.3919 46.0527 87.4093 46.486C87.4266 46.902 87.4613 47.3787 87.5133 47.916C87.3746 47.9507 87.2446 47.968 87.1233 47.968C86.8459 47.968 86.6813 47.8553 86.6293 47.63C86.5426 47.1447 86.4213 46.7373 86.2653 46.408C86.1266 46.0613 85.8839 45.888 85.5373 45.888H81.4813V52.024C81.4813 52.388 81.7153 52.6307 82.1833 52.752C82.6513 52.8733 83.4226 52.934 84.4973 52.934H85.9273C86.4299 52.934 86.8633 52.8647 87.2273 52.726C87.6086 52.57 87.9379 52.3707 88.2153 52.128C88.5099 51.868 88.7699 51.5647 88.9953 51.218C89.2206 50.8713 89.4373 50.49 89.6453 50.074C89.6973 49.9527 89.8273 49.892 90.0353 49.892C90.1219 49.892 90.2086 49.918 90.2953 49.97C90.3993 50.022 90.4946 50.074 90.5813 50.126C90.4253 50.4553 90.2866 50.854 90.1653 51.322C90.0613 51.7727 89.9573 52.206 89.8533 52.622C89.7493 53.038 89.6366 53.3933 89.5153 53.688C89.4113 53.9827 89.2726 54.13 89.0993 54.13C88.9606 54.13 88.7613 54.1213 88.5013 54.104C88.2413 54.0867 87.9553 54.0693 87.6433 54.052C87.3486 54.052 87.0453 54.0433 86.7333 54.026C86.4213 54.0087 86.1526 54 85.9273 54H80.2333C79.7306 54 79.1933 54.0087 78.6213 54.026C78.0493 54.0607 77.5033 54.0953 76.9833 54.13C76.9486 53.9567 76.9313 53.818 76.9313 53.714C76.9313 53.4713 77.0179 53.3327 77.1913 53.298C77.8499 53.1767 78.3179 53.0467 78.5953 52.908C78.8899 52.7693 79.0373 52.5267 79.0373 52.18V38.946C79.0373 38.5993 78.9073 38.3653 78.6473 38.244C78.4046 38.1053 77.9193 37.9667 77.1913 37.828C77.0179 37.7933 76.9313 37.646 76.9313 37.386C76.9313 37.2993 76.9313 37.23 76.9313 37.178C76.9486 37.1087 76.9659 37.0393 76.9833 36.97C77.7286 37.022 78.3526 37.0567 78.8553 37.074C79.3579 37.0913 79.8086 37.1 80.2073 37.1H85.3293C86.1093 37.1 86.7853 37.074 87.3573 37.022C87.9293 36.97 88.3106 36.944 88.5013 36.944C88.7266 36.944 88.8739 37.0913 88.9433 37.386C89.0299 37.6633 89.0993 38.0013 89.1513 38.4C89.2033 38.7987 89.2639 39.2233 89.3333 39.674C89.4026 40.1247 89.5326 40.506 89.7233 40.818C89.5846 40.922 89.4286 40.974 89.2553 40.974C89.0299 40.974 88.8826 40.896 88.8133 40.74C88.6053 40.2893 88.4059 39.908 88.2153 39.596C88.0246 39.2667 87.7993 38.998 87.5393 38.79C87.2966 38.582 86.9933 38.426 86.6293 38.322C86.2826 38.218 85.8493 38.166 85.3293 38.166H81.4813ZM108.923 37.594C108.958 37.5247 108.993 37.4553 109.027 37.386C109.079 37.3167 109.157 37.2647 109.261 37.23C109.365 37.1953 109.504 37.1693 109.677 37.152C109.851 37.1173 110.093 37.1 110.405 37.1C110.544 37.1 110.726 37.1 110.951 37.1C111.177 37.0827 111.419 37.074 111.679 37.074C111.939 37.0567 112.199 37.0393 112.459 37.022C112.737 37.0047 112.988 36.9873 113.213 36.97C113.248 37.1433 113.265 37.282 113.265 37.386C113.265 37.6633 113.179 37.8107 113.005 37.828C112.381 37.9147 111.965 38.036 111.757 38.192C111.549 38.3307 111.445 38.5213 111.445 38.764C111.445 38.7813 111.454 39.0153 111.471 39.466C111.506 39.8993 111.549 40.636 111.601 41.676C111.653 42.6987 111.714 44.068 111.783 45.784C111.87 47.5 111.965 49.632 112.069 52.18C112.087 52.5093 112.199 52.752 112.407 52.908C112.615 53.064 113.04 53.194 113.681 53.298C113.768 53.3153 113.829 53.3673 113.863 53.454C113.915 53.5233 113.941 53.61 113.941 53.714C113.941 53.818 113.924 53.9567 113.889 54.13C113.283 54.0953 112.728 54.0607 112.225 54.026C111.74 54.0087 111.289 54 110.873 54C110.7 54 110.483 54 110.223 54C109.963 54.0173 109.686 54.026 109.391 54.026C109.114 54.0433 108.837 54.0607 108.559 54.078C108.282 54.0953 108.039 54.1127 107.831 54.13C107.797 53.9567 107.779 53.818 107.779 53.714C107.779 53.4367 107.866 53.298 108.039 53.298C108.733 53.1593 109.201 53.0207 109.443 52.882C109.703 52.7433 109.833 52.5093 109.833 52.18C109.833 52.128 109.816 51.8073 109.781 51.218C109.764 50.6287 109.729 49.9093 109.677 49.06C109.643 48.2107 109.599 47.292 109.547 46.304C109.513 45.316 109.469 44.3887 109.417 43.522C109.383 42.638 109.348 41.884 109.313 41.26C109.279 40.6187 109.261 40.2287 109.261 40.09L103.567 53.844C103.498 54 103.429 54.1127 103.359 54.182C103.307 54.2687 103.229 54.312 103.125 54.312C103.004 54.312 102.926 54.3033 102.891 54.286L96.5215 39.674C96.5041 39.8473 96.4781 40.272 96.4435 40.948C96.4261 41.6067 96.3915 42.3953 96.3395 43.314C96.3048 44.2327 96.2615 45.2033 96.2095 46.226C96.1575 47.2487 96.1055 48.1933 96.0535 49.06C96.0188 49.9267 95.9841 50.6547 95.9495 51.244C95.9321 51.8333 95.9235 52.1453 95.9235 52.18C95.9235 52.7173 96.5128 53.09 97.6915 53.298C97.8648 53.3153 97.9515 53.454 97.9515 53.714C97.9515 53.818 97.9341 53.9567 97.8995 54.13C97.4315 54.0953 96.9721 54.0607 96.5215 54.026C96.0708 54.0087 95.6721 54 95.3255 54C95.0481 54 94.6755 54.0087 94.2075 54.026C93.7395 54.0607 93.2975 54.0953 92.8815 54.13C92.8468 53.9567 92.8295 53.818 92.8295 53.714C92.8295 53.4713 92.9161 53.3327 93.0895 53.298C93.5575 53.2113 93.9301 53.09 94.2075 52.934C94.5021 52.7607 94.6668 52.5093 94.7015 52.18C94.7015 52.024 94.7188 51.5907 94.7535 50.88C94.7881 50.152 94.8228 49.294 94.8575 48.306C94.9095 47.318 94.9615 46.2693 95.0135 45.16C95.0655 44.0507 95.1088 43.028 95.1435 42.092C95.1955 41.1387 95.2301 40.3587 95.2475 39.752C95.2821 39.128 95.2995 38.8073 95.2995 38.79C95.2995 38.5127 95.1868 38.3133 94.9615 38.192C94.7535 38.0533 94.3461 37.932 93.7395 37.828C93.5661 37.8107 93.4795 37.6633 93.4795 37.386C93.4795 37.282 93.4968 37.1433 93.5315 36.97C93.7568 36.9873 94.0081 37.0047 94.2855 37.022C94.5801 37.0393 94.8661 37.0567 95.1435 37.074C95.4381 37.074 95.7155 37.0827 95.9755 37.1C96.2355 37.1 96.4435 37.1 96.5995 37.1C96.9115 37.1 97.1541 37.1173 97.3275 37.152C97.5008 37.1693 97.6395 37.1953 97.7435 37.23C97.8475 37.2647 97.9168 37.3167 97.9515 37.386C98.0035 37.4553 98.0468 37.5247 98.0815 37.594L103.645 50.568L108.923 37.594ZM125.573 39.726C125.243 39.726 124.983 39.6307 124.793 39.44C124.602 39.232 124.507 38.9633 124.507 38.634C124.507 38.166 124.663 37.75 124.975 37.386C125.304 37.0047 125.694 36.814 126.145 36.814C126.491 36.814 126.734 36.9267 126.873 37.152C127.029 37.3773 127.107 37.6633 127.107 38.01C127.107 38.4433 126.959 38.842 126.665 39.206C126.37 39.5527 126.006 39.726 125.573 39.726ZM124.247 51.868C124.229 51.9373 124.212 52.0327 124.195 52.154C124.177 52.258 124.169 52.336 124.169 52.388C124.169 52.596 124.273 52.7 124.481 52.7C124.602 52.7 124.723 52.674 124.845 52.622C124.983 52.5527 125.113 52.4833 125.235 52.414C125.373 52.3273 125.495 52.258 125.599 52.206C125.703 52.1367 125.789 52.102 125.859 52.102C126.032 52.102 126.153 52.2753 126.223 52.622C125.928 52.8473 125.607 53.064 125.261 53.272C124.931 53.4627 124.611 53.636 124.299 53.792C123.987 53.948 123.692 54.0693 123.415 54.156C123.137 54.26 122.912 54.312 122.739 54.312C122.548 54.312 122.366 54.2687 122.193 54.182C122.019 54.1127 121.933 53.9307 121.933 53.636C121.933 53.584 121.941 53.4973 121.959 53.376C121.976 53.2373 121.993 53.142 122.011 53.09C122.392 51.2353 122.695 49.762 122.921 48.67C123.146 47.5607 123.311 46.72 123.415 46.148C123.536 45.5587 123.614 45.1687 123.649 44.978C123.683 44.7873 123.701 44.6747 123.701 44.64C123.701 44.432 123.623 44.328 123.467 44.328C123.397 44.328 123.293 44.3627 123.155 44.432C123.016 44.484 122.869 44.5447 122.713 44.614C122.557 44.666 122.409 44.7267 122.271 44.796C122.149 44.848 122.054 44.874 121.985 44.874C121.881 44.874 121.803 44.822 121.751 44.718C121.699 44.614 121.655 44.4927 121.621 44.354C121.933 44.1807 122.297 43.99 122.713 43.782C123.129 43.5567 123.527 43.3487 123.909 43.158C124.307 42.9673 124.654 42.8113 124.949 42.69C125.261 42.5687 125.469 42.508 125.573 42.508C125.867 42.508 126.015 42.6553 126.015 42.95C126.015 43.0713 125.997 43.2013 125.963 43.34L124.247 51.868ZM136.988 46.148C137.092 45.68 137.144 45.29 137.144 44.978C137.144 44.4753 136.902 44.224 136.416 44.224C136.156 44.224 135.836 44.3713 135.454 44.666C135.073 44.9433 134.674 45.316 134.258 45.784C133.842 46.2347 133.426 46.746 133.01 47.318C132.612 47.89 132.256 48.4707 131.944 49.06C131.788 49.3547 131.632 49.684 131.476 50.048C131.338 50.3947 131.208 50.7587 131.086 51.14C130.982 51.504 130.896 51.868 130.826 52.232C130.774 52.596 130.748 52.934 130.748 53.246C130.748 53.4887 130.774 53.7227 130.826 53.948C130.168 54.0173 129.483 54.1473 128.772 54.338C128.634 54.2513 128.564 54.1473 128.564 54.026C128.564 53.9913 128.573 53.922 128.59 53.818C128.608 53.6967 128.625 53.6013 128.642 53.532C129.041 51.5213 129.353 49.9353 129.578 48.774C129.804 47.6127 129.968 46.7373 130.072 46.148C130.194 45.5413 130.263 45.1513 130.28 44.978C130.315 44.7873 130.332 44.6747 130.332 44.64C130.332 44.432 130.263 44.328 130.124 44.328C130.055 44.328 129.951 44.3627 129.812 44.432C129.674 44.484 129.526 44.5447 129.37 44.614C129.232 44.666 129.093 44.7267 128.954 44.796C128.816 44.848 128.712 44.874 128.642 44.874C128.556 44.874 128.478 44.822 128.408 44.718C128.356 44.614 128.313 44.4927 128.278 44.354C128.59 44.1633 128.954 43.964 129.37 43.756C129.804 43.5307 130.22 43.3313 130.618 43.158C131.017 42.9673 131.364 42.8113 131.658 42.69C131.953 42.5687 132.144 42.508 132.23 42.508C132.352 42.508 132.456 42.5427 132.542 42.612C132.629 42.664 132.672 42.7593 132.672 42.898C132.672 42.95 132.664 43.0193 132.646 43.106C132.646 43.1753 132.638 43.2533 132.62 43.34L131.684 47.864H131.788C132.239 47.1013 132.707 46.3907 133.192 45.732C133.678 45.0733 134.163 44.51 134.648 44.042C135.151 43.5567 135.654 43.184 136.156 42.924C136.659 42.6467 137.17 42.508 137.69 42.508C138.176 42.508 138.557 42.6293 138.834 42.872C139.129 43.1147 139.276 43.5133 139.276 44.068C139.276 44.276 139.259 44.5187 139.224 44.796C139.19 45.0733 139.146 45.3507 139.094 45.628L137.768 51.868C137.716 52.1107 137.69 52.2753 137.69 52.362C137.69 52.5873 137.794 52.7 138.002 52.7C138.106 52.7 138.228 52.674 138.366 52.622C138.505 52.5527 138.635 52.4833 138.756 52.414C138.895 52.3273 139.016 52.258 139.12 52.206C139.224 52.1367 139.311 52.102 139.38 52.102C139.554 52.102 139.675 52.2753 139.744 52.622C139.432 52.8473 139.112 53.064 138.782 53.272C138.453 53.4627 138.124 53.636 137.794 53.792C137.482 53.948 137.188 54.0693 136.91 54.156C136.633 54.26 136.408 54.312 136.234 54.312C136.044 54.312 135.862 54.2687 135.688 54.182C135.532 54.1127 135.454 53.9307 135.454 53.636C135.454 53.584 135.463 53.506 135.48 53.402C135.498 53.2807 135.515 53.1767 135.532 53.09L136.988 46.148ZM156.74 38.166V52.05C156.74 52.4487 156.905 52.7347 157.234 52.908C157.563 53.064 158.118 53.1853 158.898 53.272C159.089 53.272 159.184 53.4107 159.184 53.688C159.184 53.8093 159.167 53.9567 159.132 54.13C158.577 54.0953 157.988 54.0607 157.364 54.026C156.757 54.0087 156.142 54 155.518 54C154.911 54 154.287 54.0087 153.646 54.026C153.022 54.0607 152.433 54.0953 151.878 54.13C151.843 53.9567 151.826 53.8093 151.826 53.688C151.826 53.4453 151.913 53.3067 152.086 53.272C152.866 53.168 153.429 53.038 153.776 52.882C154.123 52.726 154.296 52.4487 154.296 52.05V38.166H151.618C151.098 38.166 150.656 38.218 150.292 38.322C149.945 38.426 149.642 38.582 149.382 38.79C149.122 38.998 148.897 39.2667 148.706 39.596C148.515 39.9253 148.316 40.3067 148.108 40.74C148.073 40.8267 148.013 40.8873 147.926 40.922C147.857 40.9567 147.787 40.974 147.718 40.974C147.527 40.974 147.363 40.922 147.224 40.818C147.397 40.194 147.527 39.6393 147.614 39.154C147.701 38.6687 147.779 38.27 147.848 37.958C147.917 37.6287 147.987 37.3773 148.056 37.204C148.143 37.0307 148.273 36.944 148.446 36.944C148.567 36.944 148.741 36.9527 148.966 36.97C149.191 36.9873 149.425 37.0047 149.668 37.022C149.928 37.0393 150.188 37.0567 150.448 37.074C150.708 37.0913 150.951 37.1 151.176 37.1H159.86C160.068 37.1 160.302 37.0913 160.562 37.074C160.822 37.0567 161.082 37.0393 161.342 37.022C161.602 37.0047 161.836 36.9873 162.044 36.97C162.269 36.9527 162.451 36.944 162.59 36.944C162.763 36.944 162.885 37.0393 162.954 37.23C163.041 37.4033 163.119 37.6547 163.188 37.984C163.257 38.3133 163.327 38.7207 163.396 39.206C163.483 39.6913 163.621 40.2287 163.812 40.818C163.725 40.8527 163.639 40.8873 163.552 40.922C163.483 40.9567 163.396 40.974 163.292 40.974C163.223 40.974 163.145 40.9567 163.058 40.922C162.971 40.8873 162.911 40.8267 162.876 40.74C162.685 40.3067 162.495 39.9253 162.304 39.596C162.113 39.2667 161.888 38.998 161.628 38.79C161.385 38.582 161.082 38.426 160.718 38.322C160.371 38.218 159.938 38.166 159.418 38.166H156.74ZM180.438 52.18C180.438 52.5267 180.551 52.7693 180.776 52.908C181.001 53.0293 181.452 53.1593 182.128 53.298C182.301 53.3327 182.388 53.454 182.388 53.662C182.388 53.8007 182.371 53.9567 182.336 54.13C181.903 54.0953 181.391 54.0607 180.802 54.026C180.213 54.0087 179.684 54 179.216 54C178.731 54 178.211 54.0087 177.656 54.026C177.119 54.0607 176.59 54.0953 176.07 54.13C176.035 53.9567 176.018 53.8007 176.018 53.662C176.018 53.454 176.105 53.3327 176.278 53.298C176.919 53.1767 177.361 53.0467 177.604 52.908C177.847 52.7693 177.968 52.5267 177.968 52.18V45.888H169.804V52.18C169.804 52.5267 169.917 52.7693 170.142 52.908C170.367 53.0293 170.818 53.1593 171.494 53.298C171.685 53.3327 171.78 53.454 171.78 53.662C171.78 53.8007 171.763 53.9567 171.728 54.13C171.277 54.0953 170.757 54.0607 170.168 54.026C169.579 54.0087 169.05 54 168.582 54C168.097 54 167.585 54.0087 167.048 54.026C166.511 54.0607 165.973 54.0953 165.436 54.13C165.401 53.9567 165.384 53.8007 165.384 53.662C165.384 53.454 165.471 53.3327 165.644 53.298C166.303 53.1767 166.753 53.0467 166.996 52.908C167.239 52.7693 167.36 52.5267 167.36 52.18V38.972C167.36 38.7987 167.334 38.66 167.282 38.556C167.247 38.4347 167.169 38.3307 167.048 38.244C166.927 38.1573 166.753 38.088 166.528 38.036C166.32 37.9667 166.043 37.8973 165.696 37.828C165.523 37.8107 165.436 37.672 165.436 37.412C165.436 37.2907 165.453 37.1433 165.488 36.97C165.921 37.0047 166.424 37.0393 166.996 37.074C167.568 37.0913 168.088 37.1 168.556 37.1C169.041 37.1 169.553 37.0913 170.09 37.074C170.627 37.0393 171.156 37.0047 171.676 36.97C171.711 37.1433 171.728 37.2907 171.728 37.412C171.728 37.6547 171.641 37.7933 171.468 37.828C170.792 37.932 170.341 38.062 170.116 38.218C169.908 38.374 169.804 38.6253 169.804 38.972V44.796H177.968V38.972C177.968 38.6773 177.864 38.4433 177.656 38.27C177.448 38.0793 177.006 37.932 176.33 37.828C176.139 37.8107 176.044 37.672 176.044 37.412C176.044 37.2907 176.061 37.1433 176.096 36.97C176.529 37.0047 177.032 37.0393 177.604 37.074C178.193 37.0913 178.722 37.1 179.19 37.1C179.675 37.1 180.178 37.0913 180.698 37.074C181.235 37.0393 181.773 37.0047 182.31 36.97C182.345 37.1433 182.362 37.2907 182.362 37.412C182.362 37.6547 182.275 37.7933 182.102 37.828C181.426 37.932 180.975 38.062 180.75 38.218C180.542 38.374 180.438 38.6253 180.438 38.972V52.18ZM189.618 38.166V44.822H193.674C194.021 44.822 194.263 44.6573 194.402 44.328C194.558 43.9813 194.679 43.5653 194.766 43.08C194.818 42.8547 194.974 42.742 195.234 42.742C195.286 42.742 195.355 42.7507 195.442 42.768C195.529 42.7853 195.598 42.8027 195.65 42.82C195.615 43.2013 195.581 43.6347 195.546 44.12C195.529 44.6053 195.52 45.03 195.52 45.394C195.52 45.6887 195.529 46.0527 195.546 46.486C195.563 46.902 195.598 47.3787 195.65 47.916C195.511 47.9507 195.381 47.968 195.26 47.968C194.983 47.968 194.818 47.8553 194.766 47.63C194.679 47.1447 194.558 46.7373 194.402 46.408C194.263 46.0613 194.021 45.888 193.674 45.888H189.618V52.024C189.618 52.388 189.852 52.6307 190.32 52.752C190.788 52.8733 191.559 52.934 192.634 52.934H194.064C194.567 52.934 195 52.8647 195.364 52.726C195.745 52.57 196.075 52.3707 196.352 52.128C196.647 51.868 196.907 51.5647 197.132 51.218C197.357 50.8713 197.574 50.49 197.782 50.074C197.834 49.9527 197.964 49.892 198.172 49.892C198.259 49.892 198.345 49.918 198.432 49.97C198.536 50.022 198.631 50.074 198.718 50.126C198.562 50.4553 198.423 50.854 198.302 51.322C198.198 51.7727 198.094 52.206 197.99 52.622C197.886 53.038 197.773 53.3933 197.652 53.688C197.548 53.9827 197.409 54.13 197.236 54.13C197.097 54.13 196.898 54.1213 196.638 54.104C196.378 54.0867 196.092 54.0693 195.78 54.052C195.485 54.052 195.182 54.0433 194.87 54.026C194.558 54.0087 194.289 54 194.064 54H188.37C187.867 54 187.33 54.0087 186.758 54.026C186.186 54.0607 185.64 54.0953 185.12 54.13C185.085 53.9567 185.068 53.818 185.068 53.714C185.068 53.4713 185.155 53.3327 185.328 53.298C185.987 53.1767 186.455 53.0467 186.732 52.908C187.027 52.7693 187.174 52.5267 187.174 52.18V38.946C187.174 38.5993 187.044 38.3653 186.784 38.244C186.541 38.1053 186.056 37.9667 185.328 37.828C185.155 37.7933 185.068 37.646 185.068 37.386C185.068 37.2993 185.068 37.23 185.068 37.178C185.085 37.1087 185.103 37.0393 185.12 36.97C185.865 37.022 186.489 37.0567 186.992 37.074C187.495 37.0913 187.945 37.1 188.344 37.1H193.466C194.246 37.1 194.922 37.074 195.494 37.022C196.066 36.97 196.447 36.944 196.638 36.944C196.863 36.944 197.011 37.0913 197.08 37.386C197.167 37.6633 197.236 38.0013 197.288 38.4C197.34 38.7987 197.401 39.2233 197.47 39.674C197.539 40.1247 197.669 40.506 197.86 40.818C197.721 40.922 197.565 40.974 197.392 40.974C197.167 40.974 197.019 40.896 196.95 40.74C196.742 40.2893 196.543 39.908 196.352 39.596C196.161 39.2667 195.936 38.998 195.676 38.79C195.433 38.582 195.13 38.426 194.766 38.322C194.419 38.218 193.986 38.166 193.466 38.166H189.618ZM211.209 52.18C211.209 52.5267 211.33 52.7693 211.573 52.908C211.816 53.0293 212.266 53.1593 212.925 53.298C213.098 53.3327 213.185 53.4713 213.185 53.714C213.185 53.818 213.168 53.9567 213.133 54.13C212.596 54.0953 212.058 54.0607 211.521 54.026C210.984 54.0087 210.472 54 209.987 54C209.519 54 208.999 54.0087 208.427 54.026C207.872 54.0607 207.344 54.0953 206.841 54.13C206.806 53.9567 206.789 53.818 206.789 53.714C206.789 53.4713 206.876 53.3327 207.049 53.298C207.708 53.1767 208.158 53.0467 208.401 52.908C208.644 52.7693 208.765 52.5267 208.765 52.18V38.946C208.765 38.5993 208.644 38.3567 208.401 38.218C208.158 38.062 207.708 37.932 207.049 37.828C206.945 37.8107 206.876 37.7587 206.841 37.672C206.806 37.5853 206.789 37.49 206.789 37.386C206.789 37.282 206.806 37.1433 206.841 36.97C207.361 37.0047 207.898 37.0393 208.453 37.074C209.025 37.0913 209.536 37.1 209.987 37.1C210.42 37.1 210.914 37.0913 211.469 37.074C212.041 37.0393 212.596 37.0047 213.133 36.97C213.168 37.1433 213.185 37.282 213.185 37.386C213.185 37.646 213.098 37.7933 212.925 37.828C212.266 37.932 211.816 38.062 211.573 38.218C211.33 38.3567 211.209 38.5993 211.209 38.946V52.18ZM220.41 46.668V51.998C220.41 52.3967 220.6 52.6827 220.982 52.856C221.363 53.012 221.935 53.142 222.698 53.246C222.906 53.2807 223.01 53.428 223.01 53.688C223.01 53.8093 222.992 53.9567 222.958 54.13C222.455 54.0953 221.883 54.0607 221.242 54.026C220.6 54.0087 219.907 54 219.162 54C218.711 54 218.2 54.0087 217.628 54.026C217.056 54.0607 216.518 54.0953 216.016 54.13C215.981 53.9567 215.964 53.818 215.964 53.714C215.964 53.4713 216.05 53.3327 216.224 53.298C216.917 53.1593 217.376 53.0293 217.602 52.908C217.844 52.7693 217.966 52.5267 217.966 52.18V38.946C217.966 38.5993 217.827 38.348 217.55 38.192C217.29 38.036 216.813 37.9147 216.12 37.828C215.946 37.7933 215.86 37.6373 215.86 37.36C215.86 37.2387 215.877 37.1087 215.912 36.97C216.397 37.0047 216.908 37.0393 217.446 37.074C218 37.0913 218.52 37.1 219.006 37.1H222.672C224.544 37.1 225.948 37.542 226.884 38.426C227.82 39.31 228.288 40.454 228.288 41.858C228.288 42.4127 228.158 42.976 227.898 43.548C227.655 44.12 227.291 44.64 226.806 45.108C226.338 45.5587 225.748 45.9313 225.038 46.226C224.344 46.5207 223.556 46.668 222.672 46.668H220.41ZM221.788 45.602C223.001 45.602 223.937 45.3333 224.596 44.796C225.254 44.2587 225.584 43.3487 225.584 42.066C225.584 41.5287 225.523 41.026 225.402 40.558C225.28 40.09 225.072 39.6827 224.778 39.336C224.483 38.972 224.093 38.686 223.608 38.478C223.122 38.27 222.516 38.166 221.788 38.166H220.41V45.602H221.788ZM241.72 41.182C241.546 41.2167 241.416 41.234 241.33 41.234C241.104 41.234 240.94 41.1907 240.836 41.104C240.732 41.0173 240.654 40.922 240.602 40.818C240.151 39.83 239.614 39.1107 238.99 38.66C238.366 38.2093 237.516 37.984 236.442 37.984C236.026 37.984 235.627 38.0447 235.246 38.166C234.882 38.27 234.561 38.4347 234.284 38.66C234.006 38.868 233.781 39.128 233.608 39.44C233.452 39.752 233.374 40.0987 233.374 40.48C233.374 41.2947 233.712 41.962 234.388 42.482C235.081 43.002 236.095 43.5307 237.43 44.068C239.094 44.7267 240.316 45.4633 241.096 46.278C241.893 47.0753 242.292 48.0633 242.292 49.242C242.292 49.9527 242.179 50.62 241.954 51.244C241.746 51.8507 241.408 52.388 240.94 52.856C240.489 53.3067 239.9 53.662 239.172 53.922C238.444 54.182 237.568 54.312 236.546 54.312C235.471 54.312 234.492 54.1993 233.608 53.974C232.741 53.7487 232.004 53.454 231.398 53.09C231.346 52.362 231.268 51.66 231.164 50.984C231.06 50.308 230.938 49.632 230.8 48.956C230.921 48.904 231.068 48.878 231.242 48.878C231.45 48.878 231.606 48.93 231.71 49.034C231.831 49.1207 231.935 49.268 232.022 49.476C232.455 50.724 233.01 51.6427 233.686 52.232C234.379 52.8213 235.341 53.116 236.572 53.116C237.126 53.116 237.612 53.038 238.028 52.882C238.444 52.726 238.79 52.5093 239.068 52.232C239.345 51.9547 239.553 51.6427 239.692 51.296C239.83 50.9493 239.9 50.5767 239.9 50.178C239.9 49.2767 239.588 48.566 238.964 48.046C238.357 47.526 237.482 47.058 236.338 46.642C235.592 46.3647 234.916 46.0787 234.31 45.784C233.703 45.472 233.183 45.1167 232.75 44.718C232.316 44.3193 231.978 43.86 231.736 43.34C231.51 42.8027 231.398 42.17 231.398 41.442C231.398 40.8007 231.51 40.2027 231.736 39.648C231.978 39.076 232.316 38.582 232.75 38.166C233.2 37.75 233.738 37.4207 234.362 37.178C234.986 36.9353 235.688 36.814 236.468 36.814C237.282 36.814 238.062 36.892 238.808 37.048C239.553 37.204 240.394 37.464 241.33 37.828C241.364 38.348 241.408 38.9113 241.46 39.518C241.529 40.1073 241.616 40.662 241.72 41.182ZM260.901 47.682C260.901 48.67 260.789 49.5713 260.563 50.386C260.338 51.1833 259.957 51.8767 259.419 52.466C258.899 53.0553 258.206 53.5147 257.339 53.844C256.473 54.156 255.389 54.312 254.089 54.312C252.599 54.312 251.394 54.13 250.475 53.766C249.557 53.3847 248.846 52.8907 248.343 52.284C247.858 51.6773 247.529 50.984 247.355 50.204C247.199 49.4067 247.121 48.6007 247.121 47.786V38.946C247.121 38.5993 247 38.348 246.757 38.192C246.515 38.036 246.055 37.9147 245.379 37.828C245.206 37.8107 245.119 37.6633 245.119 37.386C245.119 37.282 245.137 37.1433 245.171 36.97C245.691 37.0047 246.22 37.0393 246.757 37.074C247.312 37.0913 247.841 37.1 248.343 37.1C248.794 37.1 249.323 37.0913 249.929 37.074C250.536 37.0393 251.099 37.0047 251.619 36.97C251.654 37.1433 251.671 37.282 251.671 37.386C251.671 37.6633 251.585 37.8107 251.411 37.828C250.753 37.9147 250.276 38.036 249.981 38.192C249.704 38.348 249.565 38.5993 249.565 38.946V47.214C249.565 49.0167 249.921 50.4033 250.631 51.374C251.359 52.3273 252.581 52.804 254.297 52.804C255.268 52.804 256.091 52.7 256.767 52.492C257.443 52.2667 257.998 51.9287 258.431 51.478C258.865 51.0273 259.177 50.4467 259.367 49.736C259.558 49.008 259.653 48.1413 259.653 47.136V38.946C259.653 38.5993 259.523 38.348 259.263 38.192C259.003 38.036 258.535 37.9147 257.859 37.828C257.669 37.8107 257.573 37.6633 257.573 37.386C257.573 37.282 257.591 37.1433 257.625 36.97C258.128 37.0047 258.613 37.0393 259.081 37.074C259.567 37.0913 259.983 37.1 260.329 37.1C260.745 37.1 261.161 37.0913 261.577 37.074C262.011 37.0393 262.435 37.0047 262.851 36.97C262.886 37.1433 262.903 37.282 262.903 37.386C262.903 37.4727 262.877 37.568 262.825 37.672C262.773 37.7587 262.704 37.8107 262.617 37.828C261.976 37.8973 261.525 38.0187 261.265 38.192C261.023 38.348 260.901 38.5993 260.901 38.946V47.682ZM281.253 37.594C281.287 37.5247 281.322 37.4553 281.357 37.386C281.409 37.3167 281.487 37.2647 281.591 37.23C281.695 37.1953 281.833 37.1693 282.007 37.152C282.18 37.1173 282.423 37.1 282.735 37.1C282.873 37.1 283.055 37.1 283.281 37.1C283.506 37.0827 283.749 37.074 284.009 37.074C284.269 37.0567 284.529 37.0393 284.789 37.022C285.066 37.0047 285.317 36.9873 285.543 36.97C285.577 37.1433 285.595 37.282 285.595 37.386C285.595 37.6633 285.508 37.8107 285.335 37.828C284.711 37.9147 284.295 38.036 284.087 38.192C283.879 38.3307 283.775 38.5213 283.775 38.764C283.775 38.7813 283.783 39.0153 283.801 39.466C283.835 39.8993 283.879 40.636 283.931 41.676C283.983 42.6987 284.043 44.068 284.113 45.784C284.199 47.5 284.295 49.632 284.399 52.18C284.416 52.5093 284.529 52.752 284.737 52.908C284.945 53.064 285.369 53.194 286.011 53.298C286.097 53.3153 286.158 53.3673 286.193 53.454C286.245 53.5233 286.271 53.61 286.271 53.714C286.271 53.818 286.253 53.9567 286.219 54.13C285.612 54.0953 285.057 54.0607 284.555 54.026C284.069 54.0087 283.619 54 283.203 54C283.029 54 282.813 54 282.553 54C282.293 54.0173 282.015 54.026 281.721 54.026C281.443 54.0433 281.166 54.0607 280.889 54.078C280.611 54.0953 280.369 54.1127 280.161 54.13C280.126 53.9567 280.109 53.818 280.109 53.714C280.109 53.4367 280.195 53.298 280.369 53.298C281.062 53.1593 281.53 53.0207 281.773 52.882C282.033 52.7433 282.163 52.5093 282.163 52.18C282.163 52.128 282.145 51.8073 282.111 51.218C282.093 50.6287 282.059 49.9093 282.007 49.06C281.972 48.2107 281.929 47.292 281.877 46.304C281.842 45.316 281.799 44.3887 281.747 43.522C281.712 42.638 281.677 41.884 281.643 41.26C281.608 40.6187 281.591 40.2287 281.591 40.09L275.897 53.844C275.827 54 275.758 54.1127 275.689 54.182C275.637 54.2687 275.559 54.312 275.455 54.312C275.333 54.312 275.255 54.3033 275.221 54.286L268.851 39.674C268.833 39.8473 268.807 40.272 268.773 40.948C268.755 41.6067 268.721 42.3953 268.669 43.314C268.634 44.2327 268.591 45.2033 268.539 46.226C268.487 47.2487 268.435 48.1933 268.383 49.06C268.348 49.9267 268.313 50.6547 268.279 51.244C268.261 51.8333 268.253 52.1453 268.253 52.18C268.253 52.7173 268.842 53.09 270.021 53.298C270.194 53.3153 270.281 53.454 270.281 53.714C270.281 53.818 270.263 53.9567 270.229 54.13C269.761 54.0953 269.301 54.0607 268.851 54.026C268.4 54.0087 268.001 54 267.655 54C267.377 54 267.005 54.0087 266.537 54.026C266.069 54.0607 265.627 54.0953 265.211 54.13C265.176 53.9567 265.159 53.818 265.159 53.714C265.159 53.4713 265.245 53.3327 265.419 53.298C265.887 53.2113 266.259 53.09 266.537 52.934C266.831 52.7607 266.996 52.5093 267.031 52.18C267.031 52.024 267.048 51.5907 267.083 50.88C267.117 50.152 267.152 49.294 267.187 48.306C267.239 47.318 267.291 46.2693 267.343 45.16C267.395 44.0507 267.438 43.028 267.473 42.092C267.525 41.1387 267.559 40.3587 267.577 39.752C267.611 39.128 267.629 38.8073 267.629 38.79C267.629 38.5127 267.516 38.3133 267.291 38.192C267.083 38.0533 266.675 37.932 266.069 37.828C265.895 37.8107 265.809 37.6633 265.809 37.386C265.809 37.282 265.826 37.1433 265.861 36.97C266.086 36.9873 266.337 37.0047 266.615 37.022C266.909 37.0393 267.195 37.0567 267.473 37.074C267.767 37.074 268.045 37.0827 268.305 37.1C268.565 37.1 268.773 37.1 268.929 37.1C269.241 37.1 269.483 37.1173 269.657 37.152C269.83 37.1693 269.969 37.1953 270.073 37.23C270.177 37.2647 270.246 37.3167 270.281 37.386C270.333 37.4553 270.376 37.5247 270.411 37.594L275.975 50.568L281.253 37.594Z" fill="white"/>
</svg>
