<svg width="260" height="55" viewBox="0 0 260 55" fill="none" xmlns="http://www.w3.org/2000/svg">
<path d="M11.0801 11.812H5.28206L3.61806 15.998C3.53139 16.206 3.48806 16.3793 3.48806 16.518C3.48806 16.882 4.01672 17.142 5.07406 17.298C5.19539 17.3153 5.27339 17.3673 5.30806 17.454C5.36006 17.5233 5.38606 17.61 5.38606 17.714C5.38606 17.818 5.36872 17.9567 5.33406 18.13C4.86606 18.0953 4.37206 18.0607 3.85206 18.026C3.33206 18.0087 2.82072 18 2.31806 18C1.97139 18 1.61606 18.0087 1.25206 18.026C0.888056 18.0433 0.506723 18.078 0.108056 18.13C0.0733892 17.9913 0.0560559 17.8527 0.0560559 17.714C0.0560559 17.5927 0.0733892 17.4887 0.108056 17.402C0.160056 17.3153 0.255389 17.2633 0.394056 17.246C0.931389 17.1593 1.33006 17.0553 1.59006 16.934C1.86739 16.7953 2.06672 16.5873 2.18806 16.31L8.45406 1.23C8.57539 0.935332 8.74006 0.787998 8.94806 0.787998C9.01739 0.787998 9.12139 0.805332 9.26006 0.839999L15.5521 16.388C15.6561 16.6307 15.8901 16.8213 16.2541 16.96C16.6181 17.0987 16.9734 17.194 17.3201 17.246C17.4241 17.2807 17.5021 17.3327 17.5541 17.402C17.6234 17.454 17.6581 17.558 17.6581 17.714C17.6581 17.818 17.6407 17.9567 17.6061 18.13C17.0514 18.0953 16.5054 18.0607 15.9681 18.026C15.4307 18.0087 14.9281 18 14.4601 18C13.9747 18 13.4201 18.0087 12.7961 18.026C12.1721 18.0607 11.6087 18.0953 11.1061 18.13C11.0714 17.9567 11.0541 17.818 11.0541 17.714C11.0541 17.558 11.0801 17.454 11.1321 17.402C11.2014 17.3327 11.2621 17.298 11.3141 17.298C11.7647 17.2113 12.1287 17.116 12.4061 17.012C12.6834 16.8907 12.8221 16.7173 12.8221 16.492C12.8221 16.388 12.7874 16.258 12.7181 16.102L11.0801 11.812ZM10.6641 10.746L8.24606 4.376L5.72406 10.746H10.6641ZM29.5007 16.128C29.5007 16.4227 29.6307 16.6307 29.8907 16.752C30.1507 16.8733 30.506 16.934 30.9567 16.934H33.7907C34.2933 16.934 34.7267 16.8733 35.0907 16.752C35.4547 16.6133 35.7667 16.4227 36.0267 16.18C36.2867 15.9373 36.512 15.6427 36.7027 15.296C36.9107 14.932 37.0927 14.5247 37.2487 14.074C37.3007 13.9353 37.4047 13.866 37.5607 13.866C37.6473 13.866 37.734 13.892 37.8207 13.944C37.9247 13.9787 38.0287 14.022 38.1327 14.074C38.0113 14.594 37.89 15.1487 37.7687 15.738C37.6647 16.31 37.5693 16.96 37.4827 17.688C37.4653 17.8787 37.4133 18 37.3267 18.052C37.24 18.104 37.136 18.13 37.0147 18.13C36.72 18.13 36.3473 18.104 35.8967 18.052C35.4633 18.0173 35.082 18 34.7527 18H28.2527C27.854 18 27.3513 18.0087 26.7447 18.026C26.138 18.0607 25.5573 18.0953 25.0027 18.13C24.968 17.9567 24.9507 17.818 24.9507 17.714C24.9507 17.4713 25.0373 17.3327 25.2107 17.298C25.9213 17.1767 26.4067 17.0467 26.6667 16.908C26.9267 16.752 27.0567 16.518 27.0567 16.206V2.946C27.0567 2.59933 26.9353 2.35667 26.6927 2.218C26.45 2.062 25.982 1.932 25.2887 1.828C25.202 1.81067 25.1327 1.76733 25.0807 1.698C25.046 1.61133 25.0287 1.516 25.0287 1.412C25.0287 1.29067 25.046 1.14333 25.0807 0.969999C25.67 1.00467 26.2507 1.03933 26.8227 1.074C27.3947 1.09133 27.88 1.1 28.2787 1.1C28.868 1.1 29.492 1.09133 30.1507 1.074C30.8093 1.03933 31.3987 1.00467 31.9187 0.969999C31.9533 1.14333 31.9707 1.282 31.9707 1.386C31.9707 1.68067 31.8753 1.83667 31.6847 1.854C30.9393 1.94067 30.3847 2.07067 30.0207 2.244C29.674 2.4 29.5007 2.69467 29.5007 3.128V16.128ZM39.4288 9.55C39.4288 8.354 39.6455 7.22733 40.0788 6.17C40.5121 5.11267 41.1015 4.18533 41.8468 3.388C42.5921 2.59067 43.4588 1.958 44.4468 1.49C45.4348 1.022 46.4748 0.787998 47.5668 0.787998C49.0748 0.787998 50.3921 1.03067 51.5188 1.516C52.6455 1.984 53.5728 2.62533 54.3008 3.44C55.0461 4.23733 55.6008 5.16467 55.9648 6.222C56.3288 7.27933 56.5108 8.38867 56.5108 9.55C56.5108 10.9193 56.2855 12.15 55.8348 13.242C55.3841 14.3167 54.7601 15.2353 53.9628 15.998C53.1828 16.7433 52.2555 17.3153 51.1808 17.714C50.1235 18.1127 48.9881 18.312 47.7748 18.312C46.5441 18.312 45.4175 18.104 44.3948 17.688C43.3721 17.272 42.4881 16.6827 41.7428 15.92C41.0148 15.14 40.4428 14.2127 40.0268 13.138C39.6281 12.0633 39.4288 10.8673 39.4288 9.55ZM48.3728 17.064C49.1875 17.064 49.9328 16.908 50.6088 16.596C51.2848 16.284 51.8655 15.8507 52.3508 15.296C52.8361 14.7413 53.2088 14.0827 53.4688 13.32C53.7461 12.5573 53.8848 11.7253 53.8848 10.824C53.8848 9.576 53.7548 8.42333 53.4948 7.366C53.2348 6.29133 52.8361 5.364 52.2988 4.584C51.7788 3.78667 51.1115 3.16267 50.2968 2.712C49.4995 2.26133 48.5635 2.036 47.4888 2.036C46.7781 2.036 46.0935 2.17467 45.4348 2.452C44.7935 2.712 44.2215 3.102 43.7188 3.622C43.2335 4.12467 42.8435 4.74867 42.5488 5.494C42.2541 6.23933 42.1068 7.09733 42.1068 8.068C42.1068 9.35067 42.2455 10.5467 42.5228 11.656C42.8001 12.748 43.1988 13.7013 43.7188 14.516C44.2561 15.3133 44.9148 15.9373 45.6948 16.388C46.4748 16.8387 47.3675 17.064 48.3728 17.064ZM65.6634 10.408H63.7394V16.128C63.7394 16.5093 63.9127 16.7693 64.2594 16.908C64.6234 17.0467 65.1694 17.1593 65.8974 17.246C66.1054 17.2807 66.2094 17.428 66.2094 17.688C66.2094 17.8093 66.1921 17.9567 66.1574 18.13C65.6894 18.0953 65.1174 18.0607 64.4414 18.026C63.7827 18.0087 63.1327 18 62.4914 18C62.0407 18 61.5207 18.0087 60.9314 18.026C60.3421 18.0607 59.7874 18.0953 59.2674 18.13C59.2327 17.9567 59.2154 17.818 59.2154 17.714C59.2154 17.4713 59.3107 17.3327 59.5014 17.298C60.1601 17.194 60.6194 17.0727 60.8794 16.934C61.1567 16.778 61.2954 16.5267 61.2954 16.18V2.946C61.2954 2.61667 61.1654 2.374 60.9054 2.218C60.6627 2.04467 60.1774 1.91467 59.4494 1.828C59.2761 1.81067 59.1894 1.66333 59.1894 1.386C59.1894 1.282 59.2067 1.14333 59.2414 0.969999C59.7614 1.00467 60.2987 1.03933 60.8534 1.074C61.4081 1.09133 61.9367 1.1 62.4394 1.1H65.9494C67.8214 1.1 69.2341 1.516 70.1874 2.348C71.1407 3.16267 71.6174 4.272 71.6174 5.676C71.6174 6.05733 71.5481 6.456 71.4094 6.872C71.2881 7.288 71.0887 7.69533 70.8114 8.094C70.5514 8.49267 70.2047 8.86533 69.7714 9.212C69.3554 9.54133 68.8614 9.81 68.2894 10.018L72.6314 16.05C72.9607 16.5007 73.3247 16.8127 73.7234 16.986C74.1221 17.1593 74.4947 17.2893 74.8414 17.376C74.9974 17.4107 75.0754 17.532 75.0754 17.74C75.0754 17.8787 75.0581 18.0347 75.0234 18.208C74.6247 18.1733 74.1394 18.1387 73.5674 18.104C72.9954 18.0867 72.4667 18.078 71.9814 18.078C71.6174 18.078 71.2447 17.922 70.8634 17.61C70.4994 17.298 70.1527 16.8993 69.8234 16.414L65.6634 10.408ZM65.1174 9.342C66.3307 9.342 67.2667 9.09067 67.9254 8.588C68.5841 8.068 68.9134 7.16667 68.9134 5.884C68.9134 5.34667 68.8441 4.85267 68.7054 4.402C68.5667 3.95133 68.3414 3.56133 68.0294 3.232C67.7347 2.90267 67.3361 2.64267 66.8334 2.452C66.3481 2.26133 65.7501 2.166 65.0394 2.166H63.7394V9.342H65.1174ZM80.8842 2.166V8.822H84.9402C85.2868 8.822 85.5295 8.65733 85.6682 8.328C85.8242 7.98133 85.9455 7.56533 86.0322 7.08C86.0842 6.85467 86.2402 6.742 86.5002 6.742C86.5522 6.742 86.6215 6.75067 86.7082 6.768C86.7948 6.78533 86.8642 6.80267 86.9162 6.82C86.8815 7.20133 86.8468 7.63467 86.8122 8.12C86.7948 8.60533 86.7862 9.03 86.7862 9.394C86.7862 9.68867 86.7948 10.0527 86.8122 10.486C86.8295 10.902 86.8642 11.3787 86.9162 11.916C86.7775 11.9507 86.6475 11.968 86.5262 11.968C86.2488 11.968 86.0842 11.8553 86.0322 11.63C85.9455 11.1447 85.8242 10.7373 85.6682 10.408C85.5295 10.0613 85.2868 9.888 84.9402 9.888H80.8842V16.024C80.8842 16.388 81.1182 16.6307 81.5862 16.752C82.0542 16.8733 82.8255 16.934 83.9002 16.934H85.3302C85.8328 16.934 86.2662 16.8647 86.6302 16.726C87.0115 16.57 87.3408 16.3707 87.6182 16.128C87.9128 15.868 88.1728 15.5647 88.3982 15.218C88.6235 14.8713 88.8402 14.49 89.0482 14.074C89.1002 13.9527 89.2302 13.892 89.4382 13.892C89.5248 13.892 89.6115 13.918 89.6982 13.97C89.8022 14.022 89.8975 14.074 89.9842 14.126C89.8282 14.4553 89.6895 14.854 89.5682 15.322C89.4642 15.7727 89.3602 16.206 89.2562 16.622C89.1522 17.038 89.0395 17.3933 88.9182 17.688C88.8142 17.9827 88.6755 18.13 88.5022 18.13C88.3635 18.13 88.1642 18.1213 87.9042 18.104C87.6442 18.0867 87.3582 18.0693 87.0462 18.052C86.7515 18.052 86.4482 18.0433 86.1362 18.026C85.8242 18.0087 85.5555 18 85.3302 18H79.6362C79.1335 18 78.5962 18.0087 78.0242 18.026C77.4522 18.0607 76.9062 18.0953 76.3862 18.13C76.3515 17.9567 76.3342 17.818 76.3342 17.714C76.3342 17.4713 76.4208 17.3327 76.5942 17.298C77.2528 17.1767 77.7208 17.0467 77.9982 16.908C78.2928 16.7693 78.4402 16.5267 78.4402 16.18V2.946C78.4402 2.59933 78.3102 2.36533 78.0502 2.244C77.8075 2.10533 77.3222 1.96667 76.5942 1.828C76.4208 1.79333 76.3342 1.646 76.3342 1.386C76.3342 1.29933 76.3342 1.23 76.3342 1.178C76.3515 1.10867 76.3688 1.03933 76.3862 0.969999C77.1315 1.022 77.7555 1.05667 78.2582 1.074C78.7608 1.09133 79.2115 1.1 79.6102 1.1H84.7322C85.5122 1.1 86.1882 1.074 86.7602 1.022C87.3322 0.969999 87.7135 0.944 87.9042 0.944C88.1295 0.944 88.2768 1.09133 88.3462 1.386C88.4328 1.66333 88.5022 2.00133 88.5542 2.4C88.6062 2.79867 88.6668 3.22333 88.7362 3.674C88.8055 4.12467 88.9355 4.506 89.1262 4.818C88.9875 4.922 88.8315 4.974 88.6582 4.974C88.4328 4.974 88.2855 4.896 88.2162 4.74C88.0082 4.28933 87.8088 3.908 87.6182 3.596C87.4275 3.26667 87.2022 2.998 86.9422 2.79C86.6995 2.582 86.3962 2.426 86.0322 2.322C85.6855 2.218 85.2522 2.166 84.7322 2.166H80.8842ZM108.326 1.594C108.361 1.52467 108.396 1.45533 108.43 1.386C108.482 1.31667 108.56 1.26467 108.664 1.23C108.768 1.19533 108.907 1.16933 109.08 1.152C109.254 1.11733 109.496 1.1 109.808 1.1C109.947 1.1 110.129 1.1 110.354 1.1C110.58 1.08267 110.822 1.074 111.082 1.074C111.342 1.05667 111.602 1.03933 111.862 1.022C112.14 1.00467 112.391 0.987332 112.616 0.969999C112.651 1.14333 112.668 1.282 112.668 1.386C112.668 1.66333 112.582 1.81067 112.408 1.828C111.784 1.91467 111.368 2.036 111.16 2.192C110.952 2.33067 110.848 2.52133 110.848 2.764C110.848 2.78133 110.857 3.01533 110.874 3.466C110.909 3.89933 110.952 4.636 111.004 5.676C111.056 6.69867 111.117 8.068 111.186 9.784C111.273 11.5 111.368 13.632 111.472 16.18C111.49 16.5093 111.602 16.752 111.81 16.908C112.018 17.064 112.443 17.194 113.084 17.298C113.171 17.3153 113.232 17.3673 113.266 17.454C113.318 17.5233 113.344 17.61 113.344 17.714C113.344 17.818 113.327 17.9567 113.292 18.13C112.686 18.0953 112.131 18.0607 111.628 18.026C111.143 18.0087 110.692 18 110.276 18C110.103 18 109.886 18 109.626 18C109.366 18.0173 109.089 18.026 108.794 18.026C108.517 18.0433 108.24 18.0607 107.962 18.078C107.685 18.0953 107.442 18.1127 107.234 18.13C107.2 17.9567 107.182 17.818 107.182 17.714C107.182 17.4367 107.269 17.298 107.442 17.298C108.136 17.1593 108.604 17.0207 108.846 16.882C109.106 16.7433 109.236 16.5093 109.236 16.18C109.236 16.128 109.219 15.8073 109.184 15.218C109.167 14.6287 109.132 13.9093 109.08 13.06C109.046 12.2107 109.002 11.292 108.95 10.304C108.916 9.316 108.872 8.38867 108.82 7.522C108.786 6.638 108.751 5.884 108.716 5.26C108.682 4.61867 108.664 4.22867 108.664 4.09L102.97 17.844C102.901 18 102.832 18.1127 102.762 18.182C102.71 18.2687 102.632 18.312 102.528 18.312C102.407 18.312 102.329 18.3033 102.294 18.286L95.9244 3.674C95.907 3.84733 95.881 4.272 95.8464 4.948C95.829 5.60667 95.7944 6.39533 95.7424 7.314C95.7077 8.23267 95.6644 9.20333 95.6124 10.226C95.5604 11.2487 95.5084 12.1933 95.4564 13.06C95.4217 13.9267 95.387 14.6547 95.3524 15.244C95.335 15.8333 95.3264 16.1453 95.3264 16.18C95.3264 16.7173 95.9157 17.09 97.0944 17.298C97.2677 17.3153 97.3544 17.454 97.3544 17.714C97.3544 17.818 97.337 17.9567 97.3024 18.13C96.8344 18.0953 96.375 18.0607 95.9244 18.026C95.4737 18.0087 95.075 18 94.7284 18C94.451 18 94.0784 18.0087 93.6104 18.026C93.1424 18.0607 92.7004 18.0953 92.2844 18.13C92.2497 17.9567 92.2324 17.818 92.2324 17.714C92.2324 17.4713 92.319 17.3327 92.4924 17.298C92.9604 17.2113 93.333 17.09 93.6104 16.934C93.905 16.7607 94.0697 16.5093 94.1044 16.18C94.1044 16.024 94.1217 15.5907 94.1564 14.88C94.191 14.152 94.2257 13.294 94.2604 12.306C94.3124 11.318 94.3644 10.2693 94.4164 9.16C94.4684 8.05067 94.5117 7.028 94.5464 6.092C94.5984 5.13867 94.633 4.35867 94.6504 3.752C94.685 3.128 94.7024 2.80733 94.7024 2.79C94.7024 2.51267 94.5897 2.31333 94.3644 2.192C94.1564 2.05333 93.749 1.932 93.1424 1.828C92.969 1.81067 92.8824 1.66333 92.8824 1.386C92.8824 1.282 92.8997 1.14333 92.9344 0.969999C93.1597 0.987332 93.411 1.00467 93.6884 1.022C93.983 1.03933 94.269 1.05667 94.5464 1.074C94.841 1.074 95.1184 1.08267 95.3784 1.1C95.6384 1.1 95.8464 1.1 96.0024 1.1C96.3144 1.1 96.557 1.11733 96.7304 1.152C96.9037 1.16933 97.0424 1.19533 97.1464 1.23C97.2504 1.26467 97.3197 1.31667 97.3544 1.386C97.4064 1.45533 97.4497 1.52467 97.4844 1.594L103.048 14.568L108.326 1.594ZM126.145 16.18C126.145 16.5267 126.267 16.7693 126.509 16.908C126.752 17.0293 127.203 17.1593 127.861 17.298C128.035 17.3327 128.121 17.4713 128.121 17.714C128.121 17.818 128.104 17.9567 128.069 18.13C127.532 18.0953 126.995 18.0607 126.457 18.026C125.92 18.0087 125.409 18 124.923 18C124.455 18 123.935 18.0087 123.363 18.026C122.809 18.0607 122.28 18.0953 121.777 18.13C121.743 17.9567 121.725 17.818 121.725 17.714C121.725 17.4713 121.812 17.3327 121.985 17.298C122.644 17.1767 123.095 17.0467 123.337 16.908C123.58 16.7693 123.701 16.5267 123.701 16.18V2.946C123.701 2.59933 123.58 2.35667 123.337 2.218C123.095 2.062 122.644 1.932 121.985 1.828C121.881 1.81067 121.812 1.75867 121.777 1.672C121.743 1.58533 121.725 1.49 121.725 1.386C121.725 1.282 121.743 1.14333 121.777 0.969999C122.297 1.00467 122.835 1.03933 123.389 1.074C123.961 1.09133 124.473 1.1 124.923 1.1C125.357 1.1 125.851 1.09133 126.405 1.074C126.977 1.03933 127.532 1.00467 128.069 0.969999C128.104 1.14333 128.121 1.282 128.121 1.386C128.121 1.646 128.035 1.79333 127.861 1.828C127.203 1.932 126.752 2.062 126.509 2.218C126.267 2.35667 126.145 2.59933 126.145 2.946V16.18ZM135.346 10.668V15.998C135.346 16.3967 135.537 16.6827 135.918 16.856C136.299 17.012 136.871 17.142 137.634 17.246C137.842 17.2807 137.946 17.428 137.946 17.688C137.946 17.8093 137.929 17.9567 137.894 18.13C137.391 18.0953 136.819 18.0607 136.178 18.026C135.537 18.0087 134.843 18 134.098 18C133.647 18 133.136 18.0087 132.564 18.026C131.992 18.0607 131.455 18.0953 130.952 18.13C130.917 17.9567 130.9 17.818 130.9 17.714C130.9 17.4713 130.987 17.3327 131.16 17.298C131.853 17.1593 132.313 17.0293 132.538 16.908C132.781 16.7693 132.902 16.5267 132.902 16.18V2.946C132.902 2.59933 132.763 2.348 132.486 2.192C132.226 2.036 131.749 1.91467 131.056 1.828C130.883 1.79333 130.796 1.63733 130.796 1.36C130.796 1.23867 130.813 1.10867 130.848 0.969999C131.333 1.00467 131.845 1.03933 132.382 1.074C132.937 1.09133 133.457 1.1 133.942 1.1H137.608C139.48 1.1 140.884 1.542 141.82 2.426C142.756 3.31 143.224 4.454 143.224 5.858C143.224 6.41267 143.094 6.976 142.834 7.548C142.591 8.12 142.227 8.64 141.742 9.108C141.274 9.55867 140.685 9.93133 139.974 10.226C139.281 10.5207 138.492 10.668 137.608 10.668H135.346ZM136.724 9.602C137.937 9.602 138.873 9.33333 139.532 8.796C140.191 8.25867 140.52 7.34867 140.52 6.066C140.52 5.52867 140.459 5.026 140.338 4.558C140.217 4.09 140.009 3.68267 139.714 3.336C139.419 2.972 139.029 2.686 138.544 2.478C138.059 2.27 137.452 2.166 136.724 2.166H135.346V9.602H136.724ZM156.656 5.182C156.483 5.21667 156.353 5.234 156.266 5.234C156.041 5.234 155.876 5.19067 155.772 5.104C155.668 5.01733 155.59 4.922 155.538 4.818C155.087 3.83 154.55 3.11067 153.926 2.66C153.302 2.20933 152.453 1.984 151.378 1.984C150.962 1.984 150.563 2.04467 150.182 2.166C149.818 2.27 149.497 2.43467 149.22 2.66C148.943 2.868 148.717 3.128 148.544 3.44C148.388 3.752 148.31 4.09867 148.31 4.48C148.31 5.29467 148.648 5.962 149.324 6.482C150.017 7.002 151.031 7.53067 152.366 8.068C154.03 8.72667 155.252 9.46333 156.032 10.278C156.829 11.0753 157.228 12.0633 157.228 13.242C157.228 13.9527 157.115 14.62 156.89 15.244C156.682 15.8507 156.344 16.388 155.876 16.856C155.425 17.3067 154.836 17.662 154.108 17.922C153.38 18.182 152.505 18.312 151.482 18.312C150.407 18.312 149.428 18.1993 148.544 17.974C147.677 17.7487 146.941 17.454 146.334 17.09C146.282 16.362 146.204 15.66 146.1 14.984C145.996 14.308 145.875 13.632 145.736 12.956C145.857 12.904 146.005 12.878 146.178 12.878C146.386 12.878 146.542 12.93 146.646 13.034C146.767 13.1207 146.871 13.268 146.958 13.476C147.391 14.724 147.946 15.6427 148.622 16.232C149.315 16.8213 150.277 17.116 151.508 17.116C152.063 17.116 152.548 17.038 152.964 16.882C153.38 16.726 153.727 16.5093 154.004 16.232C154.281 15.9547 154.489 15.6427 154.628 15.296C154.767 14.9493 154.836 14.5767 154.836 14.178C154.836 13.2767 154.524 12.566 153.9 12.046C153.293 11.526 152.418 11.058 151.274 10.642C150.529 10.3647 149.853 10.0787 149.246 9.784C148.639 9.472 148.119 9.11667 147.686 8.718C147.253 8.31933 146.915 7.86 146.672 7.34C146.447 6.80267 146.334 6.17 146.334 5.442C146.334 4.80067 146.447 4.20267 146.672 3.648C146.915 3.076 147.253 2.582 147.686 2.166C148.137 1.75 148.674 1.42067 149.298 1.178C149.922 0.935333 150.624 0.814 151.404 0.814C152.219 0.814 152.999 0.892 153.744 1.048C154.489 1.204 155.33 1.464 156.266 1.828C156.301 2.348 156.344 2.91133 156.396 3.518C156.465 4.10733 156.552 4.662 156.656 5.182ZM175.838 11.682C175.838 12.67 175.725 13.5713 175.5 14.386C175.274 15.1833 174.893 15.8767 174.356 16.466C173.836 17.0553 173.142 17.5147 172.276 17.844C171.409 18.156 170.326 18.312 169.026 18.312C167.535 18.312 166.33 18.13 165.412 17.766C164.493 17.3847 163.782 16.8907 163.28 16.284C162.794 15.6773 162.465 14.984 162.292 14.204C162.136 13.4067 162.058 12.6007 162.058 11.786V2.946C162.058 2.59933 161.936 2.348 161.694 2.192C161.451 2.036 160.992 1.91467 160.316 1.828C160.142 1.81067 160.056 1.66333 160.056 1.386C160.056 1.282 160.073 1.14333 160.108 0.969999C160.628 1.00467 161.156 1.03933 161.694 1.074C162.248 1.09133 162.777 1.1 163.28 1.1C163.73 1.1 164.259 1.09133 164.866 1.074C165.472 1.03933 166.036 1.00467 166.556 0.969999C166.59 1.14333 166.608 1.282 166.608 1.386C166.608 1.66333 166.521 1.81067 166.348 1.828C165.689 1.91467 165.212 2.036 164.918 2.192C164.64 2.348 164.502 2.59933 164.502 2.946V11.214C164.502 13.0167 164.857 14.4033 165.568 15.374C166.296 16.3273 167.518 16.804 169.234 16.804C170.204 16.804 171.028 16.7 171.704 16.492C172.38 16.2667 172.934 15.9287 173.368 15.478C173.801 15.0273 174.113 14.4467 174.304 13.736C174.494 13.008 174.59 12.1413 174.59 11.136V2.946C174.59 2.59933 174.46 2.348 174.2 2.192C173.94 2.036 173.472 1.91467 172.796 1.828C172.605 1.81067 172.51 1.66333 172.51 1.386C172.51 1.282 172.527 1.14333 172.562 0.969999C173.064 1.00467 173.55 1.03933 174.018 1.074C174.503 1.09133 174.919 1.1 175.266 1.1C175.682 1.1 176.098 1.09133 176.514 1.074C176.947 1.03933 177.372 1.00467 177.788 0.969999C177.822 1.14333 177.84 1.282 177.84 1.386C177.84 1.47267 177.814 1.568 177.762 1.672C177.71 1.75867 177.64 1.81067 177.554 1.828C176.912 1.89733 176.462 2.01867 176.202 2.192C175.959 2.348 175.838 2.59933 175.838 2.946V11.682ZM196.189 1.594C196.224 1.52467 196.258 1.45533 196.293 1.386C196.345 1.31667 196.423 1.26467 196.527 1.23C196.631 1.19533 196.77 1.16933 196.943 1.152C197.116 1.11733 197.359 1.1 197.671 1.1C197.81 1.1 197.992 1.1 198.217 1.1C198.442 1.08267 198.685 1.074 198.945 1.074C199.205 1.05667 199.465 1.03933 199.725 1.022C200.002 1.00467 200.254 0.987332 200.479 0.969999C200.514 1.14333 200.531 1.282 200.531 1.386C200.531 1.66333 200.444 1.81067 200.271 1.828C199.647 1.91467 199.231 2.036 199.023 2.192C198.815 2.33067 198.711 2.52133 198.711 2.764C198.711 2.78133 198.72 3.01533 198.737 3.466C198.772 3.89933 198.815 4.636 198.867 5.676C198.919 6.69867 198.98 8.068 199.049 9.784C199.136 11.5 199.231 13.632 199.335 16.18C199.352 16.5093 199.465 16.752 199.673 16.908C199.881 17.064 200.306 17.194 200.947 17.298C201.034 17.3153 201.094 17.3673 201.129 17.454C201.181 17.5233 201.207 17.61 201.207 17.714C201.207 17.818 201.19 17.9567 201.155 18.13C200.548 18.0953 199.994 18.0607 199.491 18.026C199.006 18.0087 198.555 18 198.139 18C197.966 18 197.749 18 197.489 18C197.229 18.0173 196.952 18.026 196.657 18.026C196.38 18.0433 196.102 18.0607 195.825 18.078C195.548 18.0953 195.305 18.1127 195.097 18.13C195.062 17.9567 195.045 17.818 195.045 17.714C195.045 17.4367 195.132 17.298 195.305 17.298C195.998 17.1593 196.466 17.0207 196.709 16.882C196.969 16.7433 197.099 16.5093 197.099 16.18C197.099 16.128 197.082 15.8073 197.047 15.218C197.03 14.6287 196.995 13.9093 196.943 13.06C196.908 12.2107 196.865 11.292 196.813 10.304C196.778 9.316 196.735 8.38867 196.683 7.522C196.648 6.638 196.614 5.884 196.579 5.26C196.544 4.61867 196.527 4.22867 196.527 4.09L190.833 17.844C190.764 18 190.694 18.1127 190.625 18.182C190.573 18.2687 190.495 18.312 190.391 18.312C190.27 18.312 190.192 18.3033 190.157 18.286L183.787 3.674C183.77 3.84733 183.744 4.272 183.709 4.948C183.692 5.60667 183.657 6.39533 183.605 7.314C183.57 8.23267 183.527 9.20333 183.475 10.226C183.423 11.2487 183.371 12.1933 183.319 13.06C183.284 13.9267 183.25 14.6547 183.215 15.244C183.198 15.8333 183.189 16.1453 183.189 16.18C183.189 16.7173 183.778 17.09 184.957 17.298C185.13 17.3153 185.217 17.454 185.217 17.714C185.217 17.818 185.2 17.9567 185.165 18.13C184.697 18.0953 184.238 18.0607 183.787 18.026C183.336 18.0087 182.938 18 182.591 18C182.314 18 181.941 18.0087 181.473 18.026C181.005 18.0607 180.563 18.0953 180.147 18.13C180.112 17.9567 180.095 17.818 180.095 17.714C180.095 17.4713 180.182 17.3327 180.355 17.298C180.823 17.2113 181.196 17.09 181.473 16.934C181.768 16.7607 181.932 16.5093 181.967 16.18C181.967 16.024 181.984 15.5907 182.019 14.88C182.054 14.152 182.088 13.294 182.123 12.306C182.175 11.318 182.227 10.2693 182.279 9.16C182.331 8.05067 182.374 7.028 182.409 6.092C182.461 5.13867 182.496 4.35867 182.513 3.752C182.548 3.128 182.565 2.80733 182.565 2.79C182.565 2.51267 182.452 2.31333 182.227 2.192C182.019 2.05333 181.612 1.932 181.005 1.828C180.832 1.81067 180.745 1.66333 180.745 1.386C180.745 1.282 180.762 1.14333 180.797 0.969999C181.022 0.987332 181.274 1.00467 181.551 1.022C181.846 1.03933 182.132 1.05667 182.409 1.074C182.704 1.074 182.981 1.08267 183.241 1.1C183.501 1.1 183.709 1.1 183.865 1.1C184.177 1.1 184.42 1.11733 184.593 1.152C184.766 1.16933 184.905 1.19533 185.009 1.23C185.113 1.26467 185.182 1.31667 185.217 1.386C185.269 1.45533 185.312 1.52467 185.347 1.594L190.911 14.568L196.189 1.594ZM60.4924 39.726C60.1631 39.726 59.9031 39.6307 59.7124 39.44C59.5218 39.232 59.4264 38.9633 59.4264 38.634C59.4264 38.166 59.5824 37.75 59.8944 37.386C60.2238 37.0047 60.6138 36.814 61.0644 36.814C61.4111 36.814 61.6538 36.9267 61.7924 37.152C61.9484 37.3773 62.0264 37.6633 62.0264 38.01C62.0264 38.4433 61.8791 38.842 61.5844 39.206C61.2898 39.5527 60.9258 39.726 60.4924 39.726ZM59.1664 51.868C59.1491 51.9373 59.1318 52.0327 59.1144 52.154C59.0971 52.258 59.0884 52.336 59.0884 52.388C59.0884 52.596 59.1924 52.7 59.4004 52.7C59.5218 52.7 59.6431 52.674 59.7644 52.622C59.9031 52.5527 60.0331 52.4833 60.1544 52.414C60.2931 52.3273 60.4144 52.258 60.5184 52.206C60.6224 52.1367 60.7091 52.102 60.7784 52.102C60.9518 52.102 61.0731 52.2753 61.1424 52.622C60.8478 52.8473 60.5271 53.064 60.1804 53.272C59.8511 53.4627 59.5304 53.636 59.2184 53.792C58.9064 53.948 58.6118 54.0693 58.3344 54.156C58.0571 54.26 57.8318 54.312 57.6584 54.312C57.4678 54.312 57.2858 54.2687 57.1124 54.182C56.9391 54.1127 56.8524 53.9307 56.8524 53.636C56.8524 53.584 56.8611 53.4973 56.8784 53.376C56.8958 53.2373 56.9131 53.142 56.9304 53.09C57.3118 51.2353 57.6151 49.762 57.8404 48.67C58.0658 47.5607 58.2304 46.72 58.3344 46.148C58.4558 45.5587 58.5338 45.1687 58.5684 44.978C58.6031 44.7873 58.6204 44.6747 58.6204 44.64C58.6204 44.432 58.5424 44.328 58.3864 44.328C58.3171 44.328 58.2131 44.3627 58.0744 44.432C57.9358 44.484 57.7884 44.5447 57.6324 44.614C57.4764 44.666 57.3291 44.7267 57.1904 44.796C57.0691 44.848 56.9738 44.874 56.9044 44.874C56.8004 44.874 56.7224 44.822 56.6704 44.718C56.6184 44.614 56.5751 44.4927 56.5404 44.354C56.8524 44.1807 57.2164 43.99 57.6324 43.782C58.0484 43.5567 58.4471 43.3487 58.8284 43.158C59.2271 42.9673 59.5738 42.8113 59.8684 42.69C60.1804 42.5687 60.3884 42.508 60.4924 42.508C60.7871 42.508 60.9344 42.6553 60.9344 42.95C60.9344 43.0713 60.9171 43.2013 60.8824 43.34L59.1664 51.868ZM71.9083 46.148C72.0123 45.68 72.0643 45.29 72.0643 44.978C72.0643 44.4753 71.8216 44.224 71.3363 44.224C71.0763 44.224 70.7556 44.3713 70.3743 44.666C69.9929 44.9433 69.5943 45.316 69.1783 45.784C68.7623 46.2347 68.3463 46.746 67.9303 47.318C67.5316 47.89 67.1763 48.4707 66.8643 49.06C66.7083 49.3547 66.5523 49.684 66.3963 50.048C66.2576 50.3947 66.1276 50.7587 66.0063 51.14C65.9023 51.504 65.8156 51.868 65.7463 52.232C65.6943 52.596 65.6683 52.934 65.6683 53.246C65.6683 53.4887 65.6943 53.7227 65.7463 53.948C65.0876 54.0173 64.4029 54.1473 63.6923 54.338C63.5536 54.2513 63.4843 54.1473 63.4843 54.026C63.4843 53.9913 63.4929 53.922 63.5103 53.818C63.5276 53.6967 63.5449 53.6013 63.5623 53.532C63.9609 51.5213 64.2729 49.9353 64.4983 48.774C64.7236 47.6127 64.8883 46.7373 64.9923 46.148C65.1136 45.5413 65.1829 45.1513 65.2003 44.978C65.2349 44.7873 65.2523 44.6747 65.2523 44.64C65.2523 44.432 65.1829 44.328 65.0443 44.328C64.9749 44.328 64.8709 44.3627 64.7323 44.432C64.5936 44.484 64.4463 44.5447 64.2903 44.614C64.1516 44.666 64.0129 44.7267 63.8743 44.796C63.7356 44.848 63.6316 44.874 63.5623 44.874C63.4756 44.874 63.3976 44.822 63.3283 44.718C63.2763 44.614 63.2329 44.4927 63.1983 44.354C63.5103 44.1633 63.8743 43.964 64.2903 43.756C64.7236 43.5307 65.1396 43.3313 65.5383 43.158C65.9369 42.9673 66.2836 42.8113 66.5783 42.69C66.8729 42.5687 67.0636 42.508 67.1503 42.508C67.2716 42.508 67.3756 42.5427 67.4623 42.612C67.5489 42.664 67.5923 42.7593 67.5923 42.898C67.5923 42.95 67.5836 43.0193 67.5663 43.106C67.5663 43.1753 67.5576 43.2533 67.5403 43.34L66.6043 47.864H66.7083C67.1589 47.1013 67.6269 46.3907 68.1123 45.732C68.5976 45.0733 69.0829 44.51 69.5683 44.042C70.0709 43.5567 70.5736 43.184 71.0763 42.924C71.5789 42.6467 72.0903 42.508 72.6103 42.508C73.0956 42.508 73.4769 42.6293 73.7543 42.872C74.0489 43.1147 74.1963 43.5133 74.1963 44.068C74.1963 44.276 74.1789 44.5187 74.1443 44.796C74.1096 45.0733 74.0663 45.3507 74.0143 45.628L72.6883 51.868C72.6363 52.1107 72.6103 52.2753 72.6103 52.362C72.6103 52.5873 72.7143 52.7 72.9223 52.7C73.0263 52.7 73.1476 52.674 73.2863 52.622C73.4249 52.5527 73.5549 52.4833 73.6763 52.414C73.8149 52.3273 73.9363 52.258 74.0403 52.206C74.1443 52.1367 74.2309 52.102 74.3003 52.102C74.4736 52.102 74.5949 52.2753 74.6643 52.622C74.3523 52.8473 74.0316 53.064 73.7023 53.272C73.3729 53.4627 73.0436 53.636 72.7143 53.792C72.4023 53.948 72.1076 54.0693 71.8303 54.156C71.5529 54.26 71.3276 54.312 71.1543 54.312C70.9636 54.312 70.7816 54.2687 70.6083 54.182C70.4523 54.1127 70.3743 53.9307 70.3743 53.636C70.3743 53.584 70.3829 53.506 70.4003 53.402C70.4176 53.2807 70.4349 53.1767 70.4523 53.09L71.9083 46.148ZM87.7599 52.128C87.7599 52.4227 87.8899 52.6307 88.1499 52.752C88.4099 52.8733 88.7653 52.934 89.2159 52.934H92.0499C92.5526 52.934 92.9859 52.8733 93.3499 52.752C93.7139 52.6133 94.0259 52.4227 94.2859 52.18C94.5459 51.9373 94.7713 51.6427 94.9619 51.296C95.1699 50.932 95.3519 50.5247 95.5079 50.074C95.5599 49.9353 95.6639 49.866 95.8199 49.866C95.9066 49.866 95.9933 49.892 96.0799 49.944C96.1839 49.9787 96.2879 50.022 96.3919 50.074C96.2706 50.594 96.1493 51.1487 96.0279 51.738C95.9239 52.31 95.8286 52.96 95.7419 53.688C95.7246 53.8787 95.6726 54 95.5859 54.052C95.4993 54.104 95.3953 54.13 95.2739 54.13C94.9793 54.13 94.6066 54.104 94.1559 54.052C93.7226 54.0173 93.3413 54 93.0119 54H86.5119C86.1133 54 85.6106 54.0087 85.0039 54.026C84.3973 54.0607 83.8166 54.0953 83.2619 54.13C83.2273 53.9567 83.2099 53.818 83.2099 53.714C83.2099 53.4713 83.2966 53.3327 83.4699 53.298C84.1806 53.1767 84.6659 53.0467 84.9259 52.908C85.1859 52.752 85.3159 52.518 85.3159 52.206V38.946C85.3159 38.5993 85.1946 38.3567 84.9519 38.218C84.7093 38.062 84.2413 37.932 83.5479 37.828C83.4613 37.8107 83.3919 37.7673 83.3399 37.698C83.3053 37.6113 83.2879 37.516 83.2879 37.412C83.2879 37.2907 83.3053 37.1433 83.3399 36.97C83.9293 37.0047 84.5099 37.0393 85.0819 37.074C85.6539 37.0913 86.1393 37.1 86.5379 37.1C87.1273 37.1 87.7513 37.0913 88.4099 37.074C89.0686 37.0393 89.6579 37.0047 90.1779 36.97C90.2126 37.1433 90.2299 37.282 90.2299 37.386C90.2299 37.6807 90.1346 37.8367 89.9439 37.854C89.1986 37.9407 88.6439 38.0707 88.2799 38.244C87.9333 38.4 87.7599 38.6947 87.7599 39.128V52.128ZM97.6881 45.55C97.6881 44.354 97.9047 43.2273 98.3381 42.17C98.7714 41.1127 99.3607 40.1853 100.106 39.388C100.851 38.5907 101.718 37.958 102.706 37.49C103.694 37.022 104.734 36.788 105.826 36.788C107.334 36.788 108.651 37.0307 109.778 37.516C110.905 37.984 111.832 38.6253 112.56 39.44C113.305 40.2373 113.86 41.1647 114.224 42.222C114.588 43.2793 114.77 44.3887 114.77 45.55C114.77 46.9193 114.545 48.15 114.094 49.242C113.643 50.3167 113.019 51.2353 112.222 51.998C111.442 52.7433 110.515 53.3153 109.44 53.714C108.383 54.1127 107.247 54.312 106.034 54.312C104.803 54.312 103.677 54.104 102.654 53.688C101.631 53.272 100.747 52.6827 100.002 51.92C99.2741 51.14 98.7021 50.2127 98.2861 49.138C97.8874 48.0633 97.6881 46.8673 97.6881 45.55ZM106.632 53.064C107.447 53.064 108.192 52.908 108.868 52.596C109.544 52.284 110.125 51.8507 110.61 51.296C111.095 50.7413 111.468 50.0827 111.728 49.32C112.005 48.5573 112.144 47.7253 112.144 46.824C112.144 45.576 112.014 44.4233 111.754 43.366C111.494 42.2913 111.095 41.364 110.558 40.584C110.038 39.7867 109.371 39.1627 108.556 38.712C107.759 38.2613 106.823 38.036 105.748 38.036C105.037 38.036 104.353 38.1747 103.694 38.452C103.053 38.712 102.481 39.102 101.978 39.622C101.493 40.1247 101.103 40.7487 100.808 41.494C100.513 42.2393 100.366 43.0973 100.366 44.068C100.366 45.3507 100.505 46.5467 100.782 47.656C101.059 48.748 101.458 49.7013 101.978 50.516C102.515 51.3133 103.174 51.9373 103.954 52.388C104.734 52.8387 105.627 53.064 106.632 53.064ZM123.923 46.408H121.999V52.128C121.999 52.5093 122.172 52.7693 122.519 52.908C122.883 53.0467 123.429 53.1593 124.157 53.246C124.365 53.2807 124.469 53.428 124.469 53.688C124.469 53.8093 124.451 53.9567 124.417 54.13C123.949 54.0953 123.377 54.0607 122.701 54.026C122.042 54.0087 121.392 54 120.751 54C120.3 54 119.78 54.0087 119.191 54.026C118.601 54.0607 118.047 54.0953 117.527 54.13C117.492 53.9567 117.475 53.818 117.475 53.714C117.475 53.4713 117.57 53.3327 117.761 53.298C118.419 53.194 118.879 53.0727 119.139 52.934C119.416 52.778 119.555 52.5267 119.555 52.18V38.946C119.555 38.6167 119.425 38.374 119.165 38.218C118.922 38.0447 118.437 37.9147 117.709 37.828C117.535 37.8107 117.449 37.6633 117.449 37.386C117.449 37.282 117.466 37.1433 117.501 36.97C118.021 37.0047 118.558 37.0393 119.113 37.074C119.667 37.0913 120.196 37.1 120.699 37.1H124.209C126.081 37.1 127.493 37.516 128.447 38.348C129.4 39.1627 129.877 40.272 129.877 41.676C129.877 42.0573 129.807 42.456 129.669 42.872C129.547 43.288 129.348 43.6953 129.071 44.094C128.811 44.4927 128.464 44.8653 128.031 45.212C127.615 45.5413 127.121 45.81 126.549 46.018L130.891 52.05C131.22 52.5007 131.584 52.8127 131.983 52.986C132.381 53.1593 132.754 53.2893 133.101 53.376C133.257 53.4107 133.335 53.532 133.335 53.74C133.335 53.8787 133.317 54.0347 133.283 54.208C132.884 54.1733 132.399 54.1387 131.827 54.104C131.255 54.0867 130.726 54.078 130.241 54.078C129.877 54.078 129.504 53.922 129.123 53.61C128.759 53.298 128.412 52.8993 128.083 52.414L123.923 46.408ZM123.377 45.342C124.59 45.342 125.526 45.0907 126.185 44.588C126.843 44.068 127.173 43.1667 127.173 41.884C127.173 41.3467 127.103 40.8527 126.965 40.402C126.826 39.9513 126.601 39.5613 126.289 39.232C125.994 38.9027 125.595 38.6427 125.093 38.452C124.607 38.2613 124.009 38.166 123.299 38.166H121.999V45.342H123.377ZM139.143 38.166V44.822H143.199C143.546 44.822 143.789 44.6573 143.927 44.328C144.083 43.9813 144.205 43.5653 144.291 43.08C144.343 42.8547 144.499 42.742 144.759 42.742C144.811 42.742 144.881 42.7507 144.967 42.768C145.054 42.7853 145.123 42.8027 145.175 42.82C145.141 43.2013 145.106 43.6347 145.071 44.12C145.054 44.6053 145.045 45.03 145.045 45.394C145.045 45.6887 145.054 46.0527 145.071 46.486C145.089 46.902 145.123 47.3787 145.175 47.916C145.037 47.9507 144.907 47.968 144.785 47.968C144.508 47.968 144.343 47.8553 144.291 47.63C144.205 47.1447 144.083 46.7373 143.927 46.408C143.789 46.0613 143.546 45.888 143.199 45.888H139.143V52.024C139.143 52.388 139.377 52.6307 139.845 52.752C140.313 52.8733 141.085 52.934 142.159 52.934H143.589C144.092 52.934 144.525 52.8647 144.889 52.726C145.271 52.57 145.6 52.3707 145.877 52.128C146.172 51.868 146.432 51.5647 146.657 51.218C146.883 50.8713 147.099 50.49 147.307 50.074C147.359 49.9527 147.489 49.892 147.697 49.892C147.784 49.892 147.871 49.918 147.957 49.97C148.061 50.022 148.157 50.074 148.243 50.126C148.087 50.4553 147.949 50.854 147.827 51.322C147.723 51.7727 147.619 52.206 147.515 52.622C147.411 53.038 147.299 53.3933 147.177 53.688C147.073 53.9827 146.935 54.13 146.761 54.13C146.623 54.13 146.423 54.1213 146.163 54.104C145.903 54.0867 145.617 54.0693 145.305 54.052C145.011 54.052 144.707 54.0433 144.395 54.026C144.083 54.0087 143.815 54 143.589 54H137.895C137.393 54 136.855 54.0087 136.283 54.026C135.711 54.0607 135.165 54.0953 134.645 54.13C134.611 53.9567 134.593 53.818 134.593 53.714C134.593 53.4713 134.68 53.3327 134.853 53.298C135.512 53.1767 135.98 53.0467 136.257 52.908C136.552 52.7693 136.699 52.5267 136.699 52.18V38.946C136.699 38.5993 136.569 38.3653 136.309 38.244C136.067 38.1053 135.581 37.9667 134.853 37.828C134.68 37.7933 134.593 37.646 134.593 37.386C134.593 37.2993 134.593 37.23 134.593 37.178C134.611 37.1087 134.628 37.0393 134.645 36.97C135.391 37.022 136.015 37.0567 136.517 37.074C137.02 37.0913 137.471 37.1 137.869 37.1H142.991C143.771 37.1 144.447 37.074 145.019 37.022C145.591 36.97 145.973 36.944 146.163 36.944C146.389 36.944 146.536 37.0913 146.605 37.386C146.692 37.6633 146.761 38.0013 146.813 38.4C146.865 38.7987 146.926 39.2233 146.995 39.674C147.065 40.1247 147.195 40.506 147.385 40.818C147.247 40.922 147.091 40.974 146.917 40.974C146.692 40.974 146.545 40.896 146.475 40.74C146.267 40.2893 146.068 39.908 145.877 39.596C145.687 39.2667 145.461 38.998 145.201 38.79C144.959 38.582 144.655 38.426 144.291 38.322C143.945 38.218 143.511 38.166 142.991 38.166H139.143ZM166.586 37.594C166.62 37.5247 166.655 37.4553 166.69 37.386C166.742 37.3167 166.82 37.2647 166.924 37.23C167.028 37.1953 167.166 37.1693 167.34 37.152C167.513 37.1173 167.756 37.1 168.068 37.1C168.206 37.1 168.388 37.1 168.614 37.1C168.839 37.0827 169.082 37.074 169.342 37.074C169.602 37.0567 169.862 37.0393 170.122 37.022C170.399 37.0047 170.65 36.9873 170.876 36.97C170.91 37.1433 170.928 37.282 170.928 37.386C170.928 37.6633 170.841 37.8107 170.668 37.828C170.044 37.9147 169.628 38.036 169.42 38.192C169.212 38.3307 169.108 38.5213 169.108 38.764C169.108 38.7813 169.116 39.0153 169.134 39.466C169.168 39.8993 169.212 40.636 169.264 41.676C169.316 42.6987 169.376 44.068 169.446 45.784C169.532 47.5 169.628 49.632 169.732 52.18C169.749 52.5093 169.862 52.752 170.07 52.908C170.278 53.064 170.702 53.194 171.344 53.298C171.43 53.3153 171.491 53.3673 171.526 53.454C171.578 53.5233 171.604 53.61 171.604 53.714C171.604 53.818 171.586 53.9567 171.552 54.13C170.945 54.0953 170.39 54.0607 169.888 54.026C169.402 54.0087 168.952 54 168.536 54C168.362 54 168.146 54 167.886 54C167.626 54.0173 167.348 54.026 167.054 54.026C166.776 54.0433 166.499 54.0607 166.222 54.078C165.944 54.0953 165.702 54.1127 165.494 54.13C165.459 53.9567 165.442 53.818 165.442 53.714C165.442 53.4367 165.528 53.298 165.702 53.298C166.395 53.1593 166.863 53.0207 167.106 52.882C167.366 52.7433 167.496 52.5093 167.496 52.18C167.496 52.128 167.478 51.8073 167.444 51.218C167.426 50.6287 167.392 49.9093 167.34 49.06C167.305 48.2107 167.262 47.292 167.21 46.304C167.175 45.316 167.132 44.3887 167.08 43.522C167.045 42.638 167.01 41.884 166.976 41.26C166.941 40.6187 166.924 40.2287 166.924 40.09L161.23 53.844C161.16 54 161.091 54.1127 161.022 54.182C160.97 54.2687 160.892 54.312 160.788 54.312C160.666 54.312 160.588 54.3033 160.554 54.286L154.184 39.674C154.166 39.8473 154.14 40.272 154.106 40.948C154.088 41.6067 154.054 42.3953 154.002 43.314C153.967 44.2327 153.924 45.2033 153.872 46.226C153.82 47.2487 153.768 48.1933 153.716 49.06C153.681 49.9267 153.646 50.6547 153.612 51.244C153.594 51.8333 153.586 52.1453 153.586 52.18C153.586 52.7173 154.175 53.09 155.354 53.298C155.527 53.3153 155.614 53.454 155.614 53.714C155.614 53.818 155.596 53.9567 155.562 54.13C155.094 54.0953 154.634 54.0607 154.184 54.026C153.733 54.0087 153.334 54 152.988 54C152.71 54 152.338 54.0087 151.87 54.026C151.402 54.0607 150.96 54.0953 150.544 54.13C150.509 53.9567 150.492 53.818 150.492 53.714C150.492 53.4713 150.578 53.3327 150.752 53.298C151.22 53.2113 151.592 53.09 151.87 52.934C152.164 52.7607 152.329 52.5093 152.364 52.18C152.364 52.024 152.381 51.5907 152.416 50.88C152.45 50.152 152.485 49.294 152.52 48.306C152.572 47.318 152.624 46.2693 152.676 45.16C152.728 44.0507 152.771 43.028 152.806 42.092C152.858 41.1387 152.892 40.3587 152.91 39.752C152.944 39.128 152.962 38.8073 152.962 38.79C152.962 38.5127 152.849 38.3133 152.624 38.192C152.416 38.0533 152.008 37.932 151.402 37.828C151.228 37.8107 151.142 37.6633 151.142 37.386C151.142 37.282 151.159 37.1433 151.194 36.97C151.419 36.9873 151.67 37.0047 151.948 37.022C152.242 37.0393 152.528 37.0567 152.806 37.074C153.1 37.074 153.378 37.0827 153.638 37.1C153.898 37.1 154.106 37.1 154.262 37.1C154.574 37.1 154.816 37.1173 154.99 37.152C155.163 37.1693 155.302 37.1953 155.406 37.23C155.51 37.2647 155.579 37.3167 155.614 37.386C155.666 37.4553 155.709 37.5247 155.744 37.594L161.308 50.568L166.586 37.594ZM184.405 52.18C184.405 52.5267 184.526 52.7693 184.769 52.908C185.011 53.0293 185.462 53.1593 186.121 53.298C186.294 53.3327 186.381 53.4713 186.381 53.714C186.381 53.818 186.363 53.9567 186.329 54.13C185.791 54.0953 185.254 54.0607 184.717 54.026C184.179 54.0087 183.668 54 183.183 54C182.715 54 182.195 54.0087 181.623 54.026C181.068 54.0607 180.539 54.0953 180.037 54.13C180.002 53.9567 179.985 53.818 179.985 53.714C179.985 53.4713 180.071 53.3327 180.245 53.298C180.903 53.1767 181.354 53.0467 181.597 52.908C181.839 52.7693 181.961 52.5267 181.961 52.18V38.946C181.961 38.5993 181.839 38.3567 181.597 38.218C181.354 38.062 180.903 37.932 180.245 37.828C180.141 37.8107 180.071 37.7587 180.037 37.672C180.002 37.5853 179.985 37.49 179.985 37.386C179.985 37.282 180.002 37.1433 180.037 36.97C180.557 37.0047 181.094 37.0393 181.649 37.074C182.221 37.0913 182.732 37.1 183.183 37.1C183.616 37.1 184.11 37.0913 184.665 37.074C185.237 37.0393 185.791 37.0047 186.329 36.97C186.363 37.1433 186.381 37.282 186.381 37.386C186.381 37.646 186.294 37.7933 186.121 37.828C185.462 37.932 185.011 38.062 184.769 38.218C184.526 38.3567 184.405 38.5993 184.405 38.946V52.18ZM193.605 46.668V51.998C193.605 52.3967 193.796 52.6827 194.177 52.856C194.559 53.012 195.131 53.142 195.893 53.246C196.101 53.2807 196.205 53.428 196.205 53.688C196.205 53.8093 196.188 53.9567 196.153 54.13C195.651 54.0953 195.079 54.0607 194.437 54.026C193.796 54.0087 193.103 54 192.357 54C191.907 54 191.395 54.0087 190.823 54.026C190.251 54.0607 189.714 54.0953 189.211 54.13C189.177 53.9567 189.159 53.818 189.159 53.714C189.159 53.4713 189.246 53.3327 189.419 53.298C190.113 53.1593 190.572 53.0293 190.797 52.908C191.04 52.7693 191.161 52.5267 191.161 52.18V38.946C191.161 38.5993 191.023 38.348 190.745 38.192C190.485 38.036 190.009 37.9147 189.315 37.828C189.142 37.7933 189.055 37.6373 189.055 37.36C189.055 37.2387 189.073 37.1087 189.107 36.97C189.593 37.0047 190.104 37.0393 190.641 37.074C191.196 37.0913 191.716 37.1 192.201 37.1H195.867C197.739 37.1 199.143 37.542 200.079 38.426C201.015 39.31 201.483 40.454 201.483 41.858C201.483 42.4127 201.353 42.976 201.093 43.548C200.851 44.12 200.487 44.64 200.001 45.108C199.533 45.5587 198.944 45.9313 198.233 46.226C197.54 46.5207 196.751 46.668 195.867 46.668H193.605ZM194.983 45.602C196.197 45.602 197.133 45.3333 197.791 44.796C198.45 44.2587 198.779 43.3487 198.779 42.066C198.779 41.5287 198.719 41.026 198.597 40.558C198.476 40.09 198.268 39.6827 197.973 39.336C197.679 38.972 197.289 38.686 196.803 38.478C196.318 38.27 195.711 38.166 194.983 38.166H193.605V45.602H194.983ZM214.915 41.182C214.742 41.2167 214.612 41.234 214.525 41.234C214.3 41.234 214.135 41.1907 214.031 41.104C213.927 41.0173 213.849 40.922 213.797 40.818C213.347 39.83 212.809 39.1107 212.185 38.66C211.561 38.2093 210.712 37.984 209.637 37.984C209.221 37.984 208.823 38.0447 208.441 38.166C208.077 38.27 207.757 38.4347 207.479 38.66C207.202 38.868 206.977 39.128 206.803 39.44C206.647 39.752 206.569 40.0987 206.569 40.48C206.569 41.2947 206.907 41.962 207.583 42.482C208.277 43.002 209.291 43.5307 210.625 44.068C212.289 44.7267 213.511 45.4633 214.291 46.278C215.089 47.0753 215.487 48.0633 215.487 49.242C215.487 49.9527 215.375 50.62 215.149 51.244C214.941 51.8507 214.603 52.388 214.135 52.856C213.685 53.3067 213.095 53.662 212.367 53.922C211.639 54.182 210.764 54.312 209.741 54.312C208.667 54.312 207.687 54.1993 206.803 53.974C205.937 53.7487 205.2 53.454 204.593 53.09C204.541 52.362 204.463 51.66 204.359 50.984C204.255 50.308 204.134 49.632 203.995 48.956C204.117 48.904 204.264 48.878 204.437 48.878C204.645 48.878 204.801 48.93 204.905 49.034C205.027 49.1207 205.131 49.268 205.217 49.476C205.651 50.724 206.205 51.6427 206.881 52.232C207.575 52.8213 208.537 53.116 209.767 53.116C210.322 53.116 210.807 53.038 211.223 52.882C211.639 52.726 211.986 52.5093 212.263 52.232C212.541 51.9547 212.749 51.6427 212.887 51.296C213.026 50.9493 213.095 50.5767 213.095 50.178C213.095 49.2767 212.783 48.566 212.159 48.046C211.553 47.526 210.677 47.058 209.533 46.642C208.788 46.3647 208.112 46.0787 207.505 45.784C206.899 45.472 206.379 45.1167 205.945 44.718C205.512 44.3193 205.174 43.86 204.931 43.34C204.706 42.8027 204.593 42.17 204.593 41.442C204.593 40.8007 204.706 40.2027 204.931 39.648C205.174 39.076 205.512 38.582 205.945 38.166C206.396 37.75 206.933 37.4207 207.557 37.178C208.181 36.9353 208.883 36.814 209.663 36.814C210.478 36.814 211.258 36.892 212.003 37.048C212.749 37.204 213.589 37.464 214.525 37.828C214.56 38.348 214.603 38.9113 214.655 39.518C214.725 40.1073 214.811 40.662 214.915 41.182ZM234.097 47.682C234.097 48.67 233.984 49.5713 233.759 50.386C233.534 51.1833 233.152 51.8767 232.615 52.466C232.095 53.0553 231.402 53.5147 230.535 53.844C229.668 54.156 228.585 54.312 227.285 54.312C225.794 54.312 224.59 54.13 223.671 53.766C222.752 53.3847 222.042 52.8907 221.539 52.284C221.054 51.6773 220.724 50.984 220.551 50.204C220.395 49.4067 220.317 48.6007 220.317 47.786V38.946C220.317 38.5993 220.196 38.348 219.953 38.192C219.71 38.036 219.251 37.9147 218.575 37.828C218.402 37.8107 218.315 37.6633 218.315 37.386C218.315 37.282 218.332 37.1433 218.367 36.97C218.887 37.0047 219.416 37.0393 219.953 37.074C220.508 37.0913 221.036 37.1 221.539 37.1C221.99 37.1 222.518 37.0913 223.125 37.074C223.732 37.0393 224.295 37.0047 224.815 36.97C224.85 37.1433 224.867 37.282 224.867 37.386C224.867 37.6633 224.78 37.8107 224.607 37.828C223.948 37.9147 223.472 38.036 223.177 38.192C222.9 38.348 222.761 38.5993 222.761 38.946V47.214C222.761 49.0167 223.116 50.4033 223.827 51.374C224.555 52.3273 225.777 52.804 227.493 52.804C228.464 52.804 229.287 52.7 229.963 52.492C230.639 52.2667 231.194 51.9287 231.627 51.478C232.06 51.0273 232.372 50.4467 232.563 49.736C232.754 49.008 232.849 48.1413 232.849 47.136V38.946C232.849 38.5993 232.719 38.348 232.459 38.192C232.199 38.036 231.731 37.9147 231.055 37.828C230.864 37.8107 230.769 37.6633 230.769 37.386C230.769 37.282 230.786 37.1433 230.821 36.97C231.324 37.0047 231.809 37.0393 232.277 37.074C232.762 37.0913 233.178 37.1 233.525 37.1C233.941 37.1 234.357 37.0913 234.773 37.074C235.206 37.0393 235.631 37.0047 236.047 36.97C236.082 37.1433 236.099 37.282 236.099 37.386C236.099 37.4727 236.073 37.568 236.021 37.672C235.969 37.7587 235.9 37.8107 235.813 37.828C235.172 37.8973 234.721 38.0187 234.461 38.192C234.218 38.348 234.097 38.5993 234.097 38.946V47.682ZM254.448 37.594C254.483 37.5247 254.518 37.4553 254.552 37.386C254.604 37.3167 254.682 37.2647 254.786 37.23C254.89 37.1953 255.029 37.1693 255.202 37.152C255.376 37.1173 255.618 37.1 255.93 37.1C256.069 37.1 256.251 37.1 256.476 37.1C256.702 37.0827 256.944 37.074 257.204 37.074C257.464 37.0567 257.724 37.0393 257.984 37.022C258.262 37.0047 258.513 36.9873 258.738 36.97C258.773 37.1433 258.79 37.282 258.79 37.386C258.79 37.6633 258.704 37.8107 258.53 37.828C257.906 37.9147 257.49 38.036 257.282 38.192C257.074 38.3307 256.97 38.5213 256.97 38.764C256.97 38.7813 256.979 39.0153 256.996 39.466C257.031 39.8993 257.074 40.636 257.126 41.676C257.178 42.6987 257.239 44.068 257.308 45.784C257.395 47.5 257.49 49.632 257.594 52.18C257.612 52.5093 257.724 52.752 257.932 52.908C258.14 53.064 258.565 53.194 259.206 53.298C259.293 53.3153 259.354 53.3673 259.388 53.454C259.44 53.5233 259.466 53.61 259.466 53.714C259.466 53.818 259.449 53.9567 259.414 54.13C258.808 54.0953 258.253 54.0607 257.75 54.026C257.265 54.0087 256.814 54 256.398 54C256.225 54 256.008 54 255.748 54C255.488 54.0173 255.211 54.026 254.916 54.026C254.639 54.0433 254.362 54.0607 254.084 54.078C253.807 54.0953 253.564 54.1127 253.356 54.13C253.322 53.9567 253.304 53.818 253.304 53.714C253.304 53.4367 253.391 53.298 253.564 53.298C254.258 53.1593 254.726 53.0207 254.968 52.882C255.228 52.7433 255.358 52.5093 255.358 52.18C255.358 52.128 255.341 51.8073 255.306 51.218C255.289 50.6287 255.254 49.9093 255.202 49.06C255.168 48.2107 255.124 47.292 255.072 46.304C255.038 45.316 254.994 44.3887 254.942 43.522C254.908 42.638 254.873 41.884 254.838 41.26C254.804 40.6187 254.786 40.2287 254.786 40.09L249.092 53.844C249.023 54 248.954 54.1127 248.884 54.182C248.832 54.2687 248.754 54.312 248.65 54.312C248.529 54.312 248.451 54.3033 248.416 54.286L242.046 39.674C242.029 39.8473 242.003 40.272 241.968 40.948C241.951 41.6067 241.916 42.3953 241.864 43.314C241.83 44.2327 241.786 45.2033 241.734 46.226C241.682 47.2487 241.63 48.1933 241.578 49.06C241.544 49.9267 241.509 50.6547 241.474 51.244C241.457 51.8333 241.448 52.1453 241.448 52.18C241.448 52.7173 242.038 53.09 243.216 53.298C243.39 53.3153 243.476 53.454 243.476 53.714C243.476 53.818 243.459 53.9567 243.424 54.13C242.956 54.0953 242.497 54.0607 242.046 54.026C241.596 54.0087 241.197 54 240.85 54C240.573 54 240.2 54.0087 239.732 54.026C239.264 54.0607 238.822 54.0953 238.406 54.13C238.372 53.9567 238.354 53.818 238.354 53.714C238.354 53.4713 238.441 53.3327 238.614 53.298C239.082 53.2113 239.455 53.09 239.732 52.934C240.027 52.7607 240.192 52.5093 240.226 52.18C240.226 52.024 240.244 51.5907 240.278 50.88C240.313 50.152 240.348 49.294 240.382 48.306C240.434 47.318 240.486 46.2693 240.538 45.16C240.59 44.0507 240.634 43.028 240.668 42.092C240.72 41.1387 240.755 40.3587 240.772 39.752C240.807 39.128 240.824 38.8073 240.824 38.79C240.824 38.5127 240.712 38.3133 240.486 38.192C240.278 38.0533 239.871 37.932 239.264 37.828C239.091 37.8107 239.004 37.6633 239.004 37.386C239.004 37.282 239.022 37.1433 239.056 36.97C239.282 36.9873 239.533 37.0047 239.81 37.022C240.105 37.0393 240.391 37.0567 240.668 37.074C240.963 37.074 241.24 37.0827 241.5 37.1C241.76 37.1 241.968 37.1 242.124 37.1C242.436 37.1 242.679 37.1173 242.852 37.152C243.026 37.1693 243.164 37.1953 243.268 37.23C243.372 37.2647 243.442 37.3167 243.476 37.386C243.528 37.4553 243.572 37.5247 243.606 37.594L249.17 50.568L254.448 37.594Z" fill="white"/>
</svg>
